<?xml version="1.0" standalone="no"?>
<!DOCTYPE svg PUBLIC "-//W3C//DTD SVG 1.1//EN" "http://www.w3.org/Graphics/SVG/1.1/DTD/svg11.dtd" >
<svg xmlns="http://www.w3.org/2000/svg" xmlns:xlink="http://www.w3.org/1999/xlink" version="1.1">
<metadata>
Created by FontForge 20190801 at Mon Feb 22 11:39:55 2016
 By Jimmy Wärting
Copyright (c) 2016 by Set Sail Studios. All rights reserved.
</metadata>
<defs>
<font id="Bayshore" horiz-adv-x="222" >
  <font-face 
    font-family="Bayshore"
    font-weight="400"
    font-stretch="normal"
    units-per-em="1000"
    panose-1="0 0 0 0 0 0 0 0 0 0"
    ascent="800"
    descent="-200"
    x-height="177.5"
    cap-height="472"
    bbox="-476.4 -522.333 2150.12 687"
    underline-thickness="50"
    underline-position="-100"
    unicode-range="U+000D-2212"
  />
<missing-glyph horiz-adv-x="270" 
 />
    <glyph glyph-name=".notdef" horiz-adv-x="270" 
 />
    <glyph glyph-name="NULL" horiz-adv-x="0" 
 />
    <glyph glyph-name="NULL" horiz-adv-x="0" 
 />
    <glyph glyph-name="nonmarkingreturn" unicode="&#xd;" horiz-adv-x="270" 
 />
    <glyph glyph-name="space" unicode=" " horiz-adv-x="270" 
 />
    <glyph glyph-name="e" unicode="e" horiz-adv-x="225" 
d="M7 72q-8 -4 -18.5 -5t-19.5 3l-2 -2q-4 -8 -5 -13q-1 -1 -1 -3q0 -1 -0.5 -1.5t-0.5 -1.5l-1 -4q0 -5 0.5 -10t5.5 -10q4 -2 6 -2h9q18 2 32 6t30 11q37 17 72 38.5t76 49.5q8 6 17.5 12t17.5 12q4 2 9 5t10 5q2 1 7 1h1q-1 0 -0.5 -0.5t1.5 -0.5h2l4 -1l2 -2l2 -2l1 -1
q1 -4 0 -7l-2 -3l-3 -3l-13 -10l-4 -3l-32 -22q-22 -15 -47 -31.5t-54 -31.5q-20 -11 -43 -21.5t-44 -15.5q-24 -6 -48 -5q-14 2 -26.5 10t-17.5 22q-3 14 2.5 28.5t12.5 25.5q18 27 42 50q10 10 22.5 20t26.5 18q12 7 29.5 11.5t31.5 -5.5q12 -10 8.5 -23t-11.5 -24
q-14 -19 -38 -37q-11 -8 -23.5 -15t-25.5 -12zM-21 87q-2 -2 8.5 1.5t25.5 12t32 22.5t29 33q1 1 2 4t1 10q-12 -3 -28 -14q-5 -3 -8 -6t-7 -6q-1 -1 -1.5 -1t-1.5 -1l-2 -2q-12 -11 -23.5 -22t-21.5 -24z" />
    <glyph glyph-name="f" unicode="f" horiz-adv-x="227" 
d="M238 162q7 3 16.5 -2t7.5 -13q0 -5 -6 -9q-10 -7 -21 -4q-42 -14 -82 -20q-13 -1 -26.5 -2t-27.5 0q-1 -5 -1.5 -10t-1.5 -10q-2 -13 -6 -25t-9 -25q-14 -37 -31.5 -72t-37.5 -69q-18 -31 -38 -61t-41 -59q-8 -10 -15.5 -20t-15.5 -20q-5 -5 -9.5 -11t-10.5 -9
q-9 -4 -19 1q-10 4 -9 13q15 49 29.5 98t31.5 97q24 72 53 141.5t66 135.5q36 67 82 129q25 34 49 64q7 8 13.5 16t14.5 16l15 17l7 7q4 5 11 7q6 2 13 -1t9 -10q1 -3 -0.5 -6.5t-3.5 -6.5q-2 -2 -5 -2l-8 -9l-18 -21q-18 -20 -33 -39q-16 -20 -30.5 -40t-28.5 -40
q-42 -63 -75.5 -129t-61.5 -136q-21 -54 -39.5 -108.5t-35.5 -110.5q17 23 32.5 45.5t29.5 45.5q20 33 38.5 67.5t32.5 70.5q6 14 11 28.5t9 28.5q2 8 4 20q0 2 0.5 2.5t0.5 2.5v1v1v1q-7 3 -13.5 6t-11.5 8q-4 2 -5 7t4 8q14 8 31 5t24 -18h3h1h2h4h13l27 3h2q1 0 0.5 0.5
t-1.5 0.5h4q3 1 7 1l14 3q7 2 13 3.5t12 3.5q11 3 21 6t20 7zM65 134v1v-1z" />
    <glyph glyph-name="g" unicode="g" horiz-adv-x="218" 
d="M841 -39q10 -3 22.5 -8t22 -12.5t15 -18t1.5 -23.5q-2 -6 -8 -7t-12.5 1t-11.5 6t-3 10q1 5 0 11q0 2 -1 3v1h-1q0 1 -2 2.5t0 0.5l-1 1h-1q-6 4 -9 5q-1 1 -3 1q0 1 -1 1q-2 1 -2.5 1t-2.5 1t-5 1.5t-5 1.5q-27 6 -52.5 9.5t-54.5 5.5q-96 7 -193 0q-21 -2 -42 -3.5
t-42 -3.5q-23 -2 -44.5 -5t-43.5 -6q-89 -13 -177.5 -31.5t-176.5 -40.5q-1 -1 -3 -1q0 -1 -1 -2q0 -1 -1 -2q-7 -14 -14 -26.5t-14 -25.5q-14 -24 -28.5 -48t-31.5 -47q-14 -20 -31 -37t-40 -26q-17 -7 -36 -6t-34 12q-13 9 -17.5 23.5t-2.5 30.5q3 17 10.5 32.5t17.5 29.5
q17 25 45 47q26 20 56.5 33.5t62.5 23.5l33 9q3 6 6.5 12t6.5 12v1q8 16 17 33.5t26 49.5q6 11 11.5 22t11.5 22l2 4q-2 -2 -2.5 -3t-2.5 -2q-10 -10 -20 -18.5t-21 -16.5q-11 -7 -22 -10t-24 1q-11 2 -19.5 10t-10.5 20q-1 11 2 21t8 20q5 12 11.5 23.5t14.5 22.5
q11 17 24 33.5t29 30.5q10 8 21.5 15.5t25.5 5.5q7 -1 14 -5t9 -11q2 -10 1 -15t-2.5 -8t-3.5 -8q-2 -2 -6.5 -2.5t-6.5 0.5l-6 4t-3 5q-1 5 -1 14v1q-4 -2 -7 -4.5t-6 -4.5l-3 -3l-3 -3q-3 -2 -7 -6q-2 -3 -7 -8q-5 -6 -9.5 -11.5t-8.5 -11.5q-8 -11 -15 -21t-13 -21
q-2 -2 -2 -4h-1v-1q-1 -2 -1.5 -2.5t-1.5 -2.5q-2 -3 -2.5 -5.5t-2.5 -5.5l-4 -10t-3 -11q-1 -1 -1 -5q-1 -1 -1 -2.5t0 -0.5v-7v-2q0 -1 1 -1q0 -5 6 -2.5t8 4.5q11 6 19 13l2 2q1 0 3 2q2 1 2.5 2t2.5 2l10 10q20 20 40 43q8 9 16 18.5t16 18.5l16 16l16 16q4 7 9 12.5
t13 7.5q12 2 19 -4q3 -2 5 -6t-1 -8q-5 -5 -9 -8.5t-9 -8.5q-2 -5 -4.5 -8.5t-4.5 -7.5q-4 -6 -7 -11.5t-7 -11.5q-6 -10 -12 -19.5t-12 -20.5l-2 -4l-2 -4q-1 0 -1.5 -1t1.5 1q-1 0 -1 -2q-2 -2 -2 -4q-2 -4 -4.5 -8t-4.5 -8q-4 -7 -7.5 -13.5t-6.5 -13.5q-11 -21 -21 -43
t-21 -43q-4 -7 -7 -13.5t-7 -13.5q46 11 92 21.5t93 19.5q44 8 87 15.5t88 13.5q87 10 176 15q50 3 99 2t98 -7q22 -2 44 -5t43 -10zM-193 -334h2q1 1 3 1q3 0 7 2q2 1 3.5 1t3.5 2q11 6 18 11q1 1 1.5 1t1.5 1h1v1q8 6 14 13t12 15q17 21 31 43.5t28 45.5q8 13 14.5 25.5
t14.5 25.5q-2 0 -3 -1q-31 -8 -60 -23q-29 -14 -53 -33.5t-41 -47.5q-8 -12 -14.5 -28t-5.5 -30q0 -5 1 -7v-2q0 -1 1 -2q1 -2 1 -3t1 -3h1q0 -1 1 -2l2 -2q2 -2 4 -3h2l1 -1h2h1h4z" />
    <glyph glyph-name="h" unicode="h" horiz-adv-x="305" 
d="M327 165q3 3 8 2t9 -3.5t5.5 -6.5t-2.5 -7q1 1 0 0t-2 -1l-2 -2q-1 -1 -2 -1.5t-2 -2.5q-4 -2 -7 -5t-6 -5q-13 -11 -26 -20l-30 -22l-30 -22l-48 -31q-14 -9 -28.5 -17.5t-29.5 -14.5q-11 -5 -23.5 -6.5t-23.5 4.5q-16 10 -13 31q2 9 5.5 18t7.5 17l21 42q5 10 10 19.5
t9 19.5q1 1 1 2q-12 -8 -21.5 -16.5t-20.5 -19.5q-12 -12 -23 -24t-22 -25q-19 -22 -37 -44.5t-39 -42.5q-4 -5 -9.5 -4.5t-10.5 3.5q-3 2 -6 4.5t-2 7.5q8 31 21 59.5t27 57.5l57 111q22 42 45 81t51 77q5 6 9 11.5t9 12.5l16 22q9 11 20.5 21t27.5 8q5 -1 9 -3t6 -7
q1 0 1 -1q2 -4 0 -6l-7 -5q-4 -2 -7 0h-1l-3 -2l-5 -4l-6 -6q-6 -7 -11.5 -14t-10.5 -15l-24 -32q-18 -24 -32 -47q-25 -39 -46 -79t-42 -81q-11 -23 -23 -45.5t-23 -45.5q14 15 27 30.5t27 30.5q21 22 45 42q10 8 21 14t23 8q5 2 13 0t10 -9q2 -6 1 -13t-3 -13
q-2 -8 -5.5 -16t-7.5 -16q-11 -20 -21.5 -40t-17.5 -41l-3 -8v-4q0 -5 4.5 -3t8.5 4q1 1 2 1t1.5 0.5t2.5 0.5l6 4l15 7l28 18q12 8 24 15.5t24 15.5l59 43q12 8 24.5 16.5t23.5 17.5z" />
    <glyph glyph-name="i" unicode="i" 
d="M54 160l-4 -3l-11 -10q-13 -13 -24.5 -26.5t-21.5 -28.5q-11 -15 -18 -31q-5 -8 -9 -17t-6 -18q-2 -8 -2 -11q1 -4 7 -2l12 3q12 3 24 8l24 10l20 10q16 7 37 20q2 2 5 3t5 3l58 36q8 6 17 11.5t17 10.5q14 10 23.5 15.5t18.5 10.5q3 1 7.5 -0.5t8.5 -3.5t5.5 -5.5
t-1.5 -7.5q-5 -5 -12 -10t-15 -10q-18 -12 -25 -16t-9 -6q-25 -17 -51 -33t-59 -33q-9 -5 -21 -10.5t-22 -9.5q-9 -4 -23.5 -9.5t-30 -8.5t-29 0t-20.5 16q-5 11 -1 23q2 8 5.5 17t8.5 17q9 17 19 33.5t21 30.5q5 7 11 14t13 13l15 14l18 13q8 4 16 -1h-1q2 -2 4.5 -5.5
t1.5 -9.5zM66 211q-4 1 -7.5 4.5t-3.5 8.5q1 4 8 9q2 0 5 3l5 3l8 6l8 7q5 4 12 2t10 -5q2 -2 5 -6t-1 -8l-10 -8l-9 -7q-7 -5 -14 -8t-16 -1z" />
    <glyph glyph-name="j" unicode="j" horiz-adv-x="101" 
d="M59 208q-3 -4 -8.5 -4t-11 2.5t-8 6.5t0.5 9t7.5 8t9.5 6q2 2 5 3.5t5 3.5q3 1 3 3q4 4 10 5t12 -3q4 -2 8 -6t0 -9q-4 -4 -8.5 -7t-9.5 -7q-2 -2 -5 -3.5t-5 -3.5l-2 -2q-1 0 -3 -2zM729 -36q11 -3 23.5 -8t22.5 -13t15 -18.5t2 -23.5q-2 -6 -8 -7t-13 1t-11.5 6.5
t-3.5 10.5q1 5 0 11q0 2 -1 3v1h-1q0 1 -2 2.5t0 0.5l-1 1h-1q-6 4 -9 5q-1 1 -3 1q0 1 -1 1q-2 1 -2.5 1t-2.5 1t-5 1.5t-5 1.5t-4 1t-4 1q-27 5 -49.5 8.5t-49.5 5.5q-48 4 -96 4.5t-97 -2.5q-21 -2 -42 -3.5t-42 -3.5q-23 -2 -44.5 -4.5t-43.5 -5.5q-89 -12 -176.5 -30
t-175.5 -39q-1 -1 -3 -1q-7 -14 -14 -27.5t-15 -27.5l-28 -48t-30 -47q-14 -20 -30.5 -36.5t-39.5 -25.5q-17 -7 -36 -6t-34 12q-13 10 -18 24.5t-3 30.5q6 34 27 61q18 27 44 47t56 33t62 23l16 4l16 4q1 1 3 1q2 4 4 7.5t4 7.5q34 64 67.5 129.5t70.5 129.5q2 5 9 4t11 -3
q5 -2 7.5 -6t-0.5 -9q-17 -30 -33 -60t-32 -59q-17 -33 -34 -65.5t-34 -65.5q3 0 4 1q88 21 180 39q44 8 87 15t87 12t87.5 8t88.5 5q99 6 197 -6l44 -6t43 -10zM-175 -186q8 13 14.5 25.5t13.5 25.5q-2 0 -3 -1q-30 -9 -59 -23t-52.5 -33t-40.5 -47q-7 -12 -13.5 -28
t-5.5 -30q0 -5 1 -7q0 -1 1 -2q0 -1 1 -2q1 -2 1 -3t1 -3h1q0 -1 1 -2l2 -2l1 -1q1 0 2 -1t3 -1l1 -1h2h1h4h2q1 1 3 1q3 0 7 2q2 1 3.5 1t3.5 2q5 2 9.5 5t7.5 6q1 1 1.5 1t1.5 1h1v1q8 6 14 13t12 15q16 20 30 42.5t27 45.5z" />
    <glyph glyph-name="k" unicode="k" horiz-adv-x="317" 
d="M339 155q3 -2 7 -6t-1 -9q-31 -29 -65 -53.5t-71 -46.5q-12 -8 -24.5 -14t-26.5 -12q-18 -8 -37.5 -15.5t-39.5 -10.5q-17 -2 -34.5 1t-30.5 17q-4 4 -7.5 10.5t-5.5 11.5l-6 21q-4 -4 -6 -7q-15 -16 -25 -34l-8 -16l-8 -16q-2 -5 -7.5 -6t-10.5 1q-4 2 -9 6t-3 9
q3 9 7 17t9 16q32 66 67.5 128.5t77.5 122.5q12 17 25 34t27 34q11 14 22 26.5t22 25.5l33 35q5 4 9 8t9 7t12.5 3.5t12.5 -4.5q2 -2 4 -6t-3 -7q-1 0 -2 -0.5t-3 -0.5h-1v-1l-3 -2q-4 -4 -7.5 -7t-6.5 -7l-27 -30q-20 -23 -39 -45.5t-36 -46.5q-27 -37 -51.5 -75.5
t-47.5 -78.5q8 8 16 15.5t17 13.5q12 9 25 14.5t27 5.5q14 -1 28 -9.5t11 -24.5q-1 -6 -4 -11.5t-7 -10.5l-19 -21q-11 -9 -22 -16t-24 -14q-12 -7 -25 -13t-27 -8q2 -6 3 -11.5t3 -10.5q11 -23 38 -20q20 2 38.5 9.5t36.5 15.5q13 6 25 13l24 14q33 20 64.5 43t59.5 49
q4 5 10 4.5t11 -4.5zM36 93q-3 -4 -6 -7.5t-7 -8.5l7 2q18 8 31 16q5 3 10.5 5.5t10.5 6.5l10 7l4 4l5 4q5 5 9.5 10t8.5 10l3 5q1 1 1.5 7.5t-10.5 4.5q-12 0 -26 -14q-6 -6 -10 -9t-9 -8q-17 -17 -32 -35z" />
    <glyph glyph-name="l" unicode="l" horiz-adv-x="195" 
d="M167 393q5 7 12 13q14 12 31 25l9 7l4 2q2 2 7 4t4 2q8 2 15.5 -2.5t12.5 -9.5q5 -8 1 -19t-9 -19v-1q-8 -15 -14.5 -24.5t-13.5 -20.5l-6 -9q-21 -29 -44.5 -58.5t-48.5 -55.5q-15 -16 -37 -36t-39 -35l-9 -8q-8 -7 -17 -14.5t-17 -12.5v1l-13 -28q-8 -17 -14.5 -34
t-8.5 -35q-1 -4 -1 -10v-4q-1 -4 8.5 -2.5t17.5 5.5q7 2 10 4t8 4q27 14 45 26t38 26q6 4 12 8.5t13 9.5q14 10 27 21l26 22q9 8 18.5 15.5t18.5 15.5q6 4 16.5 -2.5t5.5 -13.5q-8 -7 -16.5 -14.5t-16.5 -13.5l-18 -14q-5 -5 -11 -9t-11 -9l-15 -11q-19 -14 -38.5 -28
t-40.5 -28l-10 -6q-9 -5 -18 -10.5t-23 -10.5q-13 -5 -31.5 -9t-35.5 5q-4 3 -6.5 11.5t-1.5 16.5v4q1 4 1 6.5t1 6.5q3 17 9.5 34.5t13.5 33.5q18 40 41.5 79.5t47.5 74.5q21 29 45 60t49 57zM231 414l-11 -9q-24 -20 -46 -44.5t-41 -48.5q-24 -30 -46 -61t-42 -63l2 1
q16 14 32.5 30t31.5 33q30 34 49.5 59t39.5 55l9 12q5 6 11 15.5t10 16.5l2 4h-1z" />
    <glyph glyph-name="m" unicode="m" horiz-adv-x="383" 
d="M397 162q10 8 19 0t3 -16q-1 -1 -2.5 -2t-4.5 -4l-8 -6q-6 -5 -12 -8.5t-11 -8.5l-62 -42q-23 -14 -46.5 -28.5t-49.5 -25.5q-9 -5 -20 -8.5t-22 -5.5t-21 -1t-18 11q-6 7 -5.5 16.5t3.5 17.5q3 11 8.5 22t10.5 22q6 11 12 22.5t11 23.5q2 7 2.5 7.5t-0.5 -0.5
q-2 -2 -1 -0.5t-1 -0.5l-2 -2q-2 -1 -2.5 -2t-1.5 -2l-9 -8l-18 -21q-18 -21 -35.5 -42.5t-39.5 -38.5q-6 -5 -16 -1t-11 12q-2 16 4 31t14 29q3 6 6.5 12.5t5.5 12.5q-14 -11 -26.5 -23t-24.5 -25q-19 -20 -36 -42t-31 -46q-2 -3 -7.5 -3.5t-11 1.5t-9 5.5t-1.5 8.5
q20 50 48.5 96t57.5 91q2 3 6.5 3t6.5 -1q13 -3 13 -18q0 -6 -6 -6q-3 -2 -7.5 -9t-9.5 -15t-9.5 -15t-5.5 -10q9 9 20 17q21 18 42 29q6 3 15.5 0t10.5 -11q2 -16 -3.5 -30t-12.5 -28q7 9 14.5 18t15.5 17q7 9 16 18.5t19 17t21.5 12t24.5 3.5q5 -1 10.5 -4t6.5 -8
q0 -12 -5 -23.5t-10 -22.5q-8 -14 -15 -28.5t-14 -28.5q-2 -5 -4.5 -10.5t-4.5 -10.5l-3 -10q0 -1 -0.5 -2t-0.5 -2t-0.5 -2.5t0.5 0.5v-3q7 0 13.5 2.5t13.5 5.5q11 5 21.5 10.5t21.5 11.5q25 14 49 29t47 32l39 27l25 17v0z" />
    <glyph glyph-name="n" unicode="n" horiz-adv-x="289" 
d="M324 164q4 -1 7.5 -5.5t-0.5 -8.5q-17 -15 -34.5 -28t-36.5 -27q-43 -30 -94 -61q-11 -6 -20.5 -11.5t-20.5 -10.5q-18 -10 -36 -13q-23 -4 -36 16q-7 12 -4.5 25t7.5 25q5 14 13 26.5t16 26.5q3 6 6.5 12t5.5 14q-20 -11 -37 -27t-32 -32q-20 -22 -38 -45.5t-38 -46.5
q-1 0 -3 -2q-3 -5 -8.5 -4t-10.5 3q-3 1 -6.5 4t-1.5 7q14 32 30.5 60t35.5 55q7 10 11.5 20.5t12.5 21.5q5 9 12 19.5t19 10.5q5 0 10.5 -2t7.5 -7t-0.5 -8t-7.5 -3q1 0 -3 -2l-6 -8l-9 -19l-8 -18q17 17 37 31.5t43 21.5q5 2 13 -1t10 -10q1 -14 -4 -26.5t-11 -24.5
q-7 -13 -14.5 -25t-12.5 -26q-3 -7 -5 -12.5t-3 -13.5q-2 -8 1 -15q4 1 7 2t7 3l19 10l44 26q23 15 45.5 29.5t45.5 31.5l37 27q5 5 13 10l5 3q2 1 3 2t-1 -1q7 7 18 1z" />
    <glyph glyph-name="o" unicode="o" 
d="M246 171q3 2 8.5 1.5t10 -3.5t5.5 -6.5t-3 -7.5q-14 -11 -29.5 -19t-32.5 -15t-34 -12.5t-35 -9.5q-7 -1 -16 -2.5t-18 -2.5q-4 -5 -7.5 -10.5t-8.5 -10.5q-15 -20 -31 -37q-10 -11 -21 -20.5t-25 -14.5q-13 -5 -27 -7t-27 6t-16 22q-2 6 -1.5 12.5t2.5 12.5
q5 20 14.5 37.5t20.5 33.5q13 17 28 31t33 25q5 2 10.5 1t9.5 -4q6 -5 4 -11t-9 -6q-24 -20 -46 -48q-11 -14 -19.5 -29.5t-13.5 -32.5q-1 -3 -2 -6.5t-1 -7.5v-1v-3v-4q0 -4 3 -4.5t5 -0.5t2.5 0.5t2.5 0.5q1 0 3 1.5t0 -0.5l5 3q12 6 21 14t19 18q8 10 16.5 19.5
t16.5 20.5q2 3 4 5.5t4 4.5l-3 3q-8 9 -8 25q0 5 0.5 10t2.5 10q5 15 18 23q10 5 20.5 2.5t16.5 -11.5q8 -11 6.5 -22.5t-6.5 -22.5v-1h2q18 4 35.5 9.5t34.5 12.5l30 14q7 4 13.5 7t12.5 8zM92 160h-1h1z" />
    <glyph glyph-name="p" unicode="p" horiz-adv-x="324" 
d="M355 161q3 -2 6.5 -6t-0.5 -8q-23 -23 -47.5 -42.5t-50.5 -38.5q-26 -18 -53 -34.5t-56 -28.5q-25 -11 -52.5 -18.5t-54.5 -2.5q-5 1 -9.5 3t-6.5 7q-3 6 3 10q1 0 3 2l1 1l1 1l9 8l23 22q14 14 26.5 28t24.5 30l13 18l6 10q0 1 0.5 1t0.5 1l2 4q4 10 5 15q1 1 1 4v1v2
q0 2 -3 2h-2h-3q-3 0 -4 -1h-1q-4 0 -6 -1q-2 0 -6 -2q-2 0 -3 -1q-7 -3 -13 -6t-11 -8q-7 -5 -11.5 -8t-9.5 -9q-11 -9 -20 -20q-8 -10 -16 -19.5t-15 -20.5q-4 -5 -7.5 -10.5t-6.5 -10.5l-18 -27l-14 -21q-15 -39 -30.5 -77.5t-29.5 -76.5q-8 -19 -14.5 -37.5t-15.5 -36.5
q-8 -17 -18.5 -33t-24.5 -29q-6 -6 -15.5 -4t-13.5 10q-6 14 -5.5 28.5t3.5 28.5q7 31 23 63q7 15 15.5 29.5t16.5 28.5q12 19 24 37.5t25 37.5l35 52l2 6q8 20 16 40.5t16 40.5q7 17 13 35.5t9 36.5q-2 1 -4 5q-3 2 0 5l2 2v-1q1 2 5 4q1 0 2 0.5t2 0.5q6 1 14 -2
q2 -1 4.5 -3.5t2.5 -5.5q-1 -17 -4.5 -32.5t-8.5 -31.5q7 8 14 15t15 14q11 10 23.5 18.5t26.5 13.5q12 4 26.5 5.5t26.5 -3.5q9 -4 16.5 -10.5t7.5 -17.5q0 -9 -3.5 -17.5t-8.5 -16.5q-11 -20 -26.5 -38.5t-31.5 -35.5q-7 -8 -14.5 -15.5l-15.5 -15.5q10 2 14 4q8 2 16 5
l16 6q-2 -1 0 0t3 1q2 2 4 2l8 4l16 8q28 14 54 31t52 37q12 7 23 17l11 9l8 6q15 12 29 26q4 4 9 3.5t10 -2.5zM-102 -138q-12 -20 -22 -38q-8 -16 -15 -32t-12 -33q-1 -4 -1.5 -8t-1.5 -9q14 22 23 46t18 47z" />
    <glyph glyph-name="q" unicode="q" horiz-adv-x="187" 
d="M156 163q2 -2 4 -5.5t-1 -6.5q-4 -5 -8 -9l-9 -9l-6 -10l-24 -39l-47 -79q-12 -20 -23 -40.5t-22 -41.5q-13 -27 -25 -56q3 5 6.5 9t6.5 9q11 15 23 25q6 6 13 11.5t15 8.5q5 1 14.5 -3t3.5 -11q-4 -5 -8.5 -9t-9.5 -9q-10 -9 -19 -19q-23 -28 -41 -59.5t-34 -63.5
q-7 -15 -13.5 -30t-12.5 -30q-2 -5 -4 -10.5t-4 -10.5q-1 -2 -1.5 -5t-1.5 -5l-1 -1q-1 -5 -7.5 -5.5t-10.5 0.5q-7 2 -10 8q-1 2 -1 6q5 48 22.5 93t37.5 90q35 84 83 167l2 2q-1 0 -1 -0.5t-1 -0.5q-9 -9 -19 -17.5t-21 -16.5q-11 -7 -21.5 -10t-23.5 0q-11 3 -19.5 10.5
t-10.5 19.5q-1 10 2 20.5t7 19.5q5 12 11.5 23.5t14.5 22.5q11 17 24 33.5t29 30.5q10 8 21 15.5t25 6.5q7 -1 14 -4.5t9 -11.5q3 -6 1 -14q0 -7 -5 -14q-3 -6 -12.5 -4.5t-9.5 8.5v14v2h-1l-14 -10q0 -1 -1 -1t-1 -1q-3 -1 -4 -4l-6 -6l-4 -4l-4 -4l-18 -23
q-8 -10 -15 -20.5t-13 -21.5l-6 -10l-5 -10q-2 -5 -3.5 -10.5t-3.5 -10.5q-1 -2 -1 -6q-1 -1 -1 -2v-8q1 -1 1.5 -2.5t-0.5 0.5q0 -2 5 -4h1q8 0 16 6.5t13 11.5q-1 -1 0.5 0t1.5 2q1 0 3 2l4 4q6 4 10 10q11 10 21 21l20 22l32 36q8 9 15.5 16.5l15.5 15.5q5 8 10 13t13 7
q9 3 18 -4z" />
    <glyph glyph-name="r" unicode="r" horiz-adv-x="195" 
d="M21 167q4 2 9 1t10 -3q0 -1 1 -1l2 -1q3 -1 1 -7.5t-6 -14.5t-9 -17t-8 -14q20 14 41.5 28t45.5 27l6 3l9 4q11 5 21.5 8t21.5 5h1q3 0 7 1h9t6 -1q7 -2 13.5 -6.5t4.5 -14.5q-3 -6 -12 -5t-15 3q-2 0 -5 -0.5t-11 -2.5q-1 0 -3 -1l-9 -3q-17 -8 -30 -15l-10 -5l-19 -11
l-11 -7l-24 -14l-18 -14l-25 -24l-23 -21l-23 -26q-4 -7 -6.5 -10.5t-7.5 -11.5q-2 -4 -3 -5q-2 -3 -8.5 -2t-9.5 2q-4 2 -7.5 7t-1.5 8l12 18q7 11 11.5 17.5t7.5 11t5.5 9t5.5 10.5l6 12l21 38q5 13 12 26t15 19z" />
    <glyph glyph-name="s" unicode="s" horiz-adv-x="238" 
d="M267 155q6 -5 2 -12q-5 -6 -10 -10.5t-12 -10.5q-5 -5 -10.5 -9.5t-11.5 -9.5q-12 -9 -19.5 -15.5t-20.5 -15.5q-18 -13 -37 -25t-39 -23q-27 -14 -48 -22.5t-51 -13.5q-6 -1 -12.5 -1.5t-12.5 -0.5l-3 -9q-1 -5 -7 -11q-2 -3 -7 -3q-5 -2 -10.5 -0.5t-10.5 3.5
q-9 5 -18 16l-22 20q-5 6 -10 11.5t-10 11.5q-2 2 -4.5 5t-4.5 5q-3 3 -5 9q-1 1 -1 3q-2 3 1 5t5 3q6 2 14 0t10 -8q2 -2 2.5 -3t2.5 -3q4 -4 6 -7l2 -2l1 -1l4 -3l11 -8l4 -2q3 -2 9 -4l2 -1h1l4 -2l6 -1q8 29 15 56t19 54q12 26 31 48.5t48 32.5q7 2 14.5 -1t10.5 -9
q4 -8 -7 -12h1l-4 -2q-1 0 -2 -1t1 1l-7 -3l-12 -8q-1 -1 -3 -2.5t-6 -5.5l-9 -10l-15 -22l-3 -6l-3 -6l-6 -13l-10 -28q-5 -14 -9 -28.5t-8 -28.5q-1 -2 -1 -3.5t-1 -3.5q14 0 28 4t28 9t18.5 6.5t7.5 3.5q16 8 23.5 13t21.5 13q16 10 29.5 20t28.5 21l33 26q9 7 18.5 16
t19.5 16q5 3 10 2t10 -4z" />
    <glyph glyph-name="t" unicode="t" horiz-adv-x="277" 
d="M313 161q3 -2 5.5 -6.5t-1.5 -7.5q-16 -14 -35.5 -27t-36.5 -26q-18 -13 -36 -24.5t-38 -23.5q-27 -17 -54.5 -32t-56.5 -27q-20 -8 -43 -13t-43 6q-19 10 -20 29q-1 11 2.5 22.5t7.5 22.5q11 33 27 64t33 62q11 22 23 43t25 42h-19h-86.5t-85.5 -1q-42 0 -82.5 -0.5
t-82.5 -0.5q-31 0 -61.5 -0.5t-62.5 -0.5h-31h-4q-9 -1 -19.5 0.5t-13.5 12.5q-1 2 0.5 4t3.5 4t9 2h-2h1h3q24 1 48 1h49h15h33t69 0.5t123 1.5h171h19.5t19.5 1q2 5 5 9.5t6 9.5q2 4 4 7.5t4 7.5l6 11q5 8 10 16.5t10 16.5l24 36l14 18l7 8q3 5 12 6q10 0 15 -6
q4 -4 1 -11q-14 -17 -25 -35t-22 -35q-2 -5 -5.5 -9t-5.5 -8l-6 -12q-8 -16 -16 -28q0 -1 -1 -2q16 0 32 -0.5t33 -0.5h39.5t39.5 -2q5 -1 10 -3.5t7 -7.5q4 -10 -7 -12q-13 -2 -25 -6t-26 -6q-6 -1 -12 0.5t-10 6.5q-3 3 -3 7h-6h-86l-28 -50l-28 -50q-16 -31 -31.5 -62
t-26.5 -64l-4 -14t-3 -15v-1q0 -14 10 -12t18 4q11 3 21.5 7t22.5 10q61 29 119 66.5t111 79.5q5 4 12 2t11 -5z" />
    <glyph glyph-name="u" unicode="u" horiz-adv-x="336" 
d="M-29 13h1h-1zM368 163q3 -2 7.5 -6.5t-0.5 -8.5l-8 -8q-54 -51 -112 -90q-14 -10 -28.5 -18.5t-29.5 -15.5t-32 -12.5t-34 -3.5q-15 1 -26.5 10t-14.5 24q-2 10 0 19.5t5 19.5q-5 -5 -9.5 -8.5t-9.5 -8.5q-10 -9 -19.5 -18t-20.5 -17q-8 -6 -17 -12t-18 -11q-8 -5 -17 -8
t-19 -1q-11 2 -20 8t-11 17q-2 10 1 20.5t7 18.5q12 26 28 49q8 11 15.5 22.5t15.5 22.5q4 5 7 9t6 9l6 7q0 1 2 3q3 5 9 5.5t9 -0.5q5 -1 8.5 -2.5t5.5 -5.5q3 -5 -3 -9q0 -1 -1 -1l-2 -2l-3 -5l-9 -12q-5 -8 -11 -15.5t-11 -15.5l-24 -35q-1 -1 -4 -7l-5 -10l-9 -16
q-4 -9 -7 -20q0 -2 -0.5 -3.5t-0.5 -3.5q0 -3 1 -4q0 -2 5 -1q1 1 2.5 1.5t-0.5 -0.5q1 0 2 1l17 10l18 12l9 8v0l1 1l2 2l5 4q20 17 39 35.5t38 36.5l15.5 15.5t15.5 14.5q12 12 23 19q4 2 9.5 1.5t10 -2.5t7 -6t-0.5 -9q0 -1 1 0.5t-1 -1.5q0 -2 -2 -4l-3 -3
q-1 -1 -1.5 -1t1.5 2l-6 -6q-4 -4 -7 -8t-6 -9q-15 -19 -26 -43q-2 -6 -4.5 -12.5t-4.5 -12.5l-3 -15v-1v-4q0 -21 20 -15l7 2q9 2 15.5 5t14.5 7q32 16 57 34q30 21 57.5 43t53.5 48q5 5 11 4.5t11 -3.5z" />
    <glyph glyph-name="v" unicode="v" horiz-adv-x="266" 
d="M292 172q3 2 8 1t9 -3.5t5.5 -6t-2.5 -6.5q-3 -4 -7.5 -7t-9.5 -5l-24 -12q-17 -7 -33.5 -12.5t-33.5 -9.5q-10 -2 -19.5 -3t-19.5 -1q-17 0 -29 4q-5 -5 -10 -9.5t-10 -9.5q-14 -13 -28.5 -26t-29.5 -24q-17 -14 -35.5 -27.5t-36.5 -27.5q-4 -2 -9.5 -1.5t-9.5 2.5
q-3 2 -6 4.5t-3 6.5q2 23 8.5 44.5t15.5 41.5q5 11 9 20.5t8 20.5l9 22q2 5 3.5 10t4.5 10q2 3 7 3.5t10 -1t8 -5t2 -7.5q-2 -11 -5 -21l-4 -10l-4 -10q-4 -11 -8 -20.5t-9 -19.5q-10 -25 -17 -46q25 17 46 34q14 11 26.5 23t25.5 24q5 5 9.5 9t9.5 9q-5 13 -3 24
q2 12 8.5 22.5t14.5 19.5q8 8 18 14.5t23 8.5q5 0 12.5 -3t7.5 -10v-6.5t-1 -6.5q-3 -15 -11.5 -29t-18.5 -25q-2 -3 -5 -5.5t-5 -5.5h8.5t8.5 1q18 2 36 6.5t36 12.5q14 5 28 13q11 7 17.5 10t4.5 1z" />
    <glyph glyph-name="w" unicode="w" horiz-adv-x="402" 
d="M436 162q2 -3 3 -7t-2 -6q-18 -14 -38 -23q-12 -6 -24 -11t-24 -9q-18 -6 -36 -9.5t-38 -1.5q-5 1 -11.5 2t-11.5 3q-7 -8 -13.5 -16t-13.5 -16q-16 -17 -33 -32.5t-37 -27.5q-7 -5 -16 -8t-18 -3q-10 -2 -20.5 1.5t-17.5 11.5q-7 9 -7.5 19t1.5 21q2 10 4 15l-2 -2
q-11 -9 -22.5 -19.5t-22.5 -19.5q-28 -25 -57 -33q-8 -2 -15.5 1t-9.5 10q-3 11 -2 22t4 22q3 13 7 25t10 25l12.5 25t14.5 24q10 16 23 29q5 5 14 3q5 0 11.5 -6t1.5 -11q-7 -8 -13 -16l-12 -16q-7 -12 -12.5 -22.5t-10.5 -22.5q-5 -11 -9 -23t-7 -25q-2 -8 -2 -11
q-1 -1 -1 -3v-1q17 10 29 21l44 39q12 11 24 21.5t23 21.5q3 4 6.5 7t6.5 7l2 2q4 7 11.5 16.5t13.5 11.5q3 2 8.5 1.5t10 -3t7.5 -6.5t0 -8q-6 -8 -12.5 -15.5t-13.5 -15.5l-4 -7l-3 -3q1 1 0 -1t-2 -2l-3 -9q-5 -10 -9 -19t-7 -20q-2 -6 -4 -17q0 -2 -0.5 -4t-0.5 -4v-2
v-4q0 -5 1 -8q20 0 36.5 13t43.5 42q21 22 37 44q-1 2 -3 8q-3 11 1 23t11 21q8 11 18.5 18.5t24.5 7.5q5 1 11 -1.5t9 -7.5q2 -5 0.5 -10.5t-3.5 -10.5q-4 -8 -8 -15t-9 -15q-3 -5 -6 -9.5t-7 -9.5q2 -1 7 -1h4q1 0 2 -1q3 1 8 1q10 1 16.5 2t17.5 4l17 6l8 3q7 3 9 3
q16 8 29.5 15t28.5 15q5 3 11 2t11 -5zM262 168l-1 -2q1 1 1 2z" />
    <glyph glyph-name="x" unicode="x" horiz-adv-x="328" 
d="M95 14q-2 0 -2 1t2 -1zM331 151q3 2 9 1.5t11 -3t7 -6.5t-1 -9q-5 -6 -11 -11.5t-12 -10.5l-23 -19q-10 -9 -19.5 -17t-20.5 -16q-20 -15 -41 -28.5t-44 -24.5q-24 -11 -50.5 -17t-51.5 4q-13 5 -21.5 15.5t-14.5 21.5l-11 25q-13 -10 -26 -19.5t-27 -19.5
q-8 -6 -17 -11.5t-18 -10.5t-17 -8q-14 -6 -26 0l-6 4t-3 6q-1 3 1.5 5.5t5.5 3.5q2 0 2.5 0.5t2.5 0.5t2 1h1q1 0 2 1q4 2 7.5 4t6.5 4q19 11 34 22q17 11 33 23.5t32 24.5l-11 37v3q-1 1 -1 3l-2 6l-4 13q1 -2 0.5 -0.5t-0.5 2.5q-1 0 -1 2l-2 4q0 2 -0.5 3t-0.5 3
q-1 3 -0.5 1t-0.5 0q-2 5 1 8t8 3q12 2 19 -9q5 -10 8.5 -20.5t7.5 -21.5l5 -17q18 14 35.5 27.5t35.5 26.5q7 5 14.5 10t15.5 10t17.5 8t18.5 -1q3 -2 6 -3.5t5 -3.5q4 -8 -2 -12q-2 -1 -6 -1q-2 -1 -3.5 -1.5t-3.5 -1.5q5 2 2 1t-4 -2l-6 -3q-8 -5 -15 -10t-15 -10
q-20 -14 -39 -29t-39 -30q-2 -2 -3.5 -3t-3.5 -3l1 -5l5 -13q5 -15 10 -25q2 -4 4 -6q0 -1 0.5 -1t0.5 -1q2 -3 6 -7q-1 1 1 -0.5t3 -3.5q2 -1 4 -1.5t-3 1.5q4 -2 5 -2q7 -2 21 1t23 6l7 3h2l2 2q4 2 8 3.5t8 3.5q19 10 40 24q14 9 27 18.5t26 20.5l30 25l18 16q5 4 9.5 8
t9.5 8zM198 183q-1 0 -1 1zM90 18q1 0 1 -1z" />
    <glyph glyph-name="y" unicode="y" horiz-adv-x="231" 
d="M848 -50q10 -3 22 -8t22 -12.5t15 -18t1 -23.5q-2 -6 -8 -7t-12.5 1t-11 6t-2.5 10q1 5 0 11q0 1 -0.5 1.5t-0.5 1.5l-4 4q0 1 -1 1h-1q-5 3 -9 5t-9 4q-6 2 -10 3q-1 1 -5.5 1.5t-4.5 1.5h-1q-48 9 -96 12q-95 7 -192 0q-21 -2 -42.5 -3.5t-42.5 -3.5q-22 -2 -43.5 -5
t-44.5 -6q-88 -13 -176.5 -31.5t-176.5 -40.5q-1 -1 -3 -1q-14 -27 -31 -56l-28 -48t-31 -47q-15 -20 -32 -37t-40 -26q-17 -7 -35.5 -6t-33.5 12q-13 9 -18 23.5t-2 30.5q2 17 10 32.5t17 29.5q18 25 45 47q26 20 56.5 33.5t62.5 23.5q8 2 16.5 4.5t17.5 4.5l12 24l1 1
q9 21 19.5 41.5t21.5 40.5q5 11 9.5 20.5t9.5 20.5q-8 -6 -16.5 -12t-17.5 -11t-19.5 -8.5t-21.5 -1.5q-26 6 -31 32q-3 20 4 38q10 22 22 44q6 11 12.5 22.5t13.5 23.5q1 3 5 9l1 2q0 1 2 3q1 2 2 4.5t2 4.5q1 5 7 6t12.5 -0.5t10.5 -6t3 -9.5q-2 -4 -3.5 -7.5t-3.5 -6.5
l-8 -14l-8 -14q-8 -14 -16 -28.5t-16 -31.5q-2 -5 -3.5 -9.5t-3.5 -9.5q-2 -4 -2 -7v-1v-2q0 -10 1 -15q5 -1 11 1q11 3 25 17q5 4 9.5 8.5l9.5 9.5q11 11 20.5 21.5t19.5 21.5q8 10 16 19l16 18q8 8 15.5 16t15.5 16q5 7 10 12.5t13 7.5q11 2 18 -4q3 -2 5 -6t-1 -7
q-5 -5 -9 -8.5t-9 -8.5q-2 -5 -4 -7q-5 -9 -10.5 -17.5t-10.5 -17.5q-11 -17 -21 -35t-21 -35q-2 -2 -2.5 -4t-2.5 -4q-14 -29 -28.5 -59t-29.5 -59q-3 -7 -6.5 -13.5t-7.5 -13.5q47 11 92.5 21.5t92.5 19.5q44 8 87 15.5t88 13.5q88 10 177 15q49 3 98 2t99 -7q22 -2 44 -5
t43 -10zM-60 -208q7 13 14 25.5t14 25.5q-1 0 -2 -1q-34 -9 -60 -23q-29 -14 -53.5 -33.5t-41.5 -47.5q-7 -12 -14 -28t-6 -30q0 -2 0.5 -3.5t0.5 -3.5t1 -2v-2q1 -1 2 -4.5t3 -3.5q0 -1 1 -1l1 -1q0 -1 1 -1l1 -1h1q0 -1 1 -1h1q1 0 1 -1h2h2h3h3l1 1h1q2 0 8 2q4 1 6 3
q5 2 9.5 5t9.5 6q1 1 2 1.5t2 1.5q12 11 26 28q17 21 31 43.5t28 45.5z" />
    <glyph glyph-name="z" unicode="z" horiz-adv-x="336" 
d="M40 17l-2 1q-2 1 0 0t3 -1h-1zM352 158q7 -1 14.5 -4.5t1.5 -11.5q-11 -16 -26 -29q-33 -29 -70.5 -54t-79.5 -45q-18 -8 -38 -14t-43 -8q-20 -3 -42 -1q-15 2 -30 6t-29 12q-7 -5 -13.5 -8t-14.5 -4q-28 -6 -48 14l-2 4t0 4q11 20 30 21t36 -6l2 2l3 3l10 9q10 9 19 19
q8 9 15.5 16t17.5 16q11 11 22.5 21t23.5 21q3 2 5.5 3.5t4.5 3.5h-8t-9 1q-12 0 -23 1t-22 5q-2 1 -3 1t-3 1q-7 -3 -13 -9q-4 -3 -12 -5q-3 -1 -6 -1h-3q-3 2 -6 5q-6 6 0 14q1 2 4 5l5 5q3 3 5.5 7t5.5 6q4 5 12.5 3t13.5 -8q3 -3 3.5 -4t4.5 -3h1l22 -3h3h1h2h11
q13 -1 25 -0.5t24 2.5q3 1 7 1.5t7 1.5q2 2 5 2t6 2q14 2 21 -8q7 -7 -1.5 -11.5t-14.5 -4.5q-26 -8 -48.5 -28t-45.5 -39q-16 -16 -31.5 -32.5t-32.5 -31.5l4 -2l6 -3q1 -1 2 -1h1q0 -1 1 -1h2q15 -5 31 -5h6h6q23 0 45.5 7t46.5 19q32 14 64 35.5t61 47.5q8 7 14.5 13.5
t14.5 12.5q2 2 4 4.5t5 4.5q3 3 10 3zM-28 18q-3 -2 -1.5 -1t2.5 1l3 2h-1q-1 0 -1.5 -0.5t-1.5 -0.5q2 1 1 0.5t-2 -0.5l-2 -2h-1zM68 172h-1h2h-1zM70 172h-1h1z" />
    <glyph glyph-name="d" unicode="d" horiz-adv-x="309" 
d="M58 154q-1 1 -1 3v1q-2 -1 -6.5 -1.5t-9.5 -5.5q-9 -8 -17 -16.5t-16 -18.5q-20 -23 -34 -47q-8 -12 -12 -24q-2 -4 -4 -12q0 -2 -0.5 -3t-0.5 -2v-3v-1q-1 -4 1 -10q1 -2 3 -2q1 0 1.5 0.5t2.5 0.5q1 1 2 1l-1 -1q19 9 36 23t37 34q29 27 54.5 56t51.5 59q29 35 57.5 70
t54.5 73q10 16 23 32q4 6 7.5 11.5t7.5 11.5q8 13 12 22q3 5 4.5 9.5t3.5 9.5q1 2 1 7t-12 -7l-4 -4l-2 -2q-2 -2 -4 -3.5t-4 -3.5q-17 -17 -32 -35q-47 -54 -87 -119q-5 -9 -10.5 -18t-10.5 -19q-6 -9 -12 -21l-12 -24q-11 -24 -21 -49t-15 -51q0 -4 -1 -6v-3v-1v-10v-10
q0 -2 0.5 -2.5t0.5 -1.5t1 -2.5t0 0.5q0 -2 1 -4l2 -4l1 -2q-2 3 -1.5 2.5l1.5 -1.5q0 -1 3 -4l2 -1l2 -1h3h1h4q2 0 3 1q2 0 -0.5 -0.5t-0.5 -0.5q2 1 4 1q4 1 10 3q11 3 21 8t20 11q24 14 47 29.5t45 32.5q10 8 19 15l18 14l15 12q2 1 2.5 2t2.5 2l1 1l2 2t-1 -1l1 1
q7 6 18 0q3 -1 6.5 -5t-0.5 -8q-5 -4 -9.5 -8t-9.5 -9l-3 -3l-3 -3t0 0q-2 -2 -4.5 -3.5t-4.5 -3.5q-5 -3 -8.5 -6.5t-8.5 -6.5q-21 -17 -43.5 -33t-46.5 -30q-22 -15 -47 -25q-9 -4 -19 -6.5t-21 -3.5q-25 0 -41 16q-14 14 -14 34q-2 25 5 49t17 47q10 25 22 49t26 47
q8 13 15.5 25.5t15.5 24.5q11 17 23 33.5t25 32.5q14 19 30 37.5t34 33.5q7 6 14.5 11.5t16.5 8.5q9 2 19.5 0t16.5 -10q7 -8 5 -19t-6 -19q-5 -13 -12 -25t-15 -23q-35 -52 -73.5 -101t-79.5 -97q-29 -34 -59 -66.5t-64 -60.5q-14 -12 -31 -24.5t-36 -14.5q-9 -1 -18.5 2
t-14.5 10q-7 10 -7 21t4 22q10 26 29 52q8 11 16.5 21.5t17.5 20.5q10 11 21 20.5t25 15.5q5 2 13.5 3.5t16 0t11.5 -5.5t1 -13l-2 -4q-2 -5 -12 -6t-12 2z" />
    <glyph glyph-name="A" unicode="A" horiz-adv-x="790" 
d="M946 482q5 -12 1.5 -24.5t-8.5 -23.5q-8 -15 -17 -28.5t-19 -27.5t-19.5 -27.5t-18.5 -27.5q-13 -21 -26 -41.5t-27 -40.5q-27 -42 -54.5 -82t-53.5 -82l-52 -80l-18 -29l-15 -24l-9 -16q-3 -5 -6.5 -9.5t-6.5 -9.5q-2 -5 -9.5 -4t-11.5 3q-5 2 -7.5 6.5t0.5 9.5t5.5 11
t6.5 11l10 17l15 25l18 29q15 23 30 45t29 45l109 164q13 20 25 39.5t26 39.5l37 53q5 7 9.5 13.5t8.5 14.5q2 4 3.5 6t3.5 6l6 12l2 6t1 6q1 2 1 5v3q0 3 -1 5h1q-1 0 -1 1h-2h-5h-2h-2q-6 0 -12 -0.5t-12 -1.5q-4 -1 -1.5 0t-0.5 0q-1 0 -1.5 -0.5t-1.5 -0.5q-2 0 -3 -0.5
t-3 -0.5l-12 -3q-7 -2 -13 -4t-13 -4q-25 -8 -48.5 -19t-46.5 -24q-82 -43 -157.5 -94.5t-147.5 -108.5q-22 -18 -43 -36t-43 -36q24 1 48 1t48 1q48 1 94.5 0t93.5 -6q13 -2 17 -11q2 -4 0 -7.5t-6 -4.5q-13 -2 -26 -2.5t-26 4.5l-2 2q-44 2 -86.5 1.5t-87.5 -1.5
q-23 0 -46.5 -0.5t-47.5 -1.5q-41 -37 -80 -75t-77 -77q-30 -31 -59 -63l-58 -64l-50 -58q-8 -9 -14.5 -17t-14.5 -16q-4 -5 -8 -9.5t-9 -9.5q-6 -8 -13 -7q-3 1 -8.5 3.5t-3.5 7.5q1 2 5 4q3 3 3 5q4 4 10 12l16 21q8 10 15.5 19.5t15.5 18.5q54 67 112.5 130.5
t120.5 123.5q13 12 25.5 24.5t26.5 24.5l-99 -9q-17 -2 -33.5 -3.5t-33.5 -3.5q-36 -6 -76 -15q-2 -4 -7.5 -4.5t-10.5 1.5q-6 2 -12 7t-1 12q2 3 7 4t8 2q8 2 15.5 3.5t15.5 3.5q35 8 70.5 11.5t70.5 6.5q25 2 49.5 4t49.5 4q9 0 14 1q49 44 99 85.5t103 79.5
q76 55 156 102q36 20 72.5 39.5t74.5 33.5q19 7 37.5 11.5t38.5 6.5q8 0 18 0.5t19.5 -1.5t17 -7t11.5 -14zM-58 -270h1q-1 -1 -1 0z" />
    <glyph glyph-name="B" unicode="B" horiz-adv-x="628" 
d="M422 102h1h-1zM405 477q2 1 1 0h-1zM724 488q20 -12 35.5 -31.5t13.5 -45.5t-17 -47.5t-33 -39.5q-25 -23 -53 -42.5t-58 -36.5q-63 -36 -132 -60q-29 -11 -58.5 -20.5t-58.5 -19.5l-24 -8q20 -1 38 -2.5t36 -6.5q21 -5 42 -17.5t26 -35.5q2 -10 -0.5 -20.5t-7.5 -18.5
q-8 -15 -18.5 -28t-23.5 -25q-55 -52 -121.5 -89.5t-136.5 -64.5q-25 -9 -49.5 -17t-49.5 -15l-30 -7q-5 -1 -9.5 -2t-9.5 0q-10 0 -17 7q-5 5 -1 10q-3 2 -6 5.5t-1 7.5q14 38 33 74.5t42 71.5q46 71 99.5 135t105.5 130l40 50t41 50l29 34l10 12l10 12l13 16l6 8
q2 3 6.5 3.5t7.5 1.5q5 1 9.5 -1t6.5 -7q2 -9 -1 -13l-7 -8l-12 -15l-19 -23l-28 -33q-20 -25 -39.5 -49.5t-39.5 -49.5q-18 -23 -36 -44.5t-36 -44.5q5 2 9 4t9 4q8 4 17 7l18 6q21 8 41.5 14.5t41.5 13.5q29 10 58 19.5t58 21.5q65 26 127 65q26 17 50.5 35.5t44.5 44.5
q9 9 15 21q-2 -2 -1 -0.5t2 1.5q0 2 1 3t1 2t1 3t2 4.5t2 5.5l2 10v2v1v5q0 10 -4.5 22t-13.5 17q0 1 -1 2l-8 6q-1 0 -2 1t-2 1l-2 2l-10 5h-2q0 1 -1 1q-2 1 -3 1t-2 1l-12 4l-11 3q0 -1 -2 -0.5t-3 0.5l-7 2l-28 3q-4 1 -8 1h-8q-5 0 -7 1h-1h-2h-2h-32q-32 -1 -64 -4
t-64 -8l-30 -4q-2 0 -3 -1h-3q-2 -1 -6 -1l-13 -3q-22 -3 -47 -9q-13 -3 -26 -6.5t-26 -8.5l-30 -10l-16 -6l-12 -6q-28 -10 -53 -26l-11 -8l-4 -3q2 2 0 0.5t-2 -2.5q-4 -3 -7 -7l-3 -3v-1q-3 -5 -8.5 -6t-10.5 1q-4 1 -9 5t-3 9q4 8 9.5 14t12.5 11q8 6 16.5 11t17.5 10
q23 11 46 20t47 17t48.5 14t49.5 11q61 12 123 18q33 3 66 4t65 -1q27 -2 55.5 -7.5t52.5 -19.5zM340 114h-27l-27 -3q-4 0 -7 -0.5t-7 -0.5q3 0 1 -0.5t-3 -0.5t-2 -0.5t-2 -0.5l-10 -2h-2q-4 -2 -2 0h-1q-10 -5 -21 3l-3 3q-5 -6 -9 -11.5t-9 -11.5q-49 -61 -94.5 -126
t-74.5 -138v-4q-1 -2 -1 -3t-1 -3q11 2 20.5 4.5t20.5 6.5q13 4 25 7.5t25 8.5l29 10q4 2 7.5 3.5t7.5 3.5l8 3q3 1 0.5 0t0.5 0l4 2q68 29 130 68q17 11 32.5 22.5t30.5 23.5q15 13 29 26t25 28q8 11 12 21l3 10q2 4 1.5 8t-1.5 8v1q0 1 -0.5 1.5t-0.5 2.5l-3 3q2 -2 1 -1
t-1 2q-4 4 -5.5 5t-3.5 3q1 -1 -0.5 0t-2.5 2l-4 2q-7 2 -10 3.5t-7 2.5q-4 2 -7 2h-2q-1 0 -2 1q-4 0 -10 2l-26 3h-12h-2h-3h-7zM695 477q1 0 -2 1q2 0 2 -1zM711 469l-2 1z" />
    <glyph glyph-name="C" unicode="C" horiz-adv-x="555" 
d="M553 367q-5 -3 -11.5 -2t-11.5 5q-4 3 -5 8t4 7q2 1 -0.5 -0.5t-0.5 0.5l3 3q2 4 2 5l2 2q4 8 7.5 14.5t6.5 14.5l12 32t8 33v2v2v4q0 2 -0.5 3t-0.5 3q-1 1 -1 2q1 -2 0.5 -1t-0.5 2q-1 2 -2 5t-2 5q-1 1 -1.5 2t-1.5 2q-1 2 0.5 -0.5t0.5 -0.5l-2 2q-1 2 -3 4l-1 1
q-1 1 -1.5 1t-1.5 1q-3 2 -0.5 0.5t0.5 0.5q-1 0 -5 2q-2 1 1 -0.5t1 -0.5q-1 0 -1 0.5t-1 0.5t-1.5 0.5t-2.5 0.5q-3 1 0.5 0t-0.5 0q-4 0 -5 1h-1q-7 0 -10 -1h-5h-3q-2 -1 0.5 -0.5t0.5 0.5q-3 -1 -5.5 -1.5t-5.5 -1.5q-5 -2 -11 -3.5t-11 -3.5q-1 0 -7 -2l-2 -1
q-3 -2 -1 -0.5t0 0.5q-8 -4 -11 -6q-44 -20 -83.5 -47.5t-76.5 -57.5q-1 -1 -2.5 -2t0.5 1l-3 -3q-3 -2 -7 -6q-4 -3 -7.5 -6t-7.5 -7q-18 -15 -35 -32q-21 -20 -41 -41t-40 -44q-44 -49 -83 -103t-66 -114q-28 -58 -37 -118q-1 -8 -1.5 -14t-0.5 -14v-14t1 -14
q0 -5 0.5 -10t1.5 -10q1 -1 1 -3q0 -1 0.5 -1t0.5 -1q0 -2 -0.5 0.5t-0.5 0.5q2 -4 2 -6q2 -4 6 -10q-2 3 -0.5 1t2.5 -4l3 -3q-4 3 -2 1.5t4 -3.5q1 0 2 -1q2 -2 -1 0.5t0 0.5q1 -1 5 -3q2 -1 -1 0.5t-1 0.5q1 0 1.5 -0.5t1.5 -0.5q1 -1 5 -1q-6 1 -3.5 0.5t4.5 -1.5h7h-1
h3h6.5t6.5 1q3 0 4 1q-5 -1 -3 -1t3 1q2 0 3.5 0.5t3.5 0.5q8 2 15.5 4.5t15.5 5.5l9 3l4 2q2 1 -0.5 -0.5t-0.5 -0.5q1 1 2 1q5 2 9 4t9 4q19 9 37.5 19.5t37.5 21.5q42 26 81.5 53.5t78.5 56.5q37 27 72.5 54t71.5 54q14 10 27 19.5t27 18.5q5 3 10 6.5t10 5.5q6 3 12.5 6
t13.5 2h-7h1q5 2 11.5 0t10.5 -6q4 -5 2.5 -8.5t-6.5 -5.5q-1 0 -1 -0.5t-1 -0.5q2 1 2.5 1.5t2.5 1.5q-1 -2 -3 -2.5t-4 -1.5q-3 -2 -7 -4q-4 -3 -8 -5.5t-8 -4.5q-11 -7 -21.5 -14.5t-21.5 -15.5q-35 -25 -69 -51t-69 -52q-40 -29 -79.5 -57.5t-81.5 -54.5
q-35 -23 -71.5 -43t-76.5 -33q-28 -9 -60.5 -9t-54.5 24q-11 13 -15 28.5t-5 31.5q-2 30 2.5 60t14.5 59q20 64 55 121t77 109q36 45 75.5 86.5t82.5 79.5q33 29 69 56t74 50q23 14 46.5 25.5t49.5 18.5q21 6 45.5 5.5t42.5 -16.5q10 -8 15.5 -18t8.5 -21q3 -12 0.5 -24.5
t-6.5 -23.5q-9 -27 -21 -54q-2 -5 -5 -10.5t-6 -10.5q-2 -2 -4 -5t-5 -5z" />
    <glyph glyph-name="D" unicode="D" horiz-adv-x="584" 
d="M580 488q26 -16 41.5 -41.5t15.5 -55.5q0 -32 -11 -62t-28 -56q-18 -30 -41 -56t-48 -51q-25 -24 -50.5 -47t-53.5 -45q-61 -48 -127.5 -87.5t-135.5 -76.5q-23 -12 -45.5 -23.5t-45.5 -22.5q-32 -14 -63.5 -27.5t-63.5 -26.5q-5 -2 -11.5 0.5t-10.5 6.5q-4 7 0 11v4
q2 8 5.5 15.5t7.5 15.5l16 30q23 41 48.5 79.5t52.5 76.5q26 37 51 73.5t51 72.5q19 27 38.5 54t39.5 54l46 63q7 9 13.5 18t14.5 18l13 20q3 5 5 9.5t7 7.5q6 3 14 1t11 -8v-1l4 -3q3 -2 1 -4t-4 -3h-1q-1 -2 -1.5 -3.5t-2.5 -3.5q-2 -4 -4 -7.5t-4 -7.5l-21 -27
q-13 -17 -25 -34.5t-24 -34.5q-11 -14 -20.5 -27t-19.5 -27q-22 -29 -43 -59t-42 -59q-26 -38 -52.5 -76.5t-52.5 -76.5q-13 -20 -25.5 -39t-24.5 -39q-5 -10 -10.5 -19.5t-10.5 -19.5q-4 -8 -6 -13q23 11 46.5 21.5t46.5 21.5q26 12 50.5 25t48.5 26q38 20 74.5 41t71.5 44
q62 39 114 82l3 2l3 3l6 5l12 11q7 5 13 11t13 12q13 12 25.5 24t24.5 25q24 24 45.5 51t35.5 57q7 14 12.5 28t8.5 29q2 10 2 15q1 3 0.5 1t0.5 1v3v6q0 13 -3 27q0 3 -1 4l-1 1q0 2 -2 6q-1 6 -5 11l-2 4q-2 2 -0.5 0.5t-0.5 0.5l-4 5l-9 10q2 -2 0.5 -0.5l-2.5 2.5
q-1 0 -3 2q-1 2 -2 2.5t-3 2.5q-2 1 -3.5 2t-3.5 2q2 -2 1 -1t-2 1l-3 3l-17 8q-1 0 -2.5 1t0.5 -1l-4 2l-8 3l-20 6q-6 2 -9 2q-1 1 -4 1h-2q-1 0 -1.5 0.5t0.5 0.5q-20 5 -40 6q-21 3 -40.5 4t-40.5 1q-165 -1 -326 -48q-81 -22 -160 -59q-20 -9 -38.5 -18.5t-37.5 -20.5
l-36 -22q-5 -5 -11 -8.5t-11 -8.5l-2 -5q-2 -2 -5.5 -3t-5.5 -1q-8 -2 -15 4q-2 2 -4 5t-1 5q7 12 20 22q6 5 12.5 8.5t12.5 7.5q13 8 26 15.5t27 15.5q27 14 56 27t58 25q40 15 81 27.5t83 21.5q81 19 164 27q42 4 84.5 5t84.5 -2q40 -3 81 -12t76 -32zM335 432h1h-1z" />
    <glyph glyph-name="E" unicode="E" horiz-adv-x="579" 
d="M551 -38q19 0 41.5 -3t32.5 -22q3 -5 -1 -8.5t-9 -4.5q-14 0 -22 10h1h-1v1h-2h-1h-1q-2 1 -6 1q-2 0 -4 1h-2h-8q-5 0 -9.5 -0.5t-9.5 -0.5q-21 -1 -42.5 -2t-43.5 -3q-95 -10 -186.5 -34t-181.5 -58l-21 -8l-15 -6q-10 -5 -19.5 -9t-19.5 -7q-10 -4 -20 -6.5t-21 -3.5
q-10 -1 -22 0q-15 3 -21 17q-4 14 -1.5 27.5t7.5 25.5v2l3 6q4 11 9 20.5t10 18.5q71 130 157 247l1 2q-6 -1 -12.5 -1.5t-12.5 -1.5l-22 -2q-5 -1 -15 -1q-1 -2 -1.5 -2t-1.5 -1q-4 -1 -11 3q-2 2 -2.5 5t-1.5 5q-3 5 1 8.5t9 3.5q19 2 37 4t37 4q4 0 7.5 0.5t7.5 0.5
l70 95q13 17 25.5 33.5t24.5 33.5q7 9 13.5 18t12.5 18l14 19q2 2 3.5 5t3.5 5l1 1q0 1 1 2q1 5 6.5 6t11.5 -0.5t9.5 -5.5t2.5 -9q-2 -6 -6 -11.5t-8 -10.5q-35 -50 -71.5 -98.5t-71.5 -97.5q58 4 119 6q21 1 42.5 1.5t43.5 -0.5h41l42 -2q6 -1 14 -7.5t-1 -13.5l-9 -7
q-5 -3 -10.5 -2t-9.5 4q-2 1 -3.5 2.5t-11.5 1.5t-19.5 0.5t-19.5 0.5q-45 0 -88 -1t-87 -4q-16 -1 -31 -1.5t-31 -2.5q-7 -9 -13.5 -18.5t-13.5 -18.5q-22 -31 -42.5 -62t-40.5 -63q-8 -14 -17 -28t-17 -28l-17 -32v-1q-3 -5 -6 -11t-7 -12v-1l-7.5 -15t-6.5 -15
q-2 -8 -4.5 -15t-3.5 -15v-1v-1v-3v-5h5q3 1 0.5 0.5t1.5 0.5q3 0 9 2q9 2 17.5 5.5t16.5 6.5q19 8 37.5 15.5t38.5 15.5q42 15 84 28.5t86 24.5q48 12 95.5 20.5t95.5 13.5t95 6zM743 479q2 -5 0 -8t-6 -4q-32 -9 -63 -12q-6 0 -12.5 2.5t-8.5 8.5q-1 2 -1 6h-29
q-93 1 -183.5 -6.5t-182.5 -10.5q-3 -1 -6.5 -1h-5.5q-6 -1 -11.5 -1h-10.5q-13 -2 -25 0q-6 1 -14 3.5t-10 9.5q-3 6 3 10l4 3q5 4 12 2.5t12 -5.5h11q5 0 9.5 0.5t9.5 0.5q1 0 2 0.5t3 0.5h2h1q29 2 58.5 3.5t58.5 3.5q91 6 183 10.5t183 -5.5q12 -2 17 -11zM250 455h-1h5
h-4zM593 -66v0v0zM591 -65q1 0 2 -1v1h-2zM593 -66v1v-1z" />
    <glyph glyph-name="F" unicode="F" horiz-adv-x="406" 
d="M664 455q3 -10 -7 -12q-42 -13 -86 -18q-5 -1 -11.5 2t-8.5 8q-3 6 2 10q-69 2 -138 0.5t-138 -5.5q-72 -4 -142.5 -8t-142.5 -7q-4 -2 -8 -2h-7q-8 -1 -15 -1.5t-15 -0.5q-17 -2 -33 0q-8 1 -17 4.5t-11 12.5q0 4 2 6l5 4q5 5 11 4.5t11 -3.5q2 0 8.5 -1t9.5 -1l22 1
q44 2 86.5 4.5t85.5 4.5t88 4.5t95 4.5q85 3 168 3t168 -4q13 0 18 -10zM374 196q7 -1 15 -7.5t-1 -13.5q-3 -2 -5 -3.5t-5 -3.5q-5 -3 -10.5 -1.5t-9.5 4.5l-3 3h-5v1q-1 -1 -2 -1t-2 0.5t-3 0.5h-39q-44 1 -87 -0.5t-88 -3.5l-62 -4q-7 -9 -13.5 -18.5t-13.5 -19.5
q-22 -30 -42 -61t-40 -63q-11 -17 -21 -34.5t-20 -35.5q-11 -20 -21.5 -39t-21.5 -38q-2 -4 -7.5 -4t-10.5 2t-8.5 5.5t-1.5 7.5q3 7 5.5 13.5t6.5 13.5q36 70 77.5 136t88.5 130l1 1q-7 0 -13 -0.5t-12 -1.5l-21 -3q-4 0 -7.5 -0.5t-7.5 0.5q-2 -3 -3 -3h-1q-6 -4 -10 3
q-2 2 -2.5 4.5t-2.5 4.5q-3 6 1 9t9 4l75 8q4 1 7.5 1t6.5 1l71 93l50 67q6 9 12.5 18t13.5 18l14 20l6 9q2 3 1.5 1.5t0.5 0.5v2q1 5 7 6t11.5 -1t9.5 -6t3 -9q-2 -6 -6.5 -11.5t-7.5 -10.5q-35 -49 -71.5 -97t-72.5 -97q29 2 59 3l60 2q22 1 43 1h43h21t20 -1h21t21 -2z
M-51 163q1 0 1 1z" />
    <glyph glyph-name="G" unicode="G" horiz-adv-x="633" 
d="M522 408h1q1 1 2 1l2 2q0 1 1 1l1 1q4 2 7 5.5t6 7.5q8 11 15 21t14 21q1 3 3 7q2 2 2 3t1 1q1 3 2 5t2 5q5 10 8 19q1 2 1 3t1 3v4q0 2 -0.5 4.5t-0.5 4.5t-0.5 3.5t-0.5 3.5l-1 2q0 1 -0.5 1.5t-0.5 1.5l-1 2l-2 2h-2h-2q-3 0 -3 -1h-4l-12 -3q-16 -5 -32 -12t-30 -15
q-10 -5 -19 -11l-18 -12q-10 -5 -19 -11t-19 -13q-38 -25 -70 -53q-17 -14 -33 -28.5t-33 -30.5q-13 -11 -25 -22.5t-24 -22.5q-18 -18 -34.5 -36.5t-33.5 -37.5q-11 -14 -23.5 -28t-23.5 -28q-11 -13 -21 -27l-20 -28q-20 -31 -37.5 -63t-28.5 -67q-13 -38 -17 -73
q-1 -9 -1.5 -18t0.5 -18q1 -18 6 -33q2 -4 3.5 -8t4.5 -8h1q0 -3 2 -3q2 -2 2 -3l2 -2q1 -1 5 -3q2 -2 3 -2l2 -1h1q0 -1 2 -1.5t3 -0.5q2 0 2.5 -0.5t2.5 -0.5h4h9t8 1h1l1 1q2 0 4 1q3 0 9 2q5 2 9.5 3t9.5 3q3 1 5 2t5 2l1 1h1q2 1 5 1q5 2 10.5 5t10.5 5q11 6 21 12
l20 12q21 13 41 27t40 29q10 8 18.5 14t17.5 14q5 4 9 7t7 7q1 1 1.5 1t1.5 1q2 2 3 2q3 2 7 6q11 9 20.5 18t20.5 17q31 26 59.5 53t57.5 55q17 16 33 31.5t33 29.5q3 3 6.5 6t7.5 6q-19 -3 -38 -5t-39 -4q-14 -2 -28.5 -3t-28.5 -2q-11 -1 -20.5 -2t-20.5 -1
q-6 0 -12.5 2.5t-10.5 9.5q-3 7 1.5 10.5t9.5 3.5q3 1 9 1q26 2 53 5t53 5q16 2 31 4t29 4q2 0 4 0.5t4 0.5q1 0 1.5 0.5t1.5 0.5q3 1 6.5 1t6.5 1t5.5 1.5t5.5 0.5q6 2 8 2q8 3 15 0q4 -1 8 -3.5t5 -7.5q5 -6 -3 -13q3 -3 1 -7h-1v-2h-1q1 -2 -3 -6q2 2 1 0.5t-2 -1.5
l-3 -3l-6 -6q-3 -3 -6.5 -6t-6.5 -7q-8 -8 -14.5 -15.5t-13.5 -14.5q-5 -7 -10.5 -13t-10.5 -13q-8 -10 -15.5 -19t-15.5 -18q-57 -69 -110.5 -138.5t-101.5 -143.5q-48 -73 -90.5 -149.5t-75.5 -157.5q-2 -6 -8.5 -7t-11.5 1q-4 2 -9.5 6t-2.5 9q26 63 57 123t66 117
q47 76 98 148t108 141q3 4 6.5 8t6.5 9q-29 -27 -58.5 -53t-61.5 -51q-38 -30 -76.5 -58t-80.5 -50q-18 -9 -38 -18t-41 -13t-41.5 -2t-39.5 14q-20 14 -28.5 37t-9.5 46q-1 36 8 73t24 70q30 69 76 132q11 14 22 27.5t23 27.5q11 12 20.5 24t20.5 24q17 19 34 37t37 36
q31 29 62.5 57.5t65.5 54.5q18 14 36 26.5t38 24.5q19 11 37.5 23t39.5 21q14 5 27.5 9t27.5 6t28.5 -2t22.5 -15q7 -11 9.5 -25t-2.5 -26q-4 -11 -9.5 -22.5t-11.5 -22.5q-8 -11 -15.5 -22t-15.5 -21q-7 -8 -14.5 -15t-17.5 -9q-6 -1 -13 2.5t-9 8.5q-4 8 6 12zM614 197v-1
v1zM526 409q-1 0 -2 -1q1 1 2 1z" />
    <glyph glyph-name="H" unicode="H" horiz-adv-x="629" 
d="M692 494q5 -2 5.5 -7.5t-1.5 -10.5v-1q-1 -1 -1 -1.5t-1 -1.5v-1q-11 -16 -20.5 -31.5t-19.5 -31.5l-53 -82q-14 -20 -27.5 -40t-26.5 -41q-9 -15 -18.5 -30t-19.5 -30q15 0 29.5 0.5t28.5 1.5h23t23 -2q5 -1 12 -3t13 -5.5t8.5 -9t-1.5 -12.5q-4 -5 -11 -4t-12 3
q-5 3 -8 8q-4 1 -8 1h-8h-3h-5h-9h-30t-30 -1q-7 0 -13.5 -0.5t-13.5 -0.5q-12 -20 -24.5 -40t-24.5 -40q-25 -42 -49 -83.5t-47 -83.5l-31 -59q-3 -7 -6.5 -13.5t-5.5 -14.5q-2 -2 -2.5 -5t-2.5 -6q0 -2 -0.5 -2.5t-0.5 -1.5q0 -6 -5 -8.5t-11.5 -2t-12 4t-5.5 9.5
q0 9 5 19q2 6 4.5 12t5.5 11q17 36 36 71t39 70q23 41 47.5 80.5t49.5 80.5q-20 -2 -41 -2.5t-42 -2.5q-35 -2 -70 -4.5t-70 -4.5q-16 -26 -31.5 -52t-31.5 -52l-95 -163q-15 -26 -30 -52.5t-29 -53.5q9 -7 4 -14q-7 -12 -14.5 -23t-17.5 -22q-4 -5 -10.5 -4t-11.5 3
q-4 2 -8 5.5t-2 8.5q21 49 47 94.5t52 90.5q24 41 47.5 81.5t48.5 82.5l41 67q-3 -1 -10 -1l-99 -6q-25 -2 -49.5 -3t-49.5 -1q-5 0 -10.5 2t-7.5 7t1 7.5t8 2.5q23 2 45 3t45 3q36 2 71.5 4.5t70.5 5.5l45 75l105 165l51 76l24 38l12 19l6 8q4 2 5 2q2 3 6 4t8.5 -0.5
t7.5 -4.5t3 -7q0 -5 -1 -6q-1 -6 -5 -11l-6 -10l-12 -20l-26 -39l-54 -83q-32 -51 -64 -101.5t-64 -101.5l183 12q11 1 20.5 1t19.5 1l39 63q14 21 27 41t27 40t27 40.5t26 41.5l50 78v2q2 4 4 5q1 0 1 0.5t1 0.5q5 5 11 3.5t11 -4.5z" />
    <glyph glyph-name="I" unicode="I" horiz-adv-x="566" 
d="M901 420l2 -2zM934 421q5 -8 5 -18q0 -3 -0.5 -5.5t-1.5 -5.5q0 -1 -2 -5l-1 -2q0 -1 -1 -2q-2 -5 -8 -6t-11 1q-4 1 -9.5 5.5t-2.5 9.5l3 11v1v1v1v5q0 1 -1 2q0 1 1 1q-2 2 -2 3q2 -1 -1 2l-3 4q-2 2 0 -0.5t0 -0.5l-1 1l-4 3l-1 1l-5 2l-5 3q-3 1 -0.5 0t1.5 -1
t-1.5 0.5t-1.5 0.5q-4 2 -12 4l-7 2q-2 0 -5 1t2 0l-15 3l-35 4q-5 0 -9.5 0.5t-9.5 0.5q-7 0 -11 1h-4h-2h-1h-42q-24 0 -48 -1t-47 -3q-51 -4 -101.5 -10.5t-101.5 -12.5q-17 -2 -27 -4l-20 -4q-12 -2 -23.5 -4t-23.5 -5q-42 -7 -85 -18q-17 -5 -34 -9.5t-34 -10.5l-13 -4
l-6 -3q-2 0 -3 -1h-1l-6 -3v-1q2 -5 -2.5 -6t-8.5 0h-3h-3h2h-2h-2q-4 -1 -8.5 1t-7.5 5q-4 6 -1 10h1q0 1 2 3h1q2 2 3 2q2 2 3.5 2.5t3.5 1.5l18 8q11 4 20.5 7.5t20.5 6.5q41 12 82 21t83 17q51 9 102 16.5t103 12.5q48 5 95 7.5t95 1.5q36 -1 72.5 -4t70.5 -17
q11 -5 21.5 -12t16.5 -18zM161 359h1h-1v0zM932 382h1h-1zM895 426q-5 3 -3.5 2.5t2.5 -1.5zM600 420q2 1 2.5 1.5t-0.5 -0.5t-2 -1zM531 -107h-1h1zM632 422q2 -1 1.5 -3.5t-1.5 -3.5l-34 -42l-34 -42q-27 -35 -54 -70.5t-53 -71.5l-119 -159q-22 -31 -44.5 -61.5
t-45.5 -60.5q19 2 37.5 4.5t37.5 4.5q37 4 73.5 5.5t73.5 -0.5q17 -1 32.5 -2.5t31.5 -4.5q11 -2 23.5 -7.5t18.5 -16.5q3 -4 -1 -8q-6 -13 -19 -16q-5 -2 -10.5 -2t-11.5 -1q-5 0 -9.5 2t-6.5 7q-5 7 5 9q4 2 8 2l4 2q-3 -2 0 0t1 0q4 1 4 4q-4 2 -6 2q0 1 -4 1l-14 3
l-31 3q-14 1 -19 1h-11h-31t-30 -1q-42 -2 -83.5 -6.5t-83.5 -12.5q-4 -5 -8 -10.5t-9 -10.5q-5 -6 -9 -11t-10 -7h1q-11 -6 -22 3q-3 2 -4.5 7t2.5 8q3 3 5.5 6t5.5 6q-17 -3 -33 -6.5t-33 -7.5q-42 -11 -84 -24q-38 -11 -75.5 -24t-74.5 -30l-1 -1q-1 0 -5 -2v-1
q-2 -5 -7 -5l-3 -1q-1 0 -2 -0.5t-3 -0.5q-5 0 -11 2.5t-8 7.5q-1 3 0 7t4 6q29 15 58.5 26.5t59.5 21.5q84 28 171 48q17 4 35 7t35 6q4 5 8 11t8 11l100 134q29 40 59 80t60 79q26 35 52.5 69.5t53.5 69.5l39 46q3 5 6.5 8.5l7.5 7.5l3 3h1l2 2q7 6 15 6q4 1 8.5 0t6.5 -5
z" />
    <glyph glyph-name="J" unicode="J" horiz-adv-x="504" 
d="M94 240q6 2 12 -4q4 -6 -1 -9q-9 -4 -18.5 -1.5t-15.5 10.5q3 -3 5 -4q-11 7 -10.5 18.5t5.5 21.5q11 23 29.5 40.5t35.5 34.5q29 28 61 52t66 45q74 48 154 79q35 13 70.5 22.5t72.5 12.5q17 2 34 0t31 -12q13 -10 17 -24.5t2 -29.5q-3 -16 -9.5 -31t-14.5 -29t-16 -26
t-16 -25q-11 -18 -22.5 -36.5t-23.5 -36.5q-13 -20 -26 -38.5t-27 -38.5q-27 -39 -55 -76.5t-57 -75.5t-59 -74t-61 -72q-21 -25 -42 -49t-43 -47q-14 -15 -28.5 -29t-30.5 -27q-9 -8 -18 -15t-20 -13q-8 -5 -17 -10t-19 -7q-11 -2 -22.5 -1t-21.5 8q-8 6 -12 15.5t-6 19.5
q-3 28 4.5 56t18.5 53q28 66 71 122q20 26 42 48.5t49 40.5q5 4 11.5 2.5t10.5 -5.5q4 -3 5.5 -7.5t-3.5 -7.5l-10.5 -7t-9.5 -8l-20 -20q-22 -22 -41 -47q-20 -26 -36.5 -53.5t-29.5 -56.5q-7 -14 -12.5 -29t-9.5 -30l-6 -27v-4v-1q0 -2 -0.5 -3t-0.5 -3v-11q1 -2 1 -5
t1 -6q0 -3 1 -4q-1 3 -0.5 1t0.5 -3q1 -1 1 -2t1 -2q2 -2 0 0t0 0t2 -3q2 -1 -0.5 1t-0.5 1q0 -1 1 -1q2 -2 -0.5 0t0.5 0q2 -1 -1.5 0.5t-1.5 0.5h2q2 -1 -1.5 -0.5t0.5 0.5h1h-2h4q3 1 0.5 0t-0.5 0t4 1t4 1q1 1 2 1t2 1q2 1 0 -0.5t0 -0.5q0 1 2 1q2 2 4 2.5t4 2.5
q5 2 9 5t9 6t9 6t9 7q2 1 2.5 2t2.5 2l2 2q-2 -2 -1 -1t2 1l4 4l4 4q14 12 27.5 25t26.5 27q25 27 49 54.5t48 55.5q31 36 60.5 72.5t58.5 74.5t56.5 76t54.5 76q24 35 46.5 71t45.5 71q19 27 32 53q7 15 12 30q2 8 3 13t-1 12v4q0 1 -0.5 2t0.5 -1q-2 4 -3 5q0 1 -0.5 1.5
t-0.5 1.5q-2 2 -2 3q2 -2 1 -1.5t-1 1.5q-3 2 -1 0.5t0 -0.5q-1 0 -1.5 0.5t-1.5 0.5q-2 2 0.5 0.5t0.5 -0.5q-1 0 -1.5 0.5t-1.5 0.5t-1.5 0.5t-1.5 0.5q4 -1 2.5 -0.5t-2.5 0.5q-4 0 -7 1h-4h-7q-4 -1 -7.5 -1h-6.5q-4 -1 -7 -1.5t-7 -0.5q-2 0 -3 -0.5t-3 -0.5h-3
q-2 -1 0.5 -0.5t-1.5 0.5q-82 -16 -158.5 -53t-144.5 -86q-26 -19 -49 -39t-46 -42q-11 -10 -20 -20t-17 -21q-4 -5 -6 -9t-4 -10q-1 -2 -1 -5v-3v-2q1 -2 0 0t0 0q2 -4 1 -7v5q1 -3 -0.5 -1.5t-3.5 1.5h3v0z" />
    <glyph glyph-name="K" unicode="K" horiz-adv-x="445" 
d="M459 -120l2 -1q-1 0 -1.5 0.5t-1.5 0.5h1zM790 551q3 3 9 2.5t11.5 -3.5t8 -7t-0.5 -9q-8 -13 -17 -22q-5 -5 -10.5 -9.5t-10.5 -8.5q-3 -2 -8.5 -1.5t-9.5 2.5l-25 -17q-81 -55 -162 -107t-162 -105q-36 -23 -71 -46t-71 -45q-17 -10 -32.5 -19t-30.5 -20
q-11 -8 -20 -15t-18 -15q1 0 1 -0.5t1 -0.5l31 -20q40 -29 77 -60t75 -63q18 -15 36.5 -30.5t37.5 -29.5l28 -21l1 -1h1l1 -1h1v-1l3 -1q2 -2 5 -2q0 -1 2 -1h-3q6 -2 13.5 -8.5t0.5 -13.5q-2 -2 -2 -3q-2 -3 -6 -4t-6 -1q-7 -1 -17 3q-8 6 -10 10q-4 2 -7.5 4.5t-7.5 5.5
q-9 6 -18 12.5t-18 13.5q-40 32 -78.5 64.5t-78.5 64.5q-17 14 -33.5 27t-34.5 25l-7 5q-2 2 1.5 -0.5t0.5 -0.5l-3 2l-4 2l-4 2h-1q-1 1 -2 1l2 -1q0 1 -1 1l-2 1q-4 0 -7 1q-45 -74 -87 -147l-25 -44l-3 -6q-1 -1 -1 -2q-1 -1 -1 -2l-6 -10l-11 -21q-10 -19 -19.5 -37.5
t-18.5 -37.5q-5 -14 -10.5 -27.5t-9.5 -27.5q0 -2 -0.5 -2.5t-0.5 -2.5v-2q0 -2 -0.5 -4t-0.5 2v-1v-2q6 -4 6 -9q1 -6 -4 -7.5t-9 -1.5h-1h1q-7 1 -14 5t-9 10q-2 4 -2 3.5t1 -1.5l-1 2v2v3q-1 3 -0.5 5.5t0.5 5.5q2 13 7 25.5t10 24.5q17 42 38.5 81.5t44.5 78.5
q24 43 49 85.5t51 84.5l65 103q8 13 17 25.5t18 25.5l54 81l26 40t27 40l28 40l15 21q1 2 3 4t2 3v0v1v2v2v1q0 3 4 5q1 0 1.5 0.5t1.5 0.5q2 1 4.5 0.5t4.5 -0.5q1 0 2 -0.5t3 -0.5q0 -1 2 -1l1 -1q5 -2 6 -5q2 -2 2 -5v-6q0 -4 -4 -10l-14 -20l-25 -36q-13 -19 -25 -37.5
t-25 -36.5q-12 -20 -24.5 -38.5t-25.5 -37.5l-47 -70l-29 -47l2 2q15 11 30.5 20t31.5 19q15 9 30 18.5t30 19.5l163 105q81 52 161 104.5t159 107.5q1 1 1.5 1t1.5 1zM-56 -290l1 -1zM-55 -289h-1q0 2 1 0v0zM461 -122h1h-1z" />
    <glyph glyph-name="L" unicode="L" horiz-adv-x="318" 
d="M673 -114q4 -9 -2 -14q-6 -6 -16 -6q-13 0 -21 8l-23 1q-5 1 -11 1h-12q-5 1 -1 0.5t-1 0.5h-6h-11h-45t-45 -2q-93 -5 -182.5 -19t-180.5 -31q-46 -8 -91.5 -17.5t-90.5 -20.5q-23 -6 -45 -12t-45 -14q-11 -3 -22 -6.5t-22 -7.5l-23 -9q-2 0 -8 -2q-3 -2 -6.5 -2.5
t-6.5 -1.5h-2q-11 -2 -16 6q-6 6 -1 9q2 3 5 4t6 3t6 2.5t5 2.5l23 9l45 15q23 8 46.5 15t46.5 13q91 23 181 39q46 8 91 16t91 15q92 14 184.5 20.5t185.5 -3.5q5 0 11.5 -3.5t8.5 -8.5zM-40 -150q0 -1 0.5 -1t-1.5 2zM-41 -142v4v1q0 2 2 10q2 6 4.5 12.5t4.5 12.5
q8 19 17.5 36.5t19.5 35.5q24 44 50 86t53 84q20 32 40.5 62.5t40.5 61.5l67 95l28 40l28 40l29 39l15 21q4 6 7 9v1v5q1 5 8.5 5.5t10.5 -0.5l9 -4.5t4 -7.5q0 -2 0.5 -4.5t-0.5 -4.5l-2 -4t-3 -4l-13 -17l-25 -35l-111 -159q-18 -24 -32 -47q-24 -35 -47 -70.5t-46 -71.5
l-53 -87l-24 -42l-5 -10q1 2 0 0t-2 -3l-2 -4q-3 -5 -5.5 -9.5t-4.5 -9.5q-8 -14 -15 -29t-12 -30l-3 -11q0 -3 -1 -4v-1q5 -3 5 -8t-7 -8h-4q-1 -1 -3 -1v1q-5 0 -9.5 2.5t-8.5 5.5q-3 3 -3 5l-1 3l-1 2v1v3v2z" />
    <glyph glyph-name="M" unicode="M" horiz-adv-x="797" 
d="M931 461q4 -2 7.5 -6.5t-0.5 -9.5l-16 -23q-29 -39 -56.5 -78t-54.5 -79q-36 -53 -71 -106t-67 -108l-14 -25q-6 -11 -7.5 -13t-1.5 -3q-2 -2 -0.5 -0.5t-0.5 -0.5l-3 -5q-14 -25 -27 -56l-6 -16t-5 -16l-2 -13v-3v-4q0 -2 0.5 -3.5t0.5 -3.5q0 -1 1 -2q4 -2 7.5 -5.5
t1.5 -8.5q-2 -6 -8.5 -7t-11.5 1q-14 4 -19.5 14t-5.5 23t3.5 26t7.5 23q11 28 25.5 54.5t30.5 52.5q16 27 32.5 54t33.5 53q33 51 67 101t69 100q9 12 17.5 24.5t17.5 24.5q-1 -1 -2 -1l-1 -1q-1 -1 -2 -1.5t-3 -2.5q-5 -4 -8.5 -7.5t-8.5 -6.5q-1 -2 -2 -2.5t-3 -2.5
l-1 -1q-1 0 0 1l-17 -15l-36 -31q-17 -17 -34.5 -32.5t-34.5 -32.5q-32 -30 -62 -61t-59 -63q-28 -32 -54.5 -64t-52.5 -64l-50 -58q-14 -17 -27.5 -32.5t-30.5 -29.5q-7 -5 -16.5 -1t-12.5 10q-4 8 -4.5 16t1.5 16q4 19 12 39q20 48 47.5 92t54.5 88l27 47l22 40q4 5 7 11
t6 11q1 4 4 7q0 1 1 2q0 1 1 2l6 11q12 23 23.5 45t22.5 45l6 12q-28 -20 -51.5 -44.5t-46.5 -50.5q-29 -34 -59 -66.5t-59 -67.5q-31 -37 -60 -74t-57 -75q-29 -38 -56 -76.5t-53 -78.5q-12 -18 -24 -37t-23 -38q-3 -8 -5.5 -15t-5.5 -15q-6 -16 -12.5 -31.5t-17.5 -28.5
q-3 -4 -8.5 -4.5t-10.5 1.5q-3 1 -8.5 4.5t-4.5 8.5q1 14 6 26.5t12 25.5q5 10 10 19l10 18q3 7 5.5 13t5.5 12q11 20 20.5 40t20.5 40q22 41 45 80.5t47 78.5q23 39 45.5 78t44.5 79q11 20 21.5 40t20.5 40t18.5 39.5t17.5 39.5q11 21 19 42.5t15 44.5l6 26q1 4 2 9.5
t1 7.5v5v10t-2 10q0 1 -0.5 2.5t0.5 -1.5v2l-2 4q0 1 -1 2t-2 1l-1 1h-1h-1h-2h-1q-3 0 -5 -1h-2h-1l-7 -2q-5 -1 -15 -5q-1 0 -2 -0.5t-2 -0.5l-1 -1q2 1 1 0.5t-2 -0.5l-8 -4l-20 -10q-11 -6 -21.5 -13t-21.5 -15q-12 -10 -23.5 -19.5t-22.5 -20.5q-14 -14 -27 -27.5
t-25 -28.5q-29 -35 -55 -73t-46 -79q-18 -35 -32.5 -72.5t-22.5 -75.5q-1 -6 -2.5 -15.5t-2 -19.5t0 -19.5t3.5 -15.5q1 -2 1.5 -3.5t1.5 -3.5q2 -2 0 -0.5t0 -0.5l3 -2q4 -4 2 -8.5t-7 -6.5q-6 -2 -11.5 0.5t-10.5 6.5q-11 11 -13.5 28t-1.5 31q2 35 11.5 69.5t23.5 66.5
q18 43 41.5 83.5t50.5 78.5q23 32 48.5 61.5t54.5 55.5q21 18 43 34.5t47 29.5q15 8 32 14t34 7q13 2 25.5 -2t21.5 -14q7 -8 9.5 -18t2.5 -21q0 -26 -7.5 -51.5t-17.5 -49.5q-4 -11 -8 -20.5t-8 -19.5l-33 -72q-29 -58 -60.5 -113.5t-64.5 -111.5q26 35 53.5 69t56.5 68
q16 18 31 35.5t32 34.5q14 14 26.5 29t25.5 30q27 29 56.5 56t65.5 44q7 3 15 1.5t12 -7.5q5 -5 4.5 -11t-2.5 -12q-2 -8 -5 -14.5t-6 -14.5q-10 -23 -21.5 -44.5t-22.5 -43.5q-13 -23 -25 -45t-26 -45q-7 -12 -13.5 -24.5t-14.5 -24.5l-46 -75l-15 -24l-3.5 -7t-3.5 -6
l-3 -7q-2 -2 -0.5 -0.5t-0.5 -0.5l-2 -3q-14 -25 -24 -49q-5 -12 -10 -26q7 9 13.5 18t14.5 17q14 16 28 32.5t28 33.5q26 32 52.5 63.5t54.5 62.5q29 33 61 64l64 62q17 17 35 32.5t35 31.5l19 16q5 4 9.5 8t9.5 8l2 1q0 1 0.5 1t0.5 1q2 1 0 -1t0 0l7 6q11 10 21.5 18.5
t22.5 16.5q14 8 28.5 11.5t29.5 -4.5zM420 549h-1h1zM536 287v1v-1z" />
    <glyph glyph-name="N" unicode="N" horiz-adv-x="695" 
d="M787 482q2 -7 1 -13.5t-3 -13.5q-2 -8 -5 -16.5t-6 -16.5q-14 -35 -35 -71q-23 -41 -47 -80.5t-47 -79.5l-30 -53l-6 -9q0 -1 -0.5 -1t-0.5 -1v-2l-2 -2l-8 -16q-13 -25 -24.5 -50t-22.5 -51q-10 -23 -18 -47t-13 -49q-2 -6 -3 -12.5t-2 -12.5q-1 -3 -1 -7v-1v-2
q0 -2 -0.5 -3.5t0.5 -3.5q5 -1 11 -4.5t6 -8.5q0 -4 -1 -5q0 -5 -1.5 -8.5t-6.5 -5.5q-9 -3 -20 3q-6 2 -11.5 6t-7.5 10q-5 10 -4 21t3 22q4 26 11.5 52t17.5 51q5 14 11.5 27t12.5 26l22 49q9 19 19 37.5t21 36.5l90 152q11 18 21 36t18 37q8 16 15 33t11 34q1 3 1 8v3v5
q0 2 -1 2q0 1 -2 5l-1 1q-1 0 -2 1h-1l2 -1q-1 0 -2 1h-2h-1q-1 1 -3 1h-1h-1q-8 0 -12 -1q-2 0 -4.5 -0.5t0.5 0.5q-2 0 -3 -0.5t-3 -0.5q-14 -3 -28 -9q-1 0 -5 -2q2 2 1 1t-2 -1l-6 -3q-8 -3 -13 -7q-16 -9 -30.5 -20t-28.5 -22q-25 -20 -48.5 -40.5t-46.5 -43.5
q-31 -30 -59.5 -61t-57.5 -63q-128 -143 -252 -288q-16 -19 -31 -38t-32 -37q-8 -10 -17 -19.5t-20 -18.5q-8 -7 -17 -12.5t-21 -4.5q-5 0 -10 2.5t-7 7.5q-2 4 -2 5q-1 8 3 16t8 15q7 12 14 23.5t15 23.5q16 23 32 45.5t31 45.5q11 17 21.5 33.5t21.5 33.5q12 19 24.5 37
t25.5 37l106 152q27 40 55.5 78.5t54.5 79.5l26 39q6 10 11.5 20t11.5 19q5 7 9 13.5t7 13.5q2 3 3 6.5t3 7.5h-1l-10 -3l-7 -3h-2l-2 -2q-8 -2 -13 -6q-7 -3 -13.5 -6.5t-13.5 -7.5q-13 -8 -25 -16l-24 -16q-24 -17 -47 -35.5t-45 -37.5q-31 -26 -61 -53.5t-59 -56.5
q-14 -14 -27.5 -28.5t-25.5 -30.5q-11 -15 -20 -29l-7 -13q5 -6 -1 -13q-4 -6 -8 -7q-2 0 -3 -0.5t-3 -0.5q-8 -2 -15.5 1t-9.5 11q-1 4 0.5 7t3.5 6l5 10l12 20q5 10 11.5 18.5t13.5 17.5q14 16 29 31l30 30l63 59q26 23 52.5 45.5t54.5 44.5q40 33 90 61q28 16 55 25
q7 2 16.5 3.5t18.5 0t15.5 -6.5t7.5 -15q1 -17 -9 -32t-18 -29q-11 -20 -23.5 -40t-25.5 -40q-27 -40 -55 -79l-56 -78l-106 -153q-13 -18 -25 -36t-24 -37q-11 -17 -21.5 -33t-21.5 -33q-14 -21 -28.5 -42t-29.5 -42l52 61q62 73 124.5 144.5t126.5 143.5q29 32 58 63.5
t59 61.5q23 23 47.5 44.5t50.5 41.5q14 11 28.5 22.5t30.5 20.5q29 16 57 23q14 4 29.5 5t29.5 -3q13 -4 23.5 -12t12.5 -22zM471 559h1q1 0 1 0.5t-2 -0.5zM749 493h-1h1zM747 494l1 -1zM748 493q1 0 1 -0.5t1 -0.5q-1 0 -1 1h-1z" />
    <glyph glyph-name="O" unicode="O" horiz-adv-x="655" 
d="M300 499q4 3 10.5 2t11.5 -4.5t7 -8t-4 -8.5q-7 -5 -13 -10.5t-13 -10.5q-35 -29 -65.5 -60.5t-59.5 -66.5q-28 -33 -54.5 -67.5t-50.5 -70.5q-24 -35 -46 -72.5t-42 -75.5q-14 -26 -24 -54.5t-17 -57.5q-8 -35 -8 -64v-15.5t2 -15.5q1 -2 1 -4t1 -4q0 -3 1 -4v-2v1
q1 -4 2 -7t3 -7q2 -3 3.5 -6.5t3.5 -6.5q-2 2 -1 1l2 -2q0 -1 2 -3q1 -1 1.5 -2t2.5 -3l3 -3l1 -1q3 -3 5 -4q2 -2 3 -2.5t3 -2.5q1 0 1.5 -0.5t1.5 -0.5q2 -3 7 -4q1 -1 4 -2.5t-1 0.5q3 -1 6.5 -2t6.5 -2q2 -1 5 -1q1 -1 2.5 -1t-2.5 1q2 -1 3.5 -1t3.5 -1q4 -1 7.5 -1
t7.5 -1h9h1h4h15q5 1 8.5 1t8.5 1q5 0 8 1h4h2q1 0 0.5 0.5t-1.5 0.5q30 4 60 15q4 1 7 2t7 3q2 1 3 1t3 1q1 0 1.5 0.5t1.5 0.5q5 2 10.5 5t10.5 5q16 9 31 18t30 19q66 43 122.5 96t106.5 114q51 63 96 137q11 19 21 37t20 38q13 25 24 54q5 12 8.5 23.5t6.5 24.5
q2 6 3 12.5t2 12.5q1 4 1.5 7t0.5 6q0 2 1 4q0 2 -0.5 0t0.5 1v6q2 26 -4 48q0 2 -1 4q0 2 0.5 0t-0.5 0q0 2 -0.5 2.5t-0.5 2.5q-2 2 -2.5 5t-2.5 5q-2 4 -3 5q0 1 -0.5 1.5t-0.5 1.5q2 -3 1 -2t-1 2q-2 3 -7 8q-2 2 -2 3q-2 2 0 0t0 0q-2 1 -4 3q-2 1 -2.5 1.5t-2.5 1.5
l-2 2q3 -2 2 -1.5t-2 1.5l-6 3q-1 1 -4 2t2 -1q-5 2 -13 4q-1 1 -5 1q-3 1 0.5 0.5t-0.5 -0.5q-2 1 -3.5 1t-3.5 1q-4 0 -8 0.5t-8 0.5h-3h-4h-8q-4 0 -8 -0.5t-8 -0.5q-3 -1 -10 -1q2 0 2 -0.5t-1 -0.5h-2h-4q-6 -2 -16 -4q-4 -2 -8 -2.5t-8 -2.5q-6 -2 -8 -3q-1 -1 -2 -1
t-2 -1h-2v0q-16 -8 -31 -16t-29 -18q-57 -39 -102 -93t-81 -113q-4 -5 -11.5 -4t-11.5 3q-5 2 -8 7t0 10q12 20 24.5 38t26.5 36q23 29 47 55.5t51 49.5q28 23 58 42.5t65 30.5q17 6 34.5 9t34.5 4t34.5 -1t34.5 -8q14 -5 26.5 -13t21.5 -19q16 -18 22 -44q6 -25 4 -51
t-7 -51q-7 -26 -16.5 -51t-21.5 -49q-38 -76 -85.5 -145.5t-105.5 -131.5q-52 -57 -111.5 -105t-126.5 -86q-51 -27 -108 -39q-32 -6 -66.5 -7t-66.5 11q-16 6 -30 15t-25 23q-18 23 -25 57q-5 32 0 65.5t15 64.5q8 28 21 58q7 16 15 31t16 31q41 74 92 146q26 36 53 70.5
t56 66.5q30 34 62.5 65t69.5 58z" />
    <glyph glyph-name="P" unicode="P" horiz-adv-x="676" 
d="M759 564l-2 1q-1 0 2 -1zM864 510q8 -35 -7 -69t-36 -60q-20 -26 -43.5 -48t-49.5 -41t-53.5 -34.5t-55.5 -29.5q-34 -17 -67.5 -32.5t-68.5 -29.5t-69.5 -27t-69.5 -25l-32 -10t-33 -10q-7 -2 -14.5 -4.5t-15.5 -4.5l-15 -3l-7 -2q-4 -5 -7.5 -10.5t-7.5 -11.5
q-53 -78 -102 -159q-27 -41 -47 -80l-21 -42q-5 -12 -8 -22q-2 -5 -3 -9.5t-2 -9.5q0 -6 -4.5 -8.5t-10.5 -1.5t-11.5 3.5t-6.5 7.5q0 1 -0.5 1.5t-0.5 1.5v2q-2 15 5.5 29.5t13.5 27.5l35 78q10 20 19.5 41t18.5 42q17 39 30 80t15 84q3 37 -3 73q-3 17 -7 32t-12 31
q-3 7 -8 14l-3 7q1 -2 0 -1t-1 2l-2 2q-6 8 -10 12l-3 4q-3 3 -4 3l-6 5l-1 1h-1l-6 3q0 -1 -3 2l-6 2h-3q-2 1 -6 1h-2q-5 0 -10.5 1.5t-10.5 6.5q-6 8 1 14q58 45 120.5 83t128.5 69q78 37 160 63t168 35q38 5 77 6t77 -7q16 -3 33.5 -9t32.5 -15.5t26 -22.5t16 -31z
M826 459q6 15 6 31v8t-1 8q0 4 -1 7l-2 6l-3 7l-2 3q-2 2 0 0.5t0 0.5t-2.5 3t-2.5 2q0 1 -2 3q-4 4 -12 10q-3 2 -0.5 0t-0.5 0q-1 0 -3 2l-7 3q-2 2 -4 2q-1 1 -2.5 1.5t1.5 -1.5l-7 3q-5 2 -8.5 3t-7.5 2q-2 0 -3 0.5t-2 0.5t-1.5 0.5t-1.5 0.5l-7 1q-10 2 -17 2
q-5 1 -9 1.5t-9 0.5h-8h-1q-2 1 -5 1q-10 0 -19.5 -0.5t-19.5 -0.5q-83 -5 -164 -26t-158 -54q-72 -30 -139 -69t-130 -86q20 -8 34 -21q25 -23 38.5 -54.5t18.5 -63.5q7 -39 4.5 -78.5t-13.5 -77.5q-2 -5 -2.5 -8.5t-2.5 -8.5q15 23 31 46.5t32 46.5q47 67 94.5 132.5
t95.5 132.5q3 4 9.5 4t12 -2.5t8.5 -7t0 -9.5l-11 -16q-42 -60 -85.5 -118.5t-85.5 -118.5l42 12q25 8 50 17l50 18q67 25 132.5 53.5t128.5 65.5q13 8 25.5 16t24.5 17q6 5 13 9.5t18 14.5l11 10q13 12 25 25.5t23 27.5q24 29 34 60zM72 309q-1 0 -2 1t1 -1h1zM63 313
q-3 2 -2.5 1.5t1.5 -0.5zM53 316q2 0 3 -0.5t-3 0.5z" />
    <glyph glyph-name="Q" unicode="Q" horiz-adv-x="656" 
d="M684 524l1 -1zM88 -45q-1 0 -1 0.5t-1 0.5q2 -1 3 -1h-1zM470 28q-26 -26 -53.5 -50t-58.5 -46q-27 -19 -55 -36.5t-57 -33.5q30 -8 59.5 -16.5t59.5 -16.5q41 -12 81.5 -23.5t82.5 -21.5l11 -2q2 -1 5 -1q4 -1 1 -0.5t1 -0.5q5 -1 9.5 -1.5t9.5 -2.5l40 -6q26 -5 52 -6
q6 2 11 2q13 -1 27 -9q3 -2 5 -6.5t-1 -8.5q-5 -5 -15 -3q-12 0 -24.5 1t-25.5 2q-85 11 -166 34l-162 46q-20 6 -41 11.5t-41 10.5q-4 2 -8 2q-35 -17 -70 -32t-72 -26q-37 -13 -70 -20q-9 -2 -18.5 -3.5t-18.5 -2.5q-22 -3 -43 6q-16 8 -26 22.5t-7 32.5q4 15 16 32
q5 7 10.5 12.5t12.5 10.5q24 17 52.5 20.5t56.5 1.5h1h1q14 -2 22 -2t16 -2q10 -1 19.5 -2t18.5 -3l42 -8t41 -9q2 0 2.5 -0.5t1.5 -0.5q27 15 49 28q33 20 64.5 41t61.5 46q29 23 55.5 51t52.5 56q29 32 56.5 66t52.5 69q24 35 44.5 72t35.5 77q5 14 9 28t7 28q2 8 2 14
l2 11v13.5t-1 13.5l-2 13q-1 1 -1 3q-1 3 0 1t0 0q-2 4 -2 6l-6 11v2l-1 1q-2 1 -4 5l-4 4l-1 1l-2 2l-5 3q-1 1 -2 1.5t2 -1.5l-3 2l-7 3q-1 1 -3 1l-7 3h-2q-1 0 -2 1l-17 2h-5h-2h-4q-8 0 -16.5 -0.5t-16.5 -1.5q-3 -1 -9 -1q1 0 1.5 -0.5t-0.5 -0.5h-2h-4q-7 -2 -17 -4
q-9 -2 -17.5 -4.5t-17.5 -5.5q-18 -5 -34 -11.5t-33 -14.5t-33 -16.5t-33 -17.5q-29 -17 -57 -36.5t-54 -42.5q-65 -55 -119 -124q-25 -32 -46 -67t-35 -73q-7 -17 -12.5 -35.5t-8.5 -36.5q-1 -8 -1.5 -16t-0.5 -16l2 -16l2 -8v-3l1 -2q1 -2 2 -5.5t3 -8.5l3 -5l2 -3
q2 -2 0 -0.5t0 -0.5l9 -10l1 -1l2 -2q1 -1 3.5 -2.5t-1.5 0.5l7 -3q1 -1 2 -1h1q4 -2 5 -2q0 -1 1 -1h2h2h5h1h8q5 0 8 1q-2 -1 -2 -0.5t1 0.5h2q2 0 3 1q7 2 13.5 3.5t13.5 3.5l15 5l7 3h1q1 0 1 0.5t1 0.5t2 1q16 7 31 15l30 16q32 18 61.5 38.5t58.5 43.5q13 11 25 20.5
t24 20.5q11 10 22 20.5t22 21.5q31 32 59 65q7 9 13.5 17.5t12.5 17.5q5 8 9 15t7 15q2 5 8 6t12 -0.5t10.5 -6t2.5 -9.5q-3 -8 -7.5 -15.5t-9.5 -15.5l-23 -34q-14 -17 -28 -32t-29 -31q-22 -23 -44.5 -43.5t-47.5 -40.5q-28 -23 -57.5 -44t-60.5 -40q-29 -17 -59 -32
t-62 -24q-17 -5 -34.5 -6.5t-34.5 2.5q-15 4 -29 12.5t-23 21.5q-20 29 -21 63t7 66q11 39 28 75t38 70q46 69 109 131q55 55 118 97q62 42 126 68q35 14 70 25t72 14q16 1 33 0.5t33.5 -4.5t31 -12.5t25.5 -21.5q19 -22 22 -50t-2 -55q-6 -34 -19 -66.5t-29 -63.5
q-41 -77 -95.5 -144t-114.5 -129zM-31 -213q37 7 72 18t70 25q16 7 31.5 13.5t30.5 13.5q-6 2 -9 2q-4 1 -1 0t-1 0q-2 1 -5 1q-6 2 -9 2q-39 7 -78 12l-16 2q-1 1 -3 1t3 0h-9h-7q-3 0 -5 1h-7q-4 -1 -8 -1h-8q-3 -1 -8 -1q3 0 1.5 -0.5t-2.5 -0.5h-3q-5 -1 -8.5 -2
t-8.5 -3q-1 0 -2 -0.5t-2 -0.5q-1 -1 -2 -1t-1 -0.5t2 0.5l-8 -3q-8 -5 -13.5 -9t-10.5 -10q-12 -14 -16 -27q-2 -5 -2.5 -7t0.5 -6v-4q1 0 1.5 -1.5t-0.5 0.5q0 -2 2 -6l1 -1l3 -3q2 -2 3 -2l1 -1q1 0 1 -0.5t1 -0.5h1q1 -1 3 -1l2 -1h3h1h2h4q2 0 2.5 0.5t2.5 0.5h1h2
q2 1 6 1zM177 -30h-2h2zM646 548l1 -1l-3 1h2zM96 -47h-2h2z" />
    <glyph glyph-name="R" unicode="R" horiz-adv-x="754" 
d="M860 551h1h-1v0zM884 567q27 -13 47 -36t20 -55q-1 -32 -18 -59t-38 -49q-23 -24 -49 -46t-52 -42q-30 -23 -61 -43.5t-64 -39.5q-68 -38 -140.5 -65.5t-147.5 -47.5q9 -4 17 -11q13 -8 25 -18t24 -21q10 -8 19.5 -17.5t20.5 -18.5q15 -14 31.5 -26t32.5 -25
q19 -15 37.5 -30t37.5 -31l38 -31q5 -4 9.5 -8t9.5 -8q-1 1 -2 1l4 -3l2 -2q18 -14 33 -30q4 -5 7 -10t5 -11q2 -8 -4 -11.5t-12 -4.5q-7 -1 -14.5 2.5t-10.5 9.5q-2 7 1 10l-2 1q-1 3 -5 7l-3.5 3.5l-3.5 3.5v1h-1v1l-4 2l-11 10q-3 3 -7 5l-3.5 3.5l-3.5 3.5l-30 25
q-15 13 -30.5 25t-31.5 25l-74 60q-26 19 -48 42q-13 11 -25.5 22t-26.5 21l-13 10q-1 0 -2 1t-3 1l-6 3l-7 3q0 1 -1 1h1h-1h-1l-6 2h-1q-5 1 -12 4.5t-8 10.5q-2 5 -0.5 8.5t6.5 4.5q98 22 193 60q38 15 75.5 33.5t72.5 40.5q30 19 58.5 39.5t56.5 41.5q23 19 32.5 26.5
t17.5 15.5q13 11 24.5 23t22.5 26q5 7 9.5 13t8.5 13q0 1 1.5 3t-0.5 0q2 2 2 3l3 6q4 8 5 13q3 6 3 13q1 1 1 3v1v2v4q0 11 -1 16q0 4 -1 6l-1 2q0 1 -0.5 1.5t-0.5 1.5l-6 12q2 -3 0 -0.5t-3 3.5l-4 5l-2 3l-5 4l-9 7h-2l-2 2l-6 3q-2 2 -4.5 2.5t-5.5 2.5h-1q-1 1 -3 1
l-5 2l-11 3l-6 2h-1q-2 0 -4.5 0.5t-4.5 0.5q-6 2 -12.5 2h-12.5h-3q-1 0 -2 0.5t1 0.5h-5h-10h-21l-42 -2q-23 -2 -43.5 -5t-40.5 -7q-44 -9 -87 -21q-44 -13 -86 -29t-84 -35q-81 -37 -158 -81t-152 -94q24 -12 40 -34q18 -24 25 -53.5t9 -58.5q2 -33 -0.5 -66.5
t-7.5 -66.5l-8 -57q-2 -23 -3.5 -38t-2 -24t-1.5 -14.5t-1 -9.5q2 5 4.5 9t4.5 8l38 61q44 67 90.5 131t94.5 128q23 30 44.5 60t44.5 59q8 10 14.5 20t13.5 20l15 23l6 8t8 6q10 5 20 -3q3 -2 4.5 -6.5t-3.5 -7.5q-2 -1 -0.5 0.5t-0.5 -0.5l-2 -3q-4 -4 -7 -10l-15 -23
q-14 -24 -28 -43q-46 -63 -92 -125.5t-91 -125.5q-23 -32 -45 -64.5t-42 -64.5q-10 -15 -19 -29.5t-17 -29.5q-11 -18 -18.5 -37.5t-20.5 -36.5q-3 -4 -9 -4.5t-10 1.5q-10 3 -14 11q-2 4 -3 9l-2 10q-1 14 0 29q0 30 3 60.5t7 60.5l8 62t6 60q1 17 1.5 33t-1.5 32
q-1 8 -1.5 15t-2.5 15q0 7 -3 15q0 2 -0.5 3.5t-0.5 3.5q0 -2 -0.5 -1t-0.5 2q0 2 -1 3q-2 6 -4.5 12.5t-6.5 12.5l-3 6q-2 2 -0.5 0t-0.5 0q0 1 -0.5 1.5t-0.5 1.5l-8 10l-3 3l-5 4l-5 3q-1 1 -3.5 2.5t1.5 -0.5q-5 4 -13 7v1h-2h-1q-4 2 -7 2q-6 2 -12 9t2 13
q56 38 113 72.5t117 65.5q82 44 168.5 78.5t177.5 54.5q43 9 86.5 14t87.5 4q15 0 30 -0.5t29 -3.5t27 -7t26 -10zM40 275h-1h3h-2v0zM912 502q0 1 -1 1zM895 530q-1 0 -2 1t2 -1zM677 -193l1 -1l-3 1h2zM834 559q1 0 2 -0.5t-4 0.5h2zM67 258q-1 0 -2 1t2 -1z" />
    <glyph glyph-name="S" unicode="S" horiz-adv-x="547" 
d="M75 178q3 -1 2 -1zM-25 -160q-2 2 -1 1.5t1 -1.5zM115 166l2 -1q-1 0 -2 1zM375 84l1 -1zM842 481q3 -11 1 -22.5t-7 -22.5q-15 -32 -41.5 -57.5t-55.5 -44.5q-32 -20 -65.5 -34t-68.5 -27l-66 -22q-18 -6 -36.5 -12t-37.5 -11q-11 -2 -22.5 -4.5t-23.5 -3.5
q-7 -1 -14 -0.5t-13 2.5t-11 6t-7 11v3q2 11 10 13q7 2 18 -1q4 -2 7.5 -4t5.5 -6h1h2q1 1 5 1l11 3q8 2 15 4t15 4q19 5 37 11t37 13q17 5 33.5 10.5t33.5 12.5q17 6 32.5 12.5t32.5 14.5q32 16 61 36t51 49q9 11 16.5 23t10.5 27v4q0 2 0.5 2.5t0.5 2.5q-1 3 -1 9
q-1 1 -1.5 2t0.5 0v1l-2 4q0 1 -0.5 1t-0.5 2q0 -1 -1 0q0 1 -1 2l-3 4q-1 0 -1 0.5t-1 0.5q-2 2 0.5 0t0.5 0l-7 5l-1 1h-1l-5 3l-4 2h-1l-1 1q-5 2 -10.5 3.5t-11.5 2.5q-1 1 -3 1q-2 1 -6 1q-8 2 -12 2l-24 3h-7h-2h-1h-1h-10q-13 0 -25 -0.5t-24 -1.5q-17 -2 -33 -4
t-32 -5q-4 0 -6 -1h-1q-2 0 -4 -0.5t-4 -0.5l-17 -3l-35 -7q-36 -8 -72 -18t-71 -22q-36 -12 -69.5 -25.5t-66.5 -30.5q-32 -16 -61.5 -34t-57.5 -40q-5 -5 -11 -10t-12 -11q-15 -14 -26 -27q-12 -14 -22 -31.5t-5 -37.5q1 -4 5 -12q0 -1 1 -2l2 -2l3 -4l1 -1l2 -2l5 -3
q1 -2 5 -4q2 -2 -0.5 0t-0.5 0q1 0 1.5 -0.5t1.5 -0.5q5 -4 13 -7h2l1 -1l7 -2q8 -3 15.5 -5t15.5 -4h1h1q2 0 2.5 -0.5t1.5 -0.5q3 0 9 -2l18 -3l40 -5q21 -3 42.5 -5.5t42.5 -6.5q32 -5 64.5 -13t57.5 -30q13 -11 23 -25.5t13 -31.5q4 -20 -2.5 -38t-17.5 -34
q-12 -17 -28.5 -31.5t-33.5 -27.5q-36 -27 -75 -44q-20 -10 -40 -18t-41 -16q-17 -5 -33.5 -10.5t-33.5 -9.5q-30 -7 -62 -9.5t-62 3.5q-16 4 -31 9.5t-27 16.5q-13 11 -20 25.5t-5 31.5t11.5 30.5t21.5 24.5q7 6 14 11.5t15 10.5l29 15q9 4 17 -3q3 -2 4 -5.5t-3 -5.5
q-5 -3 -10.5 -7t-10.5 -8q-6 -4 -11.5 -8t-10.5 -9q-10 -8 -18 -18.5t-12 -21.5q-4 -13 -3 -23l1.5 -6t2.5 -6l3 -5v-2h1l4 -5l1 -1l8 -7l1 -1h1l4 -2l4 -2h1l1 -1h1q4 -2 14 -4q1 0 2 -0.5t-1 0.5q1 -1 2 -1q2 0 3.5 -0.5t3.5 -0.5q5 -1 15 -1q2 0 5 -0.5t0 -0.5h7
q8 0 15.5 0.5t15.5 1.5q5 0 15 2h4q3 1 0.5 0.5t-0.5 0.5q5 0 7 1q16 3 30.5 7t29.5 9q20 7 40 14.5t39 15.5q20 9 39 19.5t37 22.5q17 11 33.5 24.5t30.5 29.5q11 14 19 30.5t6 34.5q-2 11 -5 17q-2 5 -3.5 8t-3.5 6l-9 10q0 1 -2 2.5t-1 0.5l-3 3l-6 5q-2 0 -4 2l-9 5
l-7 3l-1 1h-2q-4 2 -7 3l-6 2l-16 4q-2 0 -2.5 0.5t-1.5 0.5q-4 1 -0.5 0t-0.5 0l-8 2l-37 6q-41 5 -81.5 10t-81.5 15q-15 4 -29.5 9t-28.5 13q-13 8 -23.5 18.5t-15.5 25.5q-7 21 0 40.5t20 36.5q11 15 24 28t27 25q56 47 121.5 80t134.5 57q138 48 282 65q26 3 52.5 4
t52.5 -1q25 -2 51 -8t47 -22q20 -14 26 -36zM780 511q-1 1 -2 1q-2 1 -0.5 0.5t2.5 -1.5v0zM41 203l1 -1zM754 519q1 0 1.5 -0.5t-1.5 0.5zM415 244q4 1 3 0.5t-2 -0.5h-1zM753 519h1h-1z" />
    <glyph glyph-name="T" unicode="T" horiz-adv-x="367" 
d="M987 497q4 -9 -4 -12q-6 -5 -13 -7t-15 -4q-5 -2 -12 0t-11 7q-3 3 -3 6q-8 1 -15 1.5t-15 0.5h-9.5t-9.5 1h-4h-1h-1h-9q-9 0 -18 0.5t-18 0.5q-41 0 -80.5 -1.5t-80.5 -3.5q-91 -4 -185 -12q-47 -4 -93 -8t-93 -9q-48 -5 -95.5 -10.5t-95.5 -10.5q-23 -2 -47 -4t-47 -6
q-19 -2 -38 -5t-39 -3q-7 1 -14 3.5t-11 9.5q-3 6 1.5 10t10.5 4q17 -1 33.5 1.5t33.5 4.5q19 3 38 5l38 4q42 4 83.5 9t83.5 10q93 11 185 18.5t186 12.5q48 3 96 5t96 2q43 1 86 -0.5t86 -7.5q6 -1 12 -4t8 -8zM385 433q14 0 19 -12q2 -5 0.5 -9.5t-3.5 -9.5
q-4 -9 -9 -17.5t-10 -16.5t-10.5 -15t-10.5 -15q-10 -17 -23 -35q-23 -35 -45 -70l-44 -70l-50 -83l-50 -82q-23 -41 -44 -82.5t-38 -86.5q-3 -8 -13 -7t-15 6q-11 9 -10 20q1 4 3 7t3 5q3 6 9 6q26 63 60.5 123t70.5 118l51 83l26 42t27 41l54 83q6 10 12.5 18.5t12.5 18.5
q2 5 5 9.5t5 9.5l4 10q2 5 3 5l2 2l1 1l-1 -1q1 4 8 4z" />
    <glyph glyph-name="U" unicode="U" horiz-adv-x="609" 
d="M97 -160h-1h1zM756 491q3 -2 7 -5.5t2 -8.5q-5 -15 -14 -28t-19 -25q-11 -13 -22 -25t-22 -25q-17 -17 -33 -36q-8 -13 -16.5 -25t-16.5 -26q-12 -18 -22.5 -36.5t-20.5 -37.5q-20 -38 -37 -77.5t-34 -79.5q-17 -42 -34 -83t-26 -86q-3 -14 -5 -29.5t-1 -30.5q0 -6 1 -9
q6 1 12 -3q3 -2 7.5 -6.5t-0.5 -8.5l-4 -3v1q0 -1 -0.5 -1t-0.5 -1l-3 -3l-11 -3q-13 -2 -22 7q-11 8 -13 27q-2 17 0 36t6 36q9 45 26 86t34 83q13 31 26 61.5t27 60.5l-66 -78q-42 -48 -86 -92.5t-90 -89.5q-23 -23 -48.5 -44t-54.5 -38q-15 -9 -31 -16.5t-33 -10.5
q-15 -3 -29.5 -1.5t-25.5 12.5q-7 7 -9 16.5t-2 18.5q1 23 9 46q6 20 14 39.5t17 39.5q8 14 14 29.5t14 29.5q10 20 21 40l22 40q23 39 47 77t50 76l105 151q10 14 19.5 28.5t18.5 28.5q8 11 14 21t11 21q7 12 7 23v1v2q0 2 -2 2q-1 -1 -2 -1q-2 0 -3 -0.5t-2 -0.5l-11 -4
l-4 -2q-2 -1 0 0.5t-1 -0.5q-4 -2 -6 -2l-12 -6l-26 -15q-11 -6 -21.5 -12.5t-21.5 -14.5l-7 -6l-3 -2l-2 -1q-8 -6 -15.5 -12.5t-14.5 -14.5q-17 -15 -32.5 -30t-30.5 -32q-61 -64 -107 -137q-17 -28 -31 -57t-24 -60q-8 -28 -11 -51v-2v-3v-5q0 -10 5.5 -11.5t7.5 -11.5
q1 -6 -4.5 -8t-10.5 -1q-14 2 -22.5 11t-9.5 23q-1 13 1.5 25.5t5.5 23.5q2 11 5 20.5t6 19.5q2 8 6 17t9 17q4 10 9 19l10 18q20 38 45 73t53 67q29 33 60 63t65 58q8 7 16 12.5t16 10.5q12 8 24 15t25 14q12 6 24 11t25 7q15 3 28 0q7 -2 13.5 -7t9.5 -12q5 -12 1 -24
t-9 -23q-6 -12 -12.5 -23t-14.5 -22q-45 -68 -93 -135l-52 -76t-51 -76q-23 -38 -45.5 -76t-41.5 -78q-7 -14 -12.5 -27t-11.5 -27q-5 -8 -8.5 -17t-7.5 -18q-5 -11 -9 -22.5t-7 -23.5q-4 -13 -5 -22q-1 -2 -1 -6l-1 -2v-1v-9q0 -2 0.5 -4.5t0.5 -4.5h1q0 -5 6 -6q1 0 1 0.5
t1 0.5h2l16 4l7 3q1 0 2 0.5t2 0.5q3 2 0.5 0.5t0.5 0.5q17 7 32 16t29 20q14 10 26 20t24 21q26 23 50 47.5t47 48.5q48 48 92 98.5t88 101.5l111 132q5 9 11 16q23 32 45 64.5t54 57.5q5 3 11 2t10 -3zM86 -136v-1v1zM88 -155z" />
    <glyph glyph-name="V" unicode="V" horiz-adv-x="496" 
d="M273 451h2h-2zM78 176q0 -1 0.5 0.5t-0.5 -0.5zM909 673q3 -10 -2 -21q-2 -8 -13 -6.5t-17 7.5l-2 -2q-2 -2 -3 -2h-1v-1l-13 -12q-12 -11 -23 -23l-22 -24q-11 -13 -23 -24.5t-23 -23.5l-66 -70q-30 -33 -59 -66.5t-57 -68.5q-56 -68 -108 -137.5t-103 -141.5
q-54 -76 -103.5 -154.5t-94.5 -161.5q-2 -6 -8 -7t-12 1q-4 2 -9.5 6t-3.5 10q5 14 8.5 28t6.5 28t6.5 27t7.5 27q9 28 18 55.5t19 55.5q15 45 30.5 89.5t29.5 89.5q11 34 20 68t16 69q2 10 3.5 20t3.5 20q1 4 1 12q1 2 1 5v2v1v1l2 23q0 24 -4 44q0 2 -0.5 2.5t-0.5 2.5
t-1 3v-1q0 4 -3 9l-4 8v1h-1q0 1 -2 3q0 1 -1 1l-2 2l-1 1q-2 2 -3 2h-1l-2 1h-3q-2 1 -3.5 1t-0.5 0q-6 0 -9 -1h-1q-1 0 -1 -1q-4 0 -6 -1q-5 -1 -15 -5q-1 0 -2 -1q-1 0 -1.5 -0.5t-1.5 -0.5q-2 -1 -3.5 -2t-3.5 -2q-30 -17 -52.5 -44t-40.5 -56q-30 -47 -49 -96
q-5 -13 -9 -25.5t-7 -25.5q-2 -8 -2 -13q0 -2 -1 -2v-1v-2v-1v-2v-5l1 -2q8 -6 3 -13q-4 -5 -10.5 -4t-11.5 3q-17 11 -15 31q3 21 9 42q10 33 27 67q15 32 33 62.5t41 56.5q22 25 50 44.5t62 22.5q24 2 44.5 -9.5t29.5 -34.5q8 -21 8.5 -43.5t-1.5 -44.5
q-5 -64 -22.5 -125.5t-37.5 -122.5q-15 -45 -30.5 -89t-30.5 -89q-4 -10 -7 -20l-6 -20q12 20 24.5 40t25.5 40q51 77 104 150.5t109 146.5q54 70 110 137t116 131q29 30 46.5 47.5t27.5 28t14.5 16t7.5 9.5q11 11 21 21.5t21 19.5q10 8 21 15.5t25 7.5q7 0 13.5 -3t8.5 -11
zM871 649q-1 -1 0.5 0t-0.5 0v0zM296 448q-4 2 -2.5 1.5t2.5 -1.5z" />
    <glyph glyph-name="W" unicode="W" horiz-adv-x="728" 
d="M358 474q1 0 2 -1q-1 1 -2 1zM1090 638q4 -6 0.5 -9.5t-8.5 -3.5q-8 -2 -17 3q-2 -1 -3.5 -2l-4.5 -3q-7 -5 -12.5 -9.5t-11.5 -9.5q-29 -29 -58.5 -56.5t-58.5 -57.5l-66 -68q-14 -17 -27.5 -32t-27.5 -32q-25 -30 -47 -59.5t-44 -61.5t-45.5 -69.5t-50.5 -83.5
q-39 -68 -66 -142q-14 -38 -26 -79t-10 -84q5 -7 5 -14q2 -8 -6.5 -9t-13.5 0q-5 2 -8.5 3.5t-7.5 3.5q-13 8 -19.5 20t-8.5 26t-1.5 28t1.5 26q2 45 9.5 89t18.5 87q11 42 24.5 82.5t26.5 82.5q8 23 16.5 47t16.5 47q-13 -14 -24.5 -26t-22.5 -26q-50 -59 -93 -120
q-24 -34 -46 -68.5t-40 -69.5q-17 -31 -30 -65t-17 -70q0 -3 -0.5 -6t-0.5 -5t-1 -3q0 -6 -7.5 -6.5t-11.5 1.5q-3 0 -9 3.5t-5 8.5v3v1q1 28 4.5 54.5t8.5 53.5q11 46 24.5 92.5t27.5 92.5q8 27 15.5 53t15.5 52q6 19 12 36.5t11 35.5q2 11 4 21t4 21l2 23q2 8 1 12
q1 2 1 6v2v1q-1 11 -1.5 21t-2.5 21l-4 5h1q-1 1 -1 2l-3 7l-3 4v1l-4 3q-2 2 0.5 0.5t-0.5 0.5l-4 2h1l-1 1h-2q-1 0 -1 0.5t-1 0.5h-2q-3 0 -4 1q-3 0 0 -0.5t0 -0.5h-2h-6h-3h-1q-2 -2 -3 -2t-3 -1l-14 -3l-13 -6q-4 -2 -7.5 -4.5t-6.5 -4.5q-28 -20 -49.5 -47t-38.5 -57
q-9 -14 -16 -29t-14 -29l-4 -7q0 -3 -2 -5q0 -3 -1 -5q-2 -5 -4 -9t-4 -9q-5 -13 -9 -25.5t-6 -25.5q0 -3 -0.5 -6t-0.5 -6q0 -2 -0.5 -2.5t-0.5 -2.5v-1v-2q0 -1 0.5 -2t0.5 -2q0 -4 4.5 -7t-0.5 -8q-3 -5 -9.5 -4.5t-11.5 2.5q-12 5 -15 15t-2 21q2 13 4.5 24t5.5 22
l15 41q3 8 5.5 12.5t4.5 9.5l15 31q16 32 36.5 61t46.5 52q13 12 27.5 21t29.5 16q28 10 55 7q12 -3 23.5 -7.5t19.5 -15.5q12 -15 17 -38t3.5 -46t-5.5 -45q-3 -19 -8 -37t-11 -36l-30 -98t-29 -98q-2 -9 -4.5 -18t-4.5 -17q9 15 18.5 30t18.5 29q25 37 51 72.5t54 70.5
l30 35q13 16 30 33q14 14 27 27.5t33 21.5q5 2 10.5 1t10.5 -4q2 -2 4.5 -5.5t1.5 -6.5q-14 -38 -27 -76t-24 -76q-14 -41 -28 -80.5t-24 -81.5q-11 -38 -17 -76t-9 -78q21 80 58 152q16 36 35 70.5t41 68.5q11 17 18.5 29t16.5 26t22 32.5t36 48.5q26 34 53.5 67.5
t56.5 65.5q31 35 64 68t67 66l25 25t26.5 25t27 21.5t28.5 13.5q7 2 14.5 0t12.5 -10zM357 475q2 -1 1.5 -0.5t-1.5 0.5zM375 453q1 -2 1 -1.5t-1 1.5v0z" />
    <glyph glyph-name="X" unicode="X" horiz-adv-x="571" 
d="M945 611q4 -2 5 -6.5t-4 -7.5q-17 -15 -32.5 -31.5t-32.5 -32.5q-3 -2 -7.5 -2t-8 1.5t-5.5 4.5t0 7v1q-74 -49 -143.5 -104t-138.5 -113q-38 -32 -77.5 -65t-77.5 -68q-4 -3 -7 -6l-6 -6q2 -32 5.5 -63.5t8.5 -61.5q8 -43 18.5 -83t23.5 -80l8 -22t9 -23q0 -1 0.5 -1.5
t0.5 -1.5l4 -8l19 -38q7 -11 13.5 -22t14.5 -22q2 -4 5 -7t5 -6q0 -1 6 -8q10 -12 20 -19q4 -4 6 -5q1 0 1 -0.5t1 -0.5l1 -1q2 -2 4.5 -3.5t4.5 -3.5q10 -6 18 -7.5t16 -3.5h3h7h1h3l7 2q2 0 3 1h1q14 4 22 -4q2 -3 3 -8.5t-5 -7.5q-5 -3 -9.5 -4t-9.5 -3q-5 0 -9 -0.5
t-9 -0.5q-10 1 -19.5 2.5t-17.5 4.5q-17 6 -31.5 16t-25.5 23q-21 21 -36 43.5t-27 46.5q-14 24 -24.5 50.5t-20.5 53.5q-20 59 -32.5 121t-17.5 127q-27 -25 -53.5 -50t-52.5 -51q-37 -36 -73.5 -71t-73.5 -72q-10 -9 -19 -18.5t-17 -17.5q-6 -8 -14 -15t-15 -14
q-5 -5 -9.5 -10.5t-9.5 -8.5q-11 -7 -21 -1t-8 17q1 9 14 9l14 15q9 8 18 17.5t18 19.5q17 18 35.5 36t37.5 35q35 36 71.5 72.5t74.5 71.5q20 20 40 38t40 37q-1 11 -1.5 23t-0.5 23q0 46 0.5 92t-4.5 91q-1 8 -1.5 16t-2.5 15l-4 16q-1 1 -1 3l-1 2q-2 2 -2 3t-1 2
q-5 8 -15.5 6.5t-18.5 -6.5q-19 -8 -36.5 -20t-34.5 -25q-16 -12 -29 -25.5t-25 -28.5q-12 -16 -24.5 -32t-21.5 -33q-3 -7 -5.5 -13.5t-4.5 -13.5q5 0 10.5 -4t-1.5 -8q-5 -3 -9.5 -6t-9.5 -4q-11 -2 -14 4q-5 5 -5 12q3 14 6 24.5t10 24.5t15.5 26.5t17.5 24.5q8 11 16 21
t18 20q15 17 32.5 30t35.5 24q17 11 36.5 21t40.5 10q19 0 31.5 -9.5t18.5 -25.5q8 -14 9.5 -31t2.5 -34q5 -46 4 -92.5t0 -91.5v-3q11 9 21.5 18t21.5 18q38 34 76 65.5t76 63.5q77 63 155 121.5t166 106.5q5 3 12 2t10 -6zM360 474q1 -2 0 -0.5t0 1.5v-1z" />
    <glyph glyph-name="Y" unicode="Y" horiz-adv-x="532" 
d="M188 41l-1 1q1 0 1 -1zM1040 -60q5 -2 10 -5.5t3 -9.5q-2 -5 -8.5 -6t-10.5 1q-6 2 -12 3.5t-12 3.5l-12 3l-6 2h-3h-1q-28 6 -53 9q-16 2 -31.5 3t-30.5 2l-67 2q-61 1 -121.5 -0.5t-121.5 -3.5q-57 -2 -113 -4t-113 -4q-18 -31 -35.5 -62t-35.5 -63q-40 -72 -81 -143
t-85 -141q-2 -5 -8 -5t-10 2q-5 1 -9.5 4t-4.5 8q-2 33 -1 66t3 66q2 38 2.5 75.5t-7.5 74.5q-3 17 -8 32t-13 30q-5 7 -8.5 12.5t-9.5 12.5l-11 12l-1 1q-1 0 -2 1l-3 3l-7 6q-2 2 -4.5 5t-0.5 7q1 3 4.5 4.5t6.5 1.5q18 1 36 1.5t36 2.5q52 2 103 4t103 4l25 1
q35 62 71.5 122.5t74.5 120.5q11 16 21 31t20 31q-23 -25 -46 -49t-47 -49q-14 -14 -29 -28l-30 -28q-20 -18 -42 -36t-46 -32q-9 -6 -19.5 -11.5t-22 -9t-23 -3.5t-21.5 6q-15 8 -20.5 22t-5.5 29.5t3.5 31.5t7.5 29q9 30 21.5 58.5t27.5 56.5q19 33 40 64.5t42 63.5
q9 14 18.5 28t17.5 28q4 6 7.5 11.5t5.5 10.5q4 7 7 14.5t5 15.5q0 4 0.5 6t-0.5 6v4q-2 2 -2 4q-2 2 -1 0.5t0 0.5q0 1 -1 2q-1 0 -1 0.5t-1 0.5h1q2 -2 -2 0q-1 1 -3 1h-3h-2h-1h-7h-1q-2 -1 -4 -1q-8 -2 -15.5 -4.5t-15.5 -6.5q-34 -19 -67 -45q-14 -11 -25.5 -23
t-22.5 -26q-13 -14 -24.5 -28.5t-21.5 -31.5l-6 -12t-5 -13l1 1q6 2 12 -4q2 -2 1.5 -4t-2.5 -3q-8 -4 -18 -8.5t-17 6.5q-2 3 -1 7.5t2 7.5q2 10 4 17q6 18 15 32l21 32q5 8 11 14.5t12 13.5q5 6 10.5 12t12.5 12q32 29 65 49q16 10 33 17.5t35 9.5q15 2 31.5 -1.5
t25.5 -16.5q10 -13 9 -27.5t-7 -28.5t-13.5 -27t-15.5 -25l-39 -59q-38 -57 -72.5 -115.5t-49.5 -126.5q-2 -8 -3 -15.5t-2 -14.5q0 -10 1 -14q0 -5 1 -7v-3q0 2 0 1t1 -2q0 -2 2 -6q1 0 1.5 -1t-0.5 0l1 -1l1 -1v-1h1h-1h1h1q1 0 1.5 0.5t1.5 0.5h3l9 3q1 0 1.5 0.5
t1.5 0.5h1l2 1q1 0 1 1l10 5q11 7 21.5 14t21.5 15q21 16 40 32.5t39 35.5q22 20 42.5 41.5t41.5 44.5q35 36 69 72.5t68 74.5l33 37l31 35q13 17 25.5 33t29.5 29q4 3 10 2.5t11 -3.5t7.5 -7t-0.5 -9q-14 -24 -33 -46q-31 -38 -59 -77t-56 -79q-28 -39 -54 -79t-52 -81
q-28 -45 -54 -89t-52 -89l172 7q56 2 111.5 3t111.5 2q42 0 84 -1t84 -5q33 -3 66 -9q8 -2 16.5 -4t16.5 -4l14 -4l7 -3q3 0 4 -1h1zM339 512h2h-2zM187 41h-1h1zM263 -126q9 15 17.5 30t16.5 31l-183 -8q-17 -2 -34.5 -2t-34.5 -1q33 -35 47 -82q11 -35 13 -72t0 -74
q-1 -25 -1.5 -50t-1.5 -51q42 69 82 138.5t79 140.5zM988 -68h1h-1v0zM191 42q3 1 3 0.5t-2 -0.5h-1zM207 46h1h-1zM188 41h-1h1z" />
    <glyph glyph-name="Z" unicode="Z" horiz-adv-x="512" 
d="M862 -95q6 -2 12.5 -9t1.5 -14l-7 -5h-2q-8 -2 -14 0q-3 2 -7.5 4.5t-6.5 5.5q-5 2 -10.5 2t-11.5 1t-12 1.5t-11 0.5q-4 0 -7 0.5t-6 0.5h-6h-1h-1h-2q-37 1 -73.5 0t-73.5 -3q-44 -2 -87.5 -5.5t-86.5 -8.5q-88 -11 -170 -24q1 0 0.5 -0.5t-1.5 -0.5h-3q-2 0 -2.5 -0.5
t-2.5 -0.5t-4.5 -0.5t-4.5 -0.5l-18 -4l-36 -6l-61 -11q-85 -17 -168.5 -41.5t-161.5 -62.5q-5 -2 -12 -1.5t-12 5.5q-3 2 -5.5 6.5t1.5 7.5q18 16 35 32l34 32q36 35 71.5 69t71.5 68q36 35 73.5 67t75.5 64q75 61 152.5 117t158.5 109q72 48 145 92.5t148 89.5h-66t-66 -2
q-53 -1 -105 -2.5t-104 -2.5q-24 -1 -47.5 -2t-47.5 0q-8 1 -15 3.5t-12 9.5q-2 4 0 7.5t5 6.5q5 6 14.5 4t14.5 -7h53q106 3 210 6.5t209 1.5q13 0 20 -8q7 -7 -1 -14q-20 -11 -39 -22.5t-38 -23.5q-83 -50 -164 -100.5t-161 -105.5q-161 -108 -306 -234q-60 -51 -116 -106
t-113 -109q19 7 38 13.5t39 12.5q74 23 148.5 37.5t150.5 27.5q86 14 172 25t174 15q37 2 74 3.5t74 0.5q20 0 39 -1t39 -4q9 -1 18 -3t17 -4zM869 -122l1 1q-1 0 -2 -1h1z" />
    <glyph glyph-name="a" unicode="a" horiz-adv-x="293" 
d="M318 155q4 -2 8 -6.5t0 -7.5q-25 -22 -48.5 -42t-51.5 -38q-13 -8 -20.5 -13.5t-17.5 -10.5q-30 -17 -44 -23t-25 -8q-18 -2 -38 1.5t-30 20.5q-6 9 -5.5 20t3.5 22q-7 -8 -14.5 -15t-15.5 -15q-8 -7 -14.5 -15t-14.5 -13q-11 -10 -28 -16q-9 -4 -19 -3.5t-20 7.5
q-7 5 -10 13.5t-3 16.5q1 19 10 34.5t20 29.5q12 15 25.5 28.5t29.5 24.5q21 15 53 26q5 2 12 3t13 0q7 -2 14 -7.5t3 -13.5q-2 -5 -7 -5.5t-10 1.5q-1 0 -5 2h-1q-1 -1 -2 -0.5t-2 -0.5q-1 0 -3.5 -1t-0.5 0q-22 -10 -45 -26q-9 -8 -19.5 -17.5t-19.5 -20.5t-17.5 -22.5
t-13.5 -25.5q-2 -6 -3 -12.5t1 -12.5q2 0 3 1q8 5 14.5 9t12.5 10q15 12 30 29l58 62l31 28l1 1q5 7 11 13t11 13q3 3 8 3.5t10 -1t8.5 -5t3.5 -7.5v-1q0 -3 -5 -8q-1 -2 -2 -2.5t-2 -2.5q-3 -4 -5.5 -6.5t-6 -6.5t-8 -10t-11.5 -17q-2 -4 -4.5 -7.5t-4.5 -7.5
q-5 -9 -9 -18.5t-6 -17.5l-3 -10q-5 -14 4.5 -23t27.5 -4q15 5 28.5 12t29.5 15q37 20 68 46t63 54q5 3 10.5 2.5t9.5 -2.5z" />
    <glyph glyph-name="b" unicode="b" horiz-adv-x="266" 
d="M300 164q4 -5 2.5 -8.5t-6.5 -5.5l-39 -11q-29 -8 -58 -13.5t-58 -7.5h-6q-5 -10 -11 -19.5t-13 -17.5q-8 -9 -15.5 -18t-15.5 -17q-23 -24 -47 -40q-14 -9 -30.5 -15.5t-33.5 -4.5q-12 2 -24.5 8.5t-12.5 20.5q0 11 3 21t8 19q11 23 23 44t26 42q1 2 2 3.5t2 3.5
q1 1 2.5 3.5t-0.5 -0.5q5 9 9.5 18t9.5 18q11 20 21.5 38.5t22.5 37.5q20 31 41 60.5t45 57.5q9 10 17.5 19.5t18.5 17.5q9 9 19.5 17.5t22.5 13.5q11 4 23 1t18 -14q5 -12 0 -28q-3 -10 -7 -18.5t-9 -17.5q-6 -11 -12.5 -20.5t-13.5 -20.5q-28 -40 -62 -80
q-10 -12 -20 -23.5t-21 -22.5q-27 -29 -57 -54q-9 -8 -18.5 -16.5t-19.5 -16.5q-5 -3 -10 -6.5t-11 -5.5l-12 -20l-12 -22t-11 -23q-4 -9 -7 -20q0 -2 -0.5 -3t-0.5 -4q0 -5 2.5 -6.5t6.5 -1t8 1.5t6 2q13 5 26.5 14t24.5 19q9 8 16.5 16t15.5 17q10 11 18.5 22t15.5 23l1 1
q-10 3 -15 10q-6 8 -2.5 16t11.5 11q11 5 22.5 3t18.5 -13q2 -6 2 -9h6q10 1 18.5 1.5t32.5 5.5q21 5 41.5 11t40.5 12q12 3 21 -6zM133 316q-26 -35 -49 -72t-43 -76q0 -1 -0.5 -1t-0.5 -1q5 5 10.5 10t10.5 10q11 10 21 19.5t20 20.5q26 29 52 61q16 20 31 40.5t29 42.5
l6 10q3 6 6.5 12t6.5 14q5 11 6 22q-7 -3 -12 -7.5t-11 -9.5l-10 -9q-20 -20 -38 -41.5t-35 -44.5z" />
    <glyph glyph-name="c" unicode="c" horiz-adv-x="187" 
d="M77 154q-3 -5 -9 -3.5t-9 5.5q-2 -2 -4 -2.5t-4 -2.5q-5 -3 -11 -7t-11 -9l-8 -6l-9.5 -9.5t-9.5 -10.5q-9 -10 -17 -19.5t-16 -20.5q-11 -17 -15 -21.5t-7 -13.5q-3 -6 -3 -17v-3t3 -2.5t9 0t18 4.5q14 5 18.5 7t6.5 3l23 10l12 6q14 8 27.5 16t27.5 17l52 36l2 2
q1 1 1.5 1t1.5 1l28 22q10 9 14 11.5t11 9.5q7 3 14 0q3 -2 6 -5.5t4 -6.5q-4 -8 -11 -15l-14 -13l-12 -9q-7 -5 -13 -9.5t-13 -9.5l-24 -18q-31 -21 -66 -41t-75 -34q-13 -5 -28 -6.5t-29 3.5q-11 4 -20 11.5t-8 20.5q1 9 6 20t10 19q14 21 30.5 39.5t33.5 35.5
q6 6 15 14.5t19.5 15t21 9.5t21.5 0q5 -2 9 -5t5 -8t-4 -12z" />
    <glyph glyph-name="zero" unicode="0" horiz-adv-x="359" 
d="M186 489q4 3 10.5 2t11.5 -4.5t7 -8.5t-4 -9q-3 -2 -6 -4.5t-6 -5.5q-34 -29 -60.5 -64t-49.5 -73t-42.5 -79t-31.5 -85q-8 -26 -12 -51q0 -5 -2 -15q0 -6 -1 -11v-28q1 -4 1 -7.5t1 -6.5q1 -2 1 -3t1 -3q0 -1 0.5 -2t-0.5 1q0 -1 0.5 -1.5t0.5 -1.5q1 -4 5 -12
q1 -1 1 -1.5t1 -1.5q1 -2 -0.5 0t0.5 0q1 -2 1.5 -2.5t1.5 -2.5q1 -1 1.5 -1t1.5 -1q-2 2 -1.5 1t1.5 -1q3 -3 5 -4q2 -2 -0.5 0t0.5 0q1 0 1 -0.5t1 -0.5q1 -1 1.5 -1t1.5 -1q3 -1 0 0.5t0 0.5q1 -1 2 -1t2 -1q1 0 2.5 -0.5t-2.5 0.5q2 0 3.5 -0.5t3.5 -0.5h3h7q2 0 4 0.5
t4 0.5q1 0 2 0.5t2 0.5q3 1 6.5 1.5t7.5 2.5q1 1 2 1t2 1q3 1 1 0t1 0q4 2 7 4t6.5 3.5t6.5 3.5q15 8 28 18t25 21q26 23 47 49t40 55q24 37 44 75.5t34 80.5q6 21 10.5 41.5t6.5 42.5q2 9 2 18.5t-1 18.5q0 5 -2 15v3q-1 3 -0.5 1t-0.5 0q0 3 -2 5q0 2 -2 6q-2 2 0 -0.5
t0 -0.5q0 1 -0.5 1t-0.5 1l-1 1q-2 2 -3 2q4 -2 2 -1t-3 2q5 -2 3.5 -1.5t-3.5 0.5q-2 1 1 0.5t1 -0.5h-2q-4 1 -1 0.5t0 -0.5h-5q-1 0 -2 -0.5t3 0.5h-2q-4 -1 -10 -3q-1 0 -3.5 -1.5t0.5 0.5q-2 -1 -2.5 -1t-2.5 -1q-2 -2 -5 -3t-5 -3q-5 -3 -10.5 -6t-10.5 -7
q-1 -2 -2 -2.5t-3 -2.5q-1 0 -2 -1t1 1l-2 -2l-9 -9q-13 -11 -23.5 -24t-21.5 -26q-23 -29 -43 -60.5t-35 -64.5q-5 -9 -9 -19t-5 -20q1 3 0.5 1.5t-0.5 -2.5q0 -2 1 -3q0 -2 -1 0.5t1 0.5q0 -1 0.5 -1t-1.5 2q0 -1 0 -0.5t-2 2.5q2 -2 -1 -0.5t-1 1.5q-3 1 -2.5 1t-3.5 0
q2 1 0 0.5t0 -0.5q2 1 3 1t3 1q-2 -1 -3 -1t-2 -1l1 1q10 3 18 -3q3 -2 4.5 -6t-3.5 -6q-1 -1 -1 -0.5t1 1.5l-2 -2l-1 -1q-2 0 -4 -2q-2 0 -3.5 -0.5t-3.5 -0.5q-12 0 -19 6q-7 5 -8 12.5t1 15.5q4 22 16 45q16 33 36 63q11 17 23.5 34t25.5 34q10 11 20 22.5t21 21.5
q20 17 42.5 30.5t48.5 11.5q29 -2 44 -26q8 -13 9.5 -28.5t0.5 -29.5q-2 -44 -14 -85.5t-30 -81.5t-41.5 -77t-50.5 -72q-20 -25 -42.5 -47t-48.5 -39q-26 -18 -59.5 -30t-65.5 0q-14 6 -26 16t-19 25q-11 26 -9 55q1 29 7 59t15 58q15 44 36 85t46 79q24 37 52 72t64 61z
" />
    <glyph glyph-name="one" unicode="1" horiz-adv-x="273" 
d="M318 477q4 -2 5 -7.5t-4 -8.5l-3 -1q-10 -7 -20 -19q-10 -10 -22 -27q-11 -14 -21 -29l-20 -30q-17 -30 -33.5 -60t-33.5 -60q-14 -26 -27.5 -53l-26.5 -53q-6 -14 -12.5 -27l-13.5 -27q-4 -8 -8 -16.5t-9 -16.5q-2 -5 -4.5 -9.5t-4.5 -9.5q24 2 48 1t48 -3q13 -2 17 -11
q2 -4 0 -7.5t-6 -4.5l-16 -4l-11 -3q-4 0 -6 1h-1q-2 0 -2 0.5t-1 0.5t-1 1q-1 1 -1.5 1t-1.5 1q-2 2 -3 4h-7h-12q-13 0 -25 -0.5t-25 -1.5l-52 -4l-32 -3q-9 -1 -19 -2t-19 2q-3 2 -6.5 4t-4.5 7q0 6 5 6q7 5 16 5t17 1l31 3l30 3q0 2 2 4l4 8l9 17q4 7 7 14t7 15
q6 11 12 23t11 24l42 84l36 67l41 73q21 35 41 64l-26 -15q-13 -8 -25.5 -15t-26.5 -14t-29 -12.5t-30 -3.5q-5 1 -10 3.5t-7 6.5v1q-2 4 2 8q5 5 12 3q2 1 4.5 1t-0.5 0q4 0 6 1q10 4 12.5 4.5t5.5 2.5l7 3l14 7q12 7 23.5 14t23.5 13l50 29q14 8 28 15.5t28 15.5
q12 5 24 -4z" />
    <glyph glyph-name="two" unicode="2" horiz-adv-x="410" 
d="M388 457q11 -11 14.5 -24.5t2.5 -28t-5.5 -29t-9.5 -26.5q-15 -30 -36 -57q-12 -17 -26 -32.5t-28 -29.5q-29 -31 -61 -58.5t-65 -53.5l-63 -51q-8 -6 -17 -12.5t-17 -13.5q31 3 63 3q24 1 47.5 0.5t47.5 -2.5q20 -2 39.5 -4.5t38.5 -10.5q5 -2 9.5 -5.5t4.5 -10.5
q-2 -9 -9.5 -10t-14.5 1q-3 1 -6.5 3.5t-5.5 6.5h-6l-4 2h-3l-10 2l-39 3q-21 2 -43 2t-44 -1q-28 0 -55 -3q-3 0 -5 -1h-5q-14 0 -27 -3h-5h-1q-6 -2 -9 -2l-14 -2q-8 -5 -15.5 -10t-15.5 -9q-11 -5 -24 -9.5t-26 0.5q-16 5 -19 19q-2 7 4 13q7 7 16.5 10t18.5 5
q12 3 24.5 4.5t25.5 3.5l7 1q18 11 35.5 24.5t34.5 26.5l63 50q32 26 63 53.5t60 57.5q27 27 54 62q5 8 10.5 15.5t10.5 15.5q0 1 0.5 1.5t0.5 1.5t1 2l3 5l6 13q2 6 4.5 13t4.5 14q2 8 3 13.5t0 12.5v6.5t-1 6.5q0 2 -1 4q-1 1 -1 2t-1 3l-2 3q2 -2 1 -1t-1 2l-4 4
q2 -2 0 0t-3 2q-2 2 -3 2l-2 2h-3q-1 1 -4 1q2 -1 2 -0.5t-1 0.5h-2q-1 0 -3 0.5t1 0.5h-5q-2 -1 -5.5 -1t-5.5 -1h-3q-2 -1 -5 -1l-9 -3q-18 -5 -35 -15.5t-36 -25.5q-26 -21 -48.5 -50.5t-27.5 -64.5q0 -1 -3 -4q-6 -5 -15 -2t-12 8q0 -1 -1.5 1.5t-1.5 3.5q0 3 1 5v5
l3 10q2 5 3.5 10.5t3.5 10.5q16 33 42.5 60.5t58.5 47.5q16 10 35 18t38.5 10.5t38.5 -2t34 -19.5zM160 291h1h-1zM358 450q-1 1 -2 1.5t2 -1.5v0z" />
    <glyph glyph-name="three" unicode="3" horiz-adv-x="379" 
d="M96 149q1 0 -2 -1zM355 451q14 -15 13 -34q-2 -22 -16 -39t-31 -31q-20 -17 -42.5 -30.5t-45.5 -26.5q-5 -2 -9.5 -4t-9.5 -4q26 -5 50 -15.5t41 -29.5q8 -9 14 -20t7 -24q2 -15 -2 -30.5t-10 -29.5q-15 -29 -37 -51.5t-48 -41.5q-26 -17 -54 -30t-59 -21
q-27 -7 -55.5 -8t-53.5 13q-8 5 -16.5 13t-13.5 19t-5 22t5 22q9 24 26 44t37 35q8 5 19 12t22 7q-3 0 -1 0.5t4 0.5q4 0 6 -1q5 0 7 -1q4 -2 8.5 -5t3.5 -8q1 -5 -3.5 -6t-9.5 1h-1l-6 -4l-14 -10l-10 -6l-4 -3q-2 -2 -0.5 -0.5t-0.5 -0.5l-1 -1l-18 -16t-16 -17l-7 -10
l-3 -5q-2 -2 -0.5 0t-0.5 0v-1q0 -1 -1 -1q-6 -12 -9 -29t9 -28q4 -4 6 -5q2 -2 4 -2q2 -2 4 -2l1 -1q2 0 3 -0.5t2 -0.5q1 -1 3 -1h1q1 -1 4 -1q7 -2 11 -1q-4 -1 -1 -0.5t5 -0.5q4 0 6 1q8 0 12 1h2h2l7 2l13 3q42 11 82 35q7 5 13.5 9.5t12.5 9.5q7 4 12 7.5t11 8.5
q11 11 21.5 22t18.5 24q2 3 3.5 5.5t3.5 5.5q2 4 4 7t4 8q7 15 8 29q1 -2 0.5 0t-0.5 3q0 2 1 3v6q-1 3 -0.5 5.5t-0.5 5.5l-1 2q0 1 -1 2q0 3 -2 5q-1 2 -1 3t-1 2t-0.5 1.5t-0.5 1.5q-6 8 -8 10t-6 5q-2 2 -6 4l-2 2l-10 5l-7 3h-1l-1 1q-3 1 -6.5 1.5t-6.5 2.5l-12 4
q-1 1 -2 1q-3 0 -3 1q-2 0 -3 0.5t-3 0.5l-28 2h-1h-1h-3q-4 0 -6 1h-7q-2 -1 -6 -1q-6 0 -12.5 3t-8.5 8q-3 5 0.5 8t8.5 5v0h2h1h2q4 2 6 2l14 5q3 0 5.5 1t4.5 2l4 2q5 2 9 4t8 5q44 18 82 47l5 4q1 0 2 1t-1 -1l2 2l9 8q4 4 8.5 7.5t7.5 8.5q8 10 11 14t3 5l2 4
q2 7 3 10t-1 14q-1 4 -4.5 8.5t-6.5 6.5q-1 0 -1.5 1t-1.5 1q-5 3 -10.5 5.5t-13.5 2.5h-14.5t-14.5 -2l-14 -3q-5 -2 -11.5 -4t-14.5 -5q-16 -6 -28 -16l-15 -10l-5 -4l-3 -2q-2 -2 -0.5 -0.5t-0.5 -0.5q-6 -4 -11.5 -9t-11.5 -10l-16 -20q-3 -3 -5 -6.5t-4 -8.5l-2 -3
q-2 -5 -8 -6t-12 1t-10 6.5t-1 9.5v1q0 1 0.5 1.5t0.5 1.5l2 3q14 26 36.5 45.5t46.5 33.5q26 17 58.5 26t62.5 4q15 -3 29.5 -9.5t25.5 -19.5zM19 12l2 -1q-1 0 -2 1zM292 203q-1 2 -1 1.5t1 -1.5zM285 220q0 -1 0.5 -2t-0.5 2zM245 249q1 0 2.5 -1t-0.5 0z" />
    <glyph glyph-name="four" unicode="4" horiz-adv-x="359" 
d="M340 489q3 -1 6.5 -5t2.5 -9q0 -1 -0.5 -1.5t-0.5 -1.5l-1 -1q-25 -56 -51 -110.5t-52 -108.5q-11 -24 -22 -47.5t-22 -46.5q23 1 45 2.5t45 3.5q6 4 14 3.5t16 -2.5q5 -1 9 -4t5 -8q-1 -5 -4.5 -7t-7.5 -3q-3 -1 -6.5 -1t-6.5 -1h-6q-28 -3 -56.5 -5t-57.5 -3
q-4 -8 -7 -15.5t-7 -15.5l-29 -69l-8 -18t-6 -17q-5 -6 -8 -13t-12 -9q-5 -1 -11 1.5t-8 6.5q-4 5 2 10l2 3q2 3 2 5.5t1 5.5l10 27q6 14 11 26t10 26q5 11 10.5 22t10.5 22q-24 -1 -48 -1t-48 -1h-22t-22 -1l-22 -2q-8 -2 -12 -1q2 -1 4 -1h-1h-1q-4 1 -11 1q-4 1 -8.5 5
t-5.5 9q1 7 5 9q10 10 21 19t22 17q28 25 56.5 49t55.5 48q29 27 57.5 53.5t56.5 54.5q23 24 44 48.5t44 50.5q4 5 11 4.5t12 -3.5zM95 -6q1 1 2 1q-1 0 -1 -0.5t-1 -0.5zM181 197q23 48 45.5 95.5t45.5 95.5l-33 -33t-33 -32q-46 -46 -94.5 -87.5t-99.5 -83.5q35 1 70 1.5
t71 2.5h10q5 11 9 20.5t9 20.5z" />
    <glyph glyph-name="five" unicode="5" horiz-adv-x="379" 
d="M208 298q26 -2 52 -9.5t45 -25.5q20 -20 20 -46.5t-11 -50.5q-13 -30 -33 -57t-44 -50q-23 -22 -50 -40.5t-57 -30.5q-23 -9 -50.5 -12t-50.5 10q-23 11 -34 35q-8 21 0 47q8 24 24 44.5t35 36.5q8 7 17 14t19 9q2 0 4.5 0.5t4.5 0.5h1h3h1q2 -1 5 -1q1 -1 2 -1t3 -1
q3 -2 6 -6t1 -8q0 -3 -3 -4t-6 0l-6 -3q-4 -2 -7.5 -4.5t-6.5 -5.5l-4 -3q-1 0 -1 -0.5t-1 -0.5q-2 -2 0 -0.5t0 -0.5l-8 -6l-16 -17q-5 -5 -8.5 -9.5t-7.5 -9.5l-7 -11q0 -1 -0.5 -1t-0.5 -1t-1 -2l-2 -4q-5 -11 -8 -20q-1 -3 -1.5 -5.5t-0.5 -5.5v-1v-2v-4q0 -4 1 -6v-4
l2 -4l2 -4l2 -3q0 1 -1 1h1l3 -4l3 -3q-3 2 -1.5 0.5t2.5 -1.5q0 -2 3 -2q1 -1 1.5 -1t1.5 -1l4 -2h4q1 0 0 -1h3h4h1h2h11q1 0 4 0.5t-1 0.5q4 0 5 1q7 2 13 3.5t12 3.5l4 2h1l6 3l13 6l26 15q53 36 93 89q11 14 18 28q7 10 14 27q6 16 9 29v5v1q1 2 1 6q0 2 -0.5 5t-0.5 5
l-2 6v2l-5 9q0 1 -0.5 1t-0.5 1l-3 3l-1 1l-1 1l-3 3l-5 3q4 -2 2 -1t-3 2l-10 4l-2 1t-3 1t-2 1l-11 3h-1h-2q-2 1 -6 1l-12 2q-4 0 -7 0.5t-6 0.5h-7q-1 1 -3.5 1t0.5 0h-25t-25 -1h-2q-8 -4 -18.5 1.5t-8.5 14.5q1 5 2 9t4 7q10 29 21.5 57.5t20.5 58.5q2 5 8 6t12 -0.5
t10.5 -6t2.5 -9.5q-9 -29 -20 -57t-22 -57q13 1 25.5 0.5t25.5 -1.5zM423 448q6 -8 2 -12q-6 -6 -11 -10t-13 -4q-5 0 -10 2t-6 8v3q-14 2 -28.5 2.5t-28.5 1.5q-5 1 -9.5 1h-9.5h-20h-39q-20 -1 -39 -1.5t-38 -2.5l-35 -3q-4 0 -8 -0.5t-9 -1.5q-6 0 -9 -1q-2 0 -4.5 -0.5
t-2.5 0.5q-13 -3 -21 7q-3 4 -2 9t7 6q37 6 74.5 7.5t75.5 3.5q42 2 84.5 0t84.5 -8q11 -2 15 -7zM241 271h-1h1zM45 3q1 0 3 -1t-3 1zM259 265q4 -2 1 -0.5t-1 0.5z" />
    <glyph glyph-name="six" unicode="6" horiz-adv-x="344" 
d="M344 437q7 -17 6 -34.5t-6 -34.5l-9 -20q-3 -6 -6 -11t-8 -8q-11 -8 -26 -1q-5 2 -8.5 7.5t0.5 10.5q3 5 10 5l2 2l7 14q7 15 8 28q2 8 2 15.5t-2 15.5q0 1 -0.5 3t0.5 0q0 1 -0.5 1.5t-0.5 1.5l-3 6q0 2 -3 5t-6 5q-1 0 -1 0.5t-1 0.5t-1 1q-1 0 -1.5 0.5t-1.5 0.5h-2
h-3h-6q-1 0 -1.5 -0.5t-1.5 -0.5q-2 0 -3 -0.5t-3 -0.5l-8 -3q-1 0 -1.5 -0.5t-1.5 -0.5q-2 -2 0 -0.5t-1 -0.5l-13 -6q-7 -4 -13.5 -7.5t-13.5 -8.5q-14 -9 -25 -19q-5 -4 -9.5 -7.5t-9.5 -8.5q-26 -23 -47.5 -50.5t-40.5 -56.5q-22 -35 -39 -72t-27 -77q-5 -17 -7.5 -35.5
t-0.5 -36.5q2 -8 3 -14t5 -14q1 -2 2 -3.5t2 -3.5l2 -3q-2 2 -1 0.5t2 -1.5q2 -4 4.5 -6.5l7.5 -7.5q4 -2 6 -4q1 0 1 -0.5t1 -0.5l6 -3q2 -1 0 0t1 0q1 -1 4 -1q1 -1 4 -2t-1 1q8 -2 13 -2h2h4q5 0 7 1h1q3 0 4 1q2 0 4 0.5t4 0.5l9 3l4 2q-2 -1 -1.5 -0.5t1.5 0.5t2 1l8 4
t9 4q33 19 61 48q12 13 23.5 27t20.5 29q8 13 13 24q6 12 9 28l3 14v0v2v3q0 4 -1 6v7q-1 1 -1.5 3.5t0.5 0.5q-1 3 -2 5.5t-3 5.5q2 -3 1 -1.5t-2 2.5l-2 2q0 1 -1 2h-1l-2 2h-1q-2 1 -2.5 2t-2.5 1q-1 0 -1 0.5t-1 0.5h-1q-1 0 -1.5 0.5t-2.5 0.5q-3 0 -6 1t-7 1h-1h-2h-2
q-17 0 -33.5 -5.5t-32.5 -14.5q-16 -8 -28.5 -19.5t-23.5 -25.5q-12 -16 -20 -32l-10 -18q-1 -1 -1 -2t-1 -2q0 -4 -3.5 -5.5t-6.5 -2.5q-5 0 -10 2t-7 7t-1 9.5t3 8.5q11 32 30 55q18 23 42.5 39t52.5 24q20 5 40 6t39 -6q16 -5 28.5 -15t17.5 -27q9 -28 -1.5 -58
t-26.5 -53q-22 -32 -50.5 -60t-63.5 -45q-17 -9 -34.5 -14t-37.5 -4q-35 2 -61 23q-27 21 -36 54q-5 18 -4 36t4 36q8 41 23.5 79t35.5 73q38 65 93 122q10 9 19.5 17.5t20.5 16.5q13 10 26 18.5t27 15.5t29 11.5t30 2.5q17 -2 32 -12t22 -26zM247 224q1 0 1 -0.5t-2 0.5h1z
M257 217l-1 2q-1 0 1 -2zM284 451q3 0 0.5 -0.5t-0.5 0.5z" />
    <glyph glyph-name="seven" unicode="7" horiz-adv-x="325" 
d="M383 453q2 -5 -1 -7q0 -2 -2 -2l-2 -2q-3 -3 -9 -6q-4 -2 -7 -4t-7 -4q-7 -4 -13 -8t-13 -9q-14 -10 -26 -20.5t-25 -21.5q-26 -24 -50 -49.5t-47 -51.5q-27 -30 -52.5 -61t-49.5 -64q-13 -18 -24.5 -36.5t-22.5 -38.5q-5 -9 -10 -18.5t-9 -19.5v-2q1 -1 2 -2.5t-1 -3.5
q-1 -2 -2 -4.5t-2 -5.5l-2 -3q2 2 1 1l-2 -2q0 -1 -0.5 -1t-0.5 -1l-11 -19q-3 -5 -10.5 -4t-12.5 3q-3 2 -6.5 5.5t-1.5 8.5q2 9 5.5 18t7.5 18t8 17.5t9 17.5q9 17 19 33.5t21 33.5q21 31 44 60t47 57q26 30 52.5 59t55.5 57q15 14 30 27.5t32 25.5q6 5 12 9l12 8
q-3 0 -6 -0.5t-7 -0.5q-20 -2 -39.5 -4t-39.5 -4t-40.5 -3t-40.5 0h-21.5t-21.5 2q-11 1 -20 4t-17 11q-5 5 -2.5 10t8.5 7q13 3 23 -4v-1h3q4 0 8 -0.5t9 -0.5q6 0 9 -1h3h4h19q20 1 38.5 2t38.5 3t39 4t39 4q15 1 31 1t31 -4q5 -2 9.5 -5t6.5 -8z" />
    <glyph glyph-name="eight" unicode="8" horiz-adv-x="340" 
d="M329 386q5 -2 7.5 -7t-0.5 -10q-5 -8 -10 -14.5t-12 -13.5q-15 -16 -28 -27q-15 -12 -31.5 -22.5t-33.5 -20.5q-4 -2 -7.5 -4.5t-8.5 -4.5q14 -16 26 -33.5t18 -37.5q12 -36 0 -74q-12 -33 -37 -61q-24 -26 -55.5 -45t-66.5 -25q-37 -8 -72 2q-16 5 -31.5 14t-26.5 23
q-16 23 -11 52q2 15 9 28.5t15 25.5q20 29 46.5 52t55.5 41q21 13 42.5 24t43.5 23q-4 4 -7.5 7t-7.5 7q-13 13 -25 27.5t-18 31.5q-3 10 -4 19.5t2 19.5t8.5 19t12.5 17q24 29 55 45t59 22q17 4 33 5.5t33 -3.5q12 -3 24.5 -11t15.5 -22q2 -8 -1 -15.5t-6 -14.5
q-5 -11 -11.5 -20t-14.5 -18q5 2 10.5 1.5t9.5 -2.5zM194 233l-6 8t-7 8q-26 -14 -52 -28.5t-50 -31t-45 -37t-36 -45.5l-6 -12l-6 -13l-3 -13q0 -2 -0.5 -3t-0.5 -3v-1v-3q0 -8 1 -12q0 -2 1 -3q1 -2 0 -0.5t0 -0.5q1 -1 1 -2t1 -3l3 -5q2 -2 2 -4l5 -4q-2 2 0 0t3 -2l3 -3
q1 -1 2.5 -2t-1.5 1l6 -3l8 -4q-3 2 -1.5 1t2.5 -1q1 -1 3 -1l9 -3q5 -1 9 -1.5t6 -0.5h1h8t8 1q2 0 4 0.5t4 0.5q-2 -1 -2 -0.5t1 0.5h2q2 0 2.5 0.5t1.5 0.5l17 4l8 3l4 2h2q8 4 15.5 8t15.5 9q7 5 14 9.5t12 9.5q13 11 24 24t18 27q9 17 13.5 34.5t1.5 36.5q-2 8 -3.5 15
t-5.5 15q-5 8 -8.5 14t-8.5 13zM260 335q12 10 24 21.5t20 25.5q-5 -7 -11.5 -13t-13.5 -12q-2 0 -5 -3l-5 -5q-4 -4 -7 -5q-3 -3 -6.5 -5.5t-6.5 -4.5q-8 -5 -17 -7t-16 5l1 -1q-7 5 -5 10.5t6 10.5q2 3 7.5 2t7.5 -4v1q2 0 2.5 1.5t2.5 2.5l7 6l13 14q8 8 15 16.5t14 17.5
l12 17l3 5q-1 -2 -1 -1.5t1 1.5q0 1 1 2l4 8l2 8q0 2 0.5 4.5t-0.5 5.5v1l-2 2l-1 1q-1 0 -2 1l-1 1q-1 0 -1 1l-6 1.5t-7 0.5h-1h-2h-7q-2 0 -4 -0.5t-4 -0.5h-4q-1 0 -2.5 -0.5t1.5 -0.5q-8 0 -15 -3q-15 -3 -30 -9q-1 -1 -2 -1t-1.5 -0.5t1.5 0.5q-14 -6 -24 -12.5
t-21 -15.5q-18 -15 -29 -31q-5 -8 -9 -16t-3 -17q0 -16 11 -32q2 -2 4.5 -6.5t5.5 -7.5l11 -13q5 -5 9.5 -9t9.5 -9q10 5 19 11q15 9 30 19t27 21z" />
    <glyph glyph-name="nine" unicode="9" horiz-adv-x="324" 
d="M333 498q2 3 1.5 2.5t-0.5 -2.5h-1zM358 502q3 -2 7 -6t2 -9l-1 -2q-28 -45 -53.5 -90t-49.5 -91q-22 -42 -42 -83.5t-39 -83.5q-9 -22 -18 -43t-17 -43q-5 -11 -8.5 -21.5t-7.5 -21.5l-8 -23q-2 -4 -3.5 -8.5t-4.5 -6.5q-8 -4 -18 -0.5t-12 12.5q-1 2 0 5t2 5l2 4l4 10
l8 24l19 48q9 24 19 47.5t21 46.5q17 36 34 71.5t35 70.5q-9 -10 -19 -19.5t-21 -18.5q-13 -12 -30 -25t-36 -22t-38.5 -10.5t-37.5 11.5q-17 13 -21 33t2 40q8 26 24.5 48t34.5 41q19 20 40.5 38.5t44.5 33.5q8 5 17 10t18 9q11 4 23 -1q2 0 2 -1q4 -2 5 -4q6 -6 3 -11
q-5 -11 -19 -7l-4 -2q-5 -2 -9 -5t-9 -6q-17 -12 -22.5 -16t-7.5 -6l-5 -4l-3 -2l-1 -1q-23 -18 -42 -39q-10 -11 -19 -21.5t-17 -22.5l-7 -12l-3 -5q1 2 0 1t-1 -2t-0.5 -1t-0.5 -1q-6 -11 -9 -22l-3 -11q-2 -11 2.5 -25t18.5 -14q7 1 17 6l4 2q2 1 3.5 1.5t3.5 2.5
q9 5 17.5 11t16.5 12q5 3 6 4l2 2l8 7l18 17q19 17 36 35.5t34 38.5q15 18 29.5 36t28.5 36l20 28l7 11l3 5q0 1 1 1q1 1 1 2q3 5 10.5 4.5t12.5 -2.5z" />
    <glyph glyph-name="question" unicode="?" horiz-adv-x="270" 
d="M318 425q7 -14 6 -31t-6 -31q-13 -36 -38.5 -66t-53.5 -55q-28 -24 -56.5 -46t-60.5 -40l-30 -18q-7 -5 -11.5 -8.5t-9.5 -9.5q-11 -14 -17 -30.5t-14 -32.5q-3 -5 -9 -6t-11 1q-4 1 -10 5.5t-4 10.5q3 5 5.5 11t4.5 11l8 18t9 18q7 13 21 22q13 11 28 19.5t29 17.5
q14 8 27.5 18t27.5 21q16 12 31 24t29 26t27 28t24 31q9 14 16.5 29.5t9.5 32.5v1v2v3v7q-1 3 -1 7q-1 1 -1 3l-1 1q0 4 -2 6l-1 1l-2 2q0 2 -1 2l-1 1q-1 0 -1.5 0.5t-1.5 0.5q-4 2 -1.5 1t0.5 0l-2 1h-2h-4q-1 0 -1.5 0.5t-1.5 0.5q-3 0 -4 -1h-5q-1 0 -1.5 -0.5
t-1.5 -0.5q-3 -1 -5.5 -1t-5.5 -2q-2 0 -6 -2q-1 0 -1.5 -0.5t-1.5 -0.5q-2 -1 0 0t-1 0l-11 -6q-12 -6 -26 -14l-25 -18l-23 -19q-21 -20 -38 -44q-3 -3 -7 -11q-2 -2 -0.5 0t-0.5 0q0 -1 -0.5 -1.5t-0.5 -1.5q-2 -4 -2 -5q0 -2 -1 -3q4 -2 7 -6.5t-2 -8.5l-3.5 -3.5
l-3.5 -3.5q-11 -5 -23 0q-4 2 -9 5t-5 8q3 19 14 38q15 26 37.5 46.5t46.5 37.5q25 19 51 29q11 5 23.5 9t24.5 3q19 0 37 -7.5t26 -25.5zM273 434h1q-1 0 -2 0.5t1 -0.5v0zM8 2q4 -3 5.5 -8t-3.5 -8l-6 -4t-5 -4v-1h-1l-2 -2l-1 -1q-2 -6 -8.5 -7t-11.5 1t-10 6t-3 10
q2 5 9 12l13 9q6 3 12.5 1.5t11.5 -4.5zM-6 -27q0 -1 1 0h-1zM-1 -23q0 1 1 1z" />
    <glyph glyph-name="exclam" unicode="!" horiz-adv-x="133" 
d="M159 446q1 6 8.5 6.5t11.5 -0.5q5 -2 9.5 -6t3.5 -10q-2 -16 -8.5 -30.5t-13.5 -28.5q-11 -21 -20.5 -42.5t-19.5 -42.5q-11 -22 -21.5 -43.5t-21.5 -43.5l-16 -32t-15 -33q-8 -15 -12 -30q0 -2 -2 -8v-3v-1v-5v-3q3 -7 -1.5 -10t-10.5 -3t-12.5 3t-7.5 8q-5 11 -2 23
t7 22q5 15 12 29.5t14 28.5q11 22 21.5 43.5t21.5 43.5q11 21 21.5 42.5t20.5 43.5q9 20 19.5 40t13.5 42zM-19 6q3 4 9.5 4.5t12 -2t8.5 -7.5t0 -10q-3 -4 -5 -10q-2 -3 -3 -6.5t-3 -6.5q-3 -3 -8 -4t-10.5 0.5t-9.5 4.5t-4 8t1.5 8.5t3.5 7.5q2 3 4 6.5t4 6.5z" />
    <glyph glyph-name="at" unicode="@" horiz-adv-x="446" 
d="M412 137q1 -1 1 -3q0 -7 -2 -13t-4 -11q-5 -9 -9.5 -18t-10.5 -17q-14 -23 -33 -42.5t-39 -36.5q-24 -20 -51.5 -35t-57.5 -23q-32 -9 -67 -9t-64 17q-26 15 -40.5 38.5t-20 50.5t-3.5 56t10 55q11 33 28 64.5t37 59.5q22 29 49 55.5t59 44.5q31 17 67 24.5t71 -6.5
q31 -13 44 -43q8 -17 9 -35.5t-1 -36.5q-6 -40 -23 -78t-41 -70q-21 -30 -46 -50q-13 -11 -27.5 -16.5t-31.5 2.5q-14 6 -20 20.5t-5 28.5q0 8 1 11q-4 -3 -11 -10q-10 -8 -20.5 -15.5t-23.5 -12.5q-5 -2 -12.5 0.5t-10.5 7.5q-10 12 -7.5 27t7.5 28q9 23 22.5 43.5
t30.5 38.5q6 7 13.5 13t15.5 10q21 10 36 -3l6 10t7 9t9.5 4.5t11 -1.5t9 -6t3.5 -10q-2 -13 -7.5 -24t-11.5 -22q-4 -6 -7.5 -12.5t-8.5 -12.5q-3 -10 -6 -19.5t-5 -19.5l-5 -21q0 -2 -0.5 -4.5t-0.5 -4.5q0 -3 -1 -4q0 -5 -0.5 -10.5t1.5 -11.5q1 0 1.5 -2t1.5 -4
q1 0 2 0.5t-1 -1.5l11 7q6 4 10 7.5t10 9.5q13 13 24 27.5t21 30.5q20 32 34 72q5 18 9.5 37t2.5 38q0 7 -0.5 14.5t-4.5 15.5q-3 7 -4 8.5t-2 2.5l-5 6q-4 4 -11.5 9t-19.5 7h-7h-4h-9q-5 0 -12 -1.5t-12 -3.5t-7 -2.5t-7 -2.5l-13 -6q-32 -16 -58.5 -39.5t-49.5 -52.5
q-44 -56 -68 -122q-5 -14 -7.5 -27.5t-4.5 -30.5v-7v-13q0 -7 0.5 -13.5t1.5 -13.5l3 -13q0 -2 0.5 -2.5t0.5 -1.5v-1l2 -5l6 -16t11 -16l8 -9l1 -1l2 -2q1 -1 2 -1.5t2 -2.5q1 0 3.5 -1.5t-0.5 0.5l5 -3q2 -3 7 -4h2l1 -1q2 0 6 -2q1 0 3.5 -0.5t1.5 -0.5l14 -2h2h2h1h8
q4 0 8 0.5t8 0.5q3 1 8 1q3 1 0.5 0.5t0.5 0.5h4q8 2 15 4t15 4l14 6h2l4 2l6 3l27 15q7 4 13 8t12 9l6 5q1 1 4 3t11 9q19 17 36 36t31 40q3 4 5.5 8t4.5 8q3 3 2 3q0 1 1 2l1 3h1q0 1 0.5 1.5t0.5 1.5q1 3 2 5.5t1 4.5q0 1 1 2q-4 8 5 10q5 1 10.5 -0.5t8.5 -5.5l3 -7z
M152 129q22 21 42 45l15 21q2 8 5 15.5t7 14.5q0 1 0.5 1.5t0.5 1.5q-2 0 -6 2l-3 -3l-4 -2q0 -1 -0.5 -1.5t1.5 1.5l-2 -2l-7 -6l-14 -16q-8 -10 -15 -20t-13 -21q-1 0 -2 -1.5t1 0.5l-2 -3q0 -1 -2 -5l-5 -10q-4 -9 -7 -20q0 1 1 1l3 2v1h1zM386 138v-1v1zM381 125l-1 -1z
M377 118q0 1 1 1q0 1 -1 -1zM215 -30h-1h1z" />
    <glyph glyph-name="parenright" unicode=")" horiz-adv-x="169" 
d="M59 445q-5 2 -10 5.5t-3 9.5t8 6.5t11 -1.5q20 -5 32.5 -22.5t18.5 -36.5q9 -29 12.5 -59.5t2.5 -61.5q-1 -71 -20 -145q-16 -70 -50 -138q-16 -31 -35.5 -59.5t-43.5 -53.5q-5 -5 -12 -4t-12 3q-3 2 -7 5.5t-2 8.5l4 10t5 10q4 5 11.5 4t11.5 -3q5 -2 8.5 -7t-0.5 -10
q-2 -3 -3 -6.5t-3 -7.5q-8 3 -16 6.5t-16 6.5q11 12 22 24.5t20 26.5q39 57 64 126q26 70 35 144q5 33 5.5 67t-4.5 68q-1 6 -1.5 12t-2.5 11q-2 8 -3.5 13.5t-3.5 13.5q-2 4 -3 7t-3 7t-4 6q0 1 -0.5 1.5t-0.5 1.5q1 -2 0 -1t-1 2q-1 2 -2 2.5t-3 2.5q0 1 -1 1.5t1 -1.5
l-2 2q-2 2 -3 2q3 -2 2.5 -1.5l-1.5 1.5q-1 0 -1.5 0.5t-1.5 0.5q4 -2 3 -1t-2 1z" />
    <glyph glyph-name="parenleft" unicode="(" horiz-adv-x="187" 
d="M241 447q2 -2 3.5 -4t0.5 -4q-4 -8 -14 -9q3 1 1 0.5t-3 -0.5q1 0 1.5 -0.5t-0.5 -0.5h-2q2 1 -0.5 -1t-2.5 -1q-1 -2 -3 -4l-7.5 -7.5t-7.5 -8.5q-15 -17 -26 -33q-11 -15 -20.5 -31t-17.5 -32q-20 -38 -36.5 -76t-29.5 -78q-13 -41 -21 -83.5t-6 -85.5q0 -15 1 -30
t5 -29q0 -3 2 -9v-2v1q0 -1 0.5 -1.5t0.5 -1.5q1 -4 5 -12l3 -6q-2 3 -0.5 1t2.5 -3l-1 1q4 -4 5 -6t0 -0.5t1 -0.5q4 -5 0 -9q-3 -5 -11 -3q-11 1 -18.5 7.5t-12.5 15.5q-7 14 -10 29t-5 30q-2 16 -2 31.5t1 31.5q3 46 13 90.5t26 88.5q14 38 31.5 74.5t37.5 71.5
q10 17 20.5 33.5t24.5 32.5q7 8 14.5 16t15.5 15q8 8 20.5 9t21.5 -7z" />
    <glyph glyph-name="slash" unicode="/" horiz-adv-x="211" 
d="M268 400q2 -2 4.5 -5.5t0.5 -6.5q-3 -6 -5.5 -12.5t-5.5 -11.5t-4 -6v-1q-3 -2 -1 -2q-2 -2 -4 -6q-4 -7 -8 -13l-8 -12q-16 -25 -33.5 -49t-34.5 -48q-55 -75 -112 -147t-105 -153q-2 -4 -8 -4t-10 2q-10 2 -13 9q-5 10 -2 18t8 16q4 6 13 4q26 42 55.5 81.5t59.5 78.5
l56 74t55 75q14 19 27 38t25 39l7 11q1 2 3 4q0 1 1 1h-1h1v1l2 4l9 19q2 6 8.5 6.5t11.5 -0.5q2 0 4 -2zM228 373v1v-1zM229 375q-2 -2 -0.5 0t0.5 0z" />
    <glyph glyph-name="bar" unicode="|" horiz-adv-x="198" 
d="M202 402q9 -3 7 -12l-3 -25l-2 -6q0 -1 -2 -3q1 1 1 -1q0 -1 -1 -2q-2 -7 -3.5 -13.5t-3.5 -12.5q-17 -56 -36 -108q-17 -45 -34 -89t-34 -89t-32.5 -89.5t-26.5 -91.5q-2 -5 -7 -6t-9 0q-8 0 -15 7q-7 8 -7.5 17t2.5 18q2 5 11 5q13 47 29.5 92t33.5 90t34 89.5t33 89.5
q8 23 15.5 46t13.5 46q2 5 4 13v1q0 1 0.5 1t0.5 1l2 9l3 21q1 4 4.5 5t7.5 1q5 1 13 -3h-1q1 0 2 -1zM202 402l-1 1q1 0 1 -1v0z" />
    <glyph glyph-name="backslash" unicode="\" horiz-adv-x="352" 
d="M227 -38q2 -8 3 -17t-6 -16q-7 -8 -18.5 -3.5t-13.5 13.5q-7 26 -15 50.5t-16 49.5q-16 45 -33.5 88t-34.5 88t-32.5 90.5t-27.5 92.5q-2 5 -4 13l-2 16q-1 6 4 8t11 1t11.5 -4.5t6.5 -8.5t1.5 -10t2.5 -10q0 -4 1 -5q0 -1 0.5 -1.5t-1.5 2.5q1 -2 -1 1q3 -5 4 -11t3 -11
q6 -22 13 -43t15 -42q16 -45 33 -89t34 -89q14 -35 27.5 -71.5t24.5 -73.5q8 -2 10 -8z" />
    <glyph glyph-name="asterisk" unicode="*" horiz-adv-x="212" 
d="M115 446q3 4 9 4t11.5 -2.5t8.5 -7t0 -9.5q-2 -2 -0.5 0t0.5 0l-2 -4q-2 -6 -4 -9q-2 -5 -4.5 -11t-4.5 -11q-4 -8 -7 -17t-5 -18q-2 -5 -8.5 -6t-11.5 1t-8.5 4.5t-4.5 7.5t0 8.5t3 7.5q2 6 4.5 11.5t4.5 11.5q4 10 8.5 20t10.5 19zM114 360q-11 -2 -18 4q-2 2 -4 6t1 7
t7.5 5.5t9.5 4.5l8 4t9 4q7 2 17 9q4 2 7 4.5t6 4.5q5 3 12 2t12 -5q3 -2 4.5 -6t-1.5 -8t-7 -6.5t-9 -4.5q-4 -3 -8 -5t-9 -4t-9 -4t-9 -4t-9.5 -4t-9.5 -4zM100 363q-2 -2 -5.5 -1t-5.5 4q1 -1 2 -1.5t2 -2.5q-2 2 -4 3q-2 2 -1.5 1.5l2.5 -2.5q-3 2 -5 5q-1 2 -1 3t-1 3
q-2 4 -2.5 8t-2.5 8q-2 5 -4 8.5t-4 8.5q0 1 -0.5 1.5t-0.5 1.5t-1 2t1 -1l-1 1q-4 4 -4.5 8.5t6.5 6.5q5 2 11 0.5t9 -6.5q2 -2 2 -4q1 -1 1.5 -2.5t-0.5 1.5v-3q1 -1 1 -1.5t1 -1.5q2 -5 3 -9t2 -9q2 -5 5 -16.5t-5 -13.5q1 0 1.5 0.5t1.5 0.5q-2 -2 -8 -2q2 1 3 1t3 1z
M99 374q8 2 14.5 -1.5t8.5 -10.5q4 -10 5 -14l4 -14t3 -15q0 -6 -5.5 -8t-10.5 -1t-10 4t-7 9q-1 3 -1 9q1 4 6 5t8 0q4 0 9 -2t7 -7q0 -1 0.5 -1.5t0.5 -1.5q-1 2 -0.5 1.5t0.5 -1.5q-8 0 -15 -0.5t-15 -1.5q0 6 -1 12t-3 11q-1 5 -3 13q-2 5 -1.5 9t6.5 6zM93 386
q5 2 14 -1t9 -10q0 -5 -4 -9.5t-7 -8.5q-4 -5 -8 -9t-8 -9q-3 -4 -7 -8t-8 -6q-6 -3 -11 -2.5t-11 2.5q-4 2 -7 5.5t-1 8.5q1 4 6 5.5t10.5 0.5t10 -4.5t4.5 -8.5q0 -3 1 1t-10 9q-4 2 -8 2q-8 1 -10.5 1t-3 -1t1 -1.5t2.5 0.5l-1 -1q2 2 4 3q1 1 -1 -0.5t0 -0.5q0 1 0.5 1
t0.5 1q1 0 3 2l13 13q3 4 6.5 7t6.5 7q3 3 5.5 6t7.5 5z" />
    <glyph glyph-name="ampersand" unicode="&#x26;" horiz-adv-x="485" 
d="M508 206q2 -2 2 -6.5t-4 -6.5l-59 -30l-86 -48q-32 -15 -63 -33q4 -6 7 -12l6 -12l20 -32q3 -3 7 -9q5 0 10.5 -4t4.5 -9q-1 -3 -1.5 -5.5t-0.5 -5.5q-4 -8 -15.5 -6t-15.5 10l-3 3l-5 7q-2 4 -5 6.5t-5 6.5q-8 16 -19 30q-2 5 -4.5 9t-5.5 9l-18 -9q-32 -18 -67 -35
q-13 -6 -25.5 -11.5t-26.5 -10.5q-14 -4 -28.5 -8t-28.5 -6q-14 -3 -29 -4t-29 4q-8 4 -14 8.5t-9 12.5q-4 5 -4 11t2 11q2 12 9 23.5t15 21.5q11 16 23 30.5t25 27.5q16 17 31.5 32.5t32.5 30.5q17 17 34.5 34t35.5 34q-1 2 -1 5q-1 41 13 82q7 17 16.5 32t22.5 27
q12 12 27 22t33 11q13 0 25.5 -5.5t17.5 -19.5q5 -8 2 -18.5t-8 -18.5q-8 -14 -18 -27t-21 -25q-14 -16 -28.5 -30.5l-29.5 -29.5l-18 -18q3 -30 12 -60q5 -17 12 -33.5t15 -32.5q3 -5 5.5 -9t4.5 -9q9 5 18.5 10.5t18.5 10.5q20 11 39 21t39 21q-11 -1 -22.5 -1t-23.5 -1
q-5 2 -11 4.5t-8 8.5q-3 5 1.5 8t9.5 4q16 -2 34.5 0t36.5 6l69 16q6 2 13 -1.5t10 -8.5zM252 352q-12 -26 -15 -52l13.5 13.5t12.5 13.5q12 13 24 26.5t22 28.5q2 3 3 5t3 4q1 2 2.5 4.5t3.5 5.5l3 8q1 3 1 6v1q0 4 -5.5 3t-7.5 -3l-6 -3q-5 -3 -7 -4.5t-5 -4.5
q-7 -6 -13 -11.5t-11 -12.5zM31 8q2 -1 0 1v-1zM216 72q11 6 21.5 11.5t21.5 11.5q-3 6 -6 11.5t-6 11.5q-8 17 -16.5 33.5t-13.5 34.5l-6 18t-5 19q-22 -21 -43.5 -42t-44.5 -43q-14 -15 -28 -29.5t-26 -31.5q-8 -10 -17 -21.5t-14 -24.5q-2 -2 -3 -6.5t-2 -5.5v-1v-3
q0 -2 1 -3l1 -2v-1h1h5h9q47 4 88 22.5t83 40.5zM28 19v-1q0 1 1 1t-1 0z" />
    <glyph glyph-name="percent" unicode="%" horiz-adv-x="381" 
d="M181 425l2 -1zM183 424h1q2 -1 -1 0zM-53 -56h1h-2h1zM178 426q-2 2 0.5 0.5t0.5 -1.5q0 1 -1 1zM355 482q4 -2 8 -7t0 -10q-50 -51 -95.5 -105.5t-89.5 -111.5q-28 -37 -55 -74.5t-53 -76.5l-52 -80q-6 -10 -12.5 -19.5t-13.5 -19.5l-14 -20l-5 -7v-1q1 -5 -2 -7
t-7 -2.5t-8.5 0t-7.5 2.5v1q3 -2 4.5 -2t-2.5 1q-1 0 -1.5 0.5t-1.5 0.5q-1 1 -2 1.5t-2 1.5l3 -3q-4 2 -7.5 5.5t-1.5 8.5q2 4 3 5q2 3 4 6.5t4 5.5q13 18 25.5 36.5t24.5 37.5q24 37 48.5 74t50.5 73q41 56 83.5 109.5t87.5 105.5l-21 -6q-17 -5 -33.5 -6.5t-33.5 2.5
q-1 0 -1.5 0.5t-2.5 0.5q-2 -18 -9 -33q-14 -31 -46 -42q-12 -5 -26 -1t-19 18q-3 10 -1.5 20.5t4.5 20.5q4 11 8.5 22t10.5 20q5 8 13 14q0 1 5 3h1q2 2 4 2h1q2 2 4 3q5 2 13.5 1t13.5 -3q1 -1 1.5 -1t1.5 -1h1q2 -2 3 -2.5t2 -2.5l2 -2h-1l1 -1l9 -8l5 -3q1 0 1 -1h1h1
q-1 0 -1 -0.5t1 -0.5h3q2 -1 6 -1h2q1 0 1 -0.5t-2 0.5h3h14q2 1 4.5 1t5.5 1l13 3q29 7 56 22q7 4 13.5 7.5t12.5 8.5q6 4 10 7t9 8t11.5 4.5t11.5 -3.5zM123 447zM116 443h-1h1zM141 406q1 4 0.5 8.5t-1.5 6.5q0 2 -1 3q0 -2 -2 -2l-2 -2l-8 -10l-2 -4q2 2 1 1t-1 -2
l-3 -6q-10 -22 -13 -42q0 -1 -0.5 -2t0.5 1v-2v-1q8 4 11 8t11 13q1 2 0 1q1 1 1 2l2 4l3 7q2 5 2.5 9t1.5 9zM-28 -51q1 0 1 1zM261 195q-14 5 -28 1t-24 -14l-2 -4q-4 -2 -6 -4q-11 -10 -16 -26q-7 -18 4 -33q5 -8 16.5 -12t20.5 -2q16 2 29 13t21 24q5 8 8 16t1 16
q-2 10 -9 16t-15 9v0zM214 123h1h-1zM217 122v1v-1zM252 170v-1q0 -1 -0.5 -1.5t-0.5 -1.5q-1 -4 -5 -12q-3 -5 -7 -9.5t-8 -9.5l-9 -7l-5 -3h-1q0 -1 -1 -1q1 0 1 1t-1 1q-1 10 6 23q0 1 1 2v1q4 4 5 6l4 3q5 -2 8 0q1 1 3.5 3t4.5 4.5t3.5 3t1.5 -1.5z" />
    <glyph glyph-name="copyright" unicode="&#xa9;" horiz-adv-x="325" 
d="M202 426q-3 -8 -13.5 -5t-11.5 11q-1 1 -1 3v4v12q0 7 -1 10v5q-1 2 -0.5 0t-0.5 0v2q7 -2 13 -4t13 -4q-2 -1 -0.5 0t-0.5 0q0 -2 -2 -2q-1 -2 -2 -3t-2 -3q-3 -3 -9 -11q-5 -8 -8.5 -14.5t-7.5 -14.5q-3 -8 -6 -16.5t-5 -16.5q0 -2 -1 -3v-2v-7q0 -4 1 -7q0 -1 0.5 -1
t0.5 -1q-11 3 -25 8q11 8 22 20t27 13q4 0 10.5 -3t4.5 -9q-3 -6 -8.5 -10t-10.5 -9q-10 -11 -23 -20q-6 -5 -14 -1.5t-11 9.5q-4 7 -4 15t2 16q1 8 4 17t6 17q7 15 16 30t23 26q5 4 14 1t11 -9q2 -5 2.5 -11t0.5 -11q0 -3 -0.5 -6.5t-0.5 -7.5q0 -1 -0.5 -2t-0.5 -2t-1 -3
t0 0zM142 503q-2 -2 -4 -0.5t-2 3.5q0 4 -3 7q3 -1 6.5 -2t6.5 -2q-11 -8 -18 -20.5t-13 -24.5l-1 -2q0 -1 -1 -1q0 -1 -0.5 -1.5t-0.5 -1.5q-3 -5 -3 -8q-2 -5 -4 -8.5t-4 -8.5l-6 -22t-5 -23q-3 -11 -4.5 -22t0.5 -22q0 -7 1 -12q0 -1 0.5 -1.5t0.5 -2.5q0 -1 1 -2
q1 -2 0 -0.5t0 -0.5l3 -9q1 -2 3 -4q1 -2 -0.5 0t0.5 0l1 -2l4 -4q1 -2 -0.5 0t0.5 0l1 -1t3 -2t-2 0q3 0 5 -1q1 -1 2 -1.5t-2 1.5q1 -1 2 -1q1 -1 2 -1t3 -1q-4 2 -1 1t4 -1h2q9 0 13 1q-3 -1 -0.5 -0.5t3.5 0.5q4 2 5 2l6 2q3 1 1 0t0 0q1 1 4 1q3 2 5.5 3.5t5.5 3.5
q12 8 21.5 16t19.5 19q19 20 33.5 43.5t23.5 49.5q9 24 6 49q0 2 -0.5 3.5t-0.5 3.5v1q-1 1 -1 2q-2 2 -2.5 4.5t-2.5 4.5q2 -2 0 -0.5t-2 2.5t-2 2.5t1 -0.5q-2 2 -4 3l-1.5 1.5t2.5 -1.5q-1 0 -2 1q-2 1 -4 1.5t2 -0.5q-2 0 -4 1h-2q4 -1 3 -0.5t-2 0.5q-4 0 -5 1h-3
q-4 0 -6 -1h-5q-1 0 -1.5 -0.5t-1.5 -0.5q-5 0 -11 -2q-4 -2 -6 -2q-1 -1 -3 -1q-2 -2 0 -0.5t0 -0.5q-7 -2 -12.5 -5t-11.5 -7q-4 -3 -10 -1.5t-11 4.5q-8 8 -1 14q16 11 34 18t38 6q19 0 36.5 -8t25.5 -26q11 -24 5.5 -51t-16.5 -50q-13 -26 -30 -49.5t-40 -42.5
q-21 -18 -47.5 -28.5t-55.5 -2.5q-26 6 -38 29q-5 9 -7.5 19.5t-2.5 20.5q0 24 5.5 47t14.5 45q3 8 7 17t9 17q8 13 18 26.5t26 15.5q2 0 6 -1.5t4 -4.5q0 -6 -6 -10z" />
    <glyph glyph-name="numbersign" unicode="#" horiz-adv-x="324" 
d="M313 451q1 1 1 1.5t-1 -1.5zM348 288q5 -2 8.5 -6.5t-0.5 -9.5q-6 -10 -18 -13q-6 -1 -12.5 0.5t-10.5 6.5q-3 3 -3 8h-4h-7h-10t-32 -1q-8 -13 -14.5 -25.5t-13.5 -24.5h3l36 4q11 0 22.5 -1t19.5 -9q3 -3 4.5 -7t-3.5 -7q-3 -2 -9 -4q-8 -2 -16 3l-1 1h-2
q-5 0 -11 -0.5t-12 -1.5q-11 -2 -22.5 -2.5t-22.5 -1.5q-9 -17 -18 -35l-18 -36q-8 -17 -15.5 -33.5t-12.5 -34.5q-3 -5 -4 -11q0 -4 -1 -6v-1q0 -2 0.5 -3t0.5 -3q2 -4 1 -6q-3 -8 -13 -6q-10 0 -19 9q-4 5 -4 11t1 12q2 6 3.5 12.5t3.5 12.5q7 18 15.5 36t17.5 35
q10 22 22 44l-66 -6q-29 -59 -58 -117.5t-56 -118.5q-3 -5 -9 -6t-11 1q-4 1 -10 5.5t-3 9.5q17 37 34.5 73.5t36.5 72.5q10 19 19 38t19 38l-36 -3l-17 -2h-2h-6q-2 0 -8 2q-8 3 -10 11v1q-3 8 6.5 9t17.5 1l25 3l44 4q7 14 14 27.5t15 27.5q-10 -1 -19.5 -1.5t-18.5 -1.5
q-11 -1 -22 -1.5t-22 1.5t-15 9q-4 8 6 10q10 4 21 1h5l21 2l43 5q4 0 7 0.5t7 0.5q10 19 19.5 37.5t19.5 38.5q5 11 10 21.5t10 21.5q5 9 9 19t6 20q-2 5 3.5 7t9.5 1q4 0 9 -2.5t5 -7.5q0 -11 -2.5 -19.5t-6.5 -18.5q-4 -9 -7.5 -18t-8.5 -18q-8 -18 -16.5 -35.5
t-17.5 -34.5q-2 -2 -2.5 -4.5t-2.5 -5.5q10 1 19 1.5t19 0.5q7 1 13.5 1h14.5q5 10 10 19l10 18q-1 -2 -0.5 -2t0.5 1t1 2l2 3q0 1 2 5l6 10q2 5 5 10l6 10l18 35q4 7 7.5 13.5t6.5 13.5l5 10q0 2 0.5 2.5t0.5 2.5q1 0 1 1v2h1q2 5 7.5 6t11 -0.5t9.5 -5.5t3 -10v-1v-1
q-1 -1 -1 -3q-5 -14 -11.5 -26.5t-13.5 -25.5l-43 -80q-1 -2 -2 -3.5t-2 -3.5h11q16 0 33.5 -0.5t31.5 -8.5zM149 33v-1v1zM191 220q7 13 13.5 25.5t14.5 26.5q-4 -1 -12 -1q-14 -1 -27 -1t-27 -1q-7 -14 -14 -27.5t-14 -27.5l12 1q14 2 27 2.5t27 2.5zM313 451v-1v1z" />
    <glyph glyph-name="plus" unicode="+" horiz-adv-x="301" 
d="M288 219q8 -8 -1 -15q-2 -2 -6 -4q-10 -5 -22 2h-16q-8 1 -16.5 1h-16.5q-11 0 -22 -0.5t-22 -0.5q-13 -31 -29 -64l-14 -32t-13 -33q-2 -5 -8 -6t-12 0.5t-10.5 6t-2.5 9.5q12 33 27 63l25 55l-48 -3q-5 0 -10.5 -0.5t-11.5 -0.5q-2 -1 -7 -1h-2q-5 0 -8 1q-2 1 -2.5 1
t-2.5 1l-3.5 3.5l-3.5 3.5q-4 9 6 11q11 3 21.5 4t21.5 2l62 4l24 52q4 7 7.5 13.5t5.5 14.5l3 13v3v2q-1 4 2.5 5.5t6.5 1.5q7 1 13 -4q7 -5 7 -10q0 -10 -1 -15q-3 -13 -11 -30l-20 -45q44 2 88 0q6 0 12 -2t10 -7z" />
    <glyph glyph-name="hyphen" unicode="-" horiz-adv-x="289" 
d="M283 230q8 -9 -1 -16l-6 -3q-12 -5 -23 2h-15h-33h-32.5t-32.5 -1l-64 -3l-22 -2h-8h-1q-6 -1 -12 1.5t-8 7.5q-3 8 6 12q11 2 21.5 3t21.5 2q16 2 31 2.5t31 1.5q31 2 62 2.5t63 -0.5q6 -1 11.5 -2.5t10.5 -6.5z" />
    <glyph glyph-name="equal" unicode="=" horiz-adv-x="402" 
d="M77 263h-1h1zM387 194q3 -5 -1 -8.5t-9 -3.5q-23 -2 -46.5 -2t-46.5 -1t-44.5 -2t-43.5 -3l-87 -6q-11 -2 -21 -2.5t-21 -1.5l-21 -2q-3 0 -6.5 -0.5t-6.5 0.5q-5 0 -11 4q-1 1 -1 2q-1 0 -1 0.5t-1 0.5q0 1 -1 2q-4 9 6 11q11 2 21.5 3t21.5 2l41 4l83 7l85 4q45 3 90 3
q5 1 12 -2t9 -9zM76 263q-3 1 -2.5 1t2.5 -1zM73 264q-5 1 -9 4t-5 8q0 5 5.5 6.5t10.5 1.5h1h1h13h18t18 1l104 3q18 0 36.5 1t36.5 -1q5 0 14 -6t3 -13q-2 -2 -2 -3t-1 -3q-4 -8 -14.5 -7t-15.5 9h-37q-26 -1 -52.5 -1.5t-52.5 -0.5q-11 -1 -21.5 -1h-21.5h-9t-9 1h-5h-2
q-1 0 -1.5 0.5t-1.5 0.5h-1z" />
    <glyph glyph-name="comma" unicode="," horiz-adv-x="78" 
d="M40 45q4 -2 7 -5.5t4 -8.5q0 -7 -3 -13q-3 -8 -8 -13.5t-10 -10.5q-12 -11 -26.5 -18.5t-31.5 -5.5q-5 1 -10.5 4t-5.5 8q-1 5 2.5 7t7.5 2q1 0 3 0.5t-1 -0.5q1 0 2 0.5t3 0.5q2 1 3 1t2 1q1 0 1.5 0.5t1.5 0.5q8 3 13 7q2 1 3 2t3 2q1 1 1.5 1t1.5 1t0 1q4 3 10 9
q2 2 2.5 3t1.5 2t1 1.5t1 1.5q3 4 3 10q0 1 1 2v3q1 1 1.5 2t2.5 2q6 6 11 0.5t6 -3.5z" />
    <glyph glyph-name="period" unicode="." horiz-adv-x="164" 
d="M7 37q5 3 11 1q6 0 12 -4q8 -8 4 -14q-3 -4 -6.5 -7t-6.5 -6q-5 -3 -9 -3q-6 -1 -13 2q-4 2 -7.5 6.5t0.5 9.5l15 15v0z" />
    <glyph glyph-name="less" unicode="&#x3c;" horiz-adv-x="254" 
d="M267 424q2 -3 -0.5 -6.5t-5.5 -5.5q-1 -1 -2 -1t-2 -1q-27 -22 -52 -45.5t-51 -46.5q-25 -22 -50 -43t-51 -41q15 -27 26 -55.5t21 -57.5l21 -62q5 -14 10.5 -27.5t10.5 -27.5q2 -6 -1.5 -9t-8.5 -4q-6 0 -12.5 2.5t-9.5 8.5q-7 13 -12 27l-10 28l-21 62q-11 31 -22 61
t-28 58q-2 3 -0.5 6t3.5 5q29 20 54.5 42t51.5 45q27 25 54 49.5t55 48.5q8 6 19 3t13 -13z" />
    <glyph glyph-name="greater" unicode="&#x3e;" horiz-adv-x="274" 
d="M244 235q3 -3 -1 -9q-26 -30 -52.5 -59.5t-53.5 -59.5q-28 -32 -55 -63.5t-53 -65.5q-1 -1 -1 -1.5t-1 -1.5q-3 -5 -9.5 -5t-12.5 3t-9 7.5t1 9.5q4 8 7 12q2 2 4 2q23 32 48 61t51 58t51.5 57t50.5 58l-5 8q-1 1 -2.5 3t0.5 0l-4 6l-16 24l-38 54l-36 54q-13 20 -23 38
q-2 5 2 8.5t9 3.5q14 2 21 -10l2 -3q2 -5 4.5 -9t5.5 -9l7 -11l4 -5q-1 1 -1 0t1 -1l2 -3l36 -53l34 -48t32 -50z" />
    <glyph glyph-name="sterling" unicode="&#xa3;" horiz-adv-x="436" 
d="M452 424q1 -12 -0.5 -25t-3.5 -24q-4 -16 -10 -31t-14 -29q-7 -14 -15 -27.5t-20 -24.5q-5 -4 -10.5 -3.5t-10.5 2.5q-5 3 -8 8h-1q-1 1 -1 2v1q-1 2 -2 3t-1 3q0 7 5.5 8.5t10.5 1.5q6 8 10.5 15.5t8.5 15.5q7 13 12.5 26t9.5 27q4 13 5 22q0 5 1 7v2v1v1v10v8t-1 8v2
l-1 -1l-6 -4l-7 -5l-3 -2l-2 -2q-16 -14 -30.5 -29.5t-28.5 -32.5q-11 -14 -22 -28.5t-21 -29.5q-10 -14 -18.5 -28.5t-17.5 -28.5l-27 -46l34 3q8 1 14.5 1.5t13.5 0.5h4q6 0 12.5 -2.5t9.5 -7.5q4 -11 -7 -13q-13 -1 -25 -6q2 -8 -5.5 -8.5t-11.5 1.5h3h-1q-3 0 -4 1
q-4 0 -8 4q-1 2 -3 4q-11 -2 -21 -2.5t-21 -1.5l-6 -10q-17 -27 -33.5 -54t-33.5 -54h4h25.5t25.5 -1q12 0 24 -0.5t24 -0.5q5 -1 10.5 -1h10.5q7 0 10 -1h4h1h1q15 0 30 -0.5t30 1.5q2 0 4 1h1h2q1 1 2 1t2 1t1 2q-1 6 5 8t10 1q6 -1 11.5 -4t7.5 -10q1 -9 -6 -14.5
t-16.5 -7.5t-19.5 -2.5t-16 -0.5q-34 -1 -67 1t-65 3h-46q-7 0 -13.5 -0.5t-12.5 -1.5h-1q-8 -11 -17 -22.5t-20 -21.5t-24.5 -16.5t-29.5 -3.5q-5 1 -11.5 4t-6.5 10q-1 18 5.5 31t18 21.5t27 13t31.5 7.5q19 30 38 59.5t37 58.5q-11 -1 -20.5 -0.5t-20.5 0.5q-5 1 -10 1
t-10 2q-3 2 -6.5 3.5t-6.5 5.5q2 -2 1.5 -1.5t-2.5 1.5l-1 1q-6 6 -1 10q3 3 6 3h-2q3 2 8 0h3h1q1 0 1.5 -0.5t1.5 -0.5h1q2 -1 6 -1q2 0 4.5 -0.5t4.5 -0.5h1h1h1h3h12t12 1q8 0 14.5 0.5t13.5 1.5l37 61q9 15 18 30.5t19 29.5q10 15 21 29l22 28q14 17 28 33t31 30
q7 5 13.5 10.5t14.5 8.5q9 4 19.5 4.5t18.5 -4.5q16 -9 19 -30zM355 52h-1q1 1 1.5 1t-0.5 -1zM349 51q-1 0 -2 -0.5t0 -0.5q1 1 2 1zM60 -1q1 2 2 2.5t3 2.5q3 4 9 10l-2 -1l-4 -3q-1 0 -1 -0.5t-1 -0.5l-7 -8q-1 -1 -2.5 -3t0.5 0l-1 -2q1 0 1 1q1 0 3 2zM361 269l2 -2
l-2 2v0zM360 275q0 1 0.5 1.5t0.5 1.5l-2 -2q1 0 1 -1zM414 439q1 0 2 -1h-1q0 1 -1 1v0zM416 436l1 -1q0 1 -1 1zM101 178l-2 2h1q1 -1 1 -2z" />
    <glyph glyph-name="dollar" unicode="$" horiz-adv-x="395" 
d="M421 449q21 -10 23 -33q0 -11 -3 -22t-8 -21q-13 -24 -31 -47q-8 -11 -17.5 -20t-19.5 -18q-8 -6 -17 -11t-19 -7q-11 0 -17 6q-4 4 -6 7q-1 1 -2 1.5t-2 2.5q-9 -20 -18 -39.5t-18 -39.5l-10 -20l-10 -20q3 -2 5.5 -3t5.5 -3q17 -8 34 -20.5t26 -29.5q15 -28 -3 -57
q-8 -14 -20.5 -25.5t-26.5 -20.5q-26 -19 -52 -31q-28 -12 -57 -20q-1 -2 -1 -3.5t-1 -3.5q-8 -22 -14.5 -44t-15.5 -44q-2 -4 -5.5 -4.5t-7.5 0.5t-7 4t-3 7q3 20 8.5 40t12.5 39v1q-4 0 -6 -1q-15 -2 -30.5 -0.5t-29.5 6.5q-14 6 -23.5 18.5t-10.5 28.5t6 30.5t19 25.5
q6 5 12 9.5t14 7.5q9 4 20 5.5t22 -3.5q8 21 17 42.5t18 42.5q1 3 2 5.5t2 4.5q-5 2 -10.5 3.5t-10.5 3.5q-16 5 -31.5 13.5t-24.5 22.5q-6 10 -6 21t5 21q10 24 28.5 43t38.5 36q27 22 56.5 40t61.5 34l26 56q2 5 6 5.5t9 0.5q2 0 5 -3q3 -2 6 -5t1 -6q-3 -8 -6.5 -15
t-6.5 -14q23 10 43 17l1 1q3 10 7 16l6 11l2 6q0 1 0.5 1.5t0.5 1.5v0v1q-1 5 4 7q0 1 2 1l-2 -1h2v1q6 2 10 -1h1l1 -1q9 -4 10 -9q0 -7 -2.5 -13t-5.5 -11q-2 -2 -2 -4q10 2 20 1.5t20 -5.5zM166 193q17 39 34.5 78t34.5 77l7 16q-13 -7 -25.5 -14.5t-24.5 -17.5
q-8 -5 -14 -11l-5 -3l-2 -2q2 2 1 1t-2 -1l-9 -8q-10 -9 -19 -18t-17 -20l-7 -10q-8 -13 -11 -28q1 2 0.5 0t-0.5 -3q1 -2 1 -4v-2l2 -4l1 -1l1 -2q1 0 2 -1t3 -2v-1q2 -2 4 -2q4 -2 7.5 -4t8.5 -4q3 -2 0 0t1 0l4 -2q2 -1 6 -2t18 -5zM77 -27q2 0 3 -0.5t2 -0.5h2
q0 8 2.5 16t4.5 16q10 32 21 59h-1h-1q-2 -1 -0.5 -0.5t0.5 -0.5q-5 0 -11.5 -4.5t-11.5 -8.5q-3 -2 -6 -6q-4 -3 -7 -7q-3 -2 -7 -8q-2 -2 -2 -4l-1 -1l-1 -2t-2 -4.5t-1 -5.5l-1.5 -4.5t-0.5 -3.5q0 -8 1 -11q1 -2 1 -4t2 -4q1 -1 2 -3t-1 0l2 -2l2 -1q0 -1 0.5 -1t0.5 -1
h1h-1h1l2 -2q3 -1 0.5 0.5t-0.5 0.5q1 -1 3 -1l2 -1h1zM116 -25q5 1 9.5 2t9.5 2q4 12 8 23t9 22q13 34 27.5 67.5t29.5 65.5q-2 0 -2.5 0.5t-2.5 0.5q-5 2 -9.5 3t-9.5 3q-14 -30 -26.5 -60t-23.5 -62q-5 -15 -10.5 -30t-9.5 -32l-2 -6q1 0 1.5 0.5t1.5 0.5zM237 147
q-13 -27 -25 -54t-23 -55q-5 -12 -9.5 -24t-9.5 -24l8 3q3 2 6 3t17 8q14 8 29 17t26 19q6 5 11.5 10.5t10.5 12.5l5 7l1 2q0 1 1 2q2 4 4 12q0 1 0.5 2t0.5 2v0v1q0 4 -1 7v3q-1 0 -1 1q0 2 -2 6l-3 4q1 -1 1 0l-1 1l-6 7l-2 3h-1l-1 1l-7 6l-9 6q-3 2 -0.5 0.5t-0.5 0.5
q-2 0 -4 2zM256 256q10 21 19.5 42t20.5 42q8 17 17 34.5t17 34.5l-2 -1q-8 -4 -12 -5l-24 -12q-6 -2 -8 -4q-19 -42 -37.5 -83t-36.5 -83l-8 -18l-8 -18q6 -2 12.5 -3.5t12.5 -3.5zM410 416q-1 -2 -0.5 -1.5t0.5 1.5v2q0 3 -0.5 7t-5.5 5h-4h-5h-2q-4 -2 -9 -2
q-7 -1 -16 -5l-16 -34l-16 -34q-8 -15 -15.5 -30.5t-15.5 -31.5q6 6 17 4h3q2 2 3.5 2.5t3.5 2.5l6 4q0 1 1 1l3 3q3 3 6 5.5t6 6.5q7 6 13 13t11 15l11 15q6 12 10.5 18.5t6.5 17.5l3 11q0 1 0.5 2t0.5 2zM381 490q1 0 -2 1h1q1 0 1 -1zM70 -25l-1 1z" />
    <glyph glyph-name="cent" unicode="&#xa2;" horiz-adv-x="208" 
d="M165 157q-1 -5 -7 -5.5t-10 0.5q-5 2 -8.5 5.5t-2.5 8.5q1 8 4.5 15t6.5 14l6 16t1 16q2 -2 4.5 -5t4.5 -5q-3 2 0 0.5t0 -0.5h-1h1h-3q-3 -1 -0.5 0t-0.5 0q-1 -1 -4 -1q-1 -1 -2 -1t-2 -1q-2 -1 0 0.5t0 -0.5h-1q-9 -5 -16 -10q-1 -1 -2 -1.5t-2 -1.5t-3 -2.5t0 0.5
q-2 -2 -4 -3.5t-4 -3.5q-18 -17 -34 -37t-30 -40q-3 -6 -6.5 -11.5t-7.5 -10.5q-4 -8 -6 -11q0 -1 -0.5 -1.5t-0.5 -1.5q-1 -2 -1.5 -2.5t-1.5 -2.5q-4 -7 -7.5 -14.5t-5.5 -15.5q-1 -3 -1 -6t-1 -6v-3v-5q0 -6 1 -9q1 -2 0 0t0 0q0 -1 0.5 -1.5t0.5 -1.5q2 -2 0 0.5t0 0.5
q0 -1 1 -1q1 -2 -1 0.5t-1 0.5q1 0 1 -1q-4 3 -3 2.5l3 -1.5q-5 2 -4 1.5t3 -0.5q-6 1 -4.5 0.5t3.5 -0.5q-5 1 -3.5 0.5t3.5 -0.5q1 0 1.5 0.5t1.5 0.5q2 0 -0.5 -0.5t-0.5 0.5h1q2 1 4.5 1t4.5 1q1 1 2 1t2 1q1 0 1.5 0.5t-1.5 -0.5l2 1q5 2 9.5 4.5t9.5 4.5
q10 6 19.5 12.5t19.5 13.5q15 11 29.5 22t28.5 22q4 3 10 2t11 -4.5t6.5 -8t-3.5 -8.5q2 2 1.5 1.5l-1.5 -1.5l-2 -2t1 1q-1 -1 -2 -1.5t-2 -1.5q-3 -2 -5.5 -4.5t-5.5 -4.5l-12 -10t-13 -10q-18 -13 -37 -26t-39 -21q-10 -5 -20 -7.5t-20 -0.5q-12 2 -21 8.5t-12 17.5
q-2 9 -1 19.5t4 19.5q6 18 15 33q25 48 62 89q17 21 38 38q8 7 17 12.5t20 7.5q12 3 22 2q10 -2 14 -5q13 -5 11 -17q0 -9 -3 -17.5t-7 -16.5q-3 -6 -6.5 -12.5t-5.5 -13.5zM155 284q3 2 8 1.5t8.5 -3t5 -6.5t-2.5 -7l1 1l-1 -1q2 2 1 0.5t-2 -2.5l-3 -3q-4 -8 -6 -11
q-1 -2 -0.5 -0.5t0.5 -0.5q-1 0 -1 -1q-2 -2 -2 -4q-1 -2 -2 -3.5t-2 -3.5q-2 -5 -4 -9t-4 -9q-11 -23 -20.5 -45.5t-19.5 -45.5q-10 -24 -19 -47.5t-19 -47.5q-4 -10 -7 -19t-7 -18q-3 -7 -6 -14.5t-9 -12.5l3 3l-2 -3q-3 -6 -13 -3t-8 10q-1 -2 -0.5 -1t1.5 2v1v1
q0 8 3 15l6 14l15 39q9 24 18.5 48t19.5 48q10 23 19 45t20 45q5 8 8.5 16t8.5 16q3 5 6 8.5t8 7.5z" />
    <glyph glyph-name="germandbls" unicode="&#xdf;" horiz-adv-x="219" 
d="M210 235q1 -9 -4.5 -18t-14 -17.5t-18 -15.5t-15.5 -10q-3 -2 -14.5 -7.5t-23.5 -12.5t-20.5 -14t-6.5 -12q8 -8 18 -15.5t18 -20.5q4 -5 5 -12t3 -15q1 -14 -3 -29.5t-12 -28.5q-8 -12 -19.5 -24.5t-25.5 -23t-29.5 -17t-30.5 -6.5q-20 1 -33.5 15t-8.5 33q2 15 11 26.5
t20 22.5q21 21 50 34q4 3 9.5 5t10.5 1q8 0 14.5 -4.5t4.5 -12.5q-1 -6 -5.5 -7t-10.5 1q-7 -2 -10.5 -4t-5.5 -4q-13 -10 -25.5 -19t-22.5 -21q-7 -7 -12 -21q-6 -18 4.5 -20t24.5 3l7.5 3t5.5 3q12 6 23.5 17t20.5 24q8 15 13.5 28t6.5 28q-4 25 -26 39q-6 6 -11.5 12.5
t-7.5 13.5q-1 8 2 13.5t8 10.5q10 7 25 15t31 17t29 19t18 21q1 2 3 8t-3 6q-15 0 -31.5 -8t-30.5 -18q-17 -12 -31 -25.5t-28 -27.5q-23 -23 -42.5 -50t-36.5 -53q-8 -11 -16 -20t-15 -21l-12 -13q-7 -6 -14.5 -4.5t-12.5 9.5q-1 1 -1 4.5t3 5.5q2 2 3 1.5t3 0.5q5 5 9 11
t9 14q10 16 23 32q20 30 42 60.5t51 57.5q14 13 29.5 25.5t32.5 21.5q8 5 16 8.5t17 6.5q11 3 20.5 4.5t20.5 -0.5q10 -4 17.5 -11t7.5 -18z" />
    <glyph glyph-name="underscore" unicode="_" horiz-adv-x="575" 
d="M453 20q2 -5 -1 -8t-8 -3h-61.5t-61.5 -1q-78 -2 -154 -4.5t-154 -1.5q-5 0 -11 2t-9 7q-2 5 1.5 8.5t8.5 3.5h65t65 2q69 2 137.5 4t137.5 2h4q5 2 11 0.5t11 -1.5t11 -2t8 -8z" />
    <glyph glyph-name="quotesingle" unicode="'" horiz-adv-x="152" 
d="M78 358q3 8 14.5 5t12.5 -11q0 -8 -4.5 -15.5t-9.5 -13.5q-4 -5 -8.5 -11.5t-10.5 -8.5q-5 -1 -11 0.5t-9 5.5q-5 7 1 12q-2 -2 -2 -1.5t2 1.5q1 1 1.5 2t2.5 2l9 12l7 10.5t5 10.5z" />
    <glyph glyph-name="quotedbl" unicode="&#x22;" horiz-adv-x="174" 
d="M140 420q3 0 6.5 -1.5t4.5 -5.5q0 -3 -2 -6t-4 -5q-2 -3 -4.5 -6.5t-5.5 -6.5l-18 -27q-2 -3 -7 -3.5t-9.5 2t-7 6t0.5 7.5q5 7 10.5 13.5t11.5 13.5q5 5 10.5 11.5t13.5 7.5zM61 339v-2v2zM99 413q2 -5 -0.5 -9.5t-4.5 -8.5l-14 -22l-9 -13l-3 -5v-1l-1 -2q-1 -1 -1 -2
q-2 -3 -3 -5.5t-1 -5.5h-1v-2q2 -5 -1 -8t-8 -4q-6 0 -12 2.5t-8 7.5q-3 5 -1.5 11t3.5 11q4 7 8 13t9 12q4 6 8 11.5t9 11.5l6 8q0 2 1 2v1q1 3 5 4t6 0q8 0 13 -7zM61 337v-1v1zM76 415h-1q1 1 1 0z" />
    <glyph glyph-name="AE" unicode="&#xc6;" horiz-adv-x="1152" 
d="M915 500l1 1l-1 -1v0zM1298 460q2 -5 0 -8t-7 -4q-30 -9 -63 -12q-5 -1 -11.5 2t-8.5 8q-2 3 0 7h-31q-62 1 -123.5 -3t-124.5 -8q-2 -3 -4 -6.5t-4 -6.5q-8 -15 -17.5 -29.5t-19.5 -29.5q-34 -48 -68.5 -94t-69.5 -93q45 1 89 1.5t89 1.5h87q14 -1 27 -1t27 -2
q13 0 18 -10q3 -10 -7 -12q-25 -6 -48 1h-25q-24 1 -47.5 0.5t-46.5 -0.5l-180 -3q-9 -12 -17.5 -23.5t-17.5 -23.5q-22 -30 -42.5 -61t-40.5 -63q-11 -17 -21 -34.5t-20 -34.5q-2 -5 -5 -10l-6 -10l-12 -22q0 -1 -2 -3q-4 -8 -7 -15t-6 -15q-7 -17 -8 -30v-1v-1v-4v-5
q1 1 4 1q4 1 1 0t1 0q6 2 10 2q8 3 17 6t17 7q37 16 75 30q84 31 171 54q94 24 191 33q46 4 95 6h20t21.5 -2t19 -7t13.5 -15q3 -6 -1.5 -9.5t-9.5 -3.5q-9 -2 -16.5 4.5t-18.5 7.5h-1h-1h-8h-19q-42 -1 -86 -6q-95 -9 -186.5 -33t-181.5 -58l-22 -9l-14 -6l-39 -16
q-10 -3 -20 -5.5t-21 -3.5q-11 -2 -22 0q-17 3 -21 16q-5 15 -1.5 30.5t9.5 29.5q10 22 24 46q1 3 3 7l29 52q14 24 28.5 47.5t29.5 46.5q18 26 36 51.5t37 51.5h-11l-102 -2t-102 -3l-158 -3q-41 -37 -80.5 -75.5t-78.5 -78.5q-29 -32 -58.5 -63.5t-57.5 -64.5
q-13 -14 -25 -29l-24 -30l-28 -33q-4 -5 -7.5 -9.5t-8.5 -9.5q0 -2 -2 -2q-1 -1 -1 -1.5t-2 -1.5v-1v2q-5 -5 -13 -4q-5 1 -11.5 4.5t-4.5 10.5q1 2 2 3l3 3l6 7q4 4 7 7.5t6 7.5q5 7 10.5 13.5t11.5 12.5l39 47q20 25 41.5 49t43.5 48q45 49 91.5 96t95.5 92
q-23 -2 -46.5 -3t-47.5 -3q-17 -2 -34.5 -4t-34.5 -4q-20 -3 -40.5 -7t-40.5 -9q-3 -5 -8.5 -5t-10.5 2q-7 2 -12 7t0 12q1 2 4.5 3t5.5 2l9 2q9 2 18.5 4t18.5 4q61 12 122.5 16.5t123.5 6.5q13 11 25 22t25 22q71 60 145.5 115t155.5 102q39 23 79 42.5t83 32.5
q22 7 44.5 11t45.5 5q12 1 27 -1.5t20 -16.5q3 -9 1 -18.5t-5 -18.5q0 -1 -0.5 -2t-0.5 -2q85 5 170 9t170 -6q5 -1 10 -3t7 -7zM-83 -231q-1 0 -1 -0.5t-1 -0.5zM896 503q-37 -4 -73 -15t-70 -28q4 -2 7 -4q7 0 14 0.5t15 1.5q11 1 27 2t33 1.5t32 1.5t23 1q1 3 2 5.5
t2 5.5q2 5 3.5 9t2.5 9q1 2 1 5v2q0 1 1 1v3h-10t-10 -1zM891 440q-20 -2 -38.5 -2.5t-38.5 -1.5q-3 -1 -7 -1h-7q-6 -1 -11.5 -1.5t-11.5 -0.5h-24q-6 1 -14 3.5t-10 9.5v2q-81 -42 -157 -94t-148 -109q-21 -17 -41.5 -34.5t-41.5 -35.5l141 2q54 2 107 3t107 2h9
q22 30 43.5 59.5t43.5 58.5q20 26 39.5 52.5t37.5 54.5q5 7 9.5 14t9.5 15z" />
    <glyph glyph-name="oe" unicode="&#x153;" horiz-adv-x="348" 
d="M356 152q3 3 8.5 2t9.5 -3.5t5 -6.5t-3 -8q-2 -2 -3.5 -3t-3.5 -3l-19 -15q-17 -11 -33 -22t-33 -22q-25 -16 -50 -31t-52 -27q-11 -5 -21 -8.5t-21 -6.5q-10 -3 -20 -5t-21 -2q-15 0 -30 5t-23 19q-3 4 -3 9q-17 -15 -36 -24q-14 -6 -28 -6.5t-27 7.5q-12 8 -13.5 21
t1.5 26q5 19 15 36.5t22 33.5q11 15 27 31l18 14q3 3 8 5q4 2 10 4q4 2 12 -1.5t6 -9.5q-1 -1 -1 -4q0 -6 -7 -4v-1l-6 -4l-12 -11q-13 -13 -25 -28q-22 -27 -34 -59q-2 -6 -3.5 -12.5t-1.5 -11.5q0 -4 1 -5q0 -1 0.5 -2.5t-0.5 0.5v-1q0 -1 1 -2l2 -1h1h1h1l8 2
q1 1 2.5 1.5t-0.5 -0.5q1 0 1.5 0.5t1.5 0.5l6 3l6 4t5 4q12 8 20 18l16 18t15 18l1 2q-1 2 -1.5 2.5t-1.5 2.5q-7 17 -5.5 34.5t14.5 31.5q11 12 28.5 17.5t28.5 -12.5q2 -3 4 -12q3 2 5.5 4t5.5 4q13 10 30.5 17.5t34.5 2.5q7 -2 12.5 -7t7.5 -13q2 -10 -5 -23t-17 -24
t-21 -20q-21 -17 -44 -28q-13 -6 -26 -9t-25 4q-2 -3 -4 -9q-2 -5 -4 -13q0 -1 -0.5 -1.5t-0.5 -1.5v-1v-5q0 -12 13 -14h2h12q2 0 2.5 0.5t2.5 0.5h3l15 4q5 2 9 3t9 3q8 2 11 4q1 0 2 1q1 0 1 0.5t1 0.5q2 0 6 2q28 13 50 27q26 14 50 29.5t48 32.5q11 8 23 15.5t23 15.5z
M91 143q0 -1 -0.5 -1t-0.5 -1q-9 -10 -10 -23l6 12q2 3 3 5.5t2 5.5v2zM137 123q-11 -11 -22.5 -22t-20.5 -25h1q1 0 2 0.5t2 0.5t2 0.5t2 0.5l11 6q24 13 42 28q2 2 0.5 0.5t0.5 -0.5q0 1 1 1q4 4 7.5 7t6.5 8q12 14 16 25q0 1 0.5 1.5t0.5 2.5l-5 -2l-6 -3l-8 -4
q-4 -2 -7.5 -4.5t-6.5 -5.5z" />
    <glyph glyph-name="ae" unicode="&#xe6;" horiz-adv-x="326" 
d="M345 159q3 1 7 0.5t7.5 -3t4.5 -5.5t-3 -6q-2 -2 -4 -4.5t-4 -3.5q-1 -1 -2 -1.5t-2 -1.5l-2 -2l-4 -3l-12 -9l-62 -42q-25 -16 -50.5 -31t-52.5 -26q-19 -9 -41 -15q-10 -3 -20 -5t-21 -2q-14 0 -29 5t-22 19q-6 10 -4 23l-2 -2q-16 -16 -32 -29q-11 -11 -27 -19
q-8 -3 -17.5 -2t-17.5 7q-13 10 -13 30q1 17 9 32.5t19 29.5t24.5 28t27.5 25q12 9 26.5 18.5t31.5 12.5l7 2h4q1 0 2 1q1 -1 3 -1h1h2q3 0 4 -1q5 -2 7 -5t-2 -7q-2 -2 -4.5 -1.5t-4.5 2.5q-8 -3 -16 -8q-11 -6 -22 -13t-21 -15q-11 -10 -21 -21l-20 -22q-8 -11 -16 -22.5
t-12 -25.5q-2 -7 -2.5 -13.5t3.5 -13.5h1q2 2 0.5 0.5t0.5 0.5q1 0 1.5 0.5t1.5 0.5q8 5 14 10t12 11q16 15 31 31q27 31 45 50.5t30 32t19 20t13 15.5q0 1 0.5 1t0.5 1q1 3 4 4q5 4 14.5 0t9.5 -10q9 4 19 5.5t19 -2.5q16 -5 19 -19q1 -10 -6 -23q-9 -16 -22 -28t-29 -22
q-14 -10 -29 -14q-9 -2 -20 -0.5t-16 9.5l-1 2q-8 -11 -14.5 -21.5t-8.5 -23.5q-1 -3 -1.5 -5t0.5 -6q0 -2 1 -3v-1q0 -2 2 -4l1 -1v-1q1 0 1 -1l2 -1h1q2 -1 6 -1h1h2h11q2 1 6 1q-3 0 -0.5 0.5t3.5 0.5q2 0 8 2q9 2 18 5l18 6q-2 -1 -2 -0.5t1 0.5t2 1q1 0 1.5 0.5
t1.5 0.5l6 3l12 6q6 3 12.5 6t12.5 7q26 14 51 30t49 32q16 11 26.5 18l16.5 11t9.5 6t6.5 3zM155 156q-7 -3 -15 -10l-5 -3q0 -2 -2 -2q-2 -2 -0.5 -0.5t-0.5 -0.5q-6 -5 -11.5 -10.5l-10.5 -10.5l-2 -5l-2 -9v-3v-1v-1v-3q1 0 1.5 0.5t1.5 0.5h1v1l14 7q12 8 22 16l4 2
q1 1 2 2.5t2 2.5l3.5 3.5l3.5 3.5l10 14l4 11q1 1 1 3v1h-1q-3 0 -7 -2q-1 0 -2 -1q-1 0 -1.5 -0.5t-2.5 -0.5zM65 21h-1h1zM344 158h-1h1zM110 98h-2h2zM353 137l-1 -1zM66 21l2 -1z" />
    <glyph glyph-name="OE" unicode="&#x152;" horiz-adv-x="980" 
d="M629 515q3 -2 2 -1.5t-2 1.5zM621 519q-3 1 -2.5 1t1.5 -1h1zM603 525q3 -1 0.5 -0.5t-0.5 0.5zM5 -222q1 0 2 -1zM640 507q-2 2 0 0t0 0zM1160 464q2 -5 0 -8t-6 -4q-32 -9 -63 -12q-6 -1 -12.5 2t-8.5 8q-2 3 0 7h-30q-87 1 -171.5 -5.5t-170.5 -10.5q2 -20 -0.5 -39
t-6.5 -37l-6 -21q5 8 10 14.5t10 13.5l15 20l6 9q0 1 1 1v1q0 1 0.5 1t0.5 1q1 5 6.5 6t11.5 -0.5t9.5 -5.5t2.5 -9q-2 -7 -6 -12.5t-8 -10.5q-29 -42 -59 -81.5t-60 -80.5q-5 -8 -9.5 -16t-9.5 -16q29 2 57 3t57 2q21 1 42.5 1h43.5h20t21 -1h21t21 -2q6 -1 14 -7.5
t-1 -12.5l-9 -8q-5 -2 -10.5 -1t-9.5 4l-3 3q-3 0 -5 1h-2h-5h-19.5t-20.5 1q-44 0 -87 -1.5t-87 -3.5l-53 -4q-24 -37 -50 -72t-55 -67q-4 -6 -7 -11.5t-7 -11.5q-11 -17 -21 -34.5t-20 -35.5q-8 -13 -14.5 -26t-13.5 -26l-9 -21q-7 -17 -8 -30v-1v-1v-4v-5q2 1 4 1
q4 1 1.5 0t1.5 0q6 2 9 2q9 3 17.5 6t16.5 7q39 17 76 30q42 16 84 29.5t86 24.5q94 24 191 33q48 5 95 6q19 1 41.5 -2t32.5 -22q3 -6 -1 -9.5t-9 -3.5q-14 -2 -21 10h-1v0q-1 0 -1 0.5t-1 0.5h-1q-2 0 -3.5 0.5t-3.5 0.5h-4h-2h-8h-19q-43 -2 -86 -6q-95 -9 -186.5 -33
t-181.5 -58l-21 -9l-7.5 -3l-7.5 -3l-39 -16q-10 -3 -20 -5.5t-21 -3.5q-10 -1 -22 0q-16 3 -21 16q-5 15 -1.5 30.5t9.5 29.5q2 5 4.5 10.5t5.5 10.5v1q0 1 0.5 1t0.5 1l6 12l6 10t5 10q-77 -70 -166 -120q-51 -27 -108 -39q-32 -6 -66.5 -7t-66.5 11q-16 6 -30 15t-25 23
q-18 23 -25 57q-5 32 0 65.5t15 64.5q8 28 21 58q7 16 15 31t16 31q41 74 92 146q26 36 53 70.5t56 66.5q31 34 63.5 65t68.5 58q4 3 10.5 2t11.5 -4.5t7 -8t-4 -8.5l-26 -21q-35 -29 -65.5 -60.5t-59.5 -66.5q-28 -33 -54.5 -67.5t-50.5 -70.5q-24 -35 -46 -72.5t-42 -75.5
q-14 -26 -24 -54.5t-17 -57.5q-8 -35 -8 -64v-15.5t2 -15.5q0 -4 2 -8q0 -3 1 -4v-2v1q1 -4 2 -7t3 -7q2 -3 3.5 -6.5t3.5 -6.5q-2 2 -1 1l2 -2q0 -1 2 -3l4 -5l3 -3l1 -1l5 -4q2 -2 6 -4l1 -1q1 -1 2 -1q2 -3 7 -4q2 -2 4 -2l12 -4q2 -1 5 -1q1 -1 2 -1l6 -1l14 -2h7h2h1h4
h15l17 2q5 0 8 1h4h2q1 0 0.5 0.5t-1.5 0.5q15 2 30.5 6t29.5 9q4 1 7 2t7 3l6 2q1 0 1.5 0.5t1.5 0.5l21 10q16 9 31 18t30 19q60 39 112.5 87t100.5 103q18 28 36.5 55.5t38.5 54.5l1 1l-25 -2q-5 -1 -10.5 -1.5t-11.5 -0.5q-10 -2 -15 -2q-1 -1 -1.5 -1t-1.5 -1
q-2 -2 -5.5 -0.5t-5.5 3.5t-2.5 5t-1.5 5q-3 5 1 8t9 4l74 8q4 0 7.5 0.5t7.5 0.5l25 33q9 15 17 30.5t16 31.5q13 25 24 54q5 12 8.5 23.5t6.5 24.5l6 25q0 4 0.5 7t0.5 6q1 1 1 4v1v6v18h-2q-6 -1 -11.5 -1.5t-10.5 -0.5h-25q-6 1 -14 3.5t-10 9.5q-3 7 3 11l4 3
q5 3 12 1.5t12 -5.5q7 0 11 1h9t9 1h4q1 0 2 0.5t2 0.5h1h2q0 2 -0.5 3t-0.5 3q-1 1 -1 4q-1 2 -0.5 0t-0.5 0q0 2 -0.5 2.5t-0.5 2.5l-5 10l-3 6l-1 2q-4 6 -7 8l-2 3l-4 3l-5 4q-1 0 -1 0.5t-1 0.5l-6 3h-1q-1 0 -1 0.5t-1 0.5q-2 2 -5.5 2.5t-6.5 1.5l-4 2h-1q-4 0 -7 1
q-4 0 -8 0.5t-8 0.5h-2h-1h-4h-8h-8t-8 -1q-2 0 -4.5 -0.5t-5.5 -0.5q2 0 2 -0.5t-1 -0.5h-2h-4l-16 -4l-16 -5l-8 -3l-4 -2h-2v0q-16 -7 -31 -15.5t-29 -18.5q-57 -39 -102 -93t-81 -113q-4 -5 -11.5 -4t-11.5 3q-5 2 -8 7t0 10q23 37 52 74q22 29 46 55.5t51 49.5
q28 23 58.5 42.5t64.5 30.5q33 11 69 13q17 1 34.5 -1t34.5 -8q14 -5 26.5 -13t21.5 -19q16 -18 22 -44v-2q21 2 41.5 3t41.5 2q91 6 182.5 11t183.5 -6q13 -2 17 -10zM613 460q-1 0 -2 1q1 -1 2 -1zM658 462h-2h1h1zM658 442h1h-1zM863 161q3 -1 1 -0.5t-1 0.5z" />
    <glyph glyph-name="semicolon" unicode=";" horiz-adv-x="214" 
d="M71 45q9 2 8.5 1t4.5 -1q4 -2 7 -5.5t4 -8.5q0 -7 -3 -13q-3 -8 -8 -13.5t-10 -10.5q-12 -11 -26.5 -18.5t-31.5 -5.5q-5 1 -10.5 4t-5.5 8q-1 5 2.5 7t7.5 2q1 0 3 0.5t-1 -0.5q1 0 2 0.5t3 0.5q2 1 3 1t2 1q1 0 1.5 0.5t1.5 0.5q8 3 13 7q2 1 3 2t3 2q1 1 1.5 1t1.5 1
t0 1q4 3 10 9q2 2 2.5 3t1.5 2t1 1.5t1 1.5q3 4 3 10q0 1 1 2v3q1 1 1.5 2t2.5 2zM113 200q5 3 11 1q6 0 12 -4q8 -8 4 -14q-3 -4 -6.5 -7t-6.5 -6q-5 -3 -9 -3q-6 -1 -13 2q-4 2 -7.5 6.5t0.5 9.5z" />
    <glyph glyph-name="colon" unicode=":" horiz-adv-x="214" 
d="M113 200q5 3 11 1q6 0 12 -4q8 -8 4 -14q-3 -4 -6.5 -7t-6.5 -6q-5 -3 -9 -3q-6 -1 -13 2q-4 2 -7.5 6.5t0.5 9.5zM62 36q5 3 11 1q6 0 12 -4q8 -8 4 -14q-3 -4 -6.5 -7t-6.5 -6q-5 -3 -9 -3q-6 -1 -13 2q-4 2 -7.5 6.5t0.5 9.5z" />
    <glyph glyph-name="Euro" unicode="&#x20ac;" horiz-adv-x="355" 
d="M19 1q0 -1 1 -1h-1v1zM306 317q0 1 1 2q0 1 2 3q0 1 -0.5 0t0.5 1l8 16l7 20l2 9q0 1 0.5 2t0.5 2v1v1v5q0 2 -1 2v1l-2 4l-1 2q0 1 -1 2v0l-1 1h-1q1 0 1 -0.5t1 -0.5q-1 0 -1 0.5t-1 0.5h-2h-1h-2h-4q-4 -1 -3 -0.5t2 0.5h-2q-8 -2 -11 -4q-2 0 -6 -2q-1 0 -3 -1t0 0
q-23 -10 -44.5 -24t-41.5 -30l-7 -6q-1 0 -3 -2h-1v-1q-4 -3 -7.5 -6t-7.5 -7q-10 -8 -19.5 -17t-18.5 -19l-7 -7t-6 -7h2h32q6 -1 14.5 -6.5t2.5 -13.5q-2 -1 -2 -2.5t-2 -3.5q-2 -4 -7.5 -4t-9.5 1q-5 1 -10 6q-11 0 -21 -0.5t-21 -0.5q-9 -11 -17.5 -22t-16.5 -22h2
q17 2 32.5 2.5t32.5 1.5t34 1.5t34 0.5q7 0 14.5 -3t8.5 -11q1 -5 -3 -6.5t-9 -2.5l-68 -2q-17 -1 -33 -1.5t-32 -2.5l-29 -2q-16 -25 -27.5 -52.5t-15.5 -56.5q-1 -4 -1 -14v-13l2 -12q0 -3 1 -4v-2l4 -7l2 -3q1 0 1 -1l2 -1v0l1 -1h2q1 -1 3 -1q1 0 1 -0.5t-1 -0.5h3h2h3
q6 0 8 1h5q1 0 2 1q3 0 9 2l21 6l6 3q2 0 3 1l11 5q6 2 11.5 5t11.5 7q12 6 24 13t24 15l48 34q5 5 11 9.5t11 9.5h1l1 1q2 2 3 2l5 5l10 9q10 8 19.5 17t18.5 19q5 4 8.5 8t7.5 9l7 8q3 1 4 4q1 0 1 0.5t1 0.5q1 1 2 2.5t-1 -0.5q3 4 9 4t11.5 -2.5t8 -7t-0.5 -8.5
q2 2 0.5 0t-1.5 -3l-2 -2l-3 -5l-9 -10l-19 -21l-24 -22t-25 -22q-23 -19 -46.5 -36t-48.5 -33q-22 -14 -45.5 -25.5t-48.5 -19.5q-19 -6 -40.5 -7.5t-39.5 9.5q-18 12 -25 29q-4 13 -4.5 26t1.5 26q2 26 11.5 51t23.5 48l-24 -2q-8 -1 -18 -2t-18 3q-2 2 -5.5 5t-1.5 6
q2 5 7 6l10 2q10 2 15 2l31 3q5 1 9.5 1t9.5 1q17 25 34 46h-39q-9 -1 -17.5 -0.5t-17.5 2.5q-4 1 -7.5 3.5t-3.5 7.5q-1 4 2.5 6t6.5 2h5q22 0 43.5 0.5t43.5 1.5h3q7 7 13 14t13 14q16 17 32.5 32.5t35.5 29.5q20 16 40.5 30t43.5 24q11 5 23.5 9.5t25.5 4.5
q14 0 26.5 -5.5t20.5 -18.5q2 -5 4 -10.5t1 -10.5q-1 -14 -6 -28l-11 -25q-2 -5 -4.5 -9.5t-6.5 -6.5q-5 -3 -11.5 -2t-11.5 4q-4 3 -5.5 7.5t3.5 7.5zM24 -3l-1 1q1 -1 2 -1.5t-1 0.5v0zM159 235h1h-1v0zM19 1q-2 2 -1.5 1.5zM89 10q-3 -2 -2 -1t2 1zM326 381v0v0zM321 390
h1h-1z" />
    <glyph glyph-name="endash" unicode="&#x2013;" horiz-adv-x="289" 
d="M45 207q-6 -1 -12 1.5t-8 7.5q-3 8 6 12q11 2 21.5 3t21.5 2q16 2 31 2.5t31 1.5q31 2 62 2.5t63 -0.5q6 -1 11.5 -2.5t10.5 -6.5q8 -9 -1 -16l-6 -3q-13 -7 -26 3q-4 3 -5.5 7t1.5 9q1 2 2.5 3t3.5 3q5 -6 8.5 -12t7.5 -12h-14.5t-15.5 1h-33h-32.5t-32.5 -1
q-16 -1 -32 -1.5t-32 -1.5q-5 -1 -11 -1t-11 -1h-8q-6 0 -9 1q-2 0 -4 1l-4 2q-5 5 -1.5 4t17.5 -8z" />
    <glyph glyph-name="minus" unicode="&#x2212;" horiz-adv-x="289" 
d="M45 207q-6 -1 -12 1.5t-8 7.5q-3 8 6 12q11 2 21.5 3t21.5 2q16 2 31 2.5t31 1.5q31 2 62 2.5t63 -0.5q6 -1 11.5 -2.5t10.5 -6.5q8 -9 -1 -16l-6 -3q-13 -7 -26 3q-4 3 -5.5 7t1.5 9q1 2 2.5 3t3.5 3q5 -6 8.5 -12t7.5 -12h-14.5t-15.5 1h-33h-32.5t-32.5 -1
q-16 -1 -32 -1.5t-32 -1.5q-5 -1 -11 -1t-11 -1h-8q-6 0 -9 1q-2 0 -4 1l-4 2q-5 5 -1.5 4t17.5 -8z" />
    <glyph glyph-name="emdash" unicode="&#x2014;" horiz-adv-x="575" 
d="M40 192q-5 0 -11 2t-9 7q-2 5 1.5 8.5t8.5 3.5h65t65 2l150 4t151 1q2 -5 4.5 -10.5t5.5 -10.5h-8t-8 1q-4 0 -6 1q3 -1 -2.5 0.5t-1.5 0.5q-5 1 -10 3.5t-6 7.5q0 5 3.5 6.5t6.5 1.5q5 2 11 0.5t11 -1.5t11 -2t8 -8q2 -5 -1 -8t-8 -3h-61.5t-61.5 -1q-78 -2 -154 -4.5
t-154 -1.5z" />
    <glyph glyph-name="exclamdown" unicode="&#xa1;" horiz-adv-x="133" 
d="M2 -30q-1 -6 -8.5 -6.5t-11.5 0.5q-5 2 -9.5 6t-3.5 10q2 16 8.5 30.5t13.5 28.5q11 21 20.5 42.5t19.5 42.5q11 22 21.5 43.5t21.5 43.5l16 32t15 33q7 15 12 30q0 2 2 8v3v1v5v3q-3 7 1.5 10t10.5 3t12 -3t8 -8q5 -11 2 -23t-7 -22q-5 -15 -12 -29.5t-14 -28.5
q-11 -22 -21.5 -43.5t-21.5 -43.5q-11 -21 -21.5 -42.5t-20.5 -43.5q-9 -20 -19.5 -40t-13.5 -42zM180 410q-3 -5 -9.5 -5t-12 2.5t-8.5 7.5t0 10l5 10q2 3 3 6.5t3 6.5q3 3 8 4t10 -0.5t9.5 -5t4.5 -7.5q0 -5 -1.5 -8.5t-3.5 -7.5q-2 -3 -4 -6.5t-4 -6.5z" />
    <glyph glyph-name="quotedblbase" unicode="&#x201e;" horiz-adv-x="261" 
d="M93 47q-2 -4 -7 -2.5t-7 4.5q-5 4 -4 8v1q1 3 5 4t6 0q8 0 13 -7q2 -5 -0.5 -9.5t-4.5 -8.5q-3 -5 -7 -11t-7 -11q-2 -3 -4.5 -6.5t-4.5 -6.5l-3 -6l-1 -2q-1 -1 -1 -2q-2 -3 -3 -5.5t-1 -5.5q-1 -1 -1 -2q1 2 0.5 1.5t-0.5 -1.5v-1q1 -2 0 0.5t0 0.5q2 -5 -1 -8t-8 -4
q-6 0 -12 2.5t-8 7.5q-3 5 -1.5 11t3.5 11q4 7 8 13t9 12q4 6 8 11.5t9 11.5q2 2 6 8q0 2 2 2q0 2 -0.5 0t-0.5 0q0 -2 2 -6q2 -1 2.5 -1.5t2.5 -1.5h-1q2 -1 4.5 -1t4.5 -1h-2q4 2 5 3v-2zM140 62q3 0 6.5 -1.5t4.5 -5.5q0 -3 -2 -6t-4 -5q-2 -3 -4.5 -6.5t-5.5 -6.5
l-18 -27q-2 -3 -7 -3.5t-9.5 2t-7 6t0.5 7.5q5 7 10.5 13.5t11.5 13.5q5 5 10.5 11.5t13.5 7.5z" />
    <glyph glyph-name="quotedblleft" unicode="&#x201c;" horiz-adv-x="174" 
d="M93 408q-2 -4 -7 -2.5t-7 4.5q-5 4 -4 8v1q1 3 5 4t6 0q8 0 13 -7q2 -5 -0.5 -9.5t-4.5 -8.5q-3 -5 -7 -11t-7 -11q-2 -3 -4.5 -6.5t-4.5 -6.5l-3 -6l-1 -2q-1 -1 -1 -2q-2 -3 -3 -5.5t-1 -5.5q-1 -1 -1 -2q1 2 0.5 1.5t-0.5 -1.5v-1q1 -2 0 0.5t0 0.5q2 -5 -1 -8t-8 -4
q-6 0 -12 2.5t-8 7.5q-3 5 -1.5 11t3.5 11q4 7 8 13t9 12q4 6 8 11.5t9 11.5q2 2 6 8q0 2 2 2q0 2 -0.5 0t-0.5 0q0 -2 2 -6q2 -1 2.5 -1.5t2.5 -1.5h-1q2 -1 4.5 -1t4.5 -1h-2q4 2 5 3v-2zM140 423q3 0 6.5 -1.5t4.5 -5.5q0 -3 -2 -6t-4 -5q-2 -3 -4.5 -6.5t-5.5 -6.5
l-18 -27q-2 -3 -7 -3.5t-9.5 2t-7 6t0.5 7.5q5 7 10.5 13.5t11.5 13.5q5 5 10.5 11.5t13.5 7.5z" />
    <glyph glyph-name="quotedblright" unicode="&#x201d;" horiz-adv-x="174" 
d="M93 408q-2 -4 -7 -2.5t-7 4.5q-5 4 -4 8v1q1 3 5 4t6 0q8 0 13 -7q2 -5 -0.5 -9.5t-4.5 -8.5q-3 -5 -7 -11t-7 -11q-2 -3 -4.5 -6.5t-4.5 -6.5l-3 -6l-1 -2q-1 -1 -1 -2q-2 -3 -3 -5.5t-1 -5.5q-1 -1 -1 -2q1 2 0.5 1.5t-0.5 -1.5v-1q1 -2 0 0.5t0 0.5q2 -5 -1 -8t-8 -4
q-6 0 -12 2.5t-8 7.5q-3 5 -1.5 11t3.5 11q4 7 8 13t9 12q4 6 8 11.5t9 11.5q2 2 6 8q0 2 2 2q0 2 -0.5 0t-0.5 0q0 -2 2 -6q2 -1 2.5 -1.5t2.5 -1.5h-1q2 -1 4.5 -1t4.5 -1h-2q4 2 5 3v-2zM140 423q3 0 6.5 -1.5t4.5 -5.5q0 -3 -2 -6t-4 -5q-2 -3 -4.5 -6.5t-5.5 -6.5
l-18 -27q-2 -3 -7 -3.5t-9.5 2t-7 6t0.5 7.5q5 7 10.5 13.5t11.5 13.5q5 5 10.5 11.5t13.5 7.5z" />
    <glyph glyph-name="quoteleft" unicode="&#x2018;" horiz-adv-x="152" 
d="M78 358q3 8 14.5 5t12.5 -11q0 -8 -4.5 -15.5t-9.5 -13.5q-4 -5 -8.5 -11.5t-10.5 -8.5q-5 -1 -11 0.5t-9 5.5q-5 7 1 12q-2 -2 -2 -1.5t2 1.5q1 1 1.5 2t2.5 2l9 12l7 10.5t5 10.5z" />
    <glyph glyph-name="quoteright" unicode="&#x2019;" horiz-adv-x="152" 
d="M78 358q3 8 14.5 5t12.5 -11q0 -8 -4.5 -15.5t-9.5 -13.5q-4 -5 -8.5 -11.5t-10.5 -8.5q-5 -1 -11 0.5t-9 5.5q-5 7 1 12q-2 -2 -2 -1.5t2 1.5q1 1 1.5 2t2.5 2l9 12l7 10.5t5 10.5z" />
    <glyph glyph-name="bullet" unicode="&#x2022;" horiz-adv-x="164" 
d="M18 182q3 2 7.5 2t7.5 -1q9 0 17 -6q5 -4 7 -9.5t-1 -10.5l-9.5 -9.5l-8.5 -8.5q-8 -5 -13 -5q-10 -1 -19 3q-5 4 -10 10.5t0 12.5l22 22v0z" />
    <glyph glyph-name="Agrave" unicode="&#xc0;" horiz-adv-x="790" 
d="M824 576q-3 2 -6.5 6t0.5 9q2 3 7 3.5t9 -1.5q9 -2 17.5 -5.5t16.5 -7.5q6 -2 12.5 -4.5t11.5 -7.5q4 -3 5.5 -8t-3.5 -8t-12 -2t-12 5q0 1 2 -0.5t-1 0.5q-1 0 -5 2t-14 6l-14 6t-14 7zM946 482q5 -12 1.5 -24.5t-8.5 -23.5q-8 -15 -17 -28.5t-19 -27.5t-19.5 -27.5
t-18.5 -27.5q-13 -21 -26 -41.5t-27 -40.5q-27 -42 -54.5 -82t-53.5 -82l-52 -80l-18 -29l-15 -24l-9 -16q-3 -5 -6.5 -9.5t-6.5 -9.5q-2 -5 -9.5 -4t-11.5 3q-5 2 -7.5 6.5t0.5 9.5t5.5 11t6.5 11l10 17l15 25l18 29q15 23 30 45t29 45l109 164q13 20 25 39.5t26 39.5
l37 53q5 7 9.5 13.5t8.5 14.5q2 4 3.5 6t3.5 6l6 12l2 6t1 6q1 2 1 5v3q0 3 -1 5h1q-1 0 -1 1h-2h-5h-2h-2q-6 0 -12 -0.5t-12 -1.5q-4 -1 -1.5 0t-0.5 0q-1 0 -1.5 -0.5t-1.5 -0.5q-2 0 -3 -0.5t-3 -0.5l-12 -3q-7 -2 -13 -4t-13 -4q-25 -8 -48.5 -19t-46.5 -24
q-82 -43 -157.5 -94.5t-147.5 -108.5q-22 -18 -43 -36t-43 -36q24 1 48 1t48 1q48 1 94.5 0t93.5 -6q13 -2 17 -11q2 -4 0 -7.5t-6 -4.5q-13 -2 -26 -2.5t-26 4.5l-2 2q-44 2 -86.5 1.5t-87.5 -1.5q-23 0 -46.5 -0.5t-47.5 -1.5q-41 -37 -80 -75t-77 -77q-30 -31 -59 -63
l-58 -64l-50 -58q-8 -9 -14.5 -17t-14.5 -16q-4 -5 -8 -9.5t-9 -9.5q-6 -8 -13 -7q-3 1 -8.5 3.5t-3.5 7.5q1 2 5 4q3 3 3 5q4 4 10 12l16 21q8 10 15.5 19.5t15.5 18.5q54 67 112.5 130.5t120.5 123.5q13 12 25.5 24.5t26.5 24.5l-99 -9q-17 -2 -33.5 -3.5t-33.5 -3.5
q-36 -6 -76 -15q-2 -4 -7.5 -4.5t-10.5 1.5q-6 2 -12 7t-1 12q2 3 7 4t8 2q8 2 15.5 3.5t15.5 3.5q35 8 70.5 11.5t70.5 6.5q25 2 49.5 4t49.5 4q9 0 14 1q49 44 99 85.5t103 79.5q76 55 156 102q36 20 72.5 39.5t74.5 33.5q19 7 37.5 11.5t38.5 6.5q8 0 18 0.5t19.5 -1.5
t17 -7t11.5 -14zM-58 -270h1q-1 -1 -1 0z" />
    <glyph glyph-name="Aacute" unicode="&#xc1;" horiz-adv-x="790" 
d="M824 543q-5 1 -10 4.5t-3 9.5q1 2 4 4t5 4q9 5 22 10l12 4l12 4q2 0 6 2q1 0 2 0.5t2 0.5q5 3 10 5t10.5 0.5t9.5 -4.5q3 -2 5.5 -6.5t-1.5 -7.5q-5 -4 -11 -6t-11 -4q-6 -2 -11.5 -3t-11.5 -3t-11 -4q-2 0 -3 -0.5t-3 -0.5q0 -1 -2 -1.5t-1 0.5l-10 -6t-11 -2zM946 482
q5 -12 1.5 -24.5t-8.5 -23.5q-8 -15 -17 -28.5t-19 -27.5t-19.5 -27.5t-18.5 -27.5q-13 -21 -26 -41.5t-27 -40.5q-27 -42 -54.5 -82t-53.5 -82l-52 -80l-18 -29l-15 -24l-9 -16q-3 -5 -6.5 -9.5t-6.5 -9.5q-2 -5 -9.5 -4t-11.5 3q-5 2 -7.5 6.5t0.5 9.5t5.5 11t6.5 11
l10 17l15 25l18 29q15 23 30 45t29 45l109 164q13 20 25 39.5t26 39.5l37 53q5 7 9.5 13.5t8.5 14.5q2 4 3.5 6t3.5 6l6 12l2 6t1 6q1 2 1 5v3q0 3 -1 5h1q-1 0 -1 1h-2h-5h-2h-2q-6 0 -12 -0.5t-12 -1.5q-4 -1 -1.5 0t-0.5 0q-1 0 -1.5 -0.5t-1.5 -0.5q-2 0 -3 -0.5
t-3 -0.5l-12 -3q-7 -2 -13 -4t-13 -4q-25 -8 -48.5 -19t-46.5 -24q-82 -43 -157.5 -94.5t-147.5 -108.5q-22 -18 -43 -36t-43 -36q24 1 48 1t48 1q48 1 94.5 0t93.5 -6q13 -2 17 -11q2 -4 0 -7.5t-6 -4.5q-13 -2 -26 -2.5t-26 4.5l-2 2q-44 2 -86.5 1.5t-87.5 -1.5
q-23 0 -46.5 -0.5t-47.5 -1.5q-41 -37 -80 -75t-77 -77q-30 -31 -59 -63l-58 -64l-50 -58q-8 -9 -14.5 -17t-14.5 -16q-4 -5 -8 -9.5t-9 -9.5q-6 -8 -13 -7q-3 1 -8.5 3.5t-3.5 7.5q1 2 5 4q3 3 3 5q4 4 10 12l16 21q8 10 15.5 19.5t15.5 18.5q54 67 112.5 130.5
t120.5 123.5q13 12 25.5 24.5t26.5 24.5l-99 -9q-17 -2 -33.5 -3.5t-33.5 -3.5q-36 -6 -76 -15q-2 -4 -7.5 -4.5t-10.5 1.5q-6 2 -12 7t-1 12q2 3 7 4t8 2q8 2 15.5 3.5t15.5 3.5q35 8 70.5 11.5t70.5 6.5q25 2 49.5 4t49.5 4q9 0 14 1q49 44 99 85.5t103 79.5
q76 55 156 102q36 20 72.5 39.5t74.5 33.5q19 7 37.5 11.5t38.5 6.5q8 0 18 0.5t19.5 -1.5t17 -7t11.5 -14zM-58 -270h1q-1 -1 -1 0z" />
    <glyph glyph-name="Acircumflex" unicode="&#xc2;" horiz-adv-x="790" 
d="M968 546q1 -3 0 -6t-5 -4q-11 -2 -19 5t-15 17q-7 -4 -14 -8.5t-14 -9.5q-4 -2 -9.5 -1.5t-10 3.5t-6 7t3.5 8t10 7l10 6l22 12q14 5 23 -5q5 -5 8 -10.5t7 -10.5l4.5 -4.5t4.5 -5.5zM946 482q5 -12 1.5 -24.5t-8.5 -23.5q-8 -15 -17 -28.5t-19 -27.5t-19.5 -27.5
t-18.5 -27.5q-13 -21 -26 -41.5t-27 -40.5q-27 -42 -54.5 -82t-53.5 -82l-52 -80l-18 -29l-15 -24l-9 -16q-3 -5 -6.5 -9.5t-6.5 -9.5q-2 -5 -9.5 -4t-11.5 3q-5 2 -7.5 6.5t0.5 9.5t5.5 11t6.5 11l10 17l15 25l18 29q15 23 30 45t29 45l109 164q13 20 25 39.5t26 39.5
l37 53q5 7 9.5 13.5t8.5 14.5q2 4 3.5 6t3.5 6l6 12l2 6t1 6q1 2 1 5v3q0 3 -1 5h1q-1 0 -1 1h-2h-5h-2h-2q-6 0 -12 -0.5t-12 -1.5q-4 -1 -1.5 0t-0.5 0q-1 0 -1.5 -0.5t-1.5 -0.5q-2 0 -3 -0.5t-3 -0.5l-12 -3q-7 -2 -13 -4t-13 -4q-25 -8 -48.5 -19t-46.5 -24
q-82 -43 -157.5 -94.5t-147.5 -108.5q-22 -18 -43 -36t-43 -36q24 1 48 1t48 1q48 1 94.5 0t93.5 -6q13 -2 17 -11q2 -4 0 -7.5t-6 -4.5q-13 -2 -26 -2.5t-26 4.5l-2 2q-44 2 -86.5 1.5t-87.5 -1.5q-23 0 -46.5 -0.5t-47.5 -1.5q-41 -37 -80 -75t-77 -77q-30 -31 -59 -63
l-58 -64l-50 -58q-8 -9 -14.5 -17t-14.5 -16q-4 -5 -8 -9.5t-9 -9.5q-6 -8 -13 -7q-3 1 -8.5 3.5t-3.5 7.5q1 2 5 4q3 3 3 5q4 4 10 12l16 21q8 10 15.5 19.5t15.5 18.5q54 67 112.5 130.5t120.5 123.5q13 12 25.5 24.5t26.5 24.5l-99 -9q-17 -2 -33.5 -3.5t-33.5 -3.5
q-36 -6 -76 -15q-2 -4 -7.5 -4.5t-10.5 1.5q-6 2 -12 7t-1 12q2 3 7 4t8 2q8 2 15.5 3.5t15.5 3.5q35 8 70.5 11.5t70.5 6.5q25 2 49.5 4t49.5 4q9 0 14 1q49 44 99 85.5t103 79.5q76 55 156 102q36 20 72.5 39.5t74.5 33.5q19 7 37.5 11.5t38.5 6.5q8 0 18 0.5t19.5 -1.5
t17 -7t11.5 -14zM-58 -270h1q-1 -1 -1 0z" />
    <glyph glyph-name="Atilde" unicode="&#xc3;" horiz-adv-x="790" 
d="M961 572q8 -6 4 -13q-10 -14 -30 -17.5t-36 3.5q-4 2 -10 8h-1q-2 0 -6 -2q-2 0 -8 -4q-2 -1 -9 -1l-1 -1q-4 0 -8.5 2t-6.5 6q-3 7 3 12q3 3 8 5q7 4 18 6q9 1 18.5 -1.5t16.5 -10.5h4h3q-3 0 -2 0.5t2 0.5q2 0 6 2q1 1 2 1q2 0 4 2q3 1 9 5q5 2 10.5 1t9.5 -4zM946 482
q5 -12 1.5 -24.5t-8.5 -23.5q-8 -15 -17 -28.5t-19 -27.5t-19.5 -27.5t-18.5 -27.5q-13 -21 -26 -41.5t-27 -40.5q-27 -42 -54.5 -82t-53.5 -82l-52 -80l-18 -29l-15 -24l-9 -16q-3 -5 -6.5 -9.5t-6.5 -9.5q-2 -5 -9.5 -4t-11.5 3q-5 2 -7.5 6.5t0.5 9.5t5.5 11t6.5 11
l10 17l15 25l18 29q15 23 30 45t29 45l109 164q13 20 25 39.5t26 39.5l37 53q5 7 9.5 13.5t8.5 14.5q2 4 3.5 6t3.5 6l6 12l2 6t1 6q1 2 1 5v3q0 3 -1 5h1q-1 0 -1 1h-2h-5h-2h-2q-6 0 -12 -0.5t-12 -1.5q-4 -1 -1.5 0t-0.5 0q-1 0 -1.5 -0.5t-1.5 -0.5q-2 0 -3 -0.5
t-3 -0.5l-12 -3q-7 -2 -13 -4t-13 -4q-25 -8 -48.5 -19t-46.5 -24q-82 -43 -157.5 -94.5t-147.5 -108.5q-22 -18 -43 -36t-43 -36q24 1 48 1t48 1q48 1 94.5 0t93.5 -6q13 -2 17 -11q2 -4 0 -7.5t-6 -4.5q-13 -2 -26 -2.5t-26 4.5l-2 2q-44 2 -86.5 1.5t-87.5 -1.5
q-23 0 -46.5 -0.5t-47.5 -1.5q-41 -37 -80 -75t-77 -77q-30 -31 -59 -63l-58 -64l-50 -58q-8 -9 -14.5 -17t-14.5 -16q-4 -5 -8 -9.5t-9 -9.5q-6 -8 -13 -7q-3 1 -8.5 3.5t-3.5 7.5q1 2 5 4q3 3 3 5q4 4 10 12l16 21q8 10 15.5 19.5t15.5 18.5q54 67 112.5 130.5
t120.5 123.5q13 12 25.5 24.5t26.5 24.5l-99 -9q-17 -2 -33.5 -3.5t-33.5 -3.5q-36 -6 -76 -15q-2 -4 -7.5 -4.5t-10.5 1.5q-6 2 -12 7t-1 12q2 3 7 4t8 2q8 2 15.5 3.5t15.5 3.5q35 8 70.5 11.5t70.5 6.5q25 2 49.5 4t49.5 4q9 0 14 1q49 44 99 85.5t103 79.5
q76 55 156 102q36 20 72.5 39.5t74.5 33.5q19 7 37.5 11.5t38.5 6.5q8 0 18 0.5t19.5 -1.5t17 -7t11.5 -14zM-58 -270h1q-1 -1 -1 0z" />
    <glyph glyph-name="Adieresis" unicode="&#xc4;" horiz-adv-x="790" 
d="M881 552q-5 0 -7 2q-3 0 -1 4v1q0 -2 1 -3l-2 2q-5 5 -1 9q1 2 1.5 2.5t1.5 2.5q3 4 9 4q13 2 18 -9q2 -5 -1 -7.5t-7 -2.5q-5 0 -8 1q-6 2 -8 5l2 -2q5 1 11 2l12 2q0 -3 -2 -5l2 2q-2 -3 -6 -7q-2 -4 -6.5 -4t-8.5 1q-1 0 -1 0.5t-1 0.5q2 0 2.5 -0.5t2.5 -0.5h-2h-1z
M939 552q-3 -5 -8.5 -4t-9.5 3t-7 5.5t0 7.5q1 2 3 4l-2 -2q1 1 1.5 2t1.5 2q-1 -1 -1 -2q0 1 0.5 1.5t0.5 1.5q2 4 7 4t9 -1q4 -2 9 -6q2 -2 2 -5q0 -5 -6 -11zM946 482q5 -12 1.5 -24.5t-8.5 -23.5q-8 -15 -17 -28.5t-19 -27.5t-19.5 -27.5t-18.5 -27.5q-13 -21 -26 -41.5
t-27 -40.5q-27 -42 -54.5 -82t-53.5 -82l-52 -80l-18 -29l-15 -24l-9 -16q-3 -5 -6.5 -9.5t-6.5 -9.5q-2 -5 -9.5 -4t-11.5 3q-5 2 -7.5 6.5t0.5 9.5t5.5 11t6.5 11l10 17l15 25l18 29q15 23 30 45t29 45l109 164q13 20 25 39.5t26 39.5l37 53q5 7 9.5 13.5t8.5 14.5
q2 4 3.5 6t3.5 6l6 12l2 6t1 6q1 2 1 5v3q0 3 -1 5h1q-1 0 -1 1h-2h-5h-2h-2q-6 0 -12 -0.5t-12 -1.5q-4 -1 -1.5 0t-0.5 0q-1 0 -1.5 -0.5t-1.5 -0.5q-2 0 -3 -0.5t-3 -0.5l-12 -3q-7 -2 -13 -4t-13 -4q-25 -8 -48.5 -19t-46.5 -24q-82 -43 -157.5 -94.5t-147.5 -108.5
q-22 -18 -43 -36t-43 -36q24 1 48 1t48 1q48 1 94.5 0t93.5 -6q13 -2 17 -11q2 -4 0 -7.5t-6 -4.5q-13 -2 -26 -2.5t-26 4.5l-2 2q-44 2 -86.5 1.5t-87.5 -1.5q-23 0 -46.5 -0.5t-47.5 -1.5q-41 -37 -80 -75t-77 -77q-30 -31 -59 -63l-58 -64l-50 -58q-8 -9 -14.5 -17
t-14.5 -16q-4 -5 -8 -9.5t-9 -9.5q-6 -8 -13 -7q-3 1 -8.5 3.5t-3.5 7.5q1 2 5 4q3 3 3 5q4 4 10 12l16 21q8 10 15.5 19.5t15.5 18.5q54 67 112.5 130.5t120.5 123.5q13 12 25.5 24.5t26.5 24.5l-99 -9q-17 -2 -33.5 -3.5t-33.5 -3.5q-36 -6 -76 -15q-2 -4 -7.5 -4.5
t-10.5 1.5q-6 2 -12 7t-1 12q2 3 7 4t8 2q8 2 15.5 3.5t15.5 3.5q35 8 70.5 11.5t70.5 6.5q25 2 49.5 4t49.5 4q9 0 14 1q49 44 99 85.5t103 79.5q76 55 156 102q36 20 72.5 39.5t74.5 33.5q19 7 37.5 11.5t38.5 6.5q8 0 18 0.5t19.5 -1.5t17 -7t11.5 -14zM-58 -270h1
q-1 -1 -1 0z" />
    <glyph glyph-name="Aring" unicode="&#xc5;" horiz-adv-x="790" 
d="M946 482q5 -12 1.5 -24.5t-8.5 -23.5q-8 -15 -17 -28.5t-19 -27.5t-19.5 -27.5t-18.5 -27.5q-13 -21 -26 -41.5t-27 -40.5q-27 -42 -54.5 -82t-53.5 -82l-52 -80l-18 -29l-15 -24l-9 -16q-3 -5 -6.5 -9.5t-6.5 -9.5q-2 -5 -9.5 -4t-11.5 3q-5 2 -7.5 6.5t0.5 9.5t5.5 11
t6.5 11l10 17l15 25l18 29q15 23 30 45t29 45l109 164q13 20 25 39.5t26 39.5l37 53q5 7 9.5 13.5t8.5 14.5q2 4 3.5 6t3.5 6l6 12l2 6t1 6q1 2 1 5v3q0 3 -1 5h1q-1 0 -1 1h-2h-5h-2h-2q-6 0 -12 -0.5t-12 -1.5q-4 -1 -1.5 0t-0.5 0q-1 0 -1.5 -0.5t-1.5 -0.5q-2 0 -3 -0.5
t-3 -0.5l-12 -3q-7 -2 -13 -4t-13 -4q-25 -8 -48.5 -19t-46.5 -24q-82 -43 -157.5 -94.5t-147.5 -108.5q-22 -18 -43 -36t-43 -36q24 1 48 1t48 1q48 1 94.5 0t93.5 -6q13 -2 17 -11q2 -4 0 -7.5t-6 -4.5q-13 -2 -26 -2.5t-26 4.5l-2 2q-44 2 -86.5 1.5t-87.5 -1.5
q-23 0 -46.5 -0.5t-47.5 -1.5q-41 -37 -80 -75t-77 -77q-30 -31 -59 -63l-58 -64l-50 -58q-8 -9 -14.5 -17t-14.5 -16q-4 -5 -8 -9.5t-9 -9.5q-6 -8 -13 -7q-3 1 -8.5 3.5t-3.5 7.5q1 2 5 4q3 3 3 5q4 4 10 12l16 21q8 10 15.5 19.5t15.5 18.5q54 67 112.5 130.5
t120.5 123.5q13 12 25.5 24.5t26.5 24.5l-99 -9q-17 -2 -33.5 -3.5t-33.5 -3.5q-36 -6 -76 -15q-2 -4 -7.5 -4.5t-10.5 1.5q-6 2 -12 7t-1 12q2 3 7 4t8 2q8 2 15.5 3.5t15.5 3.5q35 8 70.5 11.5t70.5 6.5q25 2 49.5 4t49.5 4q9 0 14 1q49 44 99 85.5t103 79.5
q76 55 156 102q36 20 72.5 39.5t74.5 33.5q19 7 37.5 11.5t38.5 6.5q8 0 18 0.5t19.5 -1.5t17 -7t11.5 -14zM-58 -270h1q-1 -1 -1 0zM972 602q11 -14 5 -29q-2 -6 -6 -11.5t-9 -10.5t-11.5 -8.5t-14.5 -4.5q-8 -2 -16.5 2t-10.5 12q-3 10 2 19q4 10 11 20q-8 4 -7 9
q2 8 9.5 13t15.5 4q9 0 18 -3.5t14 -11.5zM928 556q-2 1 -1 1t-2 -1h2h1zM933 553q2 -2 0.5 0t0.5 0v1h-1v-1zM943 569q3 4 6 8.5t3 8.5q0 5 -1 7l-2 -3q-3 -5 -5.5 -9.5t-4.5 -9.5q-2 -3 -4 -9v-1z" />
    <glyph glyph-name="Ccedilla" unicode="&#xc7;" horiz-adv-x="555" 
d="M553 367q-5 -3 -11.5 -2t-11.5 5q-4 3 -5 8t4 7q2 1 -0.5 -0.5t-0.5 0.5l3 3q2 4 2 5l2 2q4 8 7.5 14.5t6.5 14.5l12 32t8 33v2v2v4q0 2 -0.5 3t-0.5 3q-1 1 -1 2q1 -2 0.5 -1t-0.5 2q-1 2 -2 5t-2 5q-1 1 -1.5 2t-1.5 2q-1 2 0.5 -0.5t0.5 -0.5l-2 2q-1 2 -3 4l-1 1
q-1 1 -1.5 1t-1.5 1q-3 2 -0.5 0.5t0.5 0.5q-1 0 -5 2q-2 1 1 -0.5t1 -0.5q-1 0 -1 0.5t-1 0.5t-1.5 0.5t-2.5 0.5q-3 1 0.5 0t-0.5 0q-4 0 -5 1h-1q-7 0 -10 -1h-5h-3q-2 -1 0.5 -0.5t0.5 0.5q-3 -1 -5.5 -1.5t-5.5 -1.5q-5 -2 -11 -3.5t-11 -3.5q-1 0 -7 -2l-2 -1
q-3 -2 -1 -0.5t0 0.5q-8 -4 -11 -6q-44 -20 -83.5 -47.5t-76.5 -57.5q-1 -1 -2.5 -2t0.5 1l-3 -3q-3 -2 -7 -6q-4 -3 -7.5 -6t-7.5 -7q-18 -15 -35 -32q-21 -20 -41 -41t-40 -44q-44 -49 -83 -103t-66 -114q-28 -58 -37 -118q-1 -8 -1.5 -14t-0.5 -14v-14t1 -14
q0 -5 0.5 -10t1.5 -10q1 -1 1 -3q0 -1 0.5 -1t0.5 -1q0 -2 -0.5 0.5t-0.5 0.5q2 -4 2 -6q2 -4 6 -10q-2 3 -0.5 1t2.5 -4l3 -3q-4 3 -2 1.5t4 -3.5q1 0 2 -1q2 -2 -1 0.5t0 0.5q1 -1 5 -3q2 -1 -1 0.5t-1 0.5q1 0 1.5 -0.5t1.5 -0.5q1 -1 5 -1q-6 1 -3.5 0.5t4.5 -1.5h7h-1
h3h6.5t6.5 1q3 0 4 1q-5 -1 -3 -1t3 1q2 0 3.5 0.5t3.5 0.5q8 2 15.5 4.5t15.5 5.5l9 3l4 2q2 1 -0.5 -0.5t-0.5 -0.5q1 1 2 1q5 2 9 4t9 4q19 9 37.5 19.5t37.5 21.5q42 26 81.5 53.5t78.5 56.5q37 27 72.5 54t71.5 54q14 10 27 19.5t27 18.5q5 3 10 6.5t10 5.5q6 3 12.5 6
t13.5 2h-7h1q5 2 11.5 0t10.5 -6q4 -5 2.5 -8.5t-6.5 -5.5q-1 0 -1 -0.5t-1 -0.5q2 1 2.5 1.5t2.5 1.5q-1 -2 -3 -2.5t-4 -1.5q-3 -2 -7 -4q-4 -3 -8 -5.5t-8 -4.5q-11 -7 -21.5 -14.5t-21.5 -15.5q-35 -25 -69 -51t-69 -52q-40 -29 -79.5 -57.5t-81.5 -54.5
q-35 -23 -71.5 -43t-76.5 -33q-28 -9 -60.5 -9t-54.5 24q-11 13 -15 28.5t-5 31.5q-2 30 2.5 60t14.5 59q20 64 55 121t77 109q36 45 75.5 86.5t82.5 79.5q33 29 69 56t74 50q23 14 46.5 25.5t49.5 18.5q21 6 45.5 5.5t42.5 -16.5q10 -8 15.5 -18t8.5 -21q3 -12 0.5 -24.5
t-6.5 -23.5q-9 -27 -21 -54q-2 -5 -5 -10.5t-6 -10.5q-2 -2 -4 -5t-5 -5zM0 -281v-1h-1v1h1zM-2 -281h1h-1zM0 -282v-1v1q0 1 -1 1h1v-1zM-2 -281q1 0 1 -1v1h-1zM0 -283v1h-1h1q-1 0 -1 1l1 -2v0zM30 -282q6 -16 -6 -31q-11 -17 -31 -23.5t-40 1.5q-5 2 -7.5 7t0.5 10
q2 3 5 5.5t6 5.5q5 3 12.5 1.5t12.5 -6.5v1q4 2 7 5.5t5 5.5t2 3l2 2l1 4q0 2 0.5 3t0.5 2v3q1 0 0 1l-1 1h-1q-2 0 -3 0.5t-3 0.5q-5 2 -10.5 7t-0.5 10q3 4 5.5 7.5t4.5 7.5l4 8t5 7q4 3 11 1.5t8 -7.5q0 -5 -1 -9t-3 -9q0 -2 -0.5 -4t-0.5 -4q5 -3 9.5 -7t6.5 -10z" />
    <glyph glyph-name="Egrave" unicode="&#xc8;" horiz-adv-x="579" 
d="M421 555q-3 2 -6.5 6t0.5 9q2 3 7 3.5t9 -1.5q9 -2 17.5 -5.5t16.5 -7.5q6 -2 12.5 -4.5t11.5 -7.5q4 -3 5.5 -8t-3.5 -8t-12 -2t-12 5q0 1 2 -0.5t-1 0.5q-1 0 -5 2t-14 6l-14 6t-14 7zM551 -38q19 0 41.5 -3t32.5 -22q3 -5 -1 -8.5t-9 -4.5q-14 0 -22 10h1h-1v1h-2h-1
h-1q-2 1 -6 1q-2 0 -4 1h-2h-8q-5 0 -9.5 -0.5t-9.5 -0.5q-21 -1 -42.5 -2t-43.5 -3q-95 -10 -186.5 -34t-181.5 -58l-21 -8l-15 -6q-10 -5 -19.5 -9t-19.5 -7q-10 -4 -20 -6.5t-21 -3.5q-10 -1 -22 0q-15 3 -21 17q-4 14 -1.5 27.5t7.5 25.5v2l3 6q4 11 9 20.5t10 18.5
q71 130 157 247l1 2q-6 -1 -12.5 -1.5t-12.5 -1.5l-22 -2q-5 -1 -15 -1q-1 -2 -1.5 -2t-1.5 -1q-4 -1 -11 3q-2 2 -2.5 5t-1.5 5q-3 5 1 8.5t9 3.5q19 2 37 4t37 4q4 0 7.5 0.5t7.5 0.5l70 95q13 17 25.5 33.5t24.5 33.5q7 9 13.5 18t12.5 18l14 19q2 2 3.5 5t3.5 5l1 1
q0 1 1 2q1 5 6.5 6t11.5 -0.5t9.5 -5.5t2.5 -9q-2 -6 -6 -11.5t-8 -10.5q-35 -50 -71.5 -98.5t-71.5 -97.5q58 4 119 6q21 1 42.5 1.5t43.5 -0.5h41l42 -2q6 -1 14 -7.5t-1 -13.5l-9 -7q-5 -3 -10.5 -2t-9.5 4q-2 1 -3.5 2.5t-11.5 1.5t-19.5 0.5t-19.5 0.5q-45 0 -88 -1
t-87 -4q-16 -1 -31 -1.5t-31 -2.5q-7 -9 -13.5 -18.5t-13.5 -18.5q-22 -31 -42.5 -62t-40.5 -63q-8 -14 -17 -28t-17 -28l-17 -32v-1q-3 -5 -6 -11t-7 -12v-1l-7.5 -15t-6.5 -15q-2 -8 -4.5 -15t-3.5 -15v-1v-1v-3v-5h5q3 1 0.5 0.5t1.5 0.5q3 0 9 2q9 2 17.5 5.5t16.5 6.5
q19 8 37.5 15.5t38.5 15.5q42 15 84 28.5t86 24.5q48 12 95.5 20.5t95.5 13.5t95 6zM743 479q2 -5 0 -8t-6 -4q-32 -9 -63 -12q-6 0 -12.5 2.5t-8.5 8.5q-1 2 -1 6h-29q-93 1 -183.5 -6.5t-182.5 -10.5q-3 -1 -6.5 -1h-5.5q-6 -1 -11.5 -1h-10.5q-13 -2 -25 0q-6 1 -14 3.5
t-10 9.5q-3 6 3 10l4 3q5 4 12 2.5t12 -5.5h11q5 0 9.5 0.5t9.5 0.5q1 0 2 0.5t3 0.5h2h1q29 2 58.5 3.5t58.5 3.5q91 6 183 10.5t183 -5.5q12 -2 17 -11zM250 455h-1h5h-4zM593 -66v0v0zM591 -65q1 0 2 -1v1h-2zM593 -66v1v-1z" />
    <glyph glyph-name="Eacute" unicode="&#xc9;" horiz-adv-x="579" 
d="M465 547q-5 1 -10 4.5t-3 9.5q1 2 4 4t5 4q9 5 22 10l12 4l12 4q2 0 6 2q1 0 2 0.5t2 0.5q5 3 10 5t10.5 0.5t9.5 -4.5q3 -2 5.5 -6.5t-1.5 -7.5q-5 -4 -11 -6t-11 -4q-6 -2 -11.5 -3t-11.5 -3t-11 -4q-2 0 -3 -0.5t-3 -0.5q0 -1 -2 -1.5t-1 0.5l-10 -6t-11 -2zM551 -38
q19 0 41.5 -3t32.5 -22q3 -5 -1 -8.5t-9 -4.5q-14 0 -22 10h1h-1v1h-2h-1h-1q-2 1 -6 1q-2 0 -4 1h-2h-8q-5 0 -9.5 -0.5t-9.5 -0.5q-21 -1 -42.5 -2t-43.5 -3q-95 -10 -186.5 -34t-181.5 -58l-21 -8l-15 -6q-10 -5 -19.5 -9t-19.5 -7q-10 -4 -20 -6.5t-21 -3.5
q-10 -1 -22 0q-15 3 -21 17q-4 14 -1.5 27.5t7.5 25.5v2l3 6q4 11 9 20.5t10 18.5q71 130 157 247l1 2q-6 -1 -12.5 -1.5t-12.5 -1.5l-22 -2q-5 -1 -15 -1q-1 -2 -1.5 -2t-1.5 -1q-4 -1 -11 3q-2 2 -2.5 5t-1.5 5q-3 5 1 8.5t9 3.5q19 2 37 4t37 4q4 0 7.5 0.5t7.5 0.5
l70 95q13 17 25.5 33.5t24.5 33.5q7 9 13.5 18t12.5 18l14 19q2 2 3.5 5t3.5 5l1 1q0 1 1 2q1 5 6.5 6t11.5 -0.5t9.5 -5.5t2.5 -9q-2 -6 -6 -11.5t-8 -10.5q-35 -50 -71.5 -98.5t-71.5 -97.5q58 4 119 6q21 1 42.5 1.5t43.5 -0.5h41l42 -2q6 -1 14 -7.5t-1 -13.5l-9 -7
q-5 -3 -10.5 -2t-9.5 4q-2 1 -3.5 2.5t-11.5 1.5t-19.5 0.5t-19.5 0.5q-45 0 -88 -1t-87 -4q-16 -1 -31 -1.5t-31 -2.5q-7 -9 -13.5 -18.5t-13.5 -18.5q-22 -31 -42.5 -62t-40.5 -63q-8 -14 -17 -28t-17 -28l-17 -32v-1q-3 -5 -6 -11t-7 -12v-1l-7.5 -15t-6.5 -15
q-2 -8 -4.5 -15t-3.5 -15v-1v-1v-3v-5h5q3 1 0.5 0.5t1.5 0.5q3 0 9 2q9 2 17.5 5.5t16.5 6.5q19 8 37.5 15.5t38.5 15.5q42 15 84 28.5t86 24.5q48 12 95.5 20.5t95.5 13.5t95 6zM743 479q2 -5 0 -8t-6 -4q-32 -9 -63 -12q-6 0 -12.5 2.5t-8.5 8.5q-1 2 -1 6h-29
q-93 1 -183.5 -6.5t-182.5 -10.5q-3 -1 -6.5 -1h-5.5q-6 -1 -11.5 -1h-10.5q-13 -2 -25 0q-6 1 -14 3.5t-10 9.5q-3 6 3 10l4 3q5 4 12 2.5t12 -5.5h11q5 0 9.5 0.5t9.5 0.5q1 0 2 0.5t3 0.5h2h1q29 2 58.5 3.5t58.5 3.5q91 6 183 10.5t183 -5.5q12 -2 17 -11zM250 455h-1h5
h-4zM593 -66v0v0zM591 -65q1 0 2 -1v1h-2zM593 -66v1v-1z" />
    <glyph glyph-name="Ecircumflex" unicode="&#xca;" horiz-adv-x="579" 
d="M511 539q1 -3 0 -6t-5 -4q-11 -2 -19 5t-15 17q-7 -4 -14 -8.5t-14 -9.5q-4 -2 -9.5 -1.5t-10 3.5t-6 7t3.5 8t10 7l10 6l22 12q14 5 23 -5q5 -5 8 -10.5t7 -10.5l4.5 -4.5t4.5 -5.5zM551 -38q19 0 41.5 -3t32.5 -22q3 -5 -1 -8.5t-9 -4.5q-14 0 -22 10h1h-1v1h-2h-1h-1
q-2 1 -6 1q-2 0 -4 1h-2h-8q-5 0 -9.5 -0.5t-9.5 -0.5q-21 -1 -42.5 -2t-43.5 -3q-95 -10 -186.5 -34t-181.5 -58l-21 -8l-15 -6q-10 -5 -19.5 -9t-19.5 -7q-10 -4 -20 -6.5t-21 -3.5q-10 -1 -22 0q-15 3 -21 17q-4 14 -1.5 27.5t7.5 25.5v2l3 6q4 11 9 20.5t10 18.5
q71 130 157 247l1 2q-6 -1 -12.5 -1.5t-12.5 -1.5l-22 -2q-5 -1 -15 -1q-1 -2 -1.5 -2t-1.5 -1q-4 -1 -11 3q-2 2 -2.5 5t-1.5 5q-3 5 1 8.5t9 3.5q19 2 37 4t37 4q4 0 7.5 0.5t7.5 0.5l70 95q13 17 25.5 33.5t24.5 33.5q7 9 13.5 18t12.5 18l14 19q2 2 3.5 5t3.5 5l1 1
q0 1 1 2q1 5 6.5 6t11.5 -0.5t9.5 -5.5t2.5 -9q-2 -6 -6 -11.5t-8 -10.5q-35 -50 -71.5 -98.5t-71.5 -97.5q58 4 119 6q21 1 42.5 1.5t43.5 -0.5h41l42 -2q6 -1 14 -7.5t-1 -13.5l-9 -7q-5 -3 -10.5 -2t-9.5 4q-2 1 -3.5 2.5t-11.5 1.5t-19.5 0.5t-19.5 0.5q-45 0 -88 -1
t-87 -4q-16 -1 -31 -1.5t-31 -2.5q-7 -9 -13.5 -18.5t-13.5 -18.5q-22 -31 -42.5 -62t-40.5 -63q-8 -14 -17 -28t-17 -28l-17 -32v-1q-3 -5 -6 -11t-7 -12v-1l-7.5 -15t-6.5 -15q-2 -8 -4.5 -15t-3.5 -15v-1v-1v-3v-5h5q3 1 0.5 0.5t1.5 0.5q3 0 9 2q9 2 17.5 5.5t16.5 6.5
q19 8 37.5 15.5t38.5 15.5q42 15 84 28.5t86 24.5q48 12 95.5 20.5t95.5 13.5t95 6zM743 479q2 -5 0 -8t-6 -4q-32 -9 -63 -12q-6 0 -12.5 2.5t-8.5 8.5q-1 2 -1 6h-29q-93 1 -183.5 -6.5t-182.5 -10.5q-3 -1 -6.5 -1h-5.5q-6 -1 -11.5 -1h-10.5q-13 -2 -25 0q-6 1 -14 3.5
t-10 9.5q-3 6 3 10l4 3q5 4 12 2.5t12 -5.5h11q5 0 9.5 0.5t9.5 0.5q1 0 2 0.5t3 0.5h2h1q29 2 58.5 3.5t58.5 3.5q91 6 183 10.5t183 -5.5q12 -2 17 -11zM250 455h-1h5h-4zM593 -66v0v0zM591 -65q1 0 2 -1v1h-2zM593 -66v1v-1z" />
    <glyph glyph-name="Edieresis" unicode="&#xcb;" horiz-adv-x="579" 
d="M551 -38q19 0 41.5 -3t32.5 -22q3 -5 -1 -8.5t-9 -4.5q-14 0 -22 10h1h-1v1h-2h-1h-1q-2 1 -6 1q-2 0 -4 1h-2h-8q-5 0 -9.5 -0.5t-9.5 -0.5q-21 -1 -42.5 -2t-43.5 -3q-95 -10 -186.5 -34t-181.5 -58l-21 -8l-15 -6q-10 -5 -19.5 -9t-19.5 -7q-10 -4 -20 -6.5t-21 -3.5
q-10 -1 -22 0q-15 3 -21 17q-4 14 -1.5 27.5t7.5 25.5v2l3 6q4 11 9 20.5t10 18.5q71 130 157 247l1 2q-6 -1 -12.5 -1.5t-12.5 -1.5l-22 -2q-5 -1 -15 -1q-1 -2 -1.5 -2t-1.5 -1q-4 -1 -11 3q-2 2 -2.5 5t-1.5 5q-3 5 1 8.5t9 3.5q19 2 37 4t37 4q4 0 7.5 0.5t7.5 0.5
l70 95q13 17 25.5 33.5t24.5 33.5q7 9 13.5 18t12.5 18l14 19q2 2 3.5 5t3.5 5l1 1q0 1 1 2q1 5 6.5 6t11.5 -0.5t9.5 -5.5t2.5 -9q-2 -6 -6 -11.5t-8 -10.5q-35 -50 -71.5 -98.5t-71.5 -97.5q58 4 119 6q21 1 42.5 1.5t43.5 -0.5h41l42 -2q6 -1 14 -7.5t-1 -13.5l-9 -7
q-5 -3 -10.5 -2t-9.5 4q-2 1 -3.5 2.5t-11.5 1.5t-19.5 0.5t-19.5 0.5q-45 0 -88 -1t-87 -4q-16 -1 -31 -1.5t-31 -2.5q-7 -9 -13.5 -18.5t-13.5 -18.5q-22 -31 -42.5 -62t-40.5 -63q-8 -14 -17 -28t-17 -28l-17 -32v-1q-3 -5 -6 -11t-7 -12v-1l-7.5 -15t-6.5 -15
q-2 -8 -4.5 -15t-3.5 -15v-1v-1v-3v-5h5q3 1 0.5 0.5t1.5 0.5q3 0 9 2q9 2 17.5 5.5t16.5 6.5q19 8 37.5 15.5t38.5 15.5q42 15 84 28.5t86 24.5q48 12 95.5 20.5t95.5 13.5t95 6zM743 479q2 -5 0 -8t-6 -4q-32 -9 -63 -12q-6 0 -12.5 2.5t-8.5 8.5q-1 2 -1 6h-29
q-93 1 -183.5 -6.5t-182.5 -10.5q-3 -1 -6.5 -1h-5.5q-6 -1 -11.5 -1h-10.5q-13 -2 -25 0q-6 1 -14 3.5t-10 9.5q-3 6 3 10l4 3q5 4 12 2.5t12 -5.5h11q5 0 9.5 0.5t9.5 0.5q1 0 2 0.5t3 0.5h2h1q29 2 58.5 3.5t58.5 3.5q91 6 183 10.5t183 -5.5q12 -2 17 -11zM250 455h-1h5
h-4zM593 -66v0v0zM591 -65q1 0 2 -1v1h-2zM593 -66v1v-1zM506 541q2 -2 2 -5q0 -5 -6 -11q-3 -5 -8.5 -4t-9.5 3t-7 5.5t0 7.5l3 4l1 1v1v-1v2q2 4 7 4t9 -1q4 -2 9 -6zM480 542h1h-1zM480 542v-1l-2 -2zM465 538q0 -3 -1 -4l1 1l-6 -7q-2 -4 -6.5 -4t-8.5 1q-5 0 -7 2
q-1 0 -1 1v2l-1 1q-5 5 -1 9l3 5q3 4 9 4q13 2 18 -9q1 -1 1 -2z" />
    <glyph glyph-name="Igrave" unicode="&#xcc;" horiz-adv-x="566" 
d="M586 545q-3 2 -6.5 6t0.5 9q2 3 7 3.5t9 -1.5q9 -2 17.5 -5.5t16.5 -7.5q6 -2 12.5 -4.5t11.5 -7.5q4 -3 5.5 -8t-3.5 -8t-12 -2t-12 5q0 1 2 -0.5t-1 0.5q-1 0 -5 2t-14 6l-14 6t-14 7zM901 420l2 -2zM411 418q1 0 1 0.5t-2 -0.5h1zM934 421q5 -8 5 -18q0 -3 -0.5 -5.5
t-1.5 -5.5q0 -1 -2 -5l-1 -2q0 -1 -1 -2q-2 -5 -8 -6t-11 1q-4 1 -9.5 5.5t-2.5 9.5l3 11v1v1v1v5q0 1 -1 2q0 1 1 1q-2 2 -2 3q2 -1 -1 2l-3 4q-2 2 0 -0.5t0 -0.5l-1 1l-4 3l-1 1l-5 2l-5 3q-3 1 -0.5 0t1.5 -1t-1.5 0.5t-1.5 0.5q-4 2 -12 4l-7 2q-2 0 -5 1t2 0l-15 3
l-35 4q-5 0 -9.5 0.5t-9.5 0.5q-7 0 -11 1h-4h-2h-1h-42q-24 0 -48 -1t-47 -3q-51 -4 -101.5 -9.5t-101.5 -13.5l-13 -2q-2 0 -3 -0.5t-3 -0.5l-2 -1h-2q-6 -1 -12 -1.5t-12 -2.5q-12 -2 -23.5 -4t-23.5 -5q-42 -7 -85 -18q-17 -5 -34 -9.5t-34 -10.5l-13 -4l-6 -3
q-2 0 -3 -1h-1l-6 -3v-1q2 -5 -2.5 -6t-8.5 0h-3h-3h2h-2h-2q-4 -1 -8.5 1t-7.5 5q-4 6 -1 10h1q0 1 2 3h1q2 2 3 2q2 2 3.5 2.5t3.5 1.5l18 8q11 4 20.5 7.5t20.5 6.5q41 12 82 21t83 17q51 9 102 16.5t103 12.5q48 5 95 7.5t95 1.5q36 -1 72.5 -4t70.5 -17q11 -5 21.5 -12
t16.5 -18zM161 359h1h-1v0zM932 382h1h-1zM895 426q-5 3 -3.5 2.5t2.5 -1.5zM600 420q2 1 2.5 1.5t-0.5 -0.5t-2 -1zM531 -107h-1h1zM632 422q4 -2 1 -5v-1q-17 -20 -34.5 -42t-34.5 -43q-27 -35 -54 -70.5t-53 -71.5l-119 -159q-22 -31 -44.5 -61.5t-45.5 -60.5
q19 2 37.5 4.5t37.5 4.5q37 4 73.5 5.5t73.5 -0.5q17 -1 32.5 -2.5t31.5 -4.5q11 -2 23.5 -7.5t18.5 -16.5q3 -4 -1 -8q-6 -13 -19 -16q-5 -2 -10.5 -2t-11.5 -1q-5 0 -9.5 2t-6.5 7q-5 7 5 9q4 2 8 2l4 2q-3 -2 0 0t1 0q4 1 4 4q-4 2 -6 2q0 1 -4 1l-14 3l-31 3h-17
q-1 0 -2.5 0.5t1.5 0.5h-4h-8h-31t-30 -1q-42 -2 -83.5 -6.5t-83.5 -12.5q-4 -5 -8 -10.5t-9 -10.5q-5 -6 -9 -11t-10 -7h1q-11 -6 -22 3q-3 2 -4.5 7t2.5 8q3 3 5.5 6t5.5 6q-17 -3 -33 -6.5t-33 -7.5q-42 -11 -84 -24q-38 -11 -75.5 -24t-74.5 -30l-1 -1q-1 0 -5 -2v-1
q-2 -5 -7 -5l-3 -1q-1 0 -2 -0.5t-3 -0.5q-5 0 -11 2.5t-8 7.5q-1 4 0 7q2 5 4 6q29 15 58.5 26.5t59.5 21.5q84 28 171 48q17 4 35 7t35 6q4 5 8 11t8 11l100 134q29 40 59 80t60 79q26 35 52.5 69.5t53.5 69.5l39 46q3 5 6.5 8.5l7.5 7.5l3 3h1l2 2q7 6 15 6q4 1 8.5 0
t6.5 -5zM-161 -216q0 -2 1 -3.5t0 0.5q0 2 -1 3zM621 426h1h-1v0zM633 417q0 1 -1 1q1 0 1 -1zM632 415h-1h1z" />
    <glyph glyph-name="Iacute" unicode="&#xcd;" horiz-adv-x="566" 
d="M561 515q-5 1 -10 4.5t-3 9.5q1 2 4 4t5 4q9 5 22 10l12 4l12 4q2 0 6 2q1 0 2 0.5t2 0.5q5 3 10 5t10.5 0.5t9.5 -4.5q3 -2 5.5 -6.5t-1.5 -7.5q-5 -4 -11 -6t-11 -4q-6 -2 -11.5 -3t-11.5 -3t-11 -4q-2 0 -3 -0.5t-3 -0.5q0 -1 -2 -1.5t-1 0.5l-10 -6t-11 -2zM901 420
l2 -2zM411 418q1 0 1 0.5t-2 -0.5h1zM934 421q5 -8 5 -18q0 -3 -0.5 -5.5t-1.5 -5.5q0 -1 -2 -5l-1 -2q0 -1 -1 -2q-2 -5 -8 -6t-11 1q-4 1 -9.5 5.5t-2.5 9.5l3 11v1v1v1v5q0 1 -1 2q0 1 1 1q-2 2 -2 3q2 -1 -1 2l-3 4q-2 2 0 -0.5t0 -0.5l-1 1l-4 3l-1 1l-5 2l-5 3
q-3 1 -0.5 0t1.5 -1t-1.5 0.5t-1.5 0.5q-4 2 -12 4l-7 2q-2 0 -5 1t2 0l-15 3l-35 4q-5 0 -9.5 0.5t-9.5 0.5q-7 0 -11 1h-4h-2h-1h-42q-24 0 -48 -1t-47 -3q-51 -4 -101.5 -9.5t-101.5 -13.5l-13 -2q-2 0 -3 -0.5t-3 -0.5l-2 -1h-2q-6 -1 -12 -1.5t-12 -2.5
q-12 -2 -23.5 -4t-23.5 -5q-42 -7 -85 -18q-17 -5 -34 -9.5t-34 -10.5l-13 -4l-6 -3q-2 0 -3 -1h-1l-6 -3v-1q2 -5 -2.5 -6t-8.5 0h-3h-3h2h-2h-2q-4 -1 -8.5 1t-7.5 5q-4 6 -1 10h1q0 1 2 3h1q2 2 3 2q2 2 3.5 2.5t3.5 1.5l18 8q11 4 20.5 7.5t20.5 6.5q41 12 82 21t83 17
q51 9 102 16.5t103 12.5q48 5 95 7.5t95 1.5q36 -1 72.5 -4t70.5 -17q11 -5 21.5 -12t16.5 -18zM161 359h1h-1v0zM932 382h1h-1zM895 426q-5 3 -3.5 2.5t2.5 -1.5zM600 420q2 1 2.5 1.5t-0.5 -0.5t-2 -1zM531 -107h-1h1zM632 422q4 -2 1 -5v-1q-17 -20 -34.5 -42t-34.5 -43
q-27 -35 -54 -70.5t-53 -71.5l-119 -159q-22 -31 -44.5 -61.5t-45.5 -60.5q19 2 37.5 4.5t37.5 4.5q37 4 73.5 5.5t73.5 -0.5q17 -1 32.5 -2.5t31.5 -4.5q11 -2 23.5 -7.5t18.5 -16.5q3 -4 -1 -8q-6 -13 -19 -16q-5 -2 -10.5 -2t-11.5 -1q-5 0 -9.5 2t-6.5 7q-5 7 5 9
q4 2 8 2l4 2q-3 -2 0 0t1 0q4 1 4 4q-4 2 -6 2q0 1 -4 1l-14 3l-31 3h-17q-1 0 -2.5 0.5t1.5 0.5h-4h-8h-31t-30 -1q-42 -2 -83.5 -6.5t-83.5 -12.5q-4 -5 -8 -10.5t-9 -10.5q-5 -6 -9 -11t-10 -7h1q-11 -6 -22 3q-3 2 -4.5 7t2.5 8q3 3 5.5 6t5.5 6q-17 -3 -33 -6.5
t-33 -7.5q-42 -11 -84 -24q-38 -11 -75.5 -24t-74.5 -30l-1 -1q-1 0 -5 -2v-1q-2 -5 -7 -5l-3 -1q-1 0 -2 -0.5t-3 -0.5q-5 0 -11 2.5t-8 7.5q-1 4 0 7q2 5 4 6q29 15 58.5 26.5t59.5 21.5q84 28 171 48q17 4 35 7t35 6q4 5 8 11t8 11l100 134q29 40 59 80t60 79
q26 35 52.5 69.5t53.5 69.5l39 46q3 5 6.5 8.5l7.5 7.5l3 3h1l2 2q7 6 15 6q4 1 8.5 0t6.5 -5zM-161 -216q0 -2 1 -3.5t0 0.5q0 2 -1 3zM621 426h1h-1v0zM633 417q0 1 -1 1q1 0 1 -1zM632 415h-1h1z" />
    <glyph glyph-name="Icircumflex" unicode="&#xce;" horiz-adv-x="566" 
d="M672 521q1 -3 0 -6t-5 -4q-11 -2 -19 5t-15 17q-7 -4 -14 -8.5t-14 -9.5q-4 -2 -9.5 -1.5t-10 3.5t-6 7t3.5 8t10 7l10 6l22 12q14 5 23 -5q5 -5 8 -10.5t7 -10.5l4.5 -4.5t4.5 -5.5zM901 420l2 -2zM411 418q1 0 1 0.5t-2 -0.5h1zM934 421q5 -8 5 -18q0 -3 -0.5 -5.5
t-1.5 -5.5q0 -1 -2 -5l-1 -2q0 -1 -1 -2q-2 -5 -8 -6t-11 1q-4 1 -9.5 5.5t-2.5 9.5l3 11v1v1v1v5q0 1 -1 2q0 1 1 1q-2 2 -2 3q2 -1 -1 2l-3 4q-2 2 0 -0.5t0 -0.5l-1 1l-4 3l-1 1l-5 2l-5 3q-3 1 -0.5 0t1.5 -1t-1.5 0.5t-1.5 0.5q-4 2 -12 4l-7 2q-2 0 -5 1t2 0l-15 3
l-35 4q-5 0 -9.5 0.5t-9.5 0.5q-7 0 -11 1h-4h-2h-1h-42q-24 0 -48 -1t-47 -3q-51 -4 -101.5 -9.5t-101.5 -13.5l-13 -2q-2 0 -3 -0.5t-3 -0.5l-2 -1h-2q-6 -1 -12 -1.5t-12 -2.5q-12 -2 -23.5 -4t-23.5 -5q-42 -7 -85 -18q-17 -5 -34 -9.5t-34 -10.5l-13 -4l-6 -3
q-2 0 -3 -1h-1l-6 -3v-1q2 -5 -2.5 -6t-8.5 0h-3h-3h2h-2h-2q-4 -1 -8.5 1t-7.5 5q-4 6 -1 10h1q0 1 2 3h1q2 2 3 2q2 2 3.5 2.5t3.5 1.5l18 8q11 4 20.5 7.5t20.5 6.5q41 12 82 21t83 17q51 9 102 16.5t103 12.5q48 5 95 7.5t95 1.5q36 -1 72.5 -4t70.5 -17q11 -5 21.5 -12
t16.5 -18zM161 359h1h-1v0zM932 382h1h-1zM895 426q-5 3 -3.5 2.5t2.5 -1.5zM600 420q2 1 2.5 1.5t-0.5 -0.5t-2 -1zM531 -107h-1h1zM632 422q4 -2 1 -5v-1q-17 -20 -34.5 -42t-34.5 -43q-27 -35 -54 -70.5t-53 -71.5l-119 -159q-22 -31 -44.5 -61.5t-45.5 -60.5
q19 2 37.5 4.5t37.5 4.5q37 4 73.5 5.5t73.5 -0.5q17 -1 32.5 -2.5t31.5 -4.5q11 -2 23.5 -7.5t18.5 -16.5q3 -4 -1 -8q-6 -13 -19 -16q-5 -2 -10.5 -2t-11.5 -1q-5 0 -9.5 2t-6.5 7q-5 7 5 9q4 2 8 2l4 2q-3 -2 0 0t1 0q4 1 4 4q-4 2 -6 2q0 1 -4 1l-14 3l-31 3h-17
q-1 0 -2.5 0.5t1.5 0.5h-4h-8h-31t-30 -1q-42 -2 -83.5 -6.5t-83.5 -12.5q-4 -5 -8 -10.5t-9 -10.5q-5 -6 -9 -11t-10 -7h1q-11 -6 -22 3q-3 2 -4.5 7t2.5 8q3 3 5.5 6t5.5 6q-17 -3 -33 -6.5t-33 -7.5q-42 -11 -84 -24q-38 -11 -75.5 -24t-74.5 -30l-1 -1q-1 0 -5 -2v-1
q-2 -5 -7 -5l-3 -1q-1 0 -2 -0.5t-3 -0.5q-5 0 -11 2.5t-8 7.5q-1 4 0 7q2 5 4 6q29 15 58.5 26.5t59.5 21.5q84 28 171 48q17 4 35 7t35 6q4 5 8 11t8 11l100 134q29 40 59 80t60 79q26 35 52.5 69.5t53.5 69.5l39 46q3 5 6.5 8.5l7.5 7.5l3 3h1l2 2q7 6 15 6q4 1 8.5 0
t6.5 -5zM-161 -216q0 -2 1 -3.5t0 0.5q0 2 -1 3zM621 426h1h-1v0zM633 417q0 1 -1 1q1 0 1 -1zM632 415h-1h1z" />
    <glyph glyph-name="Idieresis" unicode="&#xcf;" horiz-adv-x="566" 
d="M901 420l2 -2zM411 418q1 0 1 0.5t-2 -0.5h1zM934 421q5 -8 5 -18q0 -3 -0.5 -5.5t-1.5 -5.5q0 -1 -2 -5l-1 -2q0 -1 -1 -2q-2 -5 -8 -6t-11 1q-4 1 -9.5 5.5t-2.5 9.5l3 11v1v1v1v5q0 1 -1 2q0 1 1 1q-2 2 -2 3q2 -1 -1 2l-3 4q-2 2 0 -0.5t0 -0.5l-1 1l-4 3l-1 1l-5 2
l-5 3q-3 1 -0.5 0t1.5 -1t-1.5 0.5t-1.5 0.5q-4 2 -12 4l-7 2q-2 0 -5 1t2 0l-15 3l-35 4q-5 0 -9.5 0.5t-9.5 0.5q-7 0 -11 1h-4h-2h-1h-42q-24 0 -48 -1t-47 -3q-51 -4 -101.5 -9.5t-101.5 -13.5l-13 -2q-2 0 -3 -0.5t-3 -0.5l-2 -1h-2q-6 -1 -12 -1.5t-12 -2.5
q-12 -2 -23.5 -4t-23.5 -5q-42 -7 -85 -18q-17 -5 -34 -9.5t-34 -10.5l-13 -4l-6 -3q-2 0 -3 -1h-1l-6 -3v-1q2 -5 -2.5 -6t-8.5 0h-3h-3h2h-2h-2q-4 -1 -8.5 1t-7.5 5q-4 6 -1 10h1q0 1 2 3h1q2 2 3 2q2 2 3.5 2.5t3.5 1.5l18 8q11 4 20.5 7.5t20.5 6.5q41 12 82 21t83 17
q51 9 102 16.5t103 12.5q48 5 95 7.5t95 1.5q36 -1 72.5 -4t70.5 -17q11 -5 21.5 -12t16.5 -18zM161 359h1h-1v0zM932 382h1h-1zM895 426q-5 3 -3.5 2.5t2.5 -1.5zM600 420q2 1 2.5 1.5t-0.5 -0.5t-2 -1zM531 -107h-1h1zM632 422q4 -2 1 -5v-1q-17 -20 -34.5 -42t-34.5 -43
q-27 -35 -54 -70.5t-53 -71.5l-119 -159q-22 -31 -44.5 -61.5t-45.5 -60.5q19 2 37.5 4.5t37.5 4.5q37 4 73.5 5.5t73.5 -0.5q17 -1 32.5 -2.5t31.5 -4.5q11 -2 23.5 -7.5t18.5 -16.5q3 -4 -1 -8q-6 -13 -19 -16q-5 -2 -10.5 -2t-11.5 -1q-5 0 -9.5 2t-6.5 7q-5 7 5 9
q4 2 8 2l4 2q-3 -2 0 0t1 0q4 1 4 4q-4 2 -6 2q0 1 -4 1l-14 3l-31 3h-18q-3 0 -4 1h-8h-31t-30 -1q-42 -2 -83.5 -6.5t-83.5 -12.5q-4 -5 -8 -10.5t-9 -10.5q-5 -6 -9 -11t-10 -7h1q-11 -6 -22 3q-3 2 -4.5 7t2.5 8q3 3 5.5 6t5.5 6q-17 -3 -33 -6.5t-33 -7.5
q-42 -11 -84 -24q-38 -11 -75.5 -24t-74.5 -30l-1 -1q-1 0 -5 -2v-1q-2 -5 -7 -5l-3 -1q-1 0 -2 -0.5t-3 -0.5q-5 0 -11 2.5t-8 7.5q-1 4 0 7q2 5 4 6q29 15 58.5 26.5t59.5 21.5q84 28 171 48q17 4 35 7t35 6q4 5 8 11t8 11l100 134q29 40 59 80t60 79q26 35 52.5 69.5
t53.5 69.5l39 46q3 5 6.5 8.5l7.5 7.5l3 3h1l2 2q7 6 15 6q4 1 8.5 0t6.5 -5zM-161 -216q0 -2 1 -3.5t0 0.5q0 2 -1 3zM621 426h1h-1v0zM633 417q0 1 -1 1q1 0 1 -1zM632 415h-1h1zM672 517q2 -2 2 -5q0 -5 -6 -11q-3 -5 -8.5 -4t-9.5 3t-7 5.5t0 7.5l3 4l1 1v1v-1v2
q2 4 7 4t9 -1q4 -2 9 -6zM646 518h1h-1zM646 518v-1l-2 -2zM631 514q0 -3 -1 -4l1 1l-6 -7q-2 -4 -6.5 -4t-8.5 1q-5 0 -7 2q-1 0 -1 1v2l-1 1q-2 2 -2.5 4.5t1.5 4.5l3 5q3 4 9 4q13 2 18 -9q1 -1 1 -2z" />
    <glyph glyph-name="Ntilde" unicode="&#xd1;" horiz-adv-x="695" 
d="M777 581q8 -6 4 -13q-10 -14 -30 -17.5t-36 3.5q-4 2 -10 8h-1q-2 0 -6 -2q-2 0 -8 -4q-2 -1 -9 -1l-1 -1q-4 0 -8.5 2t-6.5 6q-3 7 3 12q3 3 8 5q7 4 18 6q9 1 18.5 -1.5t16.5 -10.5h4h3q-3 0 -2 0.5t2 0.5q2 0 6 2q1 1 2 1q2 0 4 2q3 1 9 5q5 2 10.5 1t9.5 -4zM787 482
q2 -7 1 -13.5t-3 -13.5q-2 -8 -5 -16.5t-6 -16.5q-14 -35 -35 -71q-23 -41 -47 -80.5t-47 -79.5l-30 -53l-6 -9q0 -1 -0.5 -1t-0.5 -1v-2l-2 -2l-8 -16q-13 -25 -24.5 -50t-22.5 -51q-10 -23 -18 -47t-13 -49q-2 -6 -3 -12.5t-2 -12.5q-1 -3 -1 -7v-1v-2q0 -2 -0.5 -3.5
t0.5 -3.5q5 -1 11 -4.5t6 -8.5q0 -4 -1 -5q0 -5 -1.5 -8.5t-6.5 -5.5q-9 -3 -20 3q-6 2 -11.5 6t-7.5 10q-5 10 -4 21t3 22q4 26 11.5 52t17.5 51q5 14 11.5 27t12.5 26l22 49q9 19 19 37.5t21 36.5l90 152q11 18 21 36t18 37q8 16 15 33t11 34q1 3 1 8v3v5q0 2 -1 2
q0 1 -2 5l-1 1q-1 0 -2 1h-1l2 -1q-1 0 -2 1h-2h-1q-1 1 -3 1h-1h-1q-8 0 -12 -1q-2 0 -4.5 -0.5t0.5 0.5q-2 0 -3 -0.5t-3 -0.5q-14 -3 -28 -9q-1 0 -5 -2q2 2 1 1t-2 -1l-6 -3q-8 -3 -13 -7q-16 -9 -30.5 -20t-28.5 -22q-25 -20 -48.5 -40.5t-46.5 -43.5
q-31 -30 -59.5 -61t-57.5 -63q-128 -143 -252 -288q-16 -19 -31 -38t-32 -37q-8 -10 -17 -19.5t-20 -18.5q-8 -7 -17 -12.5t-21 -4.5q-5 0 -10 2.5t-7 7.5q-2 4 -2 5q-1 8 3 16t8 15q7 12 14 23.5t15 23.5q16 23 32 45.5t31 45.5q11 17 21.5 33.5t21.5 33.5q12 19 24.5 37
t25.5 37l106 152q27 40 55.5 78.5t54.5 79.5l26 39q6 10 11.5 20t11.5 19q5 7 9 13.5t7 13.5q2 3 3 6.5t3 7.5h-1l-10 -3l-7 -3h-2l-2 -2q-8 -2 -13 -6q-7 -3 -13.5 -6.5t-13.5 -7.5q-13 -8 -25 -16l-24 -16q-24 -17 -47 -35.5t-45 -37.5q-31 -26 -61 -53.5t-59 -56.5
q-14 -14 -27.5 -28.5t-25.5 -30.5q-11 -15 -20 -29l-7 -13q5 -6 -1 -13q-4 -6 -8 -7q-2 0 -3 -0.5t-3 -0.5q-8 -2 -15.5 1t-9.5 11q-1 4 0.5 7t3.5 6l5 10l12 20q5 10 11.5 18.5t13.5 17.5q14 16 29 31l30 30l63 59q26 23 52.5 45.5t54.5 44.5q40 33 90 61q28 16 55 25
q7 2 16.5 3.5t18.5 0t15.5 -6.5t7.5 -15q1 -17 -9 -32t-18 -29q-11 -20 -23.5 -40t-25.5 -40q-27 -40 -55 -79l-56 -78l-106 -153q-13 -18 -25 -36t-24 -37q-11 -17 -21.5 -33t-21.5 -33q-14 -21 -28.5 -42t-29.5 -42l52 61q62 73 124.5 144.5t126.5 143.5q29 32 58 63.5
t59 61.5q23 23 47.5 44.5t50.5 41.5q14 11 28.5 22.5t30.5 20.5q29 16 57 23q14 4 29.5 5t29.5 -3q13 -4 23.5 -12t12.5 -22zM471 559h1q1 0 1 0.5t-2 -0.5zM749 493h-1h1zM747 494l1 -1zM748 493q1 0 1 -0.5t1 -0.5q-1 0 -1 1h-1z" />
    <glyph glyph-name="Ograve" unicode="&#xd2;" horiz-adv-x="655" 
d="M300 499q4 3 10.5 2t11.5 -4.5t7 -8t-4 -8.5q-7 -5 -13 -10.5t-13 -10.5q-35 -29 -65.5 -60.5t-59.5 -66.5q-28 -33 -54.5 -67.5t-50.5 -70.5q-24 -35 -46 -72.5t-42 -75.5q-14 -26 -24 -54.5t-17 -57.5q-8 -35 -8 -64v-15.5t2 -15.5q1 -2 1 -4t1 -4q0 -3 1 -4v-2v1
q1 -4 2 -7t3 -7q2 -3 3.5 -6.5t3.5 -6.5q-2 2 -1 1l2 -2q0 -1 2 -3q1 -1 1.5 -2t2.5 -3l3 -3l1 -1q3 -3 5 -4q2 -2 3 -2.5t3 -2.5q1 0 1.5 -0.5t1.5 -0.5q2 -3 7 -4q1 -1 4 -2.5t-1 0.5q3 -1 6.5 -2t6.5 -2q2 -1 5 -1q1 -1 2.5 -1t-2.5 1q2 -1 3.5 -1t3.5 -1q4 -1 7.5 -1
t7.5 -1h9h1h4h15q5 1 8.5 1t8.5 1q5 0 8 1h4h2q1 0 0.5 0.5t-1.5 0.5q30 4 60 15q4 1 7 2t7 3q2 1 3 1t3 1q1 0 1.5 0.5t1.5 0.5q5 2 10.5 5t10.5 5q16 9 31 18t30 19q66 43 122.5 96t106.5 114q51 63 96 137q11 19 21 37t20 38q13 25 24 54q5 12 8.5 23.5t6.5 24.5
q2 6 3 12.5t2 12.5q1 4 1.5 7t0.5 6q0 2 1 4q0 2 -0.5 0t0.5 1v6q2 26 -4 48q0 2 -1 4q0 2 0.5 0t-0.5 0q0 2 -0.5 2.5t-0.5 2.5q-2 2 -2.5 5t-2.5 5q-2 4 -3 5q0 1 -0.5 1.5t-0.5 1.5q2 -3 1 -2t-1 2q-2 3 -7 8q-2 2 -2 3q-2 2 0 0t0 0q-2 1 -4 3q-2 1 -2.5 1.5t-2.5 1.5
l-2 2q3 -2 2 -1.5t-2 1.5l-6 3q-1 1 -4 2t2 -1q-5 2 -13 4q-1 1 -5 1q-3 1 0.5 0.5t-0.5 -0.5q-2 1 -3.5 1t-3.5 1q-4 0 -8 0.5t-8 0.5h-3h-4h-8q-4 0 -8 -0.5t-8 -0.5q-3 -1 -10 -1q2 0 2 -0.5t-1 -0.5h-2h-4q-6 -2 -16 -4q-4 -2 -8 -2.5t-8 -2.5q-6 -2 -8 -3q-1 -1 -2 -1
t-2 -1h-2v0q-16 -8 -31 -16t-29 -18q-57 -39 -102 -93t-81 -113q-4 -5 -11.5 -4t-11.5 3q-5 2 -8 7t0 10q12 20 24.5 38t26.5 36q23 29 47 55.5t51 49.5q28 23 58 42.5t65 30.5q17 6 34.5 9t34.5 4t34.5 -1t34.5 -8q14 -5 26.5 -13t21.5 -19q16 -18 22 -44q6 -25 4 -51
t-7 -51q-7 -26 -16.5 -51t-21.5 -49q-38 -76 -85.5 -145.5t-105.5 -131.5q-52 -57 -111.5 -105t-126.5 -86q-51 -27 -108 -39q-32 -6 -66.5 -7t-66.5 11q-16 6 -30 15t-25 23q-18 23 -25 57q-5 32 0 65.5t15 64.5q8 28 21 58q7 16 15 31t16 31q41 74 92 146q26 36 53 70.5
t56 66.5q30 34 62.5 65t69.5 58zM540 606q-3 2 -6.5 6t0.5 9q2 3 7 3.5t9 -1.5q9 -2 17.5 -5.5t16.5 -7.5q6 -2 12.5 -4.5t11.5 -7.5q4 -3 5.5 -8t-3.5 -8t-12 -2t-12 5q0 1 2 -0.5t-1 0.5q-1 0 -5 2t-14 6l-14 6t-14 7z" />
    <glyph glyph-name="Oacute" unicode="&#xd3;" horiz-adv-x="655" 
d="M300 499q4 3 10.5 2t11.5 -4.5t7 -8t-4 -8.5q-7 -5 -13 -10.5t-13 -10.5q-35 -29 -65.5 -60.5t-59.5 -66.5q-28 -33 -54.5 -67.5t-50.5 -70.5q-24 -35 -46 -72.5t-42 -75.5q-14 -26 -24 -54.5t-17 -57.5q-8 -35 -8 -64v-15.5t2 -15.5q1 -2 1 -4t1 -4q0 -3 1 -4v-2v1
q1 -4 2 -7t3 -7q2 -3 3.5 -6.5t3.5 -6.5q-2 2 -1 1l2 -2q0 -1 2 -3q1 -1 1.5 -2t2.5 -3l3 -3l1 -1q3 -3 5 -4q2 -2 3 -2.5t3 -2.5q1 0 1.5 -0.5t1.5 -0.5q2 -3 7 -4q1 -1 4 -2.5t-1 0.5q3 -1 6.5 -2t6.5 -2q2 -1 5 -1q1 -1 2.5 -1t-2.5 1q2 -1 3.5 -1t3.5 -1q4 -1 7.5 -1
t7.5 -1h9h1h4h15q5 1 8.5 1t8.5 1q5 0 8 1h4h2q1 0 0.5 0.5t-1.5 0.5q30 4 60 15q4 1 7 2t7 3q2 1 3 1t3 1q1 0 1.5 0.5t1.5 0.5q5 2 10.5 5t10.5 5q16 9 31 18t30 19q66 43 122.5 96t106.5 114q51 63 96 137q11 19 21 37t20 38q13 25 24 54q5 12 8.5 23.5t6.5 24.5
q2 6 3 12.5t2 12.5q1 4 1.5 7t0.5 6q0 2 1 4q0 2 -0.5 0t0.5 1v6q2 26 -4 48q0 2 -1 4q0 2 0.5 0t-0.5 0q0 2 -0.5 2.5t-0.5 2.5q-2 2 -2.5 5t-2.5 5q-2 4 -3 5q0 1 -0.5 1.5t-0.5 1.5q2 -3 1 -2t-1 2q-2 3 -7 8q-2 2 -2 3q-2 2 0 0t0 0q-2 1 -4 3q-2 1 -2.5 1.5t-2.5 1.5
l-2 2q3 -2 2 -1.5t-2 1.5l-6 3q-1 1 -4 2t2 -1q-5 2 -13 4q-1 1 -5 1q-3 1 0.5 0.5t-0.5 -0.5q-2 1 -3.5 1t-3.5 1q-4 0 -8 0.5t-8 0.5h-3h-4h-8q-4 0 -8 -0.5t-8 -0.5q-3 -1 -10 -1q2 0 2 -0.5t-1 -0.5h-2h-4q-6 -2 -16 -4q-4 -2 -8 -2.5t-8 -2.5q-6 -2 -8 -3q-1 -1 -2 -1
t-2 -1h-2v0q-16 -8 -31 -16t-29 -18q-57 -39 -102 -93t-81 -113q-4 -5 -11.5 -4t-11.5 3q-5 2 -8 7t0 10q12 20 24.5 38t26.5 36q23 29 47 55.5t51 49.5q28 23 58 42.5t65 30.5q17 6 34.5 9t34.5 4t34.5 -1t34.5 -8q14 -5 26.5 -13t21.5 -19q16 -18 22 -44q6 -25 4 -51
t-7 -51q-7 -26 -16.5 -51t-21.5 -49q-38 -76 -85.5 -145.5t-105.5 -131.5q-52 -57 -111.5 -105t-126.5 -86q-51 -27 -108 -39q-32 -6 -66.5 -7t-66.5 11q-16 6 -30 15t-25 23q-18 23 -25 57q-5 32 0 65.5t15 64.5q8 28 21 58q7 16 15 31t16 31q41 74 92 146q26 36 53 70.5
t56 66.5q30 34 62.5 65t69.5 58zM475 577q-5 1 -10 4.5t-3 9.5q1 2 4 4t5 4q9 5 22 10l12 4l12 4q2 0 6 2q1 0 2 0.5t2 0.5q5 3 10 5t10.5 0.5t9.5 -4.5q3 -2 5.5 -6.5t-1.5 -7.5q-5 -4 -11 -6t-11 -4q-6 -2 -11.5 -3t-11.5 -3t-11 -4q-2 0 -3 -0.5t-3 -0.5q0 -1 -2 -1.5
t-1 0.5l-10 -6t-11 -2z" />
    <glyph glyph-name="Ocircumflex" unicode="&#xd4;" horiz-adv-x="655" 
d="M300 499q4 3 10.5 2t11.5 -4.5t7 -8t-4 -8.5q-7 -5 -13 -10.5t-13 -10.5q-35 -29 -65.5 -60.5t-59.5 -66.5q-28 -33 -54.5 -67.5t-50.5 -70.5q-24 -35 -46 -72.5t-42 -75.5q-14 -26 -24 -54.5t-17 -57.5q-8 -35 -8 -64v-15.5t2 -15.5q1 -2 1 -4t1 -4q0 -3 1 -4v-2v1
q1 -4 2 -7t3 -7q2 -3 3.5 -6.5t3.5 -6.5q-2 2 -1 1l2 -2q0 -1 2 -3q1 -1 1.5 -2t2.5 -3l3 -3l1 -1q3 -3 5 -4q2 -2 3 -2.5t3 -2.5q1 0 1.5 -0.5t1.5 -0.5q2 -3 7 -4q1 -1 4 -2.5t-1 0.5q3 -1 6.5 -2t6.5 -2q2 -1 5 -1q1 -1 2.5 -1t-2.5 1q2 -1 3.5 -1t3.5 -1q4 -1 7.5 -1
t7.5 -1h9h1h4h15q5 1 8.5 1t8.5 1q5 0 8 1h4h2q1 0 0.5 0.5t-1.5 0.5q30 4 60 15q4 1 7 2t7 3q2 1 3 1t3 1q1 0 1.5 0.5t1.5 0.5q5 2 10.5 5t10.5 5q16 9 31 18t30 19q66 43 122.5 96t106.5 114q51 63 96 137q11 19 21 37t20 38q13 25 24 54q5 12 8.5 23.5t6.5 24.5
q2 6 3 12.5t2 12.5q1 4 1.5 7t0.5 6q0 2 1 4q0 2 -0.5 0t0.5 1v6q2 26 -4 48q0 2 -1 4q0 2 0.5 0t-0.5 0q0 2 -0.5 2.5t-0.5 2.5q-2 2 -2.5 5t-2.5 5q-2 4 -3 5q0 1 -0.5 1.5t-0.5 1.5q2 -3 1 -2t-1 2q-2 3 -7 8q-2 2 -2 3q-2 2 0 0t0 0q-2 1 -4 3q-2 1 -2.5 1.5t-2.5 1.5
l-2 2q3 -2 2 -1.5t-2 1.5l-6 3q-1 1 -4 2t2 -1q-5 2 -13 4q-1 1 -5 1q-3 1 0.5 0.5t-0.5 -0.5q-2 1 -3.5 1t-3.5 1q-4 0 -8 0.5t-8 0.5h-3h-4h-8q-4 0 -8 -0.5t-8 -0.5q-3 -1 -10 -1q2 0 2 -0.5t-1 -0.5h-2h-4q-6 -2 -16 -4q-4 -2 -8 -2.5t-8 -2.5q-6 -2 -8 -3q-1 -1 -2 -1
t-2 -1h-2v0q-16 -8 -31 -16t-29 -18q-57 -39 -102 -93t-81 -113q-4 -5 -11.5 -4t-11.5 3q-5 2 -8 7t0 10q12 20 24.5 38t26.5 36q23 29 47 55.5t51 49.5q28 23 58 42.5t65 30.5q17 6 34.5 9t34.5 4t34.5 -1t34.5 -8q14 -5 26.5 -13t21.5 -19q16 -18 22 -44q6 -25 4 -51
t-7 -51q-7 -26 -16.5 -51t-21.5 -49q-38 -76 -85.5 -145.5t-105.5 -131.5q-52 -57 -111.5 -105t-126.5 -86q-51 -27 -108 -39q-32 -6 -66.5 -7t-66.5 11q-16 6 -30 15t-25 23q-18 23 -25 57q-5 32 0 65.5t15 64.5q8 28 21 58q7 16 15 31t16 31q41 74 92 146q26 36 53 70.5
t56 66.5q30 34 62.5 65t69.5 58zM653 575q1 -3 0 -6t-5 -4q-11 -2 -19 5t-15 17q-7 -4 -14 -8.5t-14 -9.5q-4 -2 -9.5 -1.5t-10 3.5t-6 7t3.5 8t10 7l10 6l22 12q14 5 23 -5q5 -5 8 -10.5t7 -10.5l4.5 -4.5t4.5 -5.5z" />
    <glyph glyph-name="Otilde" unicode="&#xd5;" horiz-adv-x="655" 
d="M300 499q4 3 10.5 2t11.5 -4.5t7 -8t-4 -8.5q-7 -5 -13 -10.5t-13 -10.5q-35 -29 -65.5 -60.5t-59.5 -66.5q-28 -33 -54.5 -67.5t-50.5 -70.5q-24 -35 -46 -72.5t-42 -75.5q-14 -26 -24 -54.5t-17 -57.5q-8 -35 -8 -64v-15.5t2 -15.5q1 -2 1 -4t1 -4q0 -3 1 -4v-2v1
q1 -4 2 -7t3 -7q2 -3 3.5 -6.5t3.5 -6.5q-2 2 -1 1l2 -2q0 -1 2 -3q1 -1 1.5 -2t2.5 -3l3 -3l1 -1q3 -3 5 -4q2 -2 3 -2.5t3 -2.5q1 0 1.5 -0.5t1.5 -0.5q2 -3 7 -4q1 -1 4 -2.5t-1 0.5q3 -1 6.5 -2t6.5 -2q2 -1 5 -1q1 -1 2.5 -1t-2.5 1q2 -1 3.5 -1t3.5 -1q4 -1 7.5 -1
t7.5 -1h9h1h4h15q5 1 8.5 1t8.5 1q5 0 8 1h4h2q1 0 0.5 0.5t-1.5 0.5q30 4 60 15q4 1 7 2t7 3q2 1 3 1t3 1q1 0 1.5 0.5t1.5 0.5q5 2 10.5 5t10.5 5q16 9 31 18t30 19q66 43 122.5 96t106.5 114q51 63 96 137q11 19 21 37t20 38q13 25 24 54q5 12 8.5 23.5t6.5 24.5
q2 6 3 12.5t2 12.5q1 4 1.5 7t0.5 6q0 2 1 4q0 2 -0.5 0t0.5 1v6q2 26 -4 48q0 2 -1 4q0 2 0.5 0t-0.5 0q0 2 -0.5 2.5t-0.5 2.5q-2 2 -2.5 5t-2.5 5q-2 4 -3 5q0 1 -0.5 1.5t-0.5 1.5q2 -3 1 -2t-1 2q-2 3 -7 8q-2 2 -2 3q-2 2 0 0t0 0q-2 1 -4 3q-2 1 -2.5 1.5t-2.5 1.5
l-2 2q3 -2 2 -1.5t-2 1.5l-6 3q-1 1 -4 2t2 -1q-5 2 -13 4q-1 1 -5 1q-3 1 0.5 0.5t-0.5 -0.5q-2 1 -3.5 1t-3.5 1q-4 0 -8 0.5t-8 0.5h-3h-4h-8q-4 0 -8 -0.5t-8 -0.5q-3 -1 -10 -1q2 0 2 -0.5t-1 -0.5h-2h-4q-6 -2 -16 -4q-4 -2 -8 -2.5t-8 -2.5q-6 -2 -8 -3q-1 -1 -2 -1
t-2 -1h-2v0q-16 -8 -31 -16t-29 -18q-57 -39 -102 -93t-81 -113q-4 -5 -11.5 -4t-11.5 3q-5 2 -8 7t0 10q12 20 24.5 38t26.5 36q23 29 47 55.5t51 49.5q28 23 58 42.5t65 30.5q17 6 34.5 9t34.5 4t34.5 -1t34.5 -8q14 -5 26.5 -13t21.5 -19q16 -18 22 -44q6 -25 4 -51
t-7 -51q-7 -26 -16.5 -51t-21.5 -49q-38 -76 -85.5 -145.5t-105.5 -131.5q-52 -57 -111.5 -105t-126.5 -86q-51 -27 -108 -39q-32 -6 -66.5 -7t-66.5 11q-16 6 -30 15t-25 23q-18 23 -25 57q-5 32 0 65.5t15 64.5q8 28 21 58q7 16 15 31t16 31q41 74 92 146q26 36 53 70.5
t56 66.5q30 34 62.5 65t69.5 58zM534 608q2 1 6 -0.5t2 -4.5v-2q2 -4 -1 -6t-6 -3q-4 0 -8.5 2t-6.5 6q-3 7 3 12q3 3 8 5q7 4 18 6q10 1 19.5 -2t16.5 -11q1 -1 2.5 -2t-1.5 1q2 -2 -0.5 0t-0.5 1q-2 1 -5 1h1h2h5h3q-3 0 -2 0.5t2 0.5q2 0 6 2l2 1q2 0 4 2q3 1 9 5
q5 2 10.5 1t9.5 -4q8 -6 4 -13q-10 -14 -30 -17.5t-36 3.5q-7 3 -11 9l-2 2q3 -3 1 -2q2 0 2 -1q-2 2 0.5 0.5t-0.5 -0.5q-2 1 -1.5 1t2.5 -1h-1h-1q-2 0 -6 -2q-2 0 -8 -4q-5 -3 -13 -1q0 4 0.5 7.5t0.5 7.5h3h-5h3z" />
    <glyph glyph-name="Odieresis" unicode="&#xd6;" horiz-adv-x="655" 
d="M300 499q4 3 10.5 2t11.5 -4.5t7 -8t-4 -8.5q-7 -5 -13 -10.5t-13 -10.5q-35 -29 -65.5 -60.5t-59.5 -66.5q-28 -33 -54.5 -67.5t-50.5 -70.5q-24 -35 -46 -72.5t-42 -75.5q-14 -26 -24 -54.5t-17 -57.5q-8 -35 -8 -64v-15.5t2 -15.5q1 -2 1 -4t1 -4q0 -3 1 -4v-2v1
q1 -4 2 -7t3 -7q2 -3 3.5 -6.5t3.5 -6.5q-2 2 -1 1l2 -2q0 -1 2 -3q1 -1 1.5 -2t2.5 -3l3 -3l1 -1q3 -3 5 -4q2 -2 3 -2.5t3 -2.5q1 0 1.5 -0.5t1.5 -0.5q2 -3 7 -4q1 -1 4 -2.5t-1 0.5q3 -1 6.5 -2t6.5 -2q2 -1 5 -1q1 -1 2.5 -1t-2.5 1q2 -1 3.5 -1t3.5 -1q4 -1 7.5 -1
t7.5 -1h9h1h4h15q5 1 8.5 1t8.5 1q5 0 8 1h4h2q1 0 0.5 0.5t-1.5 0.5q30 4 60 15q4 1 7 2t7 3q2 1 3 1t3 1q1 0 1.5 0.5t1.5 0.5q5 2 10.5 5t10.5 5q16 9 31 18t30 19q66 43 122.5 96t106.5 114q51 63 96 137q11 19 21 37t20 38q13 25 24 54q5 12 8.5 23.5t6.5 24.5
q2 6 3 12.5t2 12.5q1 4 1.5 7t0.5 6q0 2 1 4q0 2 -0.5 0t0.5 1v6q2 26 -4 48q0 2 -1 4q0 2 0.5 0t-0.5 0q0 2 -0.5 2.5t-0.5 2.5q-2 2 -2.5 5t-2.5 5q-2 4 -3 5q0 1 -0.5 1.5t-0.5 1.5q2 -3 1 -2t-1 2q-2 3 -7 8q-2 2 -2 3q-2 2 0 0t0 0q-2 1 -4 3q-2 1 -2.5 1.5t-2.5 1.5
l-2 2q3 -2 2 -1.5t-2 1.5l-6 3q-1 1 -4 2t2 -1q-5 2 -13 4q-1 1 -5 1q-3 1 0.5 0.5t-0.5 -0.5q-2 1 -3.5 1t-3.5 1q-4 0 -8 0.5t-8 0.5h-3h-4h-8q-4 0 -8 -0.5t-8 -0.5q-3 -1 -10 -1q2 0 2 -0.5t-1 -0.5h-2h-4q-6 -2 -16 -4q-4 -2 -8 -2.5t-8 -2.5q-6 -2 -8 -3q-1 -1 -2 -1
t-2 -1h-2v0q-16 -8 -31 -16t-29 -18q-57 -39 -102 -93t-81 -113q-4 -5 -11.5 -4t-11.5 3q-5 2 -8 7t0 10q12 20 24.5 38t26.5 36q23 29 47 55.5t51 49.5q28 23 58 42.5t65 30.5q17 6 34.5 9t34.5 4t34.5 -1t34.5 -8q14 -5 26.5 -13t21.5 -19q16 -18 22 -44q6 -25 4 -51
t-7 -51q-7 -26 -16.5 -51t-21.5 -49q-38 -76 -85.5 -145.5t-105.5 -131.5q-52 -57 -111.5 -105t-126.5 -86q-51 -27 -108 -39q-32 -6 -66.5 -7t-66.5 11q-16 6 -30 15t-25 23q-18 23 -25 57q-5 32 0 65.5t15 64.5q8 28 21 58q7 16 15 31t16 31q41 74 92 146q26 36 53 70.5
t56 66.5q30 34 62.5 65t69.5 58zM552 584q-5 0 -7 2q-3 0 -1 4v1q0 -2 1 -3l-2 2q-5 5 -1 9q1 2 1.5 2.5t1.5 2.5q3 4 9 4q13 2 18 -9q2 -5 -1 -7.5t-7 -2.5q-5 0 -8 1q-6 2 -8 5l2 -2q5 1 11 2l12 2q0 -3 -2 -5l2 2q-2 -3 -6 -7q-2 -4 -6.5 -4t-8.5 1q-1 0 -1 0.5t-1 0.5
q2 0 2.5 -0.5t2.5 -0.5h-2h-1zM610 584q-3 -5 -8.5 -4t-9.5 3t-7 5.5t0 7.5q1 2 3 4l-2 -2q1 1 1.5 2t1.5 2q-1 -1 -1 -2q0 1 0.5 1.5t0.5 1.5q2 4 7 4t9 -1q4 -2 9 -6q2 -2 2 -5q0 -5 -6 -11z" />
    <glyph glyph-name="Ugrave" unicode="&#xd9;" horiz-adv-x="609" 
d="M593 594q-3 2 -6.5 6t0.5 9q2 3 7 3.5t9 -1.5q9 -2 17.5 -5.5t16.5 -7.5q6 -2 12.5 -4.5t11.5 -7.5q4 -3 5.5 -8t-3.5 -8t-12 -2t-12 5q0 1 2 -0.5t-1 0.5q-1 0 -5 2t-14 6l-14 6t-14 7zM97 -160h-1h1zM756 491q3 -2 7 -5.5t2 -8.5q-5 -15 -14 -28t-19 -25
q-11 -13 -22 -25t-22 -25q-17 -17 -33 -36q-8 -13 -16.5 -25t-16.5 -26q-12 -18 -22.5 -36.5t-20.5 -37.5q-20 -38 -37 -77.5t-34 -79.5q-17 -42 -34 -83t-26 -86q-3 -14 -5 -29.5t-1 -30.5q0 -6 1 -9q6 1 12 -3q3 -2 7.5 -6.5t-0.5 -8.5l-4 -3v1q0 -1 -0.5 -1t-0.5 -1
l-3 -3l-11 -3q-13 -2 -22 7q-11 8 -13 27q-2 17 0 36t6 36q9 45 26 86t34 83q13 31 26 61.5t27 60.5l-66 -78q-42 -48 -86 -92.5t-90 -89.5q-23 -23 -48.5 -44t-54.5 -38q-15 -9 -31 -16.5t-33 -10.5q-15 -3 -29.5 -1.5t-25.5 12.5q-7 7 -9 16.5t-2 18.5q1 23 9 46
q6 20 14 39.5t17 39.5q8 14 14 29.5t14 29.5q10 20 21 40l22 40q23 39 47 77t50 76l105 151q10 14 19.5 28.5t18.5 28.5q8 11 14 21t11 21q7 12 7 23v1v2q0 2 -2 2q-1 -1 -2 -1q-2 0 -3 -0.5t-2 -0.5l-11 -4l-4 -2q-2 -1 0 0.5t-1 -0.5q-4 -2 -6 -2l-12 -6l-26 -15
q-11 -6 -21.5 -12.5t-21.5 -14.5l-7 -6l-3 -2l-2 -1q-8 -6 -15.5 -12.5t-14.5 -14.5q-17 -15 -32.5 -30t-30.5 -32q-61 -64 -107 -137q-17 -28 -31 -57t-24 -60q-8 -28 -11 -51v-2v-3v-5q0 -10 5.5 -11.5t7.5 -11.5q1 -6 -4.5 -8t-10.5 -1q-14 2 -22.5 11t-9.5 23
q-1 13 1.5 25.5t5.5 23.5q2 11 5 20.5t6 19.5q2 8 6 17t9 17q4 10 9 19l10 18q20 38 45 73t53 67q29 33 60 63t65 58q8 7 16 12.5t16 10.5q12 8 24 15t25 14q12 6 24 11t25 7q15 3 28 0q7 -2 13.5 -7t9.5 -12q5 -12 1 -24t-9 -23q-6 -12 -12.5 -23t-14.5 -22
q-45 -68 -93 -135l-52 -76t-51 -76q-23 -38 -45.5 -76t-41.5 -78q-7 -14 -12.5 -27t-11.5 -27q-5 -8 -8.5 -17t-7.5 -18q-5 -11 -9 -22.5t-7 -23.5q-4 -13 -5 -22q-1 -2 -1 -6l-1 -2v-1v-9q0 -2 0.5 -4.5t0.5 -4.5h1q0 -5 6 -6q1 0 1 0.5t1 0.5h2l16 4l7 3q1 0 2 0.5t2 0.5
q3 2 0.5 0.5t0.5 0.5q17 7 32 16t29 20q14 10 26 20t24 21q26 23 50 47.5t47 48.5q48 48 92 98.5t88 101.5l111 132q5 9 11 16q23 32 45 64.5t54 57.5q5 3 11 2t10 -3zM86 -136v-1v1zM88 -155z" />
    <glyph glyph-name="Uacute" unicode="&#xda;" horiz-adv-x="609" 
d="M588 554q-5 1 -10 4.5t-3 9.5q1 2 4 4t5 4q9 5 22 10l12 4l12 4q2 0 6 2q1 0 2 0.5t2 0.5q5 3 10 5t10.5 0.5t9.5 -4.5q3 -2 5.5 -6.5t-1.5 -7.5q-5 -4 -11 -6t-11 -4q-6 -2 -11.5 -3t-11.5 -3t-11 -4q-2 0 -3 -0.5t-3 -0.5q0 -1 -2 -1.5t-1 0.5l-10 -6t-11 -2zM97 -160
h-1h1zM756 491q3 -2 7 -5.5t2 -8.5q-5 -15 -14 -28t-19 -25q-11 -13 -22 -25t-22 -25q-17 -17 -33 -36q-8 -13 -16.5 -25t-16.5 -26q-12 -18 -22.5 -36.5t-20.5 -37.5q-20 -38 -37 -77.5t-34 -79.5q-17 -42 -34 -83t-26 -86q-3 -14 -5 -29.5t-1 -30.5q0 -6 1 -9q6 1 12 -3
q3 -2 7.5 -6.5t-0.5 -8.5l-4 -3v1q0 -1 -0.5 -1t-0.5 -1l-3 -3l-11 -3q-13 -2 -22 7q-11 8 -13 27q-2 17 0 36t6 36q9 45 26 86t34 83q13 31 26 61.5t27 60.5l-66 -78q-42 -48 -86 -92.5t-90 -89.5q-23 -23 -48.5 -44t-54.5 -38q-15 -9 -31 -16.5t-33 -10.5
q-15 -3 -29.5 -1.5t-25.5 12.5q-7 7 -9 16.5t-2 18.5q1 23 9 46q6 20 14 39.5t17 39.5q8 14 14 29.5t14 29.5q10 20 21 40l22 40q23 39 47 77t50 76l105 151q10 14 19.5 28.5t18.5 28.5q8 11 14 21t11 21q7 12 7 23v1v2q0 2 -2 2q-1 -1 -2 -1q-2 0 -3 -0.5t-2 -0.5l-11 -4
l-4 -2q-2 -1 0 0.5t-1 -0.5q-4 -2 -6 -2l-12 -6l-26 -15q-11 -6 -21.5 -12.5t-21.5 -14.5l-7 -6l-3 -2l-2 -1q-8 -6 -15.5 -12.5t-14.5 -14.5q-17 -15 -32.5 -30t-30.5 -32q-61 -64 -107 -137q-17 -28 -31 -57t-24 -60q-8 -28 -11 -51v-2v-3v-5q0 -10 5.5 -11.5t7.5 -11.5
q1 -6 -4.5 -8t-10.5 -1q-14 2 -22.5 11t-9.5 23q-1 13 1.5 25.5t5.5 23.5q2 11 5 20.5t6 19.5q2 8 6 17t9 17q4 10 9 19l10 18q20 38 45 73t53 67q29 33 60 63t65 58q8 7 16 12.5t16 10.5q12 8 24 15t25 14q12 6 24 11t25 7q15 3 28 0q7 -2 13.5 -7t9.5 -12q5 -12 1 -24
t-9 -23q-6 -12 -12.5 -23t-14.5 -22q-45 -68 -93 -135l-52 -76t-51 -76q-23 -38 -45.5 -76t-41.5 -78q-7 -14 -12.5 -27t-11.5 -27q-5 -8 -8.5 -17t-7.5 -18q-5 -11 -9 -22.5t-7 -23.5q-4 -13 -5 -22q-1 -2 -1 -6l-1 -2v-1v-9q0 -2 0.5 -4.5t0.5 -4.5h1q0 -5 6 -6q1 0 1 0.5
t1 0.5h2l16 4l7 3q1 0 2 0.5t2 0.5q3 2 0.5 0.5t0.5 0.5q17 7 32 16t29 20q14 10 26 20t24 21q26 23 50 47.5t47 48.5q48 48 92 98.5t88 101.5l111 132q5 9 11 16q23 32 45 64.5t54 57.5q5 3 11 2t10 -3zM86 -136v-1v1zM88 -155z" />
    <glyph glyph-name="Ucircumflex" unicode="&#xdb;" horiz-adv-x="609" 
d="M676 581q1 -3 0 -6t-5 -4q-11 -2 -19 5t-15 17q-7 -4 -14 -8.5t-14 -9.5q-4 -2 -9.5 -1.5t-10 3.5t-6 7t3.5 8t10 7l10 6l22 12q14 5 23 -5q5 -5 8 -10.5t7 -10.5l4.5 -4.5t4.5 -5.5zM97 -160h-1h1zM756 491q3 -2 7 -5.5t2 -8.5q-5 -15 -14 -28t-19 -25q-11 -13 -22 -25
t-22 -25q-17 -17 -33 -36q-8 -13 -16.5 -25t-16.5 -26q-12 -18 -22.5 -36.5t-20.5 -37.5q-20 -38 -37 -77.5t-34 -79.5q-17 -42 -34 -83t-26 -86q-3 -14 -5 -29.5t-1 -30.5q0 -6 1 -9q6 1 12 -3q3 -2 7.5 -6.5t-0.5 -8.5l-4 -3v1q0 -1 -0.5 -1t-0.5 -1l-3 -3l-11 -3
q-13 -2 -22 7q-11 8 -13 27q-2 17 0 36t6 36q9 45 26 86t34 83q13 31 26 61.5t27 60.5l-66 -78q-42 -48 -86 -92.5t-90 -89.5q-23 -23 -48.5 -44t-54.5 -38q-15 -9 -31 -16.5t-33 -10.5q-15 -3 -29.5 -1.5t-25.5 12.5q-7 7 -9 16.5t-2 18.5q1 23 9 46q6 20 14 39.5t17 39.5
q8 14 14 29.5t14 29.5q10 20 21 40l22 40q23 39 47 77t50 76l105 151q10 14 19.5 28.5t18.5 28.5q8 11 14 21t11 21q7 12 7 23v1v2q0 2 -2 2q-1 -1 -2 -1q-2 0 -3 -0.5t-2 -0.5l-11 -4l-4 -2q-2 -1 0 0.5t-1 -0.5q-4 -2 -6 -2l-12 -6l-26 -15q-11 -6 -21.5 -12.5
t-21.5 -14.5l-7 -6l-3 -2l-2 -1q-8 -6 -15.5 -12.5t-14.5 -14.5q-17 -15 -32.5 -30t-30.5 -32q-61 -64 -107 -137q-17 -28 -31 -57t-24 -60q-8 -28 -11 -51v-2v-3v-5q0 -10 5.5 -11.5t7.5 -11.5q1 -6 -4.5 -8t-10.5 -1q-14 2 -22.5 11t-9.5 23q-1 13 1.5 25.5t5.5 23.5
q2 11 5 20.5t6 19.5q2 8 6 17t9 17q4 10 9 19l10 18q20 38 45 73t53 67q29 33 60 63t65 58q8 7 16 12.5t16 10.5q12 8 24 15t25 14q12 6 24 11t25 7q15 3 28 0q7 -2 13.5 -7t9.5 -12q5 -12 1 -24t-9 -23q-6 -12 -12.5 -23t-14.5 -22q-45 -68 -93 -135l-52 -76t-51 -76
q-23 -38 -45.5 -76t-41.5 -78q-7 -14 -12.5 -27t-11.5 -27q-5 -8 -8.5 -17t-7.5 -18q-5 -11 -9 -22.5t-7 -23.5q-4 -13 -5 -22q-1 -2 -1 -6l-1 -2v-1v-9q0 -2 0.5 -4.5t0.5 -4.5h1q0 -5 6 -6q1 0 1 0.5t1 0.5h2l16 4l7 3q1 0 2 0.5t2 0.5q3 2 0.5 0.5t0.5 0.5q17 7 32 16
t29 20q14 10 26 20t24 21q26 23 50 47.5t47 48.5q48 48 92 98.5t88 101.5l111 132q5 9 11 16q23 32 45 64.5t54 57.5q5 3 11 2t10 -3zM86 -136v-1v1zM88 -155z" />
    <glyph glyph-name="Udieresis" unicode="&#xdc;" horiz-adv-x="609" 
d="M97 -160h-1h1zM756 491q3 -2 7 -5.5t2 -8.5q-5 -15 -14 -28t-19 -25q-11 -13 -22 -25t-22 -25q-17 -17 -33 -36q-8 -13 -16.5 -25t-16.5 -26q-12 -18 -22.5 -36.5t-20.5 -37.5q-20 -38 -37 -77.5t-34 -79.5q-17 -42 -34 -83t-26 -86q-3 -14 -5 -29.5t-1 -30.5q0 -6 1 -9
q6 1 12 -3q3 -2 7.5 -6.5t-0.5 -8.5l-4 -3v1q0 -1 -0.5 -1t-0.5 -1l-3 -3l-11 -3q-13 -2 -22 7q-11 8 -13 27q-2 17 0 36t6 36q9 45 26 86t34 83q13 31 26 61.5t27 60.5l-66 -78q-42 -48 -86 -92.5t-90 -89.5q-23 -23 -48.5 -44t-54.5 -38q-15 -9 -31 -16.5t-33 -10.5
q-15 -3 -29.5 -1.5t-25.5 12.5q-7 7 -9 16.5t-2 18.5q1 23 9 46q6 20 14 39.5t17 39.5q8 14 14 29.5t14 29.5q10 20 21 40l22 40q23 39 47 77t50 76l105 151q10 14 19.5 28.5t18.5 28.5q8 11 14 21t11 21q7 12 7 23v1v2q0 2 -2 2q-1 -1 -2 -1q-2 0 -3 -0.5t-2 -0.5l-11 -4
l-4 -2q-2 -1 0 0.5t-1 -0.5q-4 -2 -6 -2l-12 -6l-26 -15q-11 -6 -21.5 -12.5t-21.5 -14.5l-7 -6l-3 -2l-2 -1q-8 -6 -15.5 -12.5t-14.5 -14.5q-17 -15 -32.5 -30t-30.5 -32q-61 -64 -107 -137q-17 -28 -31 -57t-24 -60q-8 -28 -11 -51v-2v-3v-5q0 -10 5.5 -11.5t7.5 -11.5
q1 -6 -4.5 -8t-10.5 -1q-14 2 -22.5 11t-9.5 23q-1 13 1.5 25.5t5.5 23.5q2 11 5 20.5t6 19.5q2 8 6 17t9 17q4 10 9 19l10 18q20 38 45 73t53 67q29 33 60 63t65 58q8 7 16 12.5t16 10.5q12 8 24 15t25 14q12 6 24 11t25 7q15 3 28 0q7 -2 13.5 -7t9.5 -12q5 -12 1 -24
t-9 -23q-6 -12 -12.5 -23t-14.5 -22q-45 -68 -93 -135l-52 -76t-51 -76q-23 -38 -45.5 -76t-41.5 -78q-7 -14 -12.5 -27t-11.5 -27q-5 -8 -8.5 -17t-7.5 -18q-5 -11 -9 -22.5t-7 -23.5q-4 -13 -5 -22q-1 -2 -1 -6l-1 -2v-1v-9q0 -2 0.5 -4.5t0.5 -4.5h1q0 -5 6 -6q1 0 1 0.5
t1 0.5h2l16 4l7 3q1 0 2 0.5t2 0.5q3 2 0.5 0.5t0.5 0.5q17 7 32 16t29 20q14 10 26 20t24 21q26 23 50 47.5t47 48.5q48 48 92 98.5t88 101.5l111 132q5 9 11 16q23 32 45 64.5t54 57.5q5 3 11 2t10 -3zM86 -136v-1v1zM88 -155zM646 571q2 -2 2 -5q0 -5 -6 -11
q-3 -5 -8.5 -4t-9.5 3t-7 5.5t0 7.5l3 4l1 1v1v-1v2q2 4 7 4t9 -1q4 -2 9 -6zM620 572h1h-1zM620 572v-1l-2 -2zM605 568q0 -3 -1 -4l1 1l-6 -7q-2 -4 -6.5 -4t-8.5 1q-5 0 -7 2q-1 0 -1 1v2l-1 1q-5 5 -1 9l3 5q3 4 9 4q13 2 18 -9q1 -1 1 -2z" />
    <glyph glyph-name="Yacute" unicode="&#xdd;" horiz-adv-x="532" 
d="M488 549q-5 1 -10 4.5t-3 9.5q1 2 4 4t5 4q9 5 22 10l12 4l12 4q2 0 6 2q1 0 2 0.5t2 0.5q5 3 10 5t10.5 0.5t9.5 -4.5q3 -2 5.5 -6.5t-1.5 -7.5q-5 -4 -11 -6t-11 -4q-6 -2 -11.5 -3t-11.5 -3t-11 -4q-2 0 -3 -0.5t-3 -0.5q0 -1 -2 -1.5t-1 0.5l-10 -6t-11 -2zM188 41
l-1 1q1 0 1 -1zM1040 -60q5 -2 10 -5.5t3 -9.5q-2 -5 -8.5 -6t-10.5 1q-6 2 -12 3.5t-12 3.5l-12 3l-6 2h-3h-1q-28 6 -53 9q-16 2 -31.5 3t-30.5 2l-67 2q-61 1 -121.5 -0.5t-121.5 -3.5q-57 -2 -113 -4t-113 -4q-18 -31 -35.5 -62t-35.5 -63q-40 -72 -81 -143t-85 -141
q-2 -5 -8 -5t-10 2q-5 1 -9.5 4t-4.5 8q-2 33 -1 66t3 66q2 38 2.5 75.5t-7.5 74.5q-3 17 -8 32t-13 30q-5 7 -8.5 12.5t-9.5 12.5l-11 12l-1 1q-1 0 -2 1l-3 3l-7 6q-2 2 -4.5 5t-0.5 7q1 3 4.5 4.5t6.5 1.5q18 1 36 1.5t36 2.5q52 2 103 4t103 4l25 1q35 62 71.5 122.5
t74.5 120.5q11 16 21 31t20 31q-23 -25 -46 -49t-47 -49q-14 -14 -29 -28l-30 -28q-20 -18 -42 -36t-46 -32q-9 -6 -19.5 -11.5t-22 -9t-23 -3.5t-21.5 6q-15 8 -20.5 22t-5.5 29.5t3.5 31.5t7.5 29q9 30 21.5 58.5t27.5 56.5q19 33 40 64.5t42 63.5q9 14 18.5 28t17.5 28
q4 6 7.5 11.5t5.5 10.5q4 7 7 14.5t5 15.5q0 4 0.5 6t-0.5 6v4q-2 2 -2 4q-2 2 -1 0.5t0 0.5q0 1 -1 2q-1 0 -1 0.5t-1 0.5h1q2 -2 -2 0q-1 1 -3 1h-3h-2h-1h-7h-1q-2 -1 -4 -1q-8 -2 -15.5 -4.5t-15.5 -6.5q-34 -19 -67 -45q-14 -11 -25.5 -23t-22.5 -26
q-13 -14 -24.5 -28.5t-21.5 -31.5l-6 -12t-5 -13l1 1q6 2 12 -4q2 -2 1.5 -4t-2.5 -3q-8 -4 -18 -8.5t-17 6.5q-2 3 -1 7.5t2 7.5q2 10 4 17q6 18 15 32l21 32q5 8 11 14.5t12 13.5q5 6 10.5 12t12.5 12q32 29 65 49q16 10 33 17.5t35 9.5q15 2 31.5 -1.5t25.5 -16.5
q10 -13 9 -27.5t-7 -28.5t-13.5 -27t-15.5 -25l-39 -59q-38 -57 -72.5 -115.5t-49.5 -126.5q-2 -8 -3 -15.5t-2 -14.5q0 -10 1 -14q0 -5 1 -7v-3q0 2 0 1t1 -2q0 -2 2 -6q1 0 1.5 -1t-0.5 0l1 -1l1 -1v-1h1h-1h1h1q1 0 1.5 0.5t1.5 0.5h3l9 3q1 0 1.5 0.5t1.5 0.5h1l2 1
q1 0 1 1l10 5q11 7 21.5 14t21.5 15q21 16 40 32.5t39 35.5q22 20 42.5 41.5t41.5 44.5q35 36 69 72.5t68 74.5l33 37l31 35q13 17 25.5 33t29.5 29q4 3 10 2.5t11 -3.5t7.5 -7t-0.5 -9q-14 -24 -33 -46q-31 -38 -59 -77t-56 -79q-28 -39 -54 -79t-52 -81q-28 -45 -54 -89
t-52 -89l172 7q56 2 111.5 3t111.5 2q42 0 84 -1t84 -5q33 -3 66 -9q8 -2 16.5 -4t16.5 -4l14 -4l7 -3q3 0 4 -1h1zM339 512h2h-2zM187 41h-1h1zM263 -126q9 15 17.5 30t16.5 31l-183 -8q-17 -2 -34.5 -2t-34.5 -1q33 -35 47 -82q11 -35 13 -72t0 -74q-1 -25 -1.5 -50
t-1.5 -51q42 69 82 138.5t79 140.5zM988 -68h1h-1v0zM191 42q3 1 3 0.5t-2 -0.5h-1zM207 46h1h-1zM188 41h-1h1z" />
    <glyph glyph-name="agrave" unicode="&#xe0;" horiz-adv-x="293" 
d="M45 234q-3 2 -6.5 6t0.5 9q2 3 7 3.5t9 -1.5q9 -2 17.5 -5.5t16.5 -7.5q6 -2 12.5 -4.5t11.5 -7.5q4 -3 5.5 -8t-3.5 -8t-12 -2t-12 5q0 1 2 -0.5t-1 0.5q-1 0 -5 2t-14 6l-14 6t-14 7zM318 155q4 -2 8 -6.5t0 -7.5q-25 -22 -48.5 -42t-51.5 -38q-13 -8 -20.5 -13.5
t-17.5 -10.5q-30 -17 -44 -23t-25 -8q-18 -2 -38 1.5t-30 20.5q-6 9 -5.5 20t3.5 22q-7 -8 -14.5 -15t-15.5 -15q-8 -7 -14.5 -15t-14.5 -13q-11 -10 -28 -16q-9 -4 -19 -3.5t-20 7.5q-7 5 -10 13.5t-3 16.5q1 19 10 34.5t20 29.5q12 15 25.5 28.5t29.5 24.5q21 15 53 26
q5 2 12 3t13 0q7 -2 14 -7.5t3 -13.5q-2 -5 -7 -5.5t-10 1.5q-1 0 -5 2h-1q-1 -1 -2 -0.5t-2 -0.5q-1 0 -3.5 -1t-0.5 0q-12 -5 -23.5 -10.5t-22.5 -13.5q-9 -8 -19 -18.5t-19 -21.5t-17.5 -22.5t-13.5 -25.5q-2 -6 -3 -12.5t1 -12.5q2 0 3 1q8 5 14.5 9t12.5 10
q15 12 30 29l58 62l31 28l1 1q5 7 11 13t11 13q3 3 8 3.5t10 -1t8.5 -5t3.5 -7.5v-1q0 -2 -2 -4q-1 -1 -1.5 -2t-1.5 -2q-1 -2 -2 -2.5t-2 -2.5q-3 -4 -5.5 -6.5t-6 -6.5t-8 -10t-11.5 -17q-2 -4 -4.5 -7.5t-4.5 -7.5q-5 -9 -9 -18.5t-6 -17.5l-3 -10q-5 -14 4.5 -23
t27.5 -4q15 5 28.5 12t29.5 15q37 20 68 46t63 54q5 3 10.5 2.5t9.5 -2.5z" />
    <glyph glyph-name="aacute" unicode="&#xe1;" horiz-adv-x="293" 
d="M19 205q-5 1 -10 4.5t-3 9.5q1 2 4 4t5 4q9 5 22 10l12 4l12 4q2 0 6 2q1 0 2 0.5t2 0.5q5 3 10 5t10.5 0.5t9.5 -4.5q3 -2 5.5 -6.5t-1.5 -7.5q-5 -4 -11 -6t-11 -4q-6 -2 -11.5 -3t-11.5 -3t-11 -4q-2 0 -3 -0.5t-3 -0.5q0 -1 -2 -1.5t-1 0.5l-10 -6t-11 -2zM319 155
q4 -2 8 -6.5t0 -7.5q-25 -22 -48.5 -42t-51.5 -38q-13 -8 -20.5 -13.5t-17.5 -10.5q-30 -17 -44 -23t-25 -8q-18 -2 -38 1.5t-30 20.5q-6 9 -5.5 20t3.5 22q-7 -8 -14.5 -15t-15.5 -15q-8 -7 -14.5 -15t-14.5 -13q-11 -10 -28 -16q-9 -4 -19 -3.5t-20 7.5q-7 5 -10 13.5
t-3 16.5q1 19 10 34.5t20 29.5q12 15 25.5 28.5t29.5 24.5q21 15 53 26q5 2 12 3t13 0q7 -2 14 -7.5t3 -13.5q-2 -5 -7 -5.5t-10 1.5q-1 0 -5 2h-1q-1 -1 -2 -0.5t-2 -0.5q-1 0 -3.5 -1t-0.5 0q-12 -5 -23.5 -10.5t-22.5 -13.5q-9 -8 -19 -18.5t-19 -21.5t-17.5 -22.5
t-13.5 -25.5q-2 -6 -3 -12.5t1 -12.5q2 0 3 1q8 5 14.5 9t12.5 10q15 12 30 29l58 62l31 28l1 1q5 7 11 13t11 13q3 3 8 3.5t10 -1t8.5 -5t3.5 -7.5v-1q0 -2 -2 -4q-1 -1 -1.5 -2t-1.5 -2q-1 -2 -2 -2.5t-2 -2.5q-3 -4 -5.5 -6.5t-6 -6.5t-8 -10t-11.5 -17q-2 -4 -4.5 -7.5
t-4.5 -7.5q-5 -9 -9 -18.5t-6 -17.5l-3 -10q-5 -14 4.5 -23t27.5 -4q15 5 28.5 12t29.5 15q37 20 68 46t63 54q5 3 10.5 2.5t9.5 -2.5z" />
    <glyph glyph-name="acircumflex" unicode="&#xe2;" horiz-adv-x="293" 
d="M318 155q4 -2 8 -6.5t0 -7.5q-25 -22 -48.5 -42t-51.5 -38q-13 -8 -20.5 -13.5t-17.5 -10.5q-30 -17 -44 -23t-25 -8q-18 -2 -38 1.5t-30 20.5q-6 9 -5.5 20t3.5 22q-7 -8 -14.5 -15t-15.5 -15q-8 -7 -14.5 -15t-14.5 -13q-11 -10 -28 -16q-9 -4 -19 -3.5t-20 7.5
q-7 5 -10 13.5t-3 16.5q1 19 10 34.5t20 29.5q12 15 25.5 28.5t29.5 24.5q21 15 53 26q5 2 12 3t13 0q7 -2 14 -7.5t3 -13.5q-2 -5 -7 -5.5t-10 1.5q-1 0 -5 2h-1q-1 -1 -2 -0.5t-2 -0.5q-1 0 -3.5 -1t-0.5 0q-12 -5 -23.5 -10.5t-22.5 -13.5q-9 -8 -19 -18.5t-19 -21.5
t-17.5 -22.5t-13.5 -25.5q-2 -6 -3 -12.5t1 -12.5q2 0 3 1q8 5 14.5 9t12.5 10q15 12 30 29l58 62l31 28l1 1q5 7 11 13t11 13q3 3 8 3.5t10 -1t8.5 -5t3.5 -7.5v-1q0 -2 -2 -4q-1 -1 -1.5 -2t-1.5 -2q-1 -2 -2 -2.5t-2 -2.5q-3 -4 -5.5 -6.5t-6 -6.5t-8 -10t-11.5 -17
q-2 -4 -4.5 -7.5t-4.5 -7.5q-5 -9 -9 -18.5t-6 -17.5l-3 -10q-5 -14 4.5 -23t27.5 -4q15 5 28.5 12t29.5 15q37 20 68 46t63 54q5 3 10.5 2.5t9.5 -2.5zM126 222q1 -3 0 -6t-5 -4q-11 -2 -19 5t-15 17q-7 -4 -14 -8.5t-14 -9.5q-4 -2 -9.5 -1.5t-10 3.5t-6 7t3.5 8t10 7
l10 6l22 12q14 5 23 -5q5 -5 8 -10.5t7 -10.5l4.5 -4.5t4.5 -5.5z" />
    <glyph glyph-name="atilde" unicode="&#xe3;" horiz-adv-x="293" 
d="M141 246q8 -6 4 -13q-10 -14 -30 -17.5t-36 3.5q-4 2 -10 8h-1q-2 0 -6 -2q-2 0 -8 -4q-2 -1 -9 -1l-1 -1q-4 0 -8.5 2t-6.5 6q-3 7 3 12q3 3 8 5q7 4 18 6q9 1 18.5 -1.5t16.5 -10.5h4h3q-3 0 -2 0.5t2 0.5q2 0 6 2q1 1 2 1q2 0 4 2q3 1 9 5q5 2 10.5 1t9.5 -4zM318 155
q4 -2 8 -6.5t0 -7.5q-25 -22 -48.5 -42t-51.5 -38q-13 -8 -20.5 -13.5t-17.5 -10.5q-30 -17 -44 -23t-25 -8q-18 -2 -38 1.5t-30 20.5q-6 9 -5.5 20t3.5 22q-7 -8 -14.5 -15t-15.5 -15q-8 -7 -14.5 -15t-14.5 -13q-11 -10 -28 -16q-9 -4 -19 -3.5t-20 7.5q-7 5 -10 13.5
t-3 16.5q1 19 10 34.5t20 29.5q12 15 25.5 28.5t29.5 24.5q21 15 53 26q5 2 12 3t13 0q7 -2 14 -7.5t3 -13.5q-2 -5 -7 -5.5t-10 1.5q-1 0 -5 2h-1q-1 -1 -2 -0.5t-2 -0.5q-1 0 -3.5 -1t-0.5 0q-12 -5 -23.5 -10.5t-22.5 -13.5q-9 -8 -19 -18.5t-19 -21.5t-17.5 -22.5
t-13.5 -25.5q-2 -6 -3 -12.5t1 -12.5q2 0 3 1q8 5 14.5 9t12.5 10q15 12 30 29l58 62l31 28l1 1q5 7 11 13t11 13q3 3 8 3.5t10 -1t8.5 -5t3.5 -7.5v-1q0 -2 -2 -4q-1 -1 -1.5 -2t-1.5 -2q-1 -2 -2 -2.5t-2 -2.5q-3 -4 -5.5 -6.5t-6 -6.5t-8 -10t-11.5 -17q-2 -4 -4.5 -7.5
t-4.5 -7.5q-5 -9 -9 -18.5t-6 -17.5l-3 -10q-5 -14 4.5 -23t27.5 -4q15 5 28.5 12t29.5 15q37 20 68 46t63 54q5 3 10.5 2.5t9.5 -2.5z" />
    <glyph glyph-name="adieresis" unicode="&#xe4;" horiz-adv-x="293" 
d="M318 155q4 -2 8 -6.5t0 -7.5q-25 -22 -48.5 -42t-51.5 -38q-13 -8 -20.5 -13.5t-17.5 -10.5q-30 -17 -44 -23t-25 -8q-18 -2 -38 1.5t-30 20.5q-6 9 -5.5 20t3.5 22q-7 -8 -14.5 -15t-15.5 -15q-8 -7 -14.5 -15t-14.5 -13q-11 -10 -28 -16q-9 -4 -19 -3.5t-20 7.5
q-7 5 -10 13.5t-3 16.5q1 19 10 34.5t20 29.5q12 15 25.5 28.5t29.5 24.5q21 15 53 26q5 2 12 3t13 0q7 -2 14 -7.5t3 -13.5q-2 -5 -7 -5.5t-10 1.5q-1 0 -5 2h-1q-1 -1 -2 -0.5t-2 -0.5q-1 0 -3.5 -1t-0.5 0q-12 -5 -23.5 -10.5t-22.5 -13.5q-9 -8 -19 -18.5t-19 -21.5
t-17.5 -22.5t-13.5 -25.5q-2 -6 -3 -12.5t1 -12.5q2 0 3 1q8 5 14.5 9t12.5 10q15 12 30 29l58 62l31 28l1 1q5 7 11 13t11 13q3 3 8 3.5t10 -1t8.5 -5t3.5 -7.5v-1q0 -2 -2 -4q-1 -1 -1.5 -2t-1.5 -2q-1 -2 -2 -2.5t-2 -2.5q-3 -4 -5.5 -6.5t-6 -6.5t-8 -10t-11.5 -17
q-2 -4 -4.5 -7.5t-4.5 -7.5q-5 -9 -9 -18.5t-6 -17.5l-3 -10q-5 -14 4.5 -23t27.5 -4q15 5 28.5 12t29.5 15q37 20 68 46t63 54q5 3 10.5 2.5t9.5 -2.5zM113 231q2 -2 2 -5q0 -5 -6 -11q-3 -5 -8.5 -4t-9.5 3t-7 5.5t0 7.5l3 4l1 1v1v-1v2q2 4 7 4t9 -1q4 -2 9 -6zM87 232h1
h-1zM87 232v-1l-2 -2zM72 228q0 -3 -1 -4l1 1l-6 -7q-2 -4 -6.5 -4t-8.5 1q-5 0 -7 2q-1 0 -1 1v2l-1 1q-5 5 -1 9l3 5q3 4 9 4q13 2 18 -9q1 -1 1 -2z" />
    <glyph glyph-name="aring" unicode="&#xe5;" horiz-adv-x="293" 
d="M92 269q3 -1 6 -2.5t2 -5.5v2q2 -2 0 -5q-1 0 -1 -1q-1 -1 0 0.5t0 -0.5q-1 -1 -1.5 -2t-1.5 -2q-4 -6 -5 -8q-3 -5 -5.5 -9.5t-4.5 -9.5q-2 -3 -4 -9q-1 -2 -1 -5q-1 0 -1 -1.5t0 0.5v-3q2 -2 0.5 0t0.5 0q-2 2 -1 1t-1 0q0 1 -3 1.5t-1 0.5q-3 0 -1.5 0.5t-1.5 -0.5h2
q2 1 0.5 0t0.5 0l2 2q2 1 2.5 1.5t2.5 1.5l8 8q3 4 6 8.5t3 8.5q0 6 -3 11l-1 1q-2 2 -0.5 0.5t-0.5 0.5t0 0.5t0 -0.5t-1.5 1t2.5 -1h-1q-2 0 -0.5 0.5t-0.5 -0.5q0 -1 -1 -1h-1q-3 -2 -5.5 -3.5t-5.5 -3.5q-5 -3 -12.5 0t-5.5 9q2 8 9.5 13t15.5 4q9 0 18 -3.5t14 -11.5
q5 -6 6.5 -13.5t-1.5 -15.5q-2 -6 -6 -11.5t-9 -10.5t-11.5 -8.5t-14.5 -4.5q-8 -2 -16.5 2t-10.5 12q-3 10 2 19q2 5 5 10.5t7 10.5q4 8 13 17q8 6 13 5h1q1 0 2 -1q1 0 3 -1.5t-1 0.5q2 0 3 -2q2 -1 0 -5q-3 3 -7 9zM318 155q4 -2 8 -6.5t0 -7.5q-25 -22 -48.5 -42
t-51.5 -38q-13 -8 -20.5 -13.5t-17.5 -10.5q-30 -17 -44 -23t-25 -8q-18 -2 -38 1.5t-30 20.5q-6 9 -5.5 20t3.5 22q-7 -8 -14.5 -15t-15.5 -15q-8 -7 -14.5 -15t-14.5 -13q-11 -10 -28 -16q-9 -4 -19 -3.5t-20 7.5q-7 5 -10 13.5t-3 16.5q1 19 10 34.5t20 29.5
q12 15 25.5 28.5t29.5 24.5q21 15 53 26q5 2 12 3t13 0q7 -2 14 -7.5t3 -13.5q-2 -5 -7 -5.5t-10 1.5q-1 0 -5 2h-1q-1 -1 -2 -0.5t-2 -0.5q-1 0 -3.5 -1t-0.5 0q-12 -5 -23.5 -10.5t-22.5 -13.5q-9 -8 -19 -18.5t-19 -21.5t-17.5 -22.5t-13.5 -25.5q-2 -6 -3 -12.5t1 -12.5
q2 0 3 1q8 5 14.5 9t12.5 10q15 12 30 29l58 62l31 28l1 1q5 7 11 13t11 13q3 3 8 3.5t10 -1t8.5 -5t3.5 -7.5v-1q0 -2 -2 -4q-1 -1 -1.5 -2t-1.5 -2q-1 -2 -2 -2.5t-2 -2.5q-3 -4 -5.5 -6.5t-6 -6.5t-8 -10t-11.5 -17q-2 -4 -4.5 -7.5t-4.5 -7.5q-5 -9 -9 -18.5t-6 -17.5
l-3 -10q-5 -14 4.5 -23t27.5 -4q15 5 28.5 12t29.5 15q37 20 68 46t63 54q5 3 10.5 2.5t9.5 -2.5z" />
    <glyph glyph-name="ccedilla" unicode="&#xe7;" horiz-adv-x="187" 
d="M77 154q-3 -5 -9 -3.5t-9 5.5q-2 -2 -4 -2.5t-4 -2.5q-5 -3 -11 -7t-11 -9l-8 -6l-3 -3q-4 -7 -11 -12l-5 -5q-9 -10 -17 -19.5t-16 -20.5l-15 -20q0 -1 -2 -3q-1 -1 -1 -4l-4 -8q-2 -4 -2 -7q0 -2 -0.5 -2.5t-0.5 -1.5v-6v-3q0 -1 1 -1h13l4 2v-2l12 3l15 6q3 0 6 3
q2 0 2.5 0.5t1.5 0.5l23 10l12 6q14 8 27.5 16t27.5 17l52 36l2 2q1 1 1.5 1t1.5 1l28 22l14 12h-1q1 0 2 1l2 2l3 3h-1l6 3q7 3 14 0q3 -2 6 -5.5t4 -6.5q-4 -8 -11 -15l-14 -13l-12 -9q-7 -5 -13 -9.5t-13 -9.5l-24 -18q-19 -13 -40.5 -26t-43.5 -24q-14 -8 -28 -14.5
t-29 -10.5q-13 -5 -28 -6.5t-29 3.5q-11 4 -20 11.5t-8 20.5q1 9 6 20t10 19q14 21 30.5 39.5t33.5 35.5q10 10 20 17.5t21 14.5h-1q9 5 18 7.5t19 -0.5q5 -2 9 -5t5 -8t-4 -12zM-26 -83v-1h-1v1h1zM-28 -83h1h-1zM-26 -84v-1v1q0 1 -1 1h1v-1zM-28 -83q1 0 1 -1v1h-1z
M-26 -85l-1 2q0 -1 1 -1h-1h1v-1zM4 -84q6 -16 -6 -31q-11 -17 -31 -23.5t-40 1.5q-5 2 -7.5 7t0.5 10q2 3 5 5.5t6 5.5q5 3 12.5 1.5t12.5 -6.5v1q4 2 7 5.5t5 5.5t2 3l2 2l1 4q0 2 0.5 3t0.5 2v3q1 0 0 1l-1 1h-1q-2 0 -3 0.5t-3 0.5q-5 2 -10.5 7t-0.5 10q3 4 5.5 7.5
t4.5 7.5l4 8t5 7q4 3 11 1.5t8 -7.5q0 -5 -1 -9t-3 -9q0 -2 -0.5 -4t-0.5 -4q5 -3 9.5 -7t6.5 -10z" />
    <glyph glyph-name="egrave" unicode="&#xe8;" horiz-adv-x="225" 
d="M7 72q-8 -4 -18.5 -5t-19.5 3l-2 -2q-4 -8 -5 -13q-1 -1 -1 -3q0 -1 -0.5 -1.5t-0.5 -1.5l-1 -4q0 -9 2 -14q0 -2 1 -3l3 -3q4 -2 6 -2h9q2 0 3 0.5t3 0.5h5q-1 0 4 1h1q1 0 3 1q1 0 2 0.5t2 0.5q2 0 3 1q3 0 4.5 0.5t3.5 1.5l8 2q2 2 5.5 2.5t5.5 1.5q3 0 6 3l3 1
q11 5 25 12t25 13h-1q51 30 99 63q8 6 17.5 12t17.5 12q4 2 9 5t10 5q2 1 7 1h1q-1 0 -0.5 -0.5t1.5 -0.5h2l4 -1l2 -2l2 -2l1 -1q1 -4 0 -7l-2 -3l-3 -3l-13 -10l-4 -3l-32 -22q-22 -15 -47 -31.5t-54 -31.5q-20 -11 -43 -21.5t-44 -15.5q-24 -6 -48 -5q-14 2 -26.5 10
t-17.5 22q-3 14 2.5 28.5t12.5 25.5q18 27 42 50q10 10 22.5 20t26.5 18h-1q13 7 30.5 11.5t31.5 -5.5q12 -10 8.5 -23t-11.5 -24q-14 -19 -38 -37q-11 -8 -23.5 -15t-25.5 -12zM-21 87q0 -3 2 -3l2 1q3 0 9 2q0 1 1 1l2 1l2 2h1q2 0 3 1l6 3l14 10l9 6l7 5l4 2h-1l3 3
q2 2 1 1.5t2 1.5q8 7 14.5 15t11.5 17q1 2 2 5l3 9q-12 -3 -28 -14q-5 -3 -8 -6t-7 -6q-1 -1 -1.5 -1t-1.5 -1l-2 -2q-12 -11 -23.5 -22t-21.5 -24zM1 93h1l-1 -1v1zM45 234q-3 2 -6.5 6t0.5 9q2 3 7 3.5t9 -1.5q9 -2 17.5 -5.5t16.5 -7.5q6 -2 12.5 -4.5t11.5 -7.5
q4 -3 5.5 -8t-3.5 -8t-12 -2t-12 5q0 1 2 -0.5t-1 0.5q-1 0 -5 2t-14 6l-14 6t-14 7z" />
    <glyph glyph-name="eacute" unicode="&#xe9;" horiz-adv-x="225" 
d="M7 72q-8 -4 -18.5 -5t-19.5 3l-2 -2q-4 -8 -5 -13q-1 -1 -1 -3q0 -1 -0.5 -1.5t-0.5 -1.5l-1 -4q0 -9 2 -14q0 -2 1 -3l3 -3q4 -2 6 -2h9q2 0 3 0.5t3 0.5h5q-1 0 4 1h1q1 0 3 1q1 0 2 0.5t2 0.5q2 0 3 1q3 0 4.5 0.5t3.5 1.5l8 2q2 2 5.5 2.5t5.5 1.5q3 0 6 3l3 1
q11 5 25 12t25 13h-1q51 30 99 63q8 6 17.5 12t17.5 12q4 2 9 5t10 5q2 1 7 1h1q-1 0 -0.5 -0.5t1.5 -0.5h2l4 -1l2 -2l2 -2l1 -1q1 -4 0 -7l-2 -3l-3 -3l-13 -10l-4 -3l-32 -22q-22 -15 -47 -31.5t-54 -31.5q-20 -11 -43 -21.5t-44 -15.5q-24 -6 -48 -5q-14 2 -26.5 10
t-17.5 22q-3 14 2.5 28.5t12.5 25.5q18 27 42 50q10 10 22.5 20t26.5 18h-1q13 7 30.5 11.5t31.5 -5.5q12 -10 8.5 -23t-11.5 -24q-14 -19 -38 -37q-11 -8 -23.5 -15t-25.5 -12zM-21 87q0 -3 2 -3l2 1q3 0 9 2q0 1 1 1l2 1l2 2h1q2 0 3 1l6 3l14 10l9 6l7 5l4 2h-1l3 3
q2 2 1 1.5t2 1.5q8 7 14.5 15t11.5 17q1 2 2 5l3 9q-12 -3 -28 -14q-5 -3 -8 -6t-7 -6q-1 -1 -1.5 -1t-1.5 -1l-2 -2q-12 -11 -23.5 -22t-21.5 -24zM1 93h1l-1 -1v1zM19 205q-5 1 -10 4.5t-3 9.5q1 2 4 4t5 4q9 5 22 10l12 4l12 4q2 0 6 2q1 0 2 0.5t2 0.5q5 3 10 5
t10.5 0.5t9.5 -4.5q3 -2 5.5 -6.5t-1.5 -7.5q-5 -4 -11 -6t-11 -4q-6 -2 -11.5 -3t-11.5 -3t-11 -4q-2 0 -3 -0.5t-3 -0.5q0 -1 -2 -1.5t-1 0.5l-10 -6t-11 -2z" />
    <glyph glyph-name="ecircumflex" unicode="&#xea;" horiz-adv-x="225" 
d="M7 72q-8 -4 -18.5 -5t-19.5 3l-2 -2q-4 -8 -5 -13q-1 -1 -1 -3q0 -1 -0.5 -1.5t-0.5 -1.5l-1 -4q0 -9 2 -14q0 -2 1 -3l3 -3q4 -2 6 -2h9q2 0 3 0.5t3 0.5h5q-1 0 4 1h1q1 0 3 1q1 0 2 0.5t2 0.5q2 0 3 1q3 0 4.5 0.5t3.5 1.5l8 2q2 2 5.5 2.5t5.5 1.5q3 0 6 3l3 1
q11 5 25 12t25 13h-1q51 30 99 63q8 6 17.5 12t17.5 12q4 2 9 5t10 5q2 1 7 1h1q-1 0 -0.5 -0.5t1.5 -0.5h2l4 -1l2 -2l2 -2l1 -1q1 -4 0 -7l-2 -3l-3 -3l-13 -10l-4 -3l-32 -22q-22 -15 -47 -31.5t-54 -31.5q-20 -11 -43 -21.5t-44 -15.5q-24 -6 -48 -5q-14 2 -26.5 10
t-17.5 22q-3 14 2.5 28.5t12.5 25.5q18 27 42 50q10 10 22.5 20t26.5 18h-1q13 7 30.5 11.5t31.5 -5.5q12 -10 8.5 -23t-11.5 -24q-14 -19 -38 -37q-11 -8 -23.5 -15t-25.5 -12zM-21 87q0 -3 2 -3l2 1q3 0 9 2q0 1 1 1l2 1l2 2h1q2 0 3 1l6 3l14 10l9 6l7 5l4 2h-1l3 3
q2 2 1 1.5t2 1.5q8 7 14.5 15t11.5 17q1 2 2 5l3 9q-12 -3 -28 -14q-5 -3 -8 -6t-7 -6q-1 -1 -1.5 -1t-1.5 -1l-2 -2q-12 -11 -23.5 -22t-21.5 -24zM1 93h1l-1 -1v1zM126 222q1 -3 0 -6t-5 -4q-11 -2 -19 5t-15 17q-7 -4 -14 -8.5t-14 -9.5q-4 -2 -9.5 -1.5t-10 3.5t-6 7
t3.5 8t10 7l10 6l22 12q14 5 23 -5q5 -5 8 -10.5t7 -10.5l4.5 -4.5t4.5 -5.5z" />
    <glyph glyph-name="edieresis" unicode="&#xeb;" horiz-adv-x="225" 
d="M7 72q-8 -4 -18.5 -5t-19.5 3l-2 -2q-4 -8 -5 -13q-1 -1 -1 -3q0 -1 -0.5 -1.5t-0.5 -1.5l-1 -4q0 -9 2 -14q0 -2 1 -3l3 -3q4 -2 6 -2h9q2 0 3 0.5t3 0.5h5q-1 0 4 1h1q1 0 3 1q1 0 2 0.5t2 0.5q2 0 3 1q3 0 4.5 0.5t3.5 1.5l8 2q2 2 5.5 2.5t5.5 1.5q3 0 6 3l3 1
q11 5 25 12t25 13h-1q51 30 99 63q8 6 17.5 12t17.5 12q4 2 9 5t10 5q2 1 7 1h1q-1 0 -0.5 -0.5t1.5 -0.5h2l4 -1l2 -2l2 -2l1 -1q1 -4 0 -7l-2 -3l-3 -3l-13 -10l-4 -3l-32 -22q-22 -15 -47 -31.5t-54 -31.5q-20 -11 -43 -21.5t-44 -15.5q-24 -6 -48 -5q-14 2 -26.5 10
t-17.5 22q-3 14 2.5 28.5t12.5 25.5q18 27 42 50q10 10 22.5 20t26.5 18h-1q13 7 30.5 11.5t31.5 -5.5q12 -10 8.5 -23t-11.5 -24q-14 -19 -38 -37q-11 -8 -23.5 -15t-25.5 -12zM-21 87q0 -3 2 -3l2 1q3 0 9 2q0 1 1 1l2 1l2 2h1q2 0 3 1l6 3l14 10l9 6l7 5l4 2h-1l3 3
q2 2 1 1.5t2 1.5q8 7 14.5 15t11.5 17q1 2 2 5l3 9q-12 -3 -28 -14q-5 -3 -8 -6t-7 -6q-1 -1 -1.5 -1t-1.5 -1l-2 -2q-12 -11 -23.5 -22t-21.5 -24zM1 93h1l-1 -1v1zM113 231q2 -2 2 -5q0 -5 -6 -11q-3 -5 -8.5 -4t-9.5 3t-7 5.5t0 7.5l3 4l1 1v1v-1v2q2 4 7 4t9 -1
q4 -2 9 -6zM87 232h1h-1zM87 232v-1l-2 -2zM72 228q0 -3 -1 -4l1 1l-6 -7q-2 -4 -6.5 -4t-8.5 1q-5 0 -7 2q-1 0 -1 1v2l-1 1q-5 5 -1 9l3 5q3 4 9 4q13 2 18 -9q1 -1 1 -2z" />
    <glyph glyph-name="igrave" unicode="&#xec;" 
d="M60 165q-2 -3 -6 -5l-4 -3l-11 -10q-13 -13 -24.5 -26.5t-21.5 -28.5q-11 -15 -18 -31q-5 -8 -9 -17t-6 -18q-2 -8 -2 -11l-1 -3q5 0 8 1l12 3q6 2 11.5 4t10.5 4l7 3q3 0 5 1q-3 0 3 2q2 2 4.5 2t6.5 2l20 10q16 7 37 20q2 2 5 3t5 3l58 36q8 6 17 11.5t17 10.5l9 7
q15 10 33 19q3 1 7.5 -0.5t8.5 -3.5t5.5 -5.5t-1.5 -7.5q-5 -5 -12 -10t-15 -10l-6 -3h1l-15 -10q-3 -2 -7.5 -4.5t-6.5 -4.5q-25 -17 -51 -33t-59 -33q-9 -5 -21 -10.5t-22 -9.5q-12 -5 -25.5 -10t-27.5 -7q-12 -3 -27.5 -1t-22.5 16q-5 11 -1 23q2 8 5.5 17t8.5 17
q9 17 19 33.5t21 30.5q5 7 11 14t13 13l15 14l4 4l14 9q8 4 16 -1h-1q2 -2 4.5 -5t1.5 -7h3l-3 -3v-1zM45 234q-3 2 -6.5 6t0.5 9q2 3 7 3.5t9 -1.5q9 -2 17.5 -5.5t16.5 -7.5q6 -2 12.5 -4.5t11.5 -7.5q4 -3 5.5 -8t-3.5 -8t-12 -2t-12 5q0 1 2 -0.5t-1 0.5q-1 0 -5 2
t-14 6l-14 6t-14 7z" />
    <glyph glyph-name="iacute" unicode="&#xed;" 
d="M60 165q-2 -3 -6 -5l-4 -3l-11 -10q-13 -13 -24.5 -26.5t-21.5 -28.5q-11 -15 -18 -31q-5 -8 -9 -17t-6 -18q-2 -8 -2 -11l-1 -3q5 0 8 1l12 3q6 2 11.5 4t10.5 4l7 3q3 0 5 1q-3 0 3 2q2 2 4.5 2t6.5 2l20 10q16 7 37 20q2 2 5 3t5 3l58 36q8 6 17 11.5t17 10.5l9 7
q15 10 33 19q3 1 7.5 -0.5t8.5 -3.5t5.5 -5.5t-1.5 -7.5q-5 -5 -12 -10t-15 -10l-6 -3h1l-15 -10q-3 -2 -7.5 -4.5t-6.5 -4.5q-25 -17 -51 -33t-59 -33q-9 -5 -21 -10.5t-22 -9.5q-12 -5 -25.5 -10t-27.5 -7q-12 -3 -27.5 -1t-22.5 16q-5 11 -1 23q2 8 5.5 17t8.5 17
q9 17 19 33.5t21 30.5q5 7 11 14t13 13l15 14l4 4l14 9q8 4 16 -1h-1q2 -2 4.5 -5t1.5 -7h3l-3 -3v-1zM19 205q-5 1 -10 4.5t-3 9.5q1 2 4 4t5 4q9 5 22 10l12 4l12 4q2 0 6 2q1 0 2 0.5t2 0.5q5 3 10 5t10.5 0.5t9.5 -4.5q3 -2 5.5 -6.5t-1.5 -7.5q-5 -4 -11 -6t-11 -4
q-6 -2 -11.5 -3t-11.5 -3t-11 -4q-2 0 -3 -0.5t-3 -0.5q0 -1 -2 -1.5t-1 0.5l-10 -6t-11 -2z" />
    <glyph glyph-name="icircumflex" unicode="&#xee;" 
d="M60 165q-2 -3 -6 -5l-4 -3l-11 -10q-13 -13 -24.5 -26.5t-21.5 -28.5q-11 -15 -18 -31q-5 -8 -9 -17t-6 -18q-2 -8 -2 -11l-1 -3q5 0 8 1l12 3q6 2 11.5 4t10.5 4l7 3q3 0 5 1q-3 0 3 2q2 2 4.5 2t6.5 2l20 10q16 7 37 20q2 2 5 3t5 3l58 36q8 6 17 11.5t17 10.5l9 7
q15 10 33 19q3 1 7.5 -0.5t8.5 -3.5t5.5 -5.5t-1.5 -7.5q-5 -5 -12 -10t-15 -10l-6 -3h1l-15 -10q-3 -2 -7.5 -4.5t-6.5 -4.5q-25 -17 -51 -33t-59 -33q-9 -5 -21 -10.5t-22 -9.5q-12 -5 -25.5 -10t-27.5 -7q-12 -3 -27.5 -1t-22.5 16q-5 11 -1 23q2 8 5.5 17t8.5 17
q9 17 19 33.5t21 30.5q5 7 11 14t13 13l15 14l4 4l14 9q8 4 16 -1h-1q2 -2 4.5 -5t1.5 -7h3l-3 -3v-1zM103 221q1 -3 0 -6t-5 -4q-11 -2 -19 5t-15 17q-7 -4 -14 -8.5t-14 -9.5q-4 -2 -9.5 -1.5t-10 3.5t-6 7t3.5 8t10 7l10 6l22 12q14 5 23 -5q5 -5 8 -10.5t7 -10.5
l4.5 -4.5t4.5 -5.5z" />
    <glyph glyph-name="idieresis" unicode="&#xef;" 
d="M60 165q-2 -3 -6 -5l-4 -3l-11 -10q-13 -13 -24.5 -26.5t-21.5 -28.5q-11 -15 -18 -31q-5 -8 -9 -17t-6 -18q-2 -8 -2 -11l-1 -3q5 0 8 1l12 3q6 2 11.5 4t10.5 4l7 3q3 0 5 1q-3 0 3 2q2 2 4.5 2t6.5 2l20 10q16 7 37 20q2 2 5 3t5 3l58 36q8 6 17 11.5t17 10.5l9 7
q15 10 33 19q3 1 7.5 -0.5t8.5 -3.5t5.5 -5.5t-1.5 -7.5q-5 -5 -12 -10t-15 -10l-6 -3h1l-15 -10q-3 -2 -7.5 -4.5t-6.5 -4.5q-25 -17 -51 -33t-59 -33q-9 -5 -21 -10.5t-22 -9.5q-12 -5 -25.5 -10t-27.5 -7q-12 -3 -27.5 -1t-22.5 16q-5 11 -1 23q2 8 5.5 17t8.5 17
q9 17 19 33.5t21 30.5q5 7 11 14t13 13l15 14l4 4l14 9q8 4 16 -1h-1q2 -2 4.5 -5t1.5 -7h3l-3 -3v-1zM113 231q2 -2 2 -5q0 -5 -6 -11q-3 -5 -8.5 -4t-9.5 3t-7 5.5t0 7.5l3 4l1 1v1v-1v2q2 4 7 4t9 -1q4 -2 9 -6zM87 232h1h-1zM87 232v-1l-2 -2zM72 228q0 -3 -1 -4l1 1
l-6 -7q-2 -4 -6.5 -4t-8.5 1q-5 0 -7 2q-1 0 -1 1v2l-1 1q-5 5 -1 9l3 5q3 4 9 4q13 2 18 -9q1 -1 1 -2z" />
    <glyph glyph-name="ntilde" unicode="&#xf1;" horiz-adv-x="289" 
d="M43 188q5 0 10.5 -2t7.5 -7t-1 -8t-8 -3h-3q2 0 3.5 0.5t3.5 0.5q-4 -1 -6 -3t-3 -4t-3 -4q-2 -5 -4.5 -9.5t-4.5 -9.5t-4.5 -9t-4.5 -9q-4 -6 -7.5 -11.5t-7.5 -11.5q-17 -25 -32.5 -51t-27.5 -54q-7 2 -13.5 5t-14.5 5q21 25 41 50t43 48q20 23 44.5 43.5t55.5 29.5
q5 2 13 -1t10 -10q1 -14 -4 -26.5t-11 -24.5q-7 -13 -14.5 -25t-12.5 -26q-3 -7 -5 -12.5t-3 -13.5q-4 -10 2 -17q1 -2 0 -0.5t1 -0.5l2 -2q-3 3 -3 2.5t1 -0.5q2 -1 -1 0.5t-1 0.5q1 0 -2.5 0.5t-0.5 0.5q-5 1 -4 0.5t3 -0.5q-5 1 -4 0.5t3 -0.5q1 0 3 0.5t-3 -0.5q2 1 3 1
t3 1q2 0 8 2q1 1 1.5 1t1.5 1q-2 -2 -0.5 -1t2.5 1q5 2 9.5 5t9.5 5q11 6 22 12.5t22 13.5q23 15 45.5 29.5t45.5 31.5q9 7 18 13t19 14q5 5 13 10q4 2 5 3q2 1 3 2t-1 -1q7 7 18 1q4 -1 7.5 -5.5t-0.5 -8.5q-17 -15 -34.5 -28t-36.5 -27q-43 -30 -94 -61
q-11 -6 -20.5 -11.5t-20.5 -10.5q-18 -10 -36 -13q-23 -4 -36 16q-7 12 -4.5 25t7.5 25q5 14 13 26.5t16 26.5q3 6 6.5 12.5t5.5 14.5q1 3 1.5 6.5t1.5 6.5v2q1 2 0.5 0.5t-0.5 0.5v6l12 -6t11 -5q-27 -9 -51 -29.5t-44 -41.5q-20 -23 -39 -47t-40 -47q-3 -5 -8.5 -4
t-10.5 3q-3 1 -6.5 4t-1.5 7q14 32 30.5 60t35.5 55q2 4 4.5 7t4.5 8l3 3q-1 -1 -1 0q2 2 2 4q4 10 11 20q5 9 12 19.5t19 10.5zM141 246q8 -6 4 -13q-10 -14 -30 -17.5t-36 3.5q-4 2 -10 8h-1q-2 0 -6 -2q-2 0 -8 -4q-2 -1 -9 -1l-1 -1q-4 0 -8.5 2t-6.5 6q-3 7 3 12
q3 3 8 5q7 4 18 6q9 1 18.5 -1.5t16.5 -10.5h4h3q-3 0 -2 0.5t2 0.5q2 0 6 2q1 1 2 1q2 0 4 2q3 1 9 5q5 2 10.5 1t9.5 -4z" />
    <glyph glyph-name="ograve" unicode="&#xf2;" 
d="M45 234q-3 2 -6.5 6t0.5 9q2 3 7 3.5t9 -1.5q9 -2 17.5 -5.5t16.5 -7.5q6 -2 12.5 -4.5t11.5 -7.5q4 -3 5.5 -8t-3.5 -8t-12 -2t-12 5q0 1 2 -0.5t-1 0.5q-1 0 -5 2t-14 6l-14 6t-14 7zM246 171q3 2 8.5 1.5t10 -3.5t5.5 -6.5t-3 -7.5q-14 -11 -29.5 -19t-32.5 -15
t-34 -12.5t-35 -9.5q-7 -1 -16 -2.5t-18 -2.5q-4 -5 -7.5 -10.5t-8.5 -10.5q-15 -20 -31 -37q-10 -11 -21 -20.5t-25 -14.5q-13 -5 -27 -7t-27 6t-16 22q-2 6 -1.5 12.5t2.5 12.5q5 20 14.5 37.5t20.5 33.5q13 17 28 31t33 25q5 2 10.5 1t9.5 -4q6 -5 4 -11t-9 -6
q-24 -20 -46 -48q-11 -14 -19.5 -29.5t-13.5 -32.5q-1 -3 -2 -6.5t-1 -7.5v-1v-3v-4q0 -2 2 -6h1h3q1 0 1 0.5t1 0.5q2 0 2.5 0.5t2.5 0.5q1 0 3 1.5t0 -0.5l5 3q12 6 21 14t19 18q8 10 16.5 19.5t16.5 20.5q2 3 4 5.5t4 4.5l-3 3q-8 9 -8 25q0 5 0.5 10t2.5 10q5 15 18 23
q10 5 20.5 2.5t16.5 -11.5q8 -11 6.5 -22.5t-6.5 -22.5v-1h2q18 4 35.5 9.5t34.5 12.5l30 14q7 4 13.5 7t12.5 8zM-31 16h2h-2zM92 157q0 1 -0.5 1.5t0.5 -1.5zM92 160h-1h1zM-25 16q-2 0 0 0.5t0 -0.5z" />
    <glyph glyph-name="oacute" unicode="&#xf3;" 
d="M25 201q-5 1 -10 4.5t-3 9.5q1 2 4 4t5 4q9 5 22 10l12 4l12 4q2 0 6 2q1 0 2 0.5t2 0.5q5 3 10 5t10.5 0.5t9.5 -4.5q3 -2 5.5 -6.5t-1.5 -7.5q-5 -4 -11 -6t-11 -4q-6 -2 -11.5 -3t-11.5 -3t-11 -4q-2 0 -3 -0.5t-3 -0.5q0 -1 -2 -1.5t-1 0.5l-10 -6t-11 -2zM246 171
q3 2 8.5 1.5t10 -3.5t5.5 -6.5t-3 -7.5q-14 -11 -29.5 -19t-32.5 -15t-34 -12.5t-35 -9.5q-7 -1 -16 -2.5t-18 -2.5q-4 -5 -7.5 -10.5t-8.5 -10.5q-15 -20 -31 -37q-10 -11 -21 -20.5t-25 -14.5q-13 -5 -27 -7t-27 6t-16 22q-2 6 -1.5 12.5t2.5 12.5q5 20 14.5 37.5
t20.5 33.5q13 17 28 31t33 25q5 2 10.5 1t9.5 -4q6 -5 4 -11t-9 -6q-24 -20 -46 -48q-11 -14 -19.5 -29.5t-13.5 -32.5q-1 -3 -2 -6.5t-1 -7.5v-1v-3v-4q0 -2 2 -6h1h3q1 0 1 0.5t1 0.5q2 0 2.5 0.5t2.5 0.5q1 0 3 1.5t0 -0.5l5 3q12 6 21 14t19 18q8 10 16.5 19.5
t16.5 20.5q2 3 4 5.5t4 4.5l-3 3q-8 9 -8 25q0 5 0.5 10t2.5 10q5 15 18 23q10 5 20.5 2.5t16.5 -11.5q8 -11 6.5 -22.5t-6.5 -22.5v-1h2q18 4 35.5 9.5t34.5 12.5l30 14q7 4 13.5 7t12.5 8zM-31 16h2h-2zM92 157q0 1 -0.5 1.5t0.5 -1.5zM92 160h-1h1zM-25 16q-2 0 0 0.5
t0 -0.5z" />
    <glyph glyph-name="ocircumflex" unicode="&#xf4;" 
d="M126 222q1 -3 0 -6t-5 -4q-11 -2 -19 5t-15 17q-7 -4 -14 -8.5t-14 -9.5q-4 -2 -9.5 -1.5t-10 3.5t-6 7t3.5 8t10 7l10 6l22 12q14 5 23 -5q5 -5 8 -10.5t7 -10.5l4.5 -4.5t4.5 -5.5zM246 171q3 2 8.5 1.5t10 -3.5t5.5 -6.5t-3 -7.5q-14 -11 -29.5 -19t-32.5 -15
t-34 -12.5t-35 -9.5q-7 -1 -16 -2.5t-18 -2.5q-4 -5 -7.5 -10.5t-8.5 -10.5q-15 -20 -31 -37q-10 -11 -21 -20.5t-25 -14.5q-13 -5 -27 -7t-27 6t-16 22q-2 6 -1.5 12.5t2.5 12.5q5 20 14.5 37.5t20.5 33.5q13 17 28 31t33 25q5 2 10.5 1t9.5 -4q6 -5 4 -11t-9 -6
q-24 -20 -46 -48q-11 -14 -19.5 -29.5t-13.5 -32.5q-1 -3 -2 -6.5t-1 -7.5v-1v-3v-4q0 -2 2 -6h1h3q1 0 1 0.5t1 0.5q2 0 2.5 0.5t2.5 0.5q1 0 3 1.5t0 -0.5l5 3q12 6 21 14t19 18q8 10 16.5 19.5t16.5 20.5q2 3 4 5.5t4 4.5l-3 3q-8 9 -8 25q0 5 0.5 10t2.5 10q5 15 18 23
q10 5 20.5 2.5t16.5 -11.5q8 -11 6.5 -22.5t-6.5 -22.5v-1h2q18 4 35.5 9.5t34.5 12.5l30 14q7 4 13.5 7t12.5 8zM-31 16h2h-2zM92 157q0 1 -0.5 1.5t0.5 -1.5zM92 160h-1h1zM-25 16q-2 0 0 0.5t0 -0.5z" />
    <glyph glyph-name="otilde" unicode="&#xf5;" 
d="M246 171q3 2 8.5 1.5t10 -3.5t5.5 -6.5t-3 -7.5q-14 -11 -29.5 -19t-32.5 -15t-34 -12.5t-35 -9.5q-7 -1 -16 -2.5t-18 -2.5q-4 -5 -7.5 -10.5t-8.5 -10.5q-15 -20 -31 -37q-10 -11 -21 -20.5t-25 -14.5q-13 -5 -27 -7t-27 6t-16 22q-2 6 -1.5 12.5t2.5 12.5
q5 20 14.5 37.5t20.5 33.5q13 17 28 31t33 25q5 2 10.5 1t9.5 -4q6 -5 4 -11t-9 -6q-24 -20 -46 -48q-11 -14 -19.5 -29.5t-13.5 -32.5q-1 -3 -2 -6.5t-1 -7.5v-1v-3v-4q0 -2 2 -6h1h3q1 0 1 0.5t1 0.5q2 0 2.5 0.5t2.5 0.5q1 0 3 1.5t0 -0.5l5 3q12 6 21 14t19 18
q8 10 16.5 19.5t16.5 20.5q2 3 4 5.5t4 4.5l-3 3q-8 9 -8 25q0 5 0.5 10t2.5 10q5 15 18 23q10 5 20.5 2.5t16.5 -11.5q8 -11 6.5 -22.5t-6.5 -22.5v-1h2q18 4 35.5 9.5t34.5 12.5l30 14q7 4 13.5 7t12.5 8zM-31 16h2h-2zM92 157q0 1 -0.5 1.5t0.5 -1.5zM92 160h-1h1z
M-25 16q-2 0 0 0.5t0 -0.5zM142 237q8 -6 4 -13q-10 -14 -30 -17.5t-36 3.5q-4 2 -10 8h-1q-2 0 -6 -2q-2 0 -8 -4q-2 -1 -9 -1l-1 -1q-4 0 -8.5 2t-6.5 6q-3 7 3 12q3 3 8 5q7 4 18 6q9 1 18.5 -1.5t16.5 -10.5h4h3q-3 0 -2 0.5t2 0.5q2 0 6 2q1 1 2 1q2 0 4 2q3 1 9 5
q5 2 10.5 1t9.5 -4z" />
    </font>
</defs>
</svg>
